<svg width="20" height="20" viewBox="0 0 20 20" fill="none" xmlns="http://www.w3.org/2000/svg">
<path fill-rule="evenodd" clip-rule="evenodd" d="M7.5 10C7.5 8.61928 8.61928 7.5 10 7.5C11.3807 7.5 12.5 8.61928 12.5 10C12.5 11.3807 11.3807 12.5 10 12.5C8.61928 12.5 7.5 11.3807 7.5 10ZM10 8.75C9.30966 8.75 8.75 9.30966 8.75 10C8.75 10.6903 9.30966 11.25 10 11.25C10.6903 11.25 11.25 10.6903 11.25 10C11.25 9.30966 10.6903 8.75 10 8.75Z" fill="#004225"/>
<path fill-rule="evenodd" clip-rule="evenodd" d="M16.875 7.5C15.4943 7.5 14.375 8.61928 14.375 10C14.375 11.3807 15.4943 12.5 16.875 12.5C18.2557 12.5 19.375 11.3807 19.375 10C19.375 8.61928 18.2557 7.5 16.875 7.5ZM15.625 10C15.625 9.30966 16.1847 8.75 16.875 8.75C17.5653 8.75 18.125 9.30966 18.125 10C18.125 10.6903 17.5653 11.25 16.875 11.25C16.1847 11.25 15.625 10.6903 15.625 10Z" fill="#004225"/>
<path fill-rule="evenodd" clip-rule="evenodd" d="M0.625 10C0.625 8.61928 1.74429 7.5 3.125 7.5C4.50572 7.5 5.625 8.61928 5.625 10C5.625 11.3807 4.50572 12.5 3.125 12.5C1.74429 12.5 0.625 11.3807 0.625 10ZM3.125 8.75C2.43464 8.75 1.875 9.30966 1.875 10C1.875 10.6903 2.43464 11.25 3.125 11.25C3.81534 11.25 4.375 10.6903 4.375 10C4.375 9.30966 3.81534 8.75 3.125 8.75Z" fill="#004225"/>
</svg>
