<svg width="20" height="20" viewBox="0 0 20 20" fill="none" xmlns="http://www.w3.org/2000/svg">
<path d="M15.3035 12.9465L14.1252 11.7665L15.3035 10.5882C16.0793 9.80563 16.5135 8.74764 16.5111 7.64573C16.5086 6.54383 16.0698 5.48774 15.2907 4.70858C14.5115 3.92941 13.4554 3.49061 12.3535 3.4882C11.2516 3.48579 10.1936 3.91996 9.41105 4.6957L8.23188 5.87487L7.05355 4.69653L8.23188 3.5182C9.3259 2.42418 10.8097 1.80957 12.3569 1.80957C13.9041 1.80957 15.3879 2.42418 16.4819 3.5182C17.5759 4.61222 18.1905 6.09603 18.1905 7.6432C18.1905 9.19038 17.5759 10.6742 16.4819 11.7682L15.3035 12.9465ZM12.946 15.3032L11.7677 16.4815C10.6737 17.5756 9.18989 18.1902 7.64271 18.1902C6.09554 18.1902 4.61173 17.5756 3.51771 16.4815C2.4237 15.3875 1.80908 13.9037 1.80908 12.3565C1.80908 10.8094 2.4237 9.32555 3.51771 8.23153L4.69688 7.0532L5.87521 8.2332L4.69688 9.41153C3.93177 10.1962 3.5066 11.2507 3.51347 12.3466C3.52033 13.4425 3.95869 14.4915 4.73357 15.2665C5.50845 16.0415 6.55746 16.48 7.65336 16.487C8.74926 16.4941 9.8038 16.069 10.5885 15.304L11.7677 14.1257L12.946 15.3032ZM12.3569 6.46403L13.536 7.6432L7.64271 13.5349L6.46438 12.3565L12.3569 6.46403Z" fill="#000"/>
</svg>
