<svg width="48" height="48" viewBox="0 0 48 48" fill="none" xmlns="http://www.w3.org/2000/svg">
<path d="M0 24C0 10.7452 10.7452 0 24 0C37.2548 0 48 10.7452 48 24C48 37.2548 37.2548 48 24 48C10.7452 48 0 37.2548 0 24Z" fill="#FBEAE4"/>
<path fill-rule="evenodd" clip-rule="evenodd" d="M24.0001 12.334C20.7784 12.334 18.1667 14.9457 18.1667 18.1673C18.1667 21.389 20.7784 24.0007 24.0001 24.0007C27.2217 24.0007 29.8334 21.389 29.8334 18.1673C29.8334 14.9457 27.2217 12.334 24.0001 12.334ZM20.5001 18.1673C20.5001 16.2343 22.067 14.6673 24.0001 14.6673C25.9331 14.6673 27.5001 16.2343 27.5001 18.1673C27.5001 20.1003 25.9331 21.6673 24.0001 21.6673C22.067 21.6673 20.5001 20.1003 20.5001 18.1673Z" fill="#E22900"/>
<path d="M17.0001 34.4993C17.0001 30.6334 20.1341 27.4993 24.0001 27.4993C24.6444 27.4993 25.1667 26.977 25.1667 26.3327C25.1667 25.6883 24.6444 25.166 24.0001 25.166C18.8454 25.166 14.6667 29.3447 14.6667 34.4993C14.6667 35.1437 15.1891 35.666 15.8334 35.666C16.4777 35.666 17.0001 35.1437 17.0001 34.4993Z" fill="#E22900"/>
<path fill-rule="evenodd" clip-rule="evenodd" d="M32.9915 27.8417C33.4471 28.2973 33.4471 29.036 32.9915 29.4916L31.4831 31L32.9915 32.5084C33.4471 32.9639 33.4471 33.7027 32.9915 34.1583C32.5359 34.6138 31.7972 34.6138 31.3416 34.1583L29.8332 32.6499L28.3248 34.1583C27.8693 34.6138 27.1305 34.6138 26.6749 34.1583C26.2194 33.7027 26.2194 32.9639 26.6749 32.5084L28.1833 31L26.6749 29.4916C26.2194 29.036 26.2194 28.2973 26.6749 27.8417C27.1305 27.3861 27.8693 27.3861 28.3248 27.8417L29.8332 29.3501L31.3416 27.8417C31.7972 27.3861 32.5359 27.3861 32.9915 27.8417Z" fill="#E22900"/>
</svg>
