<svg width="36" height="36" viewBox="0 0 36 36" fill="none" xmlns="http://www.w3.org/2000/svg">
<path d="M0 18C0 8.05888 8.05888 0 18 0C27.9411 0 36 8.05888 36 18C36 27.9411 27.9411 36 18 36C8.05888 36 0 27.9411 0 18Z" fill="#FBEAE4"/>
<path d="M16.3337 12.1667H19.667C19.667 11.7246 19.4914 11.3007 19.1788 10.9882C18.8663 10.6756 18.4424 10.5 18.0003 10.5C17.5583 10.5 17.1344 10.6756 16.8218 10.9882C16.5093 11.3007 16.3337 11.7246 16.3337 12.1667ZM15.0837 12.1667C15.0837 11.7836 15.1591 11.4044 15.3057 11.0505C15.4523 10.6966 15.6671 10.3751 15.9379 10.1043C16.2088 9.83343 16.5303 9.61859 16.8842 9.47202C17.238 9.32544 17.6173 9.25 18.0003 9.25C18.3833 9.25 18.7626 9.32544 19.1165 9.47202C19.4704 9.61859 19.7919 9.83343 20.0627 10.1043C20.3336 10.3751 20.5484 10.6966 20.695 11.0505C20.8416 11.4044 20.917 11.7836 20.917 12.1667H25.7087C25.8744 12.1667 26.0334 12.2325 26.1506 12.3497C26.2678 12.4669 26.3337 12.6259 26.3337 12.7917C26.3337 12.9574 26.2678 13.1164 26.1506 13.2336C26.0334 13.3508 25.8744 13.4167 25.7087 13.4167H24.6087L23.6337 23.5092C23.5589 24.2825 23.1987 25.0002 22.6234 25.5224C22.0481 26.0445 21.2989 26.3336 20.522 26.3333H15.4787C14.7019 26.3334 13.9529 26.0442 13.3778 25.5221C12.8027 24.9999 12.4426 24.2823 12.3678 23.5092L11.392 13.4167H10.292C10.1262 13.4167 9.96726 13.3508 9.85005 13.2336C9.73284 13.1164 9.66699 12.9574 9.66699 12.7917C9.66699 12.6259 9.73284 12.4669 9.85005 12.3497C9.96726 12.2325 10.1262 12.1667 10.292 12.1667H15.0837ZM16.7503 16.125C16.7503 15.9592 16.6845 15.8003 16.5673 15.6831C16.4501 15.5658 16.2911 15.5 16.1253 15.5C15.9596 15.5 15.8006 15.5658 15.6834 15.6831C15.5662 15.8003 15.5003 15.9592 15.5003 16.125V22.375C15.5003 22.5408 15.5662 22.6997 15.6834 22.8169C15.8006 22.9342 15.9596 23 16.1253 23C16.2911 23 16.4501 22.9342 16.5673 22.8169C16.6845 22.6997 16.7503 22.5408 16.7503 22.375V16.125ZM19.8753 15.5C20.0411 15.5 20.2001 15.5658 20.3173 15.6831C20.4345 15.8003 20.5003 15.9592 20.5003 16.125V22.375C20.5003 22.5408 20.4345 22.6997 20.3173 22.8169C20.2001 22.9342 20.0411 23 19.8753 23C19.7096 23 19.5506 22.9342 19.4334 22.8169C19.3162 22.6997 19.2503 22.5408 19.2503 22.375V16.125C19.2503 15.9592 19.3162 15.8003 19.4334 15.6831C19.5506 15.5658 19.7096 15.5 19.8753 15.5ZM13.612 23.3892C13.6569 23.853 13.873 24.2835 14.2181 24.5968C14.5632 24.91 15.0126 25.0834 15.4787 25.0833H20.522C20.988 25.0834 21.4374 24.91 21.7825 24.5968C22.1276 24.2835 22.3437 23.853 22.3887 23.3892L23.3537 13.4167H12.647L13.612 23.3892Z" fill="#E22900"/>
</svg>
