<svg width="200" height="200" viewBox="0 0 200 200" fill="none" xmlns="http://www.w3.org/2000/svg">
<path d="M0 100C0 44.7715 44.7715 0 100 0C155.228 0 200 44.7715 200 100C200 155.228 155.228 200 100 200C44.7715 200 0 155.228 0 100Z" fill="#F8FAFA"/>
<path fill-rule="evenodd" clip-rule="evenodd" d="M58.75 89.9245L44.3506 112.964C43.9706 113.55 43.75 114.249 43.75 115V145C43.75 151.213 48.7868 156.25 55 156.25H145C151.213 156.25 156.25 151.213 156.25 145V115C156.25 114.249 156.029 113.55 155.649 112.963L141.25 89.9245V55C141.25 48.7868 136.213 43.75 130 43.75H70C63.7868 43.75 58.75 48.7868 58.75 55V89.9245ZM127.698 118.75C126.134 118.75 124.735 119.72 124.186 121.183L122.211 126.45C120.565 130.841 116.367 133.75 111.677 133.75H88.3225C83.6329 133.75 79.4354 130.841 77.7887 126.45L75.8138 121.183C75.2648 119.72 73.8657 118.75 72.3025 118.75H51.25V145C51.25 147.071 52.9289 148.75 55 148.75H145C147.071 148.75 148.75 147.071 148.75 145V118.75H127.698ZM133.75 55V111.25H127.698C123.008 111.25 118.81 114.159 117.164 118.55L115.189 123.817C114.64 125.28 113.241 126.25 111.677 126.25H88.3225C86.7593 126.25 85.3602 125.28 84.8112 123.817L82.8363 118.55C81.1896 114.159 76.9921 111.25 72.3025 111.25H66.25V55C66.25 52.9289 67.9289 51.25 70 51.25H130C132.071 51.25 133.75 52.9289 133.75 55ZM58.75 111.25V104.076L54.2659 111.25H58.75ZM141.25 104.076V111.25H145.734L141.25 104.076Z" fill="#868989"/>
<path fill-rule="evenodd" clip-rule="evenodd" d="M100 62.5C113.462 62.5 124.375 73.4131 124.375 86.875C124.375 100.337 113.462 111.25 100 111.25C86.5381 111.25 75.625 100.337 75.625 86.875C75.625 73.4131 86.5381 62.5 100 62.5ZM108.984 72.5877C106.382 70.9484 103.302 70 100 70C90.6801 70 83.125 77.5551 83.125 86.875C83.125 90.1771 84.0734 93.2575 85.7127 95.8591L108.984 72.5877ZM114.287 77.8909L91.0159 101.162C93.6175 102.802 96.6979 103.75 100 103.75C109.32 103.75 116.875 96.1949 116.875 86.875C116.875 83.5729 115.927 80.4925 114.287 77.8909Z" fill="#E22900"/>
</svg>
