<svg width="36" height="36" viewBox="0 0 36 36" fill="none" xmlns="http://www.w3.org/2000/svg">
<path d="M0 18C0 8.05888 8.05888 0 18 0C27.9411 0 36 8.05888 36 18C36 27.9411 27.9411 36 18 36C8.05888 36 0 27.9411 0 18Z" fill="#E4EDEA"/>
<g clip-path="url(#clip0_26176_3343)">
<path fill-rule="evenodd" clip-rule="evenodd" d="M24.1703 16.3046L23.2864 15.4207L14.0188 24.6884C13.9198 24.7874 13.7981 24.8584 13.666 24.8965L11.1039 22.3344C11.142 22.2023 11.213 22.0806 11.312 21.9816L20.5797 12.714L19.6958 11.8301L10.4281 21.0977C10.0625 21.4634 9.84774 21.9518 9.82408 22.4661L8.64906 26.5787C8.58671 26.7969 8.64758 27.0318 8.80808 27.1923C8.96857 27.3528 9.20347 27.4137 9.42172 27.3513L13.5343 26.1763C14.0486 26.1526 14.537 25.9379 14.9027 25.5723L24.1703 16.3046ZM10.16 25.8404L10.756 23.7543L12.2461 25.2443L10.16 25.8404Z" fill="#004225"/>
<path fill-rule="evenodd" clip-rule="evenodd" d="M26.4482 9.5517C25.2126 8.3161 23.2093 8.3161 21.9737 9.55171L20.5796 10.9458L25.0541 15.4204L26.4482 14.0262C27.6838 12.7906 27.6838 10.7873 26.4482 9.5517ZM25.1086 13.5981L22.4019 10.8913L22.8576 10.4356C23.6051 9.68814 24.8169 9.68814 25.5644 10.4356C26.3118 11.183 26.3118 12.3949 25.5644 13.1423L25.1086 13.5981Z" fill="#004225"/>
</g>
<defs>
<clipPath id="clip0_26176_3343">
<rect width="20" height="20" fill="white" transform="translate(8 8)"/>
</clipPath>
</defs>
</svg>
