<svg width="33" height="32" viewBox="0 0 33 32" fill="none" xmlns="http://www.w3.org/2000/svg">
<path d="M23.8249 15C23.8749 15.075 23.9999 15.025 23.9999 14.95C24.1499 13.6 24.5499 9.87501 27.1999 9.07501C28.0499 8.82501 28.8999 9.42501 28.9999 10.2C29.1749 11.45 27.7499 14.675 27.8749 17.625C27.8999 18.1 28.6999 23.125 26.5749 26.1C24.4499 29.075 19.3999 32.1 14.3749 27.5C11.7749 25.125 11.7749 24.175 8.5499 20.85C7.8999 20.2 5.2999 17.35 4.5999 16.475C3.6749 15.3 5.1499 13.75 6.2749 14.55C6.7999 14.925 11.4499 18.825 11.6249 19C11.9749 19.3 12.3999 18.875 12.1499 18.575C9.2999 14.825 6.5499 11.45 5.7999 10.15C5.0499 8.85001 6.8499 7.45001 7.8999 8.57501C8.6249 9.32501 13.9999 15.6 14.2499 15.875C14.4999 16.15 14.9249 15.8 14.7749 15.45C14.5999 15.125 10.2499 7.55001 9.4749 5.82501C8.7999 4.30001 11.0499 2.87501 12.0999 4.45001C12.9499 5.70001 17.6999 13.6 17.8749 13.875C18.0999 14.275 18.5999 14.025 18.3999 13.575C18.2499 13.25 15.3249 5.25001 15.0999 4.42501C14.6999 2.97501 16.7749 1.77501 17.7499 3.42501C19.0749 5.70001 21.6999 12.65 23.8249 15Z" fill="#FFCA28"/>
<mask id="mask0_26290_4018" style="mask-type:luminance" maskUnits="userSpaceOnUse" x="4" y="2" width="26" height="28">
<path d="M23.8249 15C23.8749 15.075 23.9999 15.025 23.9999 14.95C24.1499 13.6 24.5499 9.87501 27.1999 9.07501C28.0499 8.82501 28.8999 9.42501 28.9999 10.2C29.1749 11.45 27.7499 14.675 27.8749 17.625C27.8999 18.1 28.6999 23.125 26.5749 26.1C24.4499 29.075 19.3999 32.1 14.3749 27.5C11.7749 25.125 11.7749 24.175 8.5499 20.85C7.8999 20.2 5.2999 17.35 4.5999 16.475C3.6749 15.3 5.1499 13.75 6.2749 14.55C6.7999 14.925 11.4499 18.825 11.6249 19C11.9749 19.3 12.3999 18.875 12.1499 18.575C9.2999 14.825 6.5499 11.45 5.7999 10.15C5.0499 8.85001 6.8499 7.45001 7.8999 8.57501C8.6249 9.32501 13.9999 15.6 14.2499 15.875C14.4999 16.15 14.9249 15.8 14.7749 15.45C14.5999 15.125 10.2499 7.55001 9.4749 5.82501C8.7999 4.30001 11.0499 2.87501 12.0999 4.45001C12.9499 5.70001 17.6999 13.6 17.8749 13.875C18.0999 14.275 18.5999 14.025 18.3999 13.575C18.2499 13.25 15.3249 5.25001 15.0999 4.42501C14.6999 2.97501 16.7749 1.77501 17.7499 3.42501C19.0749 5.70001 21.6999 12.65 23.8249 15Z" fill="white"/>
</mask>
<g mask="url(#mask0_26290_4018)">
<path d="M23.2999 15.05C20.1999 17.575 18.8249 21.175 21.3749 24.925C21.5999 25.25 22.0749 24.95 21.8749 24.575C20.8249 22.7 20.0499 19.325 23.6749 15.8C24.0999 16 24.5999 15.575 24.6249 15.2C24.8999 12.85 25.1749 10.9 26.9249 9.80002C27.5999 9.37502 28.4749 9.67502 28.5249 10.7C28.5249 10.7 29.0749 10.75 29.2999 10.775C29.4249 10.25 29.6749 9.30002 29.6749 9.27502C29.6749 9.25002 26.7249 8.15002 26.7249 8.15002L24.1499 10.7L23.2999 15.05ZM18.2999 14.025C18.6499 13.85 18.9499 13.575 18.7999 13.2C18.6499 12.8 15.8749 5.25002 15.6999 4.67502C15.3499 3.62502 16.2249 2.80002 16.9999 3.15002C17.4249 3.35002 17.6249 2.67502 17.3999 2.57502C17.1749 2.47502 16.6499 2.00002 15.5999 2.52502C13.7249 3.47502 14.8249 5.57502 15.3249 6.80002C15.8249 8.02502 18.2999 14.025 18.2999 14.025ZM14.6749 15.9C15.0999 15.6 15.4249 15.35 15.0499 14.75C14.7999 14.35 10.5749 6.67502 10.1499 5.92502C9.52491 4.85002 10.8249 3.90002 11.5499 4.57502C11.8749 4.87502 12.3749 4.22502 12.1249 3.97502C11.8749 3.72502 10.9999 3.00002 9.89991 3.72502C8.79991 4.45002 8.77491 5.32502 8.92491 5.70002C9.04991 6.07502 14.6749 15.9 14.6749 15.9ZM12.1749 18.975C12.4749 18.525 12.6749 18.3 12.2499 17.725C11.8249 17.15 6.77491 10.55 6.49991 10.175C5.79991 9.25002 6.82491 8.45002 7.32491 8.72502C7.79991 9.00002 8.07491 8.22502 7.67491 8.02502C7.27491 7.82502 6.62491 7.60002 6.02491 8.02502C5.42491 8.45002 5.07491 9.32502 5.17491 9.82502C5.24991 10.325 12.1749 18.975 12.1749 18.975Z" fill="#FAA700"/>
<path d="M23.7 28.4C19.65 30.325 16.625 28.825 14.675 26.925C12.45 24.75 11.4 22.75 9.92495 21.4C9.42495 20.925 5.47495 16.725 4.99995 16C4.62495 15.4 5.37495 14.375 6.19995 14.95C6.72495 15.3 6.97495 14.55 6.62495 14.35C6.27495 14.15 5.49995 13.725 4.67495 14.35C3.84995 14.95 3.82495 16.025 4.02495 16.375C4.22495 16.725 16.375 30.675 16.375 30.675L21.325 30.55L23.975 28.925L23.7 28.4Z" fill="#FAA700"/>
</g>
<mask id="mask1_26290_4018" style="mask-type:luminance" maskUnits="userSpaceOnUse" x="4" y="2" width="26" height="28">
<path d="M23.8249 15C23.8749 15.075 23.9999 15.025 23.9999 14.95C24.1499 13.6 24.5499 9.87501 27.1999 9.07501C28.0499 8.82501 28.8999 9.42501 28.9999 10.2C29.1749 11.45 27.7499 14.675 27.8749 17.625C27.8999 18.1 28.6999 23.125 26.5749 26.1C24.4499 29.075 19.3999 32.1 14.3749 27.5C11.7749 25.125 11.7749 24.175 8.5499 20.85C7.8999 20.2 5.2999 17.35 4.5999 16.475C3.6749 15.3 5.1499 13.75 6.2749 14.55C6.7999 14.925 11.4499 18.825 11.6249 19C11.9749 19.3 12.3999 18.875 12.1499 18.575C9.2999 14.825 6.5499 11.45 5.7999 10.15C5.0499 8.85001 6.8499 7.45001 7.8999 8.57501C8.6249 9.32501 13.9999 15.6 14.2499 15.875C14.4999 16.15 14.9249 15.8 14.7749 15.45C14.5999 15.125 10.2499 7.55001 9.4749 5.82501C8.7999 4.30001 11.0499 2.87501 12.0999 4.45001C12.9499 5.70001 17.6999 13.6 17.8749 13.875C18.0999 14.275 18.5999 14.025 18.3999 13.575C18.2499 13.25 15.3249 5.25001 15.0999 4.42501C14.6999 2.97501 16.7749 1.77501 17.7499 3.42501C19.0749 5.70001 21.6999 12.65 23.8249 15Z" fill="white"/>
</mask>
<g mask="url(#mask1_26290_4018)">
<path d="M28.3748 9.00002C28.4998 9.32502 28.6498 9.90002 28.4998 10.675C27.9248 13.575 26.9748 15.275 27.2748 18.4C27.8248 24.4 25.7248 28.95 18.4998 29.85C17.7748 29.95 17.9748 30.5 18.3498 30.45C18.5248 30.425 23.6748 29.5 23.6748 29.5C23.6748 29.5 28.4498 25.425 28.4498 25.375C28.4498 25.325 29.6498 9.77502 29.6498 9.77502L28.3748 9.00002ZM15.8748 2.62502C16.1998 2.67502 16.8998 2.95002 17.3998 3.92502C17.8998 4.90002 20.3498 10.525 20.6748 11.125C20.9998 11.725 22.3248 14.7 23.3998 15.6C23.7498 15.875 23.9248 15.4 23.9248 15.4L23.9498 14.625L18.1498 1.42502L16.2248 1.50002L15.8748 2.62502ZM18.2998 14.025C17.8248 14.25 17.4748 14.45 17.1248 13.9C16.8998 13.5 14.4748 9.35002 11.4248 4.50002C11.1748 4.12502 10.5998 3.80002 10.1498 3.97502C9.69978 4.17502 9.59978 3.60002 9.82478 3.47502C10.0498 3.35002 11.4498 2.57502 12.3998 4.17502C13.3498 5.77502 18.2998 14.025 18.2998 14.025ZM14.6748 15.9C14.2998 16.175 13.9248 16.525 13.4498 15.95C12.9998 15.4 7.87478 9.30002 7.57478 8.92502C7.27478 8.55002 6.64978 8.22502 6.17478 8.52502C5.84978 8.72502 5.54978 8.12502 5.74978 7.97502C5.94978 7.82502 7.07478 6.82502 7.82478 7.67502C8.57478 8.52502 14.6748 15.9 14.6748 15.9ZM12.1748 18.975C11.8498 19.325 11.4998 19.525 11.0248 19.175C10.5498 18.825 6.29978 15.25 6.02478 15C5.74978 14.75 4.94978 14.375 4.34978 14.975C4.12478 15.2 3.72478 14.825 3.94978 14.6C4.17478 14.35 5.39978 13.1 6.37478 13.925C7.34978 14.75 12.1748 18.975 12.1748 18.975Z" fill="#B55E19"/>
</g>
<path d="M3.15012 20.325C3.92512 22.625 5.10012 24.05 7.02512 25.35C7.37512 25.6 7.17512 26.1 6.77512 25.925C4.97512 25.2 2.97512 23.6 2.50012 20.425C2.42512 20 3.02512 19.925 3.15012 20.325ZM4.65012 18.95C5.42511 21.25 6.60011 22.675 8.52511 23.975C8.87511 24.225 8.67512 24.725 8.27512 24.55C6.47512 23.825 4.47512 22.225 4.00012 19.05C3.95012 18.625 4.52512 18.55 4.65012 18.95ZM23.8751 8.64999C23.2751 6.29999 22.1751 4.79999 20.3501 3.39999C20.0001 3.14999 20.2501 2.64999 20.6501 2.82499C22.4001 3.64999 24.3001 5.4 24.5501 8.6C24.5751 9.025 23.9751 9.07499 23.8751 8.64999ZM25.5001 7.44999C24.9001 5.09999 23.8001 3.59999 21.9751 2.19999C21.6251 1.94999 21.8751 1.44999 22.2751 1.62499C24.0251 2.44999 25.9251 4.19999 26.1751 7.39999C26.2001 7.79999 25.6251 7.84999 25.5001 7.44999Z" fill="#B0BEC5"/>
</svg>
