<svg width="20" height="20" viewBox="0 0 20 20" fill="none" xmlns="http://www.w3.org/2000/svg">
<path d="M9.70417 17.4251L9.69833 17.4226L9.68 17.4126C9.57274 17.3535 9.46634 17.293 9.36083 17.2309C8.09234 16.4771 6.9069 15.5917 5.82417 14.5892C3.90667 12.8001 1.875 10.1451 1.875 6.87506C1.875 4.43506 3.92833 2.50006 6.40667 2.50006C7.09563 2.49668 7.77648 2.64868 8.3986 2.94473C9.02072 3.24078 9.56809 3.67328 10 4.21006C10.432 3.67317 10.9795 3.24061 11.6018 2.94455C12.224 2.64849 12.9051 2.49656 13.5942 2.50006C16.0717 2.50006 18.125 4.43506 18.125 6.87506C18.125 10.1459 16.0933 12.8009 14.1758 14.5884C13.0931 15.5909 11.9077 16.4763 10.6392 17.2301C10.5337 17.2924 10.4273 17.3533 10.32 17.4126L10.3017 17.4226L10.2958 17.4259L10.2933 17.4267C10.203 17.4746 10.1023 17.4996 10 17.4996C9.89774 17.4996 9.79703 17.4746 9.70667 17.4267L9.70417 17.4251Z" fill="#004225"/>
</svg>
