<svg width="200" height="200" viewBox="0 0 200 200" fill="none" xmlns="http://www.w3.org/2000/svg">
<path d="M0 100C0 44.7715 44.7715 0 100 0C155.228 0 200 44.7715 200 100C200 155.228 155.228 200 100 200C44.7715 200 0 155.228 0 100Z" fill="#F8FAFA"/>
<path d="M125.836 58.1564C123.018 56.6258 119.492 57.6691 117.962 60.4871C116.431 63.3048 117.475 66.8301 120.292 68.3611C134.04 75.8293 142.581 90.1771 142.581 105.806C142.581 129.285 123.479 148.386 100 148.386C76.5212 148.386 57.4195 129.285 57.4195 105.806C57.4195 90.2452 65.9051 75.9273 79.5646 68.4389C82.3768 66.8975 83.4065 63.3679 81.8651 60.556C80.3233 57.7442 76.7937 56.7141 73.9823 58.2555C56.6032 67.7831 45.8066 86.0034 45.8066 105.806C45.8066 135.688 70.1179 159.999 100 159.999C129.883 159.999 154.194 135.688 154.194 105.806C154.194 85.9167 143.328 67.6585 125.836 58.1564Z" fill="#B5B9B9"/>
<path d="M100 90.3226C103.207 90.3226 105.807 87.7228 105.807 84.5161V45.8065C105.807 42.5997 103.207 40 100 40C96.7936 40 94.1938 42.5997 94.1938 45.8065V84.5161C94.1938 87.7228 96.7936 90.3226 100 90.3226Z" fill="#E22900"/>
</svg>
