<svg width="48" height="48" viewBox="0 0 48 48" fill="none" xmlns="http://www.w3.org/2000/svg">
<path d="M0 24C0 10.7452 10.7452 0 24 0C37.2548 0 48 10.7452 48 24C48 37.2548 37.2548 48 24 48C10.7452 48 0 37.2548 0 24Z" fill="#FBEAE4"/>
<path d="M30.0282 14.2368C29.3707 13.8797 28.5481 14.1231 28.191 14.7807C27.8337 15.4381 28.0772 16.2607 28.7347 16.6179C31.9426 18.3605 33.9354 21.7083 33.9354 25.355C33.9354 30.8334 29.4783 35.2905 23.9999 35.2905C18.5215 35.2905 14.0644 30.8334 14.0644 25.355C14.0644 21.7242 16.0444 18.3834 19.2316 16.6361C19.8878 16.2764 20.128 15.4528 19.7684 14.7967C19.4086 14.1406 18.5851 13.9003 17.929 14.2599C13.8739 16.4831 11.3547 20.7345 11.3547 25.355C11.3547 32.3275 17.0274 38.0002 23.9999 38.0002C30.9724 38.0002 36.6451 32.3275 36.6451 25.355C36.6451 20.7142 34.1096 16.454 30.0282 14.2368Z" fill="#E22900"/>
<path d="M23.9999 21.7419C24.7481 21.7419 25.3547 21.1353 25.3547 20.3871V11.3548C25.3547 10.6066 24.7481 10 23.9999 10C23.2516 10 22.645 10.6066 22.645 11.3548V20.3871C22.645 21.1353 23.2516 21.7419 23.9999 21.7419Z" fill="#E22900"/>
</svg>
