<svg width="48" height="30" viewBox="0 0 48 30" fill="none" xmlns="http://www.w3.org/2000/svg">
<path d="M0 15C0 8.42504 0 5.13755 1.81592 2.92485C2.14835 2.51978 2.51978 2.14835 2.92485 1.81592C5.13755 0 8.42504 0 15 0H33C39.575 0 42.8624 0 45.0751 1.81592C45.4802 2.14835 45.8517 2.51978 46.1841 2.92485C48 5.13755 48 8.42504 48 15C48 21.575 48 24.8624 46.1841 27.0751C45.8517 27.4802 45.4802 27.8516 45.0751 28.1841C42.8624 30 39.575 30 33 30H15C8.42504 30 5.13755 30 2.92485 28.1841C2.51978 27.8516 2.14835 27.4802 1.81592 27.0751C0 24.8624 0 21.575 0 15Z" fill="#004225"/>
<g clip-path="url(#clip0_26187_6174)">
<path d="M15.8132 24.9006V23.5769C15.8132 23.0694 15.5042 22.7385 14.9747 22.7385C14.71 22.7385 14.4231 22.8267 14.2245 23.1136C14.0702 22.8709 13.8496 22.7385 13.5186 22.7385C13.2979 22.7385 13.0774 22.8046 12.9008 23.0474V22.7826H12.4375V24.9006H12.9008V23.7313C12.9008 23.3563 13.0994 23.1797 13.4084 23.1797C13.7171 23.1797 13.8717 23.3783 13.8717 23.7313V24.9006H14.335V23.7313C14.335 23.3563 14.5555 23.1797 14.8423 23.1797C15.1513 23.1797 15.3056 23.3783 15.3056 23.7313V24.9006H15.8132ZM22.6746 22.7826H21.9245V22.1428H21.4612V22.7826H21.042V23.2017H21.4611V24.1726C21.4611 24.658 21.6597 24.9447 22.1893 24.9447C22.3878 24.9447 22.6084 24.8786 22.7629 24.7904L22.6305 24.3932C22.4981 24.4814 22.3437 24.5035 22.2334 24.5035C22.0128 24.5035 21.9245 24.3712 21.9245 24.1505V23.2017H22.6746V22.7826ZM26.6018 22.7384C26.3371 22.7384 26.1606 22.8709 26.0503 23.0474V22.7826H25.5869V24.9006H26.0503V23.7093C26.0503 23.3563 26.2046 23.1577 26.4915 23.1577C26.5797 23.1577 26.6901 23.1798 26.7783 23.2018L26.9107 22.7606C26.8224 22.7385 26.6901 22.7385 26.6018 22.7385M20.6669 22.9592C20.4462 22.8047 20.1374 22.7386 19.8064 22.7386C19.277 22.7386 18.924 23.0033 18.924 23.4225C18.924 23.7756 19.1888 23.9741 19.6521 24.0403L19.8727 24.0624C20.1154 24.1064 20.2478 24.1727 20.2478 24.283C20.2478 24.4374 20.0713 24.5478 19.7623 24.5478C19.4534 24.5478 19.2108 24.4374 19.0563 24.3272L18.8357 24.6801C19.0784 24.8566 19.4094 24.9448 19.7402 24.9448C20.358 24.9448 20.7111 24.6581 20.7111 24.2609C20.7111 23.8858 20.4242 23.6873 19.9829 23.6211L19.7623 23.599C19.5637 23.5769 19.4094 23.5329 19.4094 23.4005C19.4094 23.246 19.5637 23.1578 19.8064 23.1578C20.0713 23.1578 20.336 23.2681 20.4684 23.3343L20.6669 22.9592ZM32.978 22.7386C32.7132 22.7386 32.5367 22.871 32.4263 23.0475V22.7827H31.963V24.9007H32.4263V23.7094C32.4263 23.3564 32.5808 23.1578 32.8675 23.1578C32.9559 23.1578 33.0662 23.1799 33.1545 23.2019L33.2868 22.7607C33.1986 22.7386 33.0662 22.7386 32.978 22.7386ZM27.0651 23.8417C27.0651 24.4815 27.5063 24.9448 28.1904 24.9448C28.4992 24.9448 28.7198 24.8787 28.9404 24.7022L28.7198 24.3272C28.5433 24.4595 28.3668 24.5256 28.1683 24.5256C27.7932 24.5256 27.5285 24.2609 27.5285 23.8417C27.5285 23.4446 27.7932 23.1798 28.1683 23.1578C28.3668 23.1578 28.5433 23.2239 28.7198 23.3564L28.9404 22.9813C28.7198 22.8047 28.4992 22.7386 28.1904 22.7386C27.5063 22.7386 27.0651 23.2019 27.0651 23.8417ZM31.3453 23.8417V22.7827H30.882V23.0475C30.7275 22.849 30.5069 22.7386 30.2201 22.7386C29.6244 22.7386 29.1611 23.2019 29.1611 23.8417C29.1611 24.4815 29.6244 24.9448 30.2201 24.9448C30.529 24.9448 30.7497 24.8346 30.882 24.636V24.9007H31.3453V23.8417ZM29.6464 23.8417C29.6464 23.4666 29.8892 23.1578 30.2862 23.1578C30.6613 23.1578 30.9261 23.4446 30.9261 23.8417C30.9261 24.2168 30.6613 24.5256 30.2862 24.5256C29.8892 24.5035 29.6464 24.2168 29.6464 23.8417ZM24.1088 22.7386C23.491 22.7386 23.0497 23.1798 23.0497 23.8417C23.0497 24.5036 23.4909 24.9448 24.1308 24.9448C24.4396 24.9448 24.7486 24.8566 24.9913 24.6581L24.7706 24.3272C24.5941 24.4595 24.3735 24.5478 24.1529 24.5478C23.866 24.5478 23.5792 24.4154 23.513 24.0402H25.0795V23.8638C25.1016 23.1798 24.7045 22.7386 24.1088 22.7386ZM24.1087 23.1357C24.3954 23.1357 24.5941 23.3123 24.6381 23.6432H23.535C23.5791 23.3564 23.7777 23.1357 24.1087 23.1357ZM35.6033 23.8417V21.9443H35.14V23.0475C34.9855 22.849 34.7649 22.7386 34.4781 22.7386C33.8824 22.7386 33.4191 23.2019 33.4191 23.8417C33.4191 24.4815 33.8824 24.9448 34.4781 24.9448C34.787 24.9448 35.0076 24.8346 35.14 24.636V24.9007H35.6033V23.8417ZM33.9045 23.8417C33.9045 23.4666 34.1471 23.1578 34.5443 23.1578C34.9194 23.1578 35.1841 23.4446 35.1841 23.8417C35.1841 24.2168 34.9194 24.5256 34.5443 24.5256C34.1471 24.5035 33.9045 24.2168 33.9045 23.8417ZM18.4164 23.8417V22.7827H17.9531V23.0475C17.7986 22.849 17.578 22.7386 17.2912 22.7386C16.6955 22.7386 16.2322 23.2019 16.2322 23.8417C16.2322 24.4815 16.6955 24.9448 17.2912 24.9448C17.6001 24.9448 17.8207 24.8346 17.9531 24.636V24.9007H18.4164V23.8417ZM16.6955 23.8417C16.6955 23.4666 16.9382 23.1578 17.3353 23.1578C17.7104 23.1578 17.9752 23.4446 17.9752 23.8417C17.9752 24.2168 17.7104 24.5256 17.3353 24.5256C16.9382 24.5035 16.6955 24.2168 16.6955 23.8417Z" fill="#FDFFFF"/>
<path d="M20.5122 6.69873H27.462V19.1863H20.5122V6.69873Z" fill="#D7DCDC"/>
<path d="M20.9537 12.9426C20.9537 10.4054 22.1451 8.15497 23.9762 6.69879C22.6305 5.6398 20.9317 5 19.0785 5C14.6878 5 11.1357 8.55206 11.1357 12.9426C11.1357 17.3332 14.6878 20.8852 19.0784 20.8852C20.9316 20.8852 22.6304 20.2454 23.9762 19.1863C22.1451 17.7523 20.9537 15.4798 20.9537 12.9426Z" fill="#FDFFFF"/>
<path d="M36.839 12.9426C36.839 17.3331 33.287 20.8852 28.8964 20.8852C27.0432 20.8852 25.3444 20.2454 23.9985 19.1863C25.8518 17.7303 27.0211 15.4798 27.0211 12.9426C27.0211 10.4054 25.8297 8.15497 23.9985 6.69879C25.3443 5.6398 27.0432 5 28.8964 5C33.287 5 36.839 8.57417 36.839 12.9426Z" fill="#F8FAFA"/>
</g>
<defs>
<clipPath id="clip0_26187_6174">
<rect width="25.7286" height="20" fill="white" transform="translate(11.1357 5)"/>
</clipPath>
</defs>
</svg>
