<svg width="160" height="160" viewBox="0 0 160 160" fill="none" xmlns="http://www.w3.org/2000/svg">
<mask id="mask0_26290_4180" style="mask-type:luminance" maskUnits="userSpaceOnUse" x="132" y="112" width="18" height="32">
<path d="M132.735 112.354H149.055V143.497H132.735V112.354Z" fill="white"/>
</mask>
<g mask="url(#mask0_26290_4180)">
<path d="M148.494 115.147C149.984 126.077 145.107 136.632 136.46 142.732C135.393 143.485 133.902 143.135 133.237 142.011L133.066 141.716C132.468 140.7 132.763 139.413 133.723 138.732C140.871 133.663 144.912 124.925 143.696 115.857C143.541 114.697 144.29 113.605 145.438 113.35L145.768 113.279C147.047 112.996 148.318 113.852 148.494 115.147Z" fill="#DFEEF7"/>
</g>
<path d="M138.998 117.394C139.572 123.993 136.695 130.288 131.675 134.225C130.583 135.078 128.997 134.815 128.292 133.623L128.129 133.344C127.543 132.352 127.826 131.105 128.73 130.388C132.468 127.423 134.6 122.726 134.169 117.789C134.07 116.677 134.859 115.685 135.946 115.442L136.257 115.374C137.592 115.083 138.883 116.032 138.998 117.394Z" fill="#DFEEF7"/>
<mask id="mask1_26290_4180" style="mask-type:luminance" maskUnits="userSpaceOnUse" x="10" y="16" width="26" height="25">
<path d="M10 16.5028H35.8316V40.9518H10V16.5028Z" fill="white"/>
</mask>
<g mask="url(#mask1_26290_4180)">
<path d="M10.3306 37.5171C13.2353 26.8745 21.8538 19.0609 32.2016 16.8176C33.4806 16.5387 34.7158 17.4431 34.8872 18.7381L34.931 19.0768C35.0824 20.2443 34.3094 21.3161 33.1579 21.5671C24.5912 23.4438 17.4549 29.9147 15.0243 38.7364C14.7136 39.864 13.5979 40.5773 12.4424 40.3621L12.1077 40.3023C10.8207 40.0632 9.98393 38.7763 10.3306 37.5171Z" fill="#DFEEF7"/>
</g>
<path d="M19.9453 39.1508C22.0053 32.8553 27.1174 28.1815 33.2775 26.5159C34.6163 26.1533 35.975 27.014 36.1583 28.3847L36.1981 28.7074C36.3495 29.851 35.6004 30.883 34.4888 31.1937C29.8867 32.4648 26.0854 35.9592 24.5514 40.6729C24.2087 41.7328 23.0891 42.3384 21.9933 42.1352L21.6825 42.0795C20.3397 41.8284 19.5229 40.4498 19.9453 39.1508Z" fill="#DFEEF7"/>
<path d="M135.078 65.4407L126.703 117.789C125.663 124.288 119.538 128.719 113.024 127.679L31.8591 114.741C25.3405 113.701 20.9057 107.585 21.9496 101.09L30.3251 48.7376C30.7554 46.044 32.0583 43.7091 33.9032 41.9679C36.5051 39.5055 40.1868 38.2384 44.0039 38.848L125.169 51.7857C128.986 52.3954 132.086 54.7422 133.791 57.894C135.002 60.1174 135.512 62.7432 135.078 65.4407Z" fill="#FEC108"/>
<path d="M33.9028 41.9676L77.9995 99.2371L133.791 57.8937L33.9028 41.9676Z" fill="#FEB60A"/>
<path d="M23.2363 108.633L79.7169 75.7364L123.124 124.559C120.518 127.021 116.841 128.288 113.023 127.679L31.8588 114.741C28.0417 114.131 24.9417 111.784 23.2363 108.633Z" fill="#FDAC01"/>
<path d="M133.791 57.894L77.3102 90.7902L33.9028 41.9679C36.5047 39.5055 40.1864 38.2384 44.0036 38.848L125.168 51.7857C128.985 52.3954 132.085 54.7422 133.791 57.894Z" fill="#FFD54F"/>
<mask id="mask2_26290_4180" style="mask-type:luminance" maskUnits="userSpaceOnUse" x="103" y="25" width="47" height="48">
<path d="M103.154 25.651H150V72.5727H103.154V25.651Z" fill="white"/>
</mask>
<g mask="url(#mask2_26290_4180)">
<path d="M149.88 49.2909C149.88 36.4647 139.465 26.0691 126.615 26.0691C113.769 26.0691 103.353 36.4647 103.353 49.2909C103.353 62.1131 113.769 72.5127 126.615 72.5127C139.465 72.5127 149.88 62.1131 149.88 49.2909Z" fill="#F5554A"/>
</g>
<path d="M125.324 45.2548C124.953 45.5895 124.551 45.8525 124.117 46.0438C123.678 46.235 123.16 46.3306 122.567 46.3306C122.232 46.3306 121.921 46.2669 121.634 46.1354C121.347 46.0079 121.104 45.8366 120.901 45.6174C120.702 45.3983 120.542 45.1512 120.423 44.8723C120.307 44.5894 120.248 44.2945 120.248 43.9798C120.248 43.669 120.299 43.398 120.399 43.1669C120.499 42.9358 120.638 42.7406 120.817 42.5693C120.997 42.4019 121.204 42.2505 121.439 42.119C121.678 41.9835 121.929 41.8441 122.2 41.6966C122.758 41.3301 123.26 40.9555 123.702 40.573C124.144 40.1945 124.543 39.8359 124.89 39.5091C125.236 39.1784 125.539 38.8955 125.798 38.6604C126.053 38.4254 126.28 38.262 126.467 38.1743C126.579 38.1185 126.683 38.0707 126.782 38.0309C126.874 37.991 126.973 37.9631 127.073 37.9472C127.177 37.9313 127.288 37.9193 127.412 37.9114C127.535 37.9074 127.691 37.9034 127.882 37.9034C128.464 37.9034 128.926 38.0229 129.269 38.258C129.611 38.4931 129.866 38.7959 130.042 39.1705C130.217 39.545 130.324 39.9674 130.368 40.4375C130.416 40.9077 130.436 41.3858 130.436 41.864V57.4395C130.436 57.9336 130.416 58.4157 130.368 58.8938C130.324 59.368 130.217 59.7903 130.042 60.1609C129.866 60.5315 129.611 60.8303 129.269 61.0574C128.926 61.2885 128.464 61.4041 127.882 61.4041C127.288 61.4041 126.822 61.2885 126.487 61.0574C126.149 60.8303 125.894 60.5315 125.722 60.1609C125.547 59.7903 125.435 59.368 125.392 58.8938C125.348 58.4157 125.324 57.9336 125.324 57.4395V45.2548Z" fill="white"/>
</svg>