<svg width="380" height="254" viewBox="0 0 380 254" fill="none" xmlns="http://www.w3.org/2000/svg">
<g clip-path="url(#clip0_26187_6194)">
<path d="M352.549 52.7957V199.683C352.549 222.834 334.442 239.055 311.516 242.328C284.126 246.252 253.901 244.197 203.163 240.595C172.192 238.396 109.919 242.04 78.835 242.328C56.1747 242.54 37.8022 223.236 37.8022 199.683V52.7957C37.8022 29.2426 56.2132 8.76386 78.835 10.1488C99.8443 11.436 130.747 16.53 162.959 13.4108C201.272 9.70157 273.992 6.54871 311.516 10.1488C334.082 12.3143 352.549 29.2427 352.549 52.7957Z" fill="#E4EDEA"/>
<path d="M223.453 154.413L217.426 158.712L210.619 144.822L223.453 154.413Z" fill="#004225"/>
<path d="M224.463 163.97L210.619 144.822L223.453 154.413L224.463 163.97Z" fill="#FDFFFF"/>
<path d="M223.785 150.014L220.645 152.314L210.619 144.822L223.785 150.014Z" fill="#004225"/>
<path d="M210.619 144.822L221.668 151.565L232.554 150.7L210.619 144.822Z" fill="#FDFFFF"/>
<path d="M197.738 63.0487L192.388 68.1654L183.665 55.3916L197.738 63.0487Z" fill="#004225"/>
<path d="M200.104 72.3637L183.665 55.3916L197.738 63.0487L200.104 72.3637Z" fill="#FDFFFF"/>
<path d="M197.437 58.6474L194.658 61.3732L183.665 55.3916L197.437 58.6474Z" fill="#004225"/>
<path d="M183.665 55.3916L195.564 60.4851L206.214 58.073L183.665 55.3916Z" fill="#FDFFFF"/>
<path d="M289.493 145.381C289.462 145.33 289.456 145.276 289.476 145.222C289.518 145.104 289.675 145.001 289.809 144.932C289.617 144.951 289.357 144.957 289.255 144.854C289.214 144.813 289.199 144.76 289.212 144.697C289.284 144.336 290.154 144.453 290.192 144.457L290.182 144.518C289.948 144.483 289.322 144.455 289.272 144.709C289.263 144.752 289.272 144.785 289.298 144.81C289.418 144.93 289.861 144.871 290.022 144.839L290.038 144.898C290.035 144.9 289.598 145.056 289.533 145.241C289.52 145.279 289.524 145.314 289.545 145.349L289.493 145.381Z" fill="#004225"/>
<path d="M300.321 137.848L300.287 137.799C300.414 137.695 300.741 137.39 300.725 137.221C300.722 137.185 300.702 137.157 300.664 137.136C300.639 137.124 300.613 137.117 300.586 137.117C300.358 137.117 300.048 137.536 299.936 137.718L299.885 137.686C299.902 137.658 300.275 137.057 300.587 137.057C300.623 137.057 300.658 137.065 300.692 137.083C300.749 137.114 300.781 137.159 300.786 137.216C300.8 137.36 300.631 137.558 300.494 137.694C300.631 137.633 300.812 137.577 300.93 137.62C300.985 137.64 301.022 137.678 301.042 137.734L300.984 137.754C300.971 137.716 300.946 137.691 300.91 137.677C300.721 137.614 300.326 137.847 300.321 137.848Z" fill="#004225"/>
<path d="M352.105 205.872C349.162 226.001 331.939 239.413 311.516 242.328C309.86 242.566 308.2 242.78 306.531 242.974C302.674 230.284 298.626 216.831 294.94 204.856V204.854C294.626 203.831 294.314 202.821 294.004 201.82C291.624 194.121 289.423 187.142 287.562 181.524C287.561 181.52 287.561 181.52 287.561 181.52C285.068 174.006 279.726 164.874 278.291 163.127C278.171 162.98 278.078 162.885 278.017 162.848C278.017 162.848 278.342 159.293 275.776 157.121C270.196 152.399 270.64 143.145 271.012 139.789C271.099 138.995 271.184 138.532 271.184 138.532C271.184 138.532 273.062 137.203 273.104 137.174C273.372 136.985 274.098 135.701 275.111 133.717C275.603 132.752 276.163 131.624 276.77 130.373C277.07 129.756 277.382 129.11 277.703 128.44C277.703 128.44 277.705 128.439 277.703 128.439C279.929 123.795 282.603 118.013 284.93 112.922C286.062 110.448 287.112 108.135 287.989 106.198C288.646 104.748 289.205 103.507 289.63 102.564C290.194 101.309 290.521 100.58 290.521 100.58C290.56 100.582 290.808 100.72 291.238 100.995C295.195 103.558 314.395 117.997 322.998 146.151C322.996 146.156 322.998 146.157 322.998 146.157C322.998 146.484 325.58 151.974 329.687 160.454C332.336 165.926 335.622 172.642 339.261 180.02C339.86 181.238 340.469 182.473 341.088 183.723V183.725C344.573 190.776 348.32 198.314 352.105 205.872Z" fill="#F7B686"/>
<path d="M314.119 128.069C301.263 100.461 265.485 91.1045 273.058 103.003C274.583 105.398 275.484 108.104 273.8 106.962C269.942 104.345 265.873 112.306 264.837 113.711C263.343 115.738 259.041 121.365 256.801 123.148C251.134 127.66 245.485 131.159 259.175 140.483C263.7 143.565 265.192 150.277 269.382 156.598C277.335 168.595 292.438 161.781 292.438 161.781C292.438 161.781 316.168 132.47 314.119 128.069Z" fill="#F7B686"/>
<path d="M222.623 135.194C225.954 140.841 246.391 128.477 246.391 128.477C250.85 126.206 251.333 121.907 248.953 117.951C245.592 112.364 219.218 128.415 222.623 135.194Z" fill="#F7B686"/>
<path d="M234.8 141.364C237.676 147.256 264.228 131.818 264.228 131.818C268.852 129.905 264.468 130.38 262.406 126.248C259.496 120.415 232.032 134.76 234.8 141.364Z" fill="#F7B686"/>
<path d="M248.168 147.113C250.925 150.793 265.521 138.926 265.521 138.926C268.647 136.615 268.468 133.26 266.138 130.532C262.848 126.682 244.692 142.354 248.168 147.113Z" fill="#F7B686"/>
<path d="M215.246 117.781C217.363 123.986 239.882 116.023 239.882 116.023C244.709 114.703 246.054 110.592 244.526 106.235C242.368 100.084 213.287 110.452 215.246 117.781Z" fill="#F7B686"/>
<path d="M207.176 135.315C205.529 135.315 203.987 134.684 202.821 133.529C201.646 132.366 201.008 130.82 201.025 129.176L201.435 89.8353C201.452 88.192 202.122 86.6586 203.32 85.5172C204.543 84.3553 206.162 83.7424 207.841 83.8177L282.431 86.715C285.78 86.8444 288.378 89.5384 288.343 92.8491L287.98 127.772C287.946 131.08 285.294 133.725 281.944 133.793L207.307 135.314C207.264 135.315 207.22 135.315 207.176 135.315ZM207.591 84.2456C206.102 84.2456 204.699 84.8037 203.62 85.8317C202.506 86.8909 201.884 88.3148 201.868 89.84L201.458 129.18C201.443 130.706 202.035 132.141 203.126 133.221C204.239 134.323 205.725 134.92 207.298 134.881L281.935 133.361C285.05 133.297 287.515 130.84 287.548 127.767L287.911 92.8445C287.942 89.7706 285.528 87.2678 282.414 87.1474L207.824 84.2502C207.747 84.2473 207.669 84.2456 207.591 84.2456Z" fill="#141414"/>
<path d="M291.357 89.4719L291.141 110.278L291.057 118.282L290.994 124.395C290.962 127.564 288.381 130.137 285.17 130.202L210.535 131.723C207.182 131.79 204.439 129.111 204.472 125.804L204.531 120.253L204.613 112.249L204.883 86.4621C204.917 83.1547 207.715 80.5283 211.063 80.659L285.653 83.5565C288.864 83.6802 291.391 86.3011 291.357 89.4719Z" fill="#FFB000"/>
<path d="M226.957 89.3233L226.848 99.7504C226.839 100.737 226.012 101.536 225.012 101.528L216.712 101.449L216.108 101.444L214.445 101.428C213.445 101.418 212.635 100.603 212.646 99.6176L212.701 94.2557L212.708 93.6579L212.736 90.9763L212.742 90.3785L212.755 89.1904C212.764 88.2034 213.591 87.4047 214.591 87.4132L215.794 87.4247L216.398 87.4295L220.035 87.4639L220.64 87.4703L223.595 87.4984L224.2 87.5032L224.201 87.5031L225.158 87.5127C226.158 87.523 226.968 88.3377 226.957 89.3233Z" fill="#FDFFFF"/>
<path d="M225.027 101.6C225.021 101.6 225.016 101.6 225.011 101.6L214.444 101.5C213.942 101.495 213.47 101.296 213.115 100.94C212.761 100.583 212.568 100.113 212.573 99.6173L212.682 89.1901C212.693 88.1676 213.54 87.3413 214.574 87.3413C214.58 87.3413 214.586 87.3413 214.592 87.3413L225.158 87.4402C225.662 87.4456 226.134 87.6451 226.488 88.0014C226.842 88.3584 227.035 88.8283 227.029 89.324L226.92 99.7512C226.91 100.774 226.062 101.6 225.027 101.6ZM214.574 87.4862C213.619 87.4862 212.836 88.2476 212.827 89.1919L212.718 99.6191C212.713 100.076 212.89 100.509 213.217 100.838C213.545 101.168 213.981 101.351 214.446 101.356L225.012 101.456C225.017 101.456 225.022 101.456 225.027 101.456C225.983 101.456 226.766 100.694 226.776 99.7501L226.885 89.3229C226.89 88.866 226.712 88.4328 226.385 88.1038C226.058 87.7741 225.621 87.5898 225.157 87.5853L214.59 87.4863C214.585 87.4862 214.58 87.4862 214.574 87.4862Z" fill="#141414"/>
<path d="M217.982 94.3038C217.947 94.3048 217.912 94.3051 217.876 94.3048L212.702 94.2563L212.708 93.6585L217.883 93.707C218.441 93.712 218.966 93.503 219.365 93.1177C219.763 92.7325 219.985 92.2175 219.991 91.6675L220.035 87.4648L220.64 87.4707L220.597 91.6732C220.589 92.3829 220.302 93.0475 219.789 93.5446C219.3 94.0172 218.662 94.2846 217.982 94.3038Z" fill="#141414"/>
<path d="M224.2 87.5035L224.133 93.9464C224.125 94.7958 223.781 95.592 223.165 96.188C222.551 96.784 221.737 97.1062 220.875 97.0985L218.603 97.0779C218.111 97.0739 217.646 97.2579 217.293 97.5989C216.941 97.9385 216.744 98.3952 216.739 98.8813L216.713 101.449L216.108 101.444L216.133 98.8751C216.14 98.2296 216.401 97.6248 216.868 97.1717C217.337 96.7185 217.954 96.4739 218.61 96.4788L220.882 96.5007C221.581 96.5061 222.241 96.2445 222.742 95.7606C223.241 95.2768 223.521 94.6304 223.528 93.94L223.595 87.4985L224.2 87.5035Z" fill="#141414"/>
<path d="M216.398 87.4297L216.381 89.0839C216.37 90.1215 215.526 90.9618 214.485 90.9903C214.459 90.9919 214.435 90.9917 214.408 90.9917L212.736 90.9764L212.742 90.3787L214.415 90.394C215.156 90.3969 215.768 89.8098 215.776 89.0775L215.793 87.4248L216.398 87.4297Z" fill="#141414"/>
<path d="M266.346 89.9623L252.56 90.1607C252.179 90.1661 251.87 89.8616 251.873 89.4864L251.888 88.1006C251.892 87.7265 252.206 87.4284 252.585 87.4393L266.365 87.8374C266.733 87.848 267.025 88.1477 267.021 88.5114L267.013 89.3009C267.009 89.6635 266.713 89.9571 266.346 89.9623Z" fill="#FDFFFF"/>
<path d="M283.578 90.1239L269.792 90.3223C269.412 90.3278 269.102 90.0232 269.106 89.6481L269.12 88.2622C269.124 87.8882 269.438 87.59 269.817 87.6009L283.597 87.999C283.966 88.0096 284.257 88.3093 284.254 88.673L284.245 89.4625C284.242 89.825 283.945 90.1186 283.578 90.1239Z" fill="#FDFFFF"/>
<path d="M229.842 126.317L211.377 126.81C210.867 126.824 210.445 126.551 210.442 126.206L210.43 124.932C210.427 124.589 210.841 124.308 211.349 124.309L229.82 124.364C230.314 124.366 230.712 124.634 230.715 124.969L230.721 125.694C230.725 126.027 230.334 126.304 229.842 126.317Z" fill="#FDFFFF"/>
<path d="M222.942 117.634L211.372 117.942C211.053 117.951 210.789 117.78 210.787 117.564L210.779 116.766C210.777 116.551 211.037 116.374 211.355 116.375L222.928 116.41C223.237 116.411 223.486 116.579 223.488 116.789L223.493 117.243C223.494 117.452 223.25 117.625 222.942 117.634Z" fill="#FDFFFF"/>
<path d="M237.431 117.509L225.862 117.817C225.543 117.826 225.278 117.655 225.276 117.439L225.269 116.641C225.267 116.426 225.527 116.249 225.845 116.25L237.417 116.285C237.727 116.286 237.976 116.454 237.978 116.664L237.982 117.118C237.984 117.327 237.739 117.5 237.431 117.509Z" fill="#FDFFFF"/>
<path d="M215.654 108.104C215.649 107.735 215.606 107.419 215.523 107.157C215.439 106.894 215.324 106.677 215.177 106.509C215.029 106.341 214.853 106.217 214.649 106.139C214.446 106.062 214.22 106.023 213.973 106.027C213.725 106.028 213.5 106.07 213.3 106.152C213.098 106.233 212.925 106.36 212.78 106.531C212.634 106.701 212.524 106.919 212.447 107.185C212.37 107.45 212.333 107.766 212.336 108.134L212.344 108.989C212.348 109.356 212.391 109.673 212.474 109.936C212.558 110.199 212.673 110.415 212.82 110.585C212.968 110.755 213.144 110.879 213.348 110.955C213.553 111.034 213.777 111.072 214.026 111.069C214.273 111.068 214.497 111.026 214.701 110.944C214.903 110.862 215.076 110.736 215.22 110.563C215.363 110.391 215.473 110.173 215.55 109.907C215.627 109.643 215.666 109.325 215.661 108.956L215.654 108.104ZM214.648 109.651C214.619 109.801 214.576 109.925 214.519 110.018C214.463 110.112 214.393 110.18 214.308 110.221C214.223 110.261 214.125 110.284 214.018 110.284C213.91 110.286 213.813 110.266 213.728 110.226C213.641 110.186 213.569 110.12 213.51 110.027C213.45 109.934 213.404 109.813 213.372 109.664C213.338 109.513 213.322 109.327 213.319 109.107L213.309 107.988C213.308 107.77 213.321 107.586 213.349 107.437C213.378 107.29 213.422 107.169 213.479 107.078C213.537 106.987 213.607 106.919 213.692 106.878C213.776 106.838 213.872 106.815 213.979 106.815C214.087 106.813 214.184 106.833 214.269 106.873C214.356 106.913 214.428 106.977 214.489 107.068C214.55 107.158 214.596 107.278 214.627 107.426C214.659 107.573 214.676 107.758 214.678 107.976L214.688 109.095C214.691 109.314 214.677 109.5 214.648 109.651Z" fill="#FDFFFF"/>
<path d="M219.615 108.069C219.612 107.7 219.569 107.384 219.485 107.12C219.402 106.857 219.287 106.64 219.139 106.472C218.992 106.304 218.815 106.18 218.61 106.104C218.407 106.025 218.181 105.988 217.934 105.99C217.687 105.991 217.463 106.035 217.261 106.116C217.059 106.197 216.886 106.323 216.741 106.495C216.597 106.666 216.486 106.884 216.408 107.149C216.331 107.413 216.294 107.731 216.297 108.099L216.305 108.952C216.308 109.321 216.352 109.636 216.435 109.899C216.518 110.164 216.634 110.38 216.781 110.548C216.93 110.718 217.105 110.842 217.31 110.92C217.514 110.997 217.74 111.036 217.987 111.034C218.234 111.031 218.46 110.989 218.662 110.907C218.865 110.826 219.038 110.699 219.181 110.526C219.324 110.354 219.434 110.136 219.513 109.872C219.59 109.606 219.627 109.29 219.623 108.921L219.615 108.069ZM218.61 109.615C218.58 109.766 218.538 109.888 218.482 109.982C218.424 110.075 218.354 110.143 218.269 110.184C218.184 110.226 218.088 110.247 217.98 110.247C217.871 110.249 217.775 110.229 217.688 110.189C217.603 110.151 217.531 110.083 217.472 109.99C217.413 109.899 217.366 109.777 217.333 109.627C217.301 109.476 217.283 109.291 217.281 109.07L217.27 107.951C217.269 107.733 217.281 107.549 217.312 107.402C217.341 107.253 217.384 107.132 217.442 107.041C217.5 106.95 217.57 106.882 217.653 106.842C217.737 106.801 217.833 106.78 217.942 106.778C218.049 106.778 218.146 106.797 218.232 106.836C218.317 106.876 218.391 106.942 218.452 107.032C218.511 107.123 218.557 107.242 218.59 107.389C218.622 107.538 218.638 107.721 218.639 107.939L218.651 109.058C218.652 109.279 218.639 109.463 218.61 109.615Z" fill="#FDFFFF"/>
<path d="M223.576 108.032C223.573 107.663 223.529 107.347 223.446 107.084C223.363 106.82 223.247 106.605 223.1 106.437C222.952 106.267 222.776 106.145 222.572 106.066C222.367 105.988 222.143 105.951 221.894 105.953C221.647 105.956 221.423 105.998 221.221 106.079C221.021 106.161 220.848 106.288 220.703 106.458C220.558 106.629 220.447 106.847 220.37 107.112C220.293 107.376 220.256 107.693 220.259 108.062L220.267 108.915C220.271 109.284 220.314 109.599 220.397 109.862C220.481 110.127 220.596 110.343 220.743 110.513C220.763 110.534 220.782 110.555 220.801 110.576C220.938 110.712 221.093 110.814 221.271 110.883C221.476 110.962 221.7 110.999 221.949 110.997C222.196 110.994 222.42 110.952 222.624 110.87C222.826 110.789 222.999 110.662 223.142 110.491C223.286 110.317 223.396 110.099 223.473 109.835C223.541 109.606 223.576 109.336 223.582 109.027C223.584 108.981 223.584 108.932 223.584 108.884L223.576 108.032ZM222.576 109.553C222.574 109.561 222.573 109.57 222.571 109.579C222.542 109.729 222.499 109.851 222.443 109.946C222.387 110.039 222.316 110.107 222.231 110.148C222.145 110.189 222.048 110.21 221.941 110.212C221.834 110.212 221.736 110.192 221.651 110.154C221.625 110.141 221.599 110.128 221.577 110.109C221.523 110.072 221.474 110.021 221.433 109.955C221.374 109.862 221.327 109.74 221.295 109.59C221.261 109.439 221.244 109.255 221.242 109.033L221.232 107.915C221.229 107.697 221.244 107.514 221.272 107.365C221.301 107.216 221.344 107.096 221.402 107.004C221.46 106.913 221.53 106.847 221.614 106.806C221.699 106.764 221.795 106.743 221.902 106.741C222.01 106.741 222.108 106.761 222.193 106.801C222.279 106.839 222.351 106.905 222.412 106.995C222.473 107.086 222.518 107.205 222.55 107.354C222.582 107.501 222.598 107.684 222.601 107.902L222.611 109.022C222.613 109.229 222.601 109.405 222.576 109.551V109.553Z" fill="#FDFFFF"/>
<path d="M227.538 107.995C227.537 107.734 227.514 107.498 227.469 107.29C227.453 107.205 227.432 107.125 227.408 107.048C227.325 106.785 227.21 106.568 227.062 106.4C226.913 106.232 226.738 106.108 226.533 106.03C226.33 105.953 226.104 105.914 225.857 105.918C225.61 105.919 225.386 105.961 225.183 106.043C224.981 106.124 224.808 106.251 224.664 106.423C224.52 106.592 224.409 106.81 224.331 107.075C224.254 107.341 224.217 107.657 224.22 108.025L224.227 108.71L224.228 108.878C224.231 109.247 224.275 109.563 224.358 109.827C224.441 110.09 224.557 110.306 224.704 110.476C224.853 110.646 225.028 110.77 225.233 110.847C225.437 110.925 225.663 110.964 225.91 110.96C226.157 110.959 226.383 110.917 226.585 110.835C226.788 110.754 226.961 110.625 227.104 110.454C227.246 110.282 227.357 110.063 227.436 109.798C227.513 109.534 227.549 109.216 227.546 108.848L227.538 107.995ZM226.532 109.542C226.503 109.693 226.461 109.816 226.405 109.909C226.347 110.004 226.277 110.071 226.192 110.112C226.107 110.153 226.011 110.173 225.903 110.175C225.794 110.177 225.698 110.157 225.611 110.117C225.526 110.077 225.454 110.012 225.395 109.919C225.336 109.826 225.289 109.704 225.256 109.555C225.224 109.404 225.206 109.218 225.204 108.998L225.196 108.256L225.193 107.878C225.192 107.66 225.204 107.477 225.235 107.328C225.264 107.181 225.307 107.061 225.365 106.969C225.422 106.876 225.493 106.81 225.576 106.769C225.66 106.729 225.756 106.706 225.865 106.706C225.972 106.705 226.068 106.724 226.155 106.764C226.24 106.804 226.314 106.868 226.375 106.96C226.434 107.049 226.48 107.17 226.512 107.317C226.533 107.417 226.548 107.53 226.556 107.662V107.663C226.559 107.727 226.562 107.795 226.562 107.867L226.574 108.986C226.575 109.205 226.562 109.391 226.532 109.542Z" fill="#FDFFFF"/>
<path d="M235.203 108C235.2 107.631 235.157 107.315 235.074 107.051C234.99 106.788 234.875 106.572 234.727 106.403C234.58 106.235 234.404 106.113 234.2 106.035C233.995 105.956 233.771 105.919 233.524 105.921C233.275 105.924 233.051 105.966 232.849 106.048C232.648 106.129 232.475 106.254 232.331 106.426C232.185 106.597 232.075 106.815 231.998 107.08C231.921 107.344 231.884 107.662 231.887 108.03L231.895 108.883C231.898 109.252 231.942 109.568 232.025 109.831C232.108 110.095 232.224 110.311 232.371 110.48C232.519 110.65 232.695 110.773 232.898 110.852C233.104 110.93 233.328 110.967 233.577 110.965C233.823 110.962 234.048 110.92 234.251 110.839C234.453 110.757 234.626 110.63 234.769 110.459C234.913 110.286 235.024 110.068 235.101 109.803C235.178 109.539 235.215 109.221 235.212 108.853L235.203 108ZM234.198 109.547C234.17 109.697 234.126 109.819 234.07 109.914C234.014 110.007 233.944 110.074 233.859 110.116C233.774 110.157 233.676 110.178 233.569 110.18C233.461 110.18 233.363 110.16 233.278 110.12C233.192 110.082 233.12 110.015 233.06 109.923C233.001 109.83 232.955 109.709 232.923 109.558C232.889 109.407 232.871 109.223 232.87 109.002L232.86 107.883C232.858 107.665 232.871 107.482 232.9 107.333C232.929 107.184 232.972 107.064 233.03 106.972C233.088 106.881 233.158 106.815 233.241 106.774C233.326 106.732 233.423 106.711 233.53 106.71C233.637 106.71 233.735 106.729 233.82 106.769C233.907 106.807 233.979 106.873 234.04 106.963C234.101 107.054 234.146 107.173 234.178 107.322C234.21 107.469 234.227 107.652 234.229 107.87L234.239 108.989C234.24 109.21 234.227 109.396 234.198 109.547Z" fill="#FDFFFF"/>
<path d="M239.166 107.963C239.163 107.594 239.119 107.278 239.036 107.015C238.953 106.751 238.837 106.536 238.69 106.368C238.541 106.199 238.366 106.076 238.161 105.998C237.957 105.921 237.731 105.882 237.484 105.884C237.237 105.887 237.013 105.929 236.811 106.011C236.609 106.092 236.436 106.219 236.292 106.389C236.148 106.56 236.037 106.778 235.958 107.043C235.882 107.309 235.845 107.625 235.848 107.993L235.856 108.846C235.859 109.215 235.902 109.531 235.986 109.795C236.069 110.058 236.184 110.274 236.332 110.444C236.481 110.612 236.656 110.737 236.861 110.814C237.064 110.893 237.29 110.93 237.537 110.928C237.784 110.926 238.01 110.883 238.212 110.801C238.416 110.721 238.589 110.593 238.731 110.422C238.874 110.25 238.985 110.03 239.063 109.766C239.14 109.501 239.177 109.184 239.174 108.815L239.166 107.963ZM238.161 109.51C238.13 109.66 238.089 109.784 238.033 109.877C237.975 109.971 237.904 110.039 237.819 110.079C237.734 110.12 237.638 110.141 237.531 110.143C237.422 110.144 237.326 110.123 237.239 110.085C237.154 110.045 237.082 109.979 237.023 109.886C236.963 109.793 236.917 109.671 236.883 109.521C236.851 109.372 236.834 109.186 236.832 108.966L236.821 107.846C236.819 107.628 236.832 107.445 236.862 107.296C236.891 107.147 236.935 107.028 236.992 106.935C237.05 106.844 237.12 106.778 237.204 106.736C237.287 106.695 237.383 106.674 237.492 106.674C237.6 106.672 237.696 106.691 237.783 106.732C237.868 106.772 237.941 106.836 238.002 106.927C238.061 107.017 238.108 107.136 238.14 107.285C238.172 107.432 238.188 107.615 238.19 107.833L238.201 108.953C238.202 109.173 238.19 109.359 238.161 109.51Z" fill="#FDFFFF"/>
<path d="M243.126 107.926C243.123 107.557 243.08 107.242 242.997 106.979C242.913 106.716 242.798 106.499 242.65 106.331C242.503 106.163 242.327 106.039 242.123 105.963C241.918 105.884 241.693 105.846 241.445 105.849C241.198 105.85 240.974 105.892 240.772 105.974C240.571 106.056 240.398 106.182 240.254 106.354C240.108 106.524 239.997 106.742 239.921 107.008C239.844 107.272 239.807 107.588 239.81 107.957L239.818 108.811C239.821 109.18 239.864 109.495 239.948 109.758C240.031 110.021 240.147 110.238 240.294 110.407C240.441 110.577 240.618 110.701 240.821 110.779C241.025 110.856 241.251 110.895 241.499 110.892C241.746 110.89 241.971 110.848 242.174 110.767C242.376 110.685 242.549 110.558 242.692 110.385C242.836 110.214 242.947 109.996 243.024 109.729C243.101 109.465 243.137 109.149 243.134 108.781L243.126 107.926ZM242.121 109.473C242.093 109.625 242.049 109.747 241.993 109.84C241.937 109.935 241.867 110.002 241.782 110.044C241.695 110.084 241.599 110.106 241.491 110.106C241.384 110.108 241.286 110.088 241.201 110.048C241.115 110.008 241.043 109.942 240.983 109.849C240.924 109.756 240.878 109.635 240.845 109.486C240.812 109.335 240.794 109.149 240.793 108.929L240.783 107.811C240.78 107.593 240.794 107.408 240.823 107.259C240.852 107.112 240.895 106.991 240.953 106.9C241.01 106.809 241.081 106.741 241.164 106.7C241.249 106.66 241.345 106.639 241.453 106.637C241.56 106.636 241.658 106.655 241.743 106.695C241.83 106.735 241.902 106.799 241.963 106.891C242.024 106.98 242.068 107.101 242.101 107.248C242.133 107.397 242.149 107.58 242.152 107.798L242.161 108.917C242.163 109.138 242.15 109.322 242.121 109.473Z" fill="#FDFFFF"/>
<path d="M247.089 107.89C247.086 107.522 247.042 107.206 246.959 106.942C246.876 106.679 246.76 106.462 246.613 106.294C246.464 106.126 246.289 106.002 246.084 105.925C245.88 105.847 245.654 105.81 245.407 105.812C245.161 105.813 244.936 105.856 244.734 105.938C244.638 105.977 244.548 106.026 244.465 106.084C244.374 106.15 244.29 106.227 244.215 106.317C244.071 106.488 243.96 106.706 243.882 106.971C243.805 107.235 243.768 107.552 243.771 107.921L243.779 108.774C243.782 109.143 243.825 109.458 243.909 109.721C243.992 109.986 244.107 110.202 244.255 110.37C244.402 110.54 244.579 110.664 244.784 110.742C244.859 110.771 244.936 110.794 245.016 110.811C245.156 110.842 245.305 110.858 245.46 110.856C245.707 110.853 245.933 110.811 246.135 110.729C246.337 110.648 246.51 110.521 246.654 110.349C246.797 110.176 246.908 109.958 246.985 109.694C247.063 109.428 247.1 109.112 247.097 108.743L247.089 107.89ZM246.082 109.437C246.053 109.588 246.012 109.71 245.954 109.804C245.898 109.897 245.827 109.965 245.742 110.006C245.657 110.048 245.561 110.069 245.454 110.07C245.345 110.07 245.249 110.051 245.162 110.011C245.145 110.003 245.127 109.993 245.111 109.982C245.047 109.944 244.991 109.886 244.944 109.812C244.885 109.721 244.84 109.599 244.806 109.448C244.774 109.298 244.757 109.113 244.755 108.892L244.744 107.773C244.742 107.555 244.755 107.373 244.784 107.224C244.79 107.195 244.795 107.168 244.803 107.142C244.83 107.03 244.867 106.937 244.914 106.863C244.971 106.772 245.043 106.704 245.127 106.664C245.21 106.623 245.306 106.602 245.414 106.6C245.523 106.6 245.619 106.619 245.705 106.658C245.79 106.698 245.864 106.764 245.923 106.854C245.984 106.945 246.031 107.064 246.063 107.211C246.093 107.36 246.111 107.543 246.112 107.761L246.124 108.88C246.126 109.101 246.111 109.287 246.082 109.437Z" fill="#FDFFFF"/>
<path d="M254.225 107.89C254.222 107.522 254.179 107.206 254.095 106.942C254.012 106.679 253.895 106.462 253.747 106.294C253.6 106.126 253.424 106.002 253.22 105.925C253.017 105.847 252.79 105.81 252.544 105.812C252.295 105.813 252.071 105.856 251.87 105.938C251.669 106.02 251.495 106.145 251.351 106.317C251.207 106.488 251.095 106.706 251.018 106.971C250.941 107.235 250.904 107.552 250.907 107.921L250.915 108.774C250.918 109.143 250.962 109.458 251.045 109.721C251.128 109.986 251.244 110.202 251.391 110.37C251.539 110.54 251.715 110.664 251.918 110.742C252.124 110.819 252.35 110.858 252.597 110.856C252.843 110.853 253.068 110.811 253.271 110.729C253.473 110.648 253.646 110.521 253.791 110.349C253.933 110.176 254.044 109.958 254.121 109.694C254.199 109.428 254.236 109.112 254.233 108.743L254.225 107.89ZM253.218 109.437C253.19 109.588 253.148 109.71 253.09 109.804C253.034 109.897 252.964 109.965 252.879 110.006C252.794 110.048 252.698 110.069 252.588 110.07C252.481 110.07 252.385 110.051 252.298 110.011C252.214 109.973 252.14 109.905 252.08 109.812C252.021 109.721 251.976 109.599 251.943 109.448C251.911 109.298 251.893 109.113 251.89 108.892L251.88 107.773C251.878 107.555 251.891 107.373 251.92 107.224C251.949 107.075 251.992 106.954 252.05 106.863C252.107 106.772 252.178 106.704 252.263 106.664C252.346 106.623 252.443 106.602 252.55 106.6C252.659 106.6 252.755 106.619 252.84 106.658C252.927 106.698 253 106.764 253.06 106.854C253.121 106.945 253.167 107.064 253.199 107.211C253.23 107.36 253.247 107.543 253.249 107.761L253.259 108.88C253.262 109.101 253.247 109.287 253.218 109.437Z" fill="#FDFFFF"/>
<path d="M258.186 107.854C258.183 107.485 258.14 107.169 258.056 106.906C257.973 106.642 257.857 106.427 257.71 106.259C257.562 106.091 257.386 105.967 257.183 105.889C256.977 105.812 256.751 105.773 256.505 105.775C256.258 105.778 256.033 105.82 255.831 105.902C255.629 105.983 255.456 106.11 255.312 106.28C255.168 106.451 255.057 106.669 254.98 106.934C254.902 107.2 254.865 107.516 254.868 107.884L254.876 108.737C254.879 109.106 254.922 109.422 255.006 109.686C255.089 109.949 255.204 110.165 255.354 110.335C255.501 110.503 255.677 110.628 255.881 110.705C256.084 110.784 256.31 110.821 256.557 110.819C256.804 110.817 257.03 110.774 257.232 110.692C257.436 110.611 257.609 110.484 257.751 110.313C257.896 110.139 258.005 109.921 258.083 109.657C258.16 109.392 258.197 109.075 258.194 108.706L258.186 107.854ZM257.181 109.401C257.152 109.551 257.109 109.673 257.053 109.768C256.997 109.862 256.925 109.93 256.84 109.97C256.755 110.011 256.658 110.032 256.551 110.034C256.442 110.034 256.346 110.015 256.261 109.976C256.174 109.936 256.102 109.87 256.043 109.777C255.984 109.684 255.937 109.563 255.905 109.412C255.871 109.263 255.854 109.077 255.852 108.857L255.841 107.737C255.839 107.519 255.854 107.336 255.883 107.187C255.911 107.038 255.955 106.918 256.012 106.826C256.07 106.735 256.141 106.669 256.224 106.628C256.309 106.586 256.403 106.565 256.513 106.565C256.62 106.563 256.716 106.583 256.803 106.623C256.888 106.661 256.961 106.727 257.022 106.818C257.082 106.908 257.128 107.027 257.16 107.176C257.192 107.323 257.208 107.506 257.21 107.724L257.221 108.844C257.223 109.064 257.21 109.25 257.181 109.401Z" fill="#FDFFFF"/>
<path d="M262.148 107.817C262.144 107.448 262.1 107.132 262.017 106.869C261.933 106.607 261.818 106.39 261.671 106.222C261.523 106.054 261.347 105.93 261.143 105.852C260.94 105.775 260.714 105.736 260.467 105.739C260.218 105.741 259.994 105.783 259.794 105.864C259.592 105.946 259.419 106.073 259.274 106.244C259.13 106.414 259.018 106.632 258.941 106.898C258.864 107.163 258.827 107.479 258.83 107.847L258.838 108.7C258.841 109.069 258.885 109.386 258.968 109.649C259.051 109.912 259.167 110.128 259.314 110.298C259.462 110.468 259.638 110.591 259.842 110.668C260.047 110.747 260.271 110.785 260.52 110.782C260.766 110.78 260.991 110.739 261.195 110.657C261.396 110.575 261.57 110.449 261.714 110.275C261.856 110.104 261.967 109.884 262.044 109.62C262.121 109.355 262.159 109.038 262.155 108.669L262.148 107.817ZM261.142 109.364C261.113 109.514 261.07 109.638 261.014 109.731C260.957 109.825 260.887 109.892 260.802 109.934C260.717 109.974 260.621 109.997 260.512 109.997C260.405 109.998 260.308 109.979 260.222 109.939C260.135 109.899 260.063 109.833 260.004 109.74C259.944 109.647 259.898 109.525 259.866 109.376C259.832 109.226 259.816 109.04 259.813 108.82L259.803 107.7C259.802 107.482 259.815 107.299 259.843 107.15C259.872 107.002 259.916 106.882 259.973 106.791C260.031 106.698 260.101 106.632 260.186 106.59C260.27 106.55 260.366 106.528 260.473 106.528C260.581 106.526 260.678 106.545 260.763 106.586C260.85 106.626 260.922 106.69 260.983 106.781C261.044 106.871 261.09 106.991 261.121 107.139C261.153 107.286 261.17 107.47 261.172 107.688L261.182 108.807C261.185 109.027 261.17 109.213 261.142 109.364Z" fill="#FDFFFF"/>
<path d="M266.109 107.782C266.106 107.413 266.063 107.097 265.979 106.833C265.896 106.57 265.781 106.353 265.633 106.185C265.486 106.017 265.309 105.893 265.104 105.816C264.901 105.738 264.675 105.701 264.428 105.703C264.181 105.704 263.957 105.748 263.755 105.828C263.553 105.909 263.379 106.036 263.235 106.208C263.091 106.379 262.98 106.597 262.903 106.862C262.825 107.126 262.788 107.443 262.791 107.812L262.799 108.665C262.802 109.034 262.846 109.349 262.929 109.612C263.012 109.877 263.128 110.093 263.275 110.261C263.424 110.431 263.599 110.555 263.804 110.633C264.008 110.71 264.234 110.749 264.481 110.747C264.727 110.744 264.953 110.702 265.155 110.62C265.359 110.539 265.532 110.412 265.675 110.239C265.819 110.067 265.928 109.849 266.007 109.585C266.083 109.319 266.12 109.003 266.117 108.634L266.109 107.782ZM265.104 109.328C265.074 109.479 265.032 109.601 264.976 109.695C264.918 109.788 264.848 109.856 264.763 109.897C264.678 109.939 264.582 109.96 264.474 109.96C264.365 109.962 264.269 109.942 264.182 109.902C264.098 109.862 264.025 109.796 263.966 109.703C263.907 109.612 263.86 109.49 263.827 109.34C263.795 109.189 263.777 109.005 263.775 108.783L263.764 107.665C263.763 107.447 263.777 107.262 263.806 107.115C263.835 106.966 263.878 106.845 263.936 106.754C263.993 106.663 264.064 106.595 264.147 106.555C264.231 106.514 264.327 106.493 264.436 106.491C264.543 106.491 264.639 106.511 264.726 106.549C264.811 106.589 264.885 106.655 264.946 106.745C265.005 106.836 265.051 106.955 265.083 107.102C265.116 107.251 265.131 107.434 265.133 107.652L265.144 108.771C265.146 108.992 265.133 109.176 265.104 109.328Z" fill="#FDFFFF"/>
<path d="M273.731 107.714C273.728 107.384 273.692 107.097 273.625 106.852V106.85C273.619 106.821 273.609 106.794 273.601 106.767C273.518 106.502 273.402 106.288 273.255 106.119C273.107 105.951 272.931 105.828 272.728 105.749C272.522 105.672 272.298 105.634 272.05 105.635C271.803 105.638 271.578 105.68 271.376 105.762C271.176 105.844 271.003 105.97 270.857 106.14C270.713 106.312 270.602 106.53 270.525 106.794C270.512 106.836 270.501 106.881 270.492 106.926C270.437 107.163 270.41 107.435 270.415 107.745L270.421 108.597C270.426 108.966 270.469 109.282 270.553 109.546C270.636 109.809 270.751 110.026 270.899 110.196C271.046 110.364 271.222 110.489 271.426 110.566C271.63 110.644 271.856 110.681 272.102 110.68C272.351 110.678 272.575 110.635 272.777 110.555C272.981 110.473 273.154 110.345 273.297 110.173C273.441 110.002 273.552 109.782 273.628 109.517C273.705 109.253 273.742 108.935 273.739 108.567L273.731 107.714ZM272.726 109.261C272.697 109.412 272.654 109.535 272.598 109.628C272.542 109.723 272.471 109.79 272.385 109.83C272.3 109.872 272.203 109.893 272.096 109.894C271.989 109.896 271.891 109.877 271.806 109.836C271.719 109.796 271.647 109.731 271.588 109.638C271.529 109.545 271.482 109.423 271.45 109.272C271.416 109.123 271.399 108.937 271.397 108.718L271.388 107.597C271.385 107.379 271.399 107.197 271.428 107.048C271.456 106.898 271.5 106.78 271.558 106.687C271.615 106.596 271.686 106.53 271.769 106.488C271.79 106.477 271.812 106.469 271.835 106.461C271.902 106.437 271.977 106.426 272.058 106.426C272.11 106.426 272.16 106.429 272.208 106.438H272.211C272.261 106.448 272.304 106.463 272.348 106.483C272.434 106.523 272.506 106.588 272.567 106.679C272.628 106.769 272.673 106.889 272.705 107.036C272.737 107.184 272.753 107.367 272.756 107.585L272.766 108.705C272.768 108.924 272.755 109.11 272.726 109.261Z" fill="#FDFFFF"/>
<path d="M277.693 107.678C277.69 107.309 277.647 106.993 277.563 106.73C277.48 106.467 277.365 106.251 277.215 106.083C277.068 105.914 276.893 105.791 276.688 105.714C276.485 105.635 276.259 105.597 276.012 105.6C275.763 105.602 275.541 105.644 275.339 105.725C275.137 105.807 274.963 105.934 274.819 106.105C274.755 106.182 274.696 106.267 274.645 106.363C274.582 106.48 274.527 106.613 274.486 106.759C274.444 106.902 274.415 107.057 274.398 107.23C274.38 107.378 274.374 107.538 274.375 107.708L274.383 108.562C274.386 108.931 274.43 109.247 274.513 109.51C274.596 109.773 274.712 109.989 274.859 110.159C275.007 110.329 275.183 110.452 275.387 110.531C275.592 110.608 275.818 110.646 276.065 110.643C276.311 110.641 276.536 110.6 276.739 110.518C276.941 110.436 277.115 110.31 277.259 110.136C277.401 109.965 277.512 109.747 277.589 109.481C277.668 109.216 277.704 108.901 277.701 108.532L277.693 107.678ZM276.687 109.224C276.658 109.377 276.616 109.498 276.558 109.591C276.502 109.686 276.432 109.753 276.347 109.795C276.262 109.835 276.166 109.858 276.057 109.858C275.949 109.859 275.853 109.84 275.766 109.8C275.681 109.76 275.608 109.694 275.548 109.601C275.489 109.508 275.444 109.388 275.411 109.237C275.379 109.087 275.361 108.901 275.359 108.681L275.348 107.562C275.346 107.344 275.359 107.16 275.388 107.012C275.417 106.863 275.46 106.743 275.518 106.652C275.576 106.56 275.646 106.493 275.731 106.451C275.814 106.411 275.911 106.39 276.018 106.389C276.127 106.387 276.223 106.407 276.31 106.447C276.395 106.487 276.468 106.551 276.528 106.642C276.589 106.732 276.635 106.852 276.667 107C276.698 107.149 276.715 107.332 276.717 107.55L276.728 108.668C276.73 108.889 276.715 109.074 276.687 109.224Z" fill="#FDFFFF"/>
<path d="M281.654 107.642C281.651 107.273 281.608 106.958 281.524 106.693C281.441 106.43 281.325 106.214 281.178 106.046C281.031 105.877 280.854 105.754 280.651 105.677C280.446 105.598 280.22 105.561 279.973 105.563C279.726 105.565 279.501 105.608 279.299 105.69C279.098 105.771 278.926 105.896 278.78 106.068C278.636 106.24 278.525 106.458 278.448 106.722C278.37 106.987 278.333 107.304 278.336 107.673L278.344 108.525C278.347 108.894 278.392 109.21 278.476 109.473C278.559 109.737 278.674 109.953 278.822 110.122C278.969 110.292 279.146 110.415 279.349 110.494C279.553 110.571 279.779 110.609 280.026 110.607C280.274 110.604 280.498 110.563 280.7 110.481C280.904 110.399 281.077 110.272 281.22 110.101C281.364 109.928 281.475 109.71 281.552 109.445C281.628 109.179 281.665 108.863 281.662 108.495L281.654 107.642ZM280.649 109.189C280.62 109.339 280.577 109.461 280.521 109.556C280.465 109.649 280.393 109.716 280.308 109.758C280.223 109.799 280.126 109.82 280.019 109.822C279.912 109.822 279.814 109.803 279.729 109.763C279.642 109.724 279.57 109.657 279.511 109.564C279.452 109.472 279.405 109.351 279.373 109.2C279.339 109.049 279.322 108.865 279.32 108.644L279.31 107.525C279.307 107.307 279.322 107.124 279.35 106.975C279.379 106.826 279.423 106.706 279.48 106.614C279.538 106.523 279.608 106.456 279.692 106.416C279.777 106.374 279.871 106.353 279.98 106.352C280.088 106.352 280.184 106.371 280.271 106.409C280.357 106.449 280.429 106.515 280.49 106.605C280.549 106.696 280.596 106.815 280.628 106.962C280.66 107.112 280.676 107.294 280.679 107.512L280.689 108.631C280.691 108.852 280.678 109.038 280.649 109.189Z" fill="#FDFFFF"/>
<path d="M285.616 107.605C285.613 107.237 285.568 106.921 285.487 106.658C285.402 106.393 285.286 106.179 285.139 106.01C284.991 105.842 284.815 105.719 284.611 105.64C284.408 105.563 284.182 105.525 283.935 105.526C283.687 105.53 283.462 105.571 283.262 105.653C283.06 105.735 282.887 105.861 282.742 106.031C282.598 106.203 282.486 106.421 282.409 106.685C282.332 106.951 282.295 107.267 282.299 107.636L282.307 108.489C282.31 108.857 282.353 109.173 282.436 109.438C282.52 109.7 282.635 109.917 282.782 110.087C282.93 110.255 283.106 110.38 283.31 110.457C283.515 110.535 283.741 110.572 283.988 110.571C284.235 110.569 284.459 110.526 284.663 110.444C284.865 110.362 285.038 110.236 285.182 110.064C285.325 109.891 285.435 109.673 285.512 109.408C285.591 109.144 285.628 108.827 285.624 108.458L285.616 107.605ZM284.61 109.152C284.581 109.303 284.538 109.425 284.482 109.519C284.425 109.614 284.355 109.681 284.27 109.721C284.185 109.763 284.089 109.784 283.98 109.785C283.872 109.785 283.776 109.766 283.69 109.727C283.605 109.687 283.531 109.622 283.472 109.529C283.412 109.436 283.367 109.314 283.334 109.163C283.302 109.014 283.284 108.828 283.281 108.609L283.271 107.488C283.27 107.27 283.282 107.087 283.311 106.938C283.34 106.789 283.384 106.669 283.441 106.578C283.499 106.487 283.569 106.421 283.654 106.379C283.738 106.337 283.834 106.317 283.941 106.317C284.05 106.315 284.146 106.334 284.231 106.374C284.318 106.413 284.392 106.479 284.451 106.57C284.512 106.66 284.558 106.778 284.589 106.927C284.621 107.075 284.639 107.258 284.64 107.476L284.65 108.596C284.653 108.815 284.639 109.002 284.61 109.152Z" fill="#FDFFFF"/>
<path d="M257.307 114.692C257.91 118.075 264.865 123.257 273.52 124.217C282.175 125.177 277.729 154.464 292.237 155.465C306.746 156.465 316.05 141.969 316.05 141.969C316.05 141.969 312.941 122.546 301.583 116.399C292.717 111.6 277.968 113.244 269.532 112.619C269.062 112.584 268.606 112.55 268.162 112.515C263.207 112.131 259.832 111.812 258.26 112.546C257.441 112.927 257.112 113.596 257.307 114.692Z" fill="#F7B686"/>
<path d="M300.138 151.908C295.981 151.908 288.729 151.009 283.674 145.436C279.687 141.039 277.883 130.625 277.808 130.184C277.757 129.883 277.961 129.596 278.261 129.545C278.568 129.499 278.849 129.697 278.9 129.998C278.918 130.103 280.725 140.536 284.495 144.692C291.404 152.311 303.1 150.632 303.215 150.611C303.522 150.574 303.801 150.773 303.846 151.075C303.892 151.377 303.684 151.66 303.383 151.706C303.227 151.73 301.989 151.908 300.138 151.908Z" fill="#EA9F75"/>
<path d="M258.26 112.546C257.271 113.825 259.796 115.442 263.46 115.52C265.99 115.573 266.417 112.453 266.333 112.373C261.378 111.988 259.832 111.812 258.26 112.546Z" fill="#EA9F75"/>
<path d="M331.097 160.843L342.132 183.214L300.296 203.635L293.405 205.203C293.405 205.203 286.658 182.7 287.651 181.183C288.643 179.666 302.368 177.692 312.683 171.587C322.997 165.481 330.029 158.386 331.097 160.843Z" fill="#D7DCDC"/>
<path d="M352.549 194.961C352.549 199.761 352.643 202.19 352.105 205.872C349.162 226.001 331.939 239.412 311.516 242.328C308.488 242.762 305.217 243.151 301.92 243.458C300.877 239.298 293.405 209.532 293.405 205.203C292.723 194.743 310.925 197.468 322.073 192.313C333.224 187.163 339.224 177.371 342.656 179.401C343.613 179.97 347.474 186.228 352.549 194.961Z" fill="#004225"/>
<path d="M334.123 181.065C334.204 179.144 333.135 178.151 331.743 177.054C330.661 176.201 329.843 175.157 329.52 173.794C329.185 172.377 329.745 170.682 328.95 169.398C328.273 168.303 327.002 167.678 326.228 166.643C325.804 166.077 326.714 165.465 327.135 166.028C327.944 167.109 329.244 167.733 329.94 168.91C330.754 170.287 330.265 171.85 330.545 173.334C330.907 175.249 332.361 175.972 333.66 177.18C334.742 178.185 335.279 179.531 335.217 181.002C335.187 181.699 334.093 181.772 334.123 181.065Z" fill="#E4EDEA"/>
<path d="M326.477 185.458C327.097 182.588 322.993 181.285 321.834 179.143C321.23 178.028 321.279 176.831 321.315 175.6C321.349 174.408 321.28 172.606 319.835 172.266C319.15 172.105 319.366 171.03 320.055 171.192C321.164 171.454 321.863 172.29 322.196 173.358C322.713 175.01 321.968 176.847 322.707 178.432C323.949 181.1 328.334 182.048 327.551 185.679C327.402 186.367 326.328 186.15 326.477 185.458Z" fill="#E4EDEA"/>
<path d="M317.806 191.722C318.548 189.758 318.007 187.589 316.462 186.181C315.266 185.09 313.703 184.352 312.932 182.857C312.111 181.265 312.925 179.191 311.907 177.724C310.992 176.406 309.059 176.04 307.846 175.035C307.302 174.583 308.022 173.757 308.565 174.207C309.921 175.332 311.902 175.673 312.892 177.234C314.052 179.062 312.916 181.46 314.455 183.132C315.733 184.521 317.534 185.242 318.478 186.958C319.377 188.589 319.44 190.484 318.788 192.207C318.539 192.867 317.558 192.377 317.806 191.722Z" fill="#E4EDEA"/>
<path d="M306.66 194.032C306.758 193.088 306.783 192.129 306.678 191.184C306.549 190.009 306.178 189.523 305.105 189.035C303.893 188.483 302.819 187.915 302.092 186.745C301.754 186.201 301.516 185.601 301.396 184.972C301.2 183.95 301.411 182.875 300.444 182.202C299.847 181.786 299.421 181.407 299.03 180.781C298.571 180.049 298.168 178.916 297.114 179.013C296.412 179.077 296.348 177.983 297.051 177.919C299.076 177.733 299.337 179.855 300.528 180.929C301.174 181.511 301.879 181.735 302.186 182.629C302.525 183.618 302.311 184.684 302.748 185.662C303.205 186.685 304.034 187.361 305.033 187.813C305.72 188.123 306.451 188.384 306.986 188.939C308.2 190.198 307.898 192.672 307.734 194.252C307.661 194.953 306.588 194.729 306.66 194.032Z" fill="#E4EDEA"/>
<path d="M291.407 180.127C290.23 181.799 292.506 183.587 293.489 184.669C294.583 185.873 295.016 187.133 294.957 188.745C294.893 190.523 294.544 192.125 295.728 193.642C296.652 194.827 297.779 195.731 297.997 197.307C298.093 198.004 296.998 198.066 296.902 197.37C296.653 195.561 294.656 194.569 294.026 192.899C293.408 191.261 294.005 189.537 293.854 187.855C293.589 184.913 288.223 182.757 290.579 179.408C290.986 178.831 291.809 179.555 291.407 180.127Z" fill="#E4EDEA"/>
<path d="M261.221 142.601C263.2 141.559 264.652 139.831 265.367 137.716C265.532 137.226 264.758 137.016 264.594 137.503C263.944 139.426 262.61 140.965 260.817 141.909C260.36 142.149 260.765 142.841 261.221 142.601Z" fill="#EA9F75"/>
<path d="M264.826 141.027C263.625 141.462 262.399 141.693 261.122 141.714C260.606 141.723 260.605 142.524 261.122 142.516C262.468 142.493 263.772 142.259 265.039 141.8C265.52 141.626 265.313 140.851 264.826 141.027Z" fill="#EA9F75"/>
<path d="M291.112 113.535C296.047 115.383 300.459 118.786 304.871 121.615C305.306 121.895 305.708 121.201 305.275 120.923C300.783 118.042 296.352 114.645 291.325 112.763C290.841 112.581 290.632 113.356 291.112 113.535Z" fill="#EA9F75"/>
<path d="M272.088 160.229C275.994 164.086 281.41 163.675 286.46 163.009C286.964 162.942 286.97 162.14 286.46 162.207C281.659 162.841 276.399 163.36 272.655 159.662C272.288 159.299 271.72 159.866 272.088 160.229Z" fill="#EA9F75"/>
<path d="M55.322 154.496C55.322 154.496 57.566 162.35 64.138 161.869L82.2508 154.496V146.962L55.322 154.496Z" fill="#FDFFFF"/>
<path d="M74.4974 57.4585C74.4974 57.4585 46.8268 63.7355 64.4587 99.6585C82.0906 135.582 76.9592 157.061 64.1381 161.869L130.893 145.52L112.867 72.1065L94.7382 58.6421L74.4974 57.4585Z" fill="#B5B9B9"/>
<path d="M186.317 208.477L135.773 222.37C126.792 224.838 117.511 219.559 115.042 210.578L84.6718 100.084C82.2033 91.1036 87.4825 81.8224 96.4632 79.3539L147.007 65.4613C155.988 62.9929 165.269 68.2721 167.737 77.2527L198.108 187.747C200.576 196.728 195.297 206.009 186.317 208.477Z" fill="#141414"/>
<path d="M196.344 205.721L145.8 219.613C136.819 222.082 127.538 216.803 125.07 207.822L94.6991 97.3279C92.2306 88.3473 97.5099 79.066 106.491 76.5975L157.034 62.705C166.015 60.2365 175.296 65.5157 177.765 74.4964L208.135 184.991C210.604 193.971 205.325 203.252 196.344 205.721Z" fill="#004225"/>
<path d="M171.178 86.6242L108.115 103.957L117.611 138.508L180.674 121.176L171.178 86.6242Z" fill="#141414"/>
<path d="M169.633 87.049L106.569 104.381L116.065 138.933L179.129 121.601L169.633 87.049Z" fill="#E4EDEA"/>
<path d="M136.565 154.376L124.89 157.585C122.995 158.106 121.037 156.992 120.516 155.098L119.437 151.17C118.916 149.276 120.03 147.318 121.924 146.797L133.6 143.588C135.495 143.067 137.452 144.181 137.973 146.076L139.053 150.003C139.573 151.897 138.46 153.855 136.565 154.376Z" fill="#141414"/>
<path d="M158.83 148.256L147.154 151.465C145.26 151.986 143.302 150.872 142.781 148.977L141.702 145.05C141.181 143.156 142.295 141.198 144.189 140.677L155.865 137.468C157.76 136.947 159.717 138.061 160.238 139.955L161.318 143.882C161.838 145.777 160.725 147.735 158.83 148.256Z" fill="#141414"/>
<path d="M181.095 142.136L169.42 145.345C167.525 145.866 165.567 144.752 165.046 142.858L163.967 138.931C163.446 137.036 164.56 135.078 166.454 134.558L178.13 131.348C180.025 130.828 181.983 131.941 182.503 133.836L183.583 137.763C184.103 139.657 182.99 141.615 181.095 142.136Z" fill="#141414"/>
<path d="M140.977 170.425L129.301 173.634C127.406 174.155 125.449 173.041 124.928 171.147L123.848 167.22C123.328 165.325 124.441 163.367 126.336 162.847L138.011 159.637C139.906 159.117 141.864 160.23 142.385 162.125L143.464 166.052C143.985 167.946 142.871 169.904 140.977 170.425Z" fill="#141414"/>
<path d="M163.241 164.305L151.566 167.515C149.671 168.035 147.713 166.922 147.193 165.027L146.113 161.1C145.592 159.206 146.706 157.248 148.601 156.727L160.276 153.518C162.171 152.997 164.129 154.111 164.649 156.005L165.729 159.932C166.25 161.827 165.136 163.785 163.241 164.305Z" fill="#141414"/>
<path d="M185.507 158.185L173.831 161.395C171.936 161.915 169.979 160.802 169.458 158.907L168.378 154.98C167.858 153.085 168.971 151.128 170.866 150.607L182.541 147.398C184.436 146.877 186.394 147.991 186.915 149.885L187.994 153.812C188.515 155.707 187.401 157.665 185.507 158.185Z" fill="#141414"/>
<path d="M145.388 186.475L133.713 189.684C131.818 190.205 129.86 189.091 129.339 187.197L128.26 183.27C127.739 181.375 128.853 179.417 130.747 178.896L142.423 175.687C144.318 175.166 146.275 176.28 146.796 178.175L147.876 182.102C148.396 183.996 147.283 185.954 145.388 186.475Z" fill="#141414"/>
<path d="M167.653 180.355L155.977 183.564C154.083 184.085 152.125 182.971 151.604 181.077L150.525 177.149C150.004 175.255 151.118 173.297 153.012 172.776L164.688 169.567C166.583 169.046 168.54 170.16 169.061 172.055L170.141 175.982C170.661 177.876 169.548 179.834 167.653 180.355Z" fill="#141414"/>
<path d="M189.918 174.235L178.243 177.444C176.348 177.965 174.39 176.851 173.869 174.957L172.79 171.03C172.269 169.135 173.383 167.177 175.277 166.657L186.953 163.447C188.848 162.927 190.806 164.04 191.326 165.935L192.406 169.862C192.926 171.757 191.813 173.714 189.918 174.235Z" fill="#141414"/>
<path d="M149.8 202.525L138.124 205.734C136.229 206.255 134.272 205.141 133.751 203.246L132.671 199.319C132.151 197.425 133.264 195.467 135.159 194.946L146.834 191.737C148.729 191.216 150.687 192.33 151.208 194.224L152.287 198.152C152.808 200.046 151.694 202.004 149.8 202.525Z" fill="#BCBF80"/>
<path d="M172.064 196.405L160.389 199.614C158.494 200.135 156.536 199.021 156.016 197.126L154.936 193.199C154.415 191.305 155.529 189.347 157.424 188.826L169.099 185.617C170.994 185.096 172.952 186.21 173.472 188.104L174.552 192.031C175.073 193.926 173.959 195.884 172.064 196.405Z" fill="#629FB7"/>
<path d="M194.33 190.285L182.654 193.494C180.759 194.015 178.802 192.901 178.281 191.007L177.201 187.08C176.681 185.185 177.794 183.227 179.689 182.706L191.364 179.497C193.259 178.977 195.217 180.09 195.738 181.985L196.817 185.912C197.338 187.806 196.224 189.764 194.33 190.285Z" fill="#FFB000"/>
<path d="M138.935 153.724L127.259 156.934C125.365 157.454 123.407 156.341 122.886 154.446L121.807 150.519C121.286 148.625 122.4 146.667 124.294 146.146L135.97 142.937C137.864 142.416 139.822 143.53 140.343 145.424L141.423 149.351C141.943 151.246 140.83 153.204 138.935 153.724Z" fill="#E4EDEA"/>
<path d="M161.2 147.604L149.524 150.814C147.63 151.334 145.672 150.221 145.151 148.326L144.072 144.399C143.551 142.504 144.665 140.547 146.559 140.026L158.235 136.817C160.129 136.296 162.087 137.41 162.608 139.304L163.687 143.231C164.208 145.126 163.095 147.084 161.2 147.604Z" fill="#E4EDEA"/>
<path d="M183.465 141.485L171.789 144.694C169.895 145.215 167.937 144.101 167.416 142.206L166.337 138.279C165.816 136.385 166.93 134.427 168.824 133.906L180.5 130.697C182.395 130.176 184.352 131.29 184.873 133.184L185.953 137.111C186.473 139.006 185.36 140.964 183.465 141.485Z" fill="#E4EDEA"/>
<path d="M143.346 169.774L131.671 172.983C129.776 173.504 127.818 172.39 127.298 170.496L126.218 166.569C125.697 164.674 126.811 162.716 128.706 162.196L140.381 158.987C142.276 158.466 144.234 159.579 144.754 161.474L145.834 165.401C146.355 167.296 145.241 169.253 143.346 169.774Z" fill="#E4EDEA"/>
<path d="M165.611 163.654L153.936 166.863C152.041 167.384 150.083 166.27 149.563 164.376L148.483 160.449C147.962 158.554 149.076 156.596 150.971 156.076L162.646 152.866C164.541 152.346 166.499 153.459 167.019 155.354L168.099 159.281C168.62 161.175 167.506 163.133 165.611 163.654Z" fill="#E4EDEA"/>
<path d="M187.876 157.534L176.201 160.744C174.306 161.264 172.348 160.151 171.828 158.256L170.748 154.329C170.228 152.435 171.341 150.477 173.236 149.956L184.911 146.747C186.806 146.226 188.764 147.34 189.285 149.234L190.364 153.161C190.885 155.056 189.771 157.014 187.876 157.534Z" fill="#E4EDEA"/>
<path d="M147.758 185.824L136.082 189.033C134.188 189.553 132.23 188.44 131.709 186.545L130.63 182.618C130.109 180.724 131.223 178.766 133.117 178.245L144.793 175.036C146.687 174.515 148.645 175.629 149.166 177.523L150.245 181.45C150.766 183.345 149.652 185.303 147.758 185.824Z" fill="#E4EDEA"/>
<path d="M170.023 179.703L158.347 182.913C156.453 183.433 154.495 182.32 153.974 180.425L152.894 176.498C152.374 174.604 153.487 172.646 155.382 172.125L167.058 168.916C168.952 168.395 170.91 169.509 171.431 171.403L172.51 175.33C173.031 177.225 171.917 179.183 170.023 179.703Z" fill="#E4EDEA"/>
<path d="M192.288 173.584L180.612 176.793C178.718 177.314 176.76 176.2 176.239 174.306L175.16 170.378C174.639 168.484 175.753 166.526 177.647 166.005L189.323 162.796C191.217 162.275 193.175 163.389 193.696 165.284L194.775 169.211C195.296 171.105 194.182 173.063 192.288 173.584Z" fill="#E4EDEA"/>
<path d="M152.169 201.873L140.494 205.083C138.599 205.603 136.641 204.49 136.121 202.595L135.041 198.668C134.52 196.773 135.634 194.816 137.529 194.295L149.204 191.086C151.099 190.565 153.057 191.679 153.577 193.573L154.657 197.5C155.178 199.395 154.064 201.353 152.169 201.873Z" fill="#CFD3A3"/>
<path d="M174.435 195.753L162.759 198.962C160.864 199.483 158.907 198.37 158.386 196.475L157.306 192.548C156.786 190.653 157.899 188.695 159.794 188.175L171.469 184.966C173.364 184.445 175.322 185.558 175.843 187.453L176.922 191.38C177.443 193.274 176.329 195.232 174.435 195.753Z" fill="#81B3CC"/>
<path d="M196.699 189.634L185.024 192.843C183.129 193.364 181.171 192.25 180.651 190.355L179.571 186.428C179.051 184.534 180.164 182.576 182.059 182.055L193.734 178.846C195.629 178.325 197.587 179.439 198.108 181.333L199.187 185.26C199.708 187.155 198.594 189.113 196.699 189.634Z" fill="#FFB000"/>
<path d="M199.257 194.842L138.563 211.523L139.031 213.224L199.725 196.542L199.257 194.842Z" fill="#141414"/>
<path d="M166.925 80.9723C166.925 80.9723 161.659 45.4372 139.716 42.7925L74.4973 57.4585C74.4973 57.4585 97.9871 57.1772 105.596 97.8293L166.925 80.9723Z" fill="#FDFFFF"/>
<path d="M168.169 80.8914L104.698 98.3372C104.481 98.3969 104.256 98.2694 104.197 98.0525C104.137 97.8355 104.265 97.6114 104.482 97.5518L167.953 80.106C168.17 80.0463 168.394 80.1739 168.453 80.3907C168.513 80.6077 168.386 80.8318 168.169 80.8914Z" fill="#141414"/>
<path d="M107.266 84.7512C122.738 79.6607 138.331 74.9829 154.05 70.7159C154.547 70.5809 154.336 69.8076 153.837 69.9431C138.118 74.2101 122.525 78.8879 107.053 83.9784C106.565 84.1389 106.774 84.9131 107.266 84.7512Z" fill="#B5B9B9"/>
<path d="M107.614 87.2398C113.95 85.1528 120.352 83.3169 126.831 81.7289C127.332 81.6061 127.12 80.8331 126.618 80.9561C120.139 82.5441 113.737 84.38 107.401 86.467C106.914 86.6276 107.123 87.4018 107.614 87.2398Z" fill="#B5B9B9"/>
<path d="M104.967 77.0732C118.113 72.5441 131.401 68.518 144.809 64.8393C145.306 64.703 145.095 63.9295 144.596 64.0665C131.188 67.7451 117.9 71.7712 104.754 76.3003C104.269 76.4674 104.477 77.242 104.967 77.0732Z" fill="#B5B9B9"/>
<path d="M103.239 73.4906C109.062 71.4108 114.869 69.3499 120.818 67.65C121.313 67.5085 121.102 66.735 120.604 66.8772C114.656 68.5771 108.849 70.638 103.026 72.7178C102.543 72.8901 102.751 73.6647 103.239 73.4906Z" fill="#B5B9B9"/>
<path d="M124.888 66.2076C132.944 63.6758 141.045 61.3348 149.256 59.3559C149.757 59.2351 149.544 58.462 149.042 58.5831C140.832 60.5621 132.731 62.903 124.675 65.4348C124.185 65.5888 124.394 66.3628 124.888 66.2076Z" fill="#B5B9B9"/>
<path d="M101.171 69.0349C112.766 65.0726 124.544 61.7303 136.432 58.7688C136.932 58.6442 136.72 57.8711 136.219 57.996C124.331 60.9575 112.553 64.2998 100.958 68.2621C100.473 68.4279 100.682 69.2024 101.171 69.0349Z" fill="#B5B9B9"/>
<path d="M94.9297 61.5302C102.724 58.7337 110.662 56.5545 118.792 54.9801C119.298 54.8821 119.084 54.1095 118.579 54.2073C110.45 55.7817 102.511 57.9608 94.7167 60.7575C94.2347 60.9304 94.4426 61.705 94.9297 61.5302Z" fill="#B5B9B9"/>
<path d="M122.555 53.8391C128.545 51.9195 134.595 50.2348 140.716 48.7823C141.217 48.6632 141.005 47.8903 140.503 48.0095C134.383 49.462 128.332 51.1467 122.342 53.0663C121.853 53.223 122.062 53.9971 122.555 53.8391Z" fill="#B5B9B9"/>
<path d="M92.0854 59.253C94.0569 58.5296 96.0623 57.9363 98.1103 57.4708C98.613 57.3566 98.4002 56.5837 97.8972 56.698C95.8494 57.1635 93.844 57.7567 91.8723 58.4802C91.392 58.6564 91.5995 59.4312 92.0854 59.253Z" fill="#B5B9B9"/>
<path d="M142.791 126.087C138.343 126.087 134.519 124.606 132.022 121.916C129.779 119.498 128.744 116.179 129.033 112.316C129.604 104.662 135.258 99.0091 142.781 98.5698C146.399 98.3566 149.681 99.517 152.231 101.923C154.975 104.512 156.55 108.304 156.55 112.328C156.55 120.686 151.149 126.087 142.791 126.087ZM143.618 98.8659C143.347 98.8659 143.075 98.8735 142.8 98.8895C135.441 99.3197 129.912 104.85 129.353 112.34C129.071 116.111 130.075 119.347 132.258 121.698C134.657 124.284 138.496 125.766 142.791 125.766C150.954 125.766 156.229 120.492 156.229 112.328C156.229 108.392 154.692 104.685 152.011 102.156C149.72 99.9943 146.832 98.8659 143.618 98.8659Z" fill="#141414"/>
<path d="M130.637 112.328C131.196 104.839 136.738 99.167 144.235 98.7295C152.312 98.2582 157.834 104.818 157.834 112.328C157.834 119.838 153.274 125.926 144.235 125.926C136.725 125.926 129.952 121.5 130.637 112.328Z" fill="#FFB000"/>
<path d="M146.008 121.176C145.642 121.176 145.282 121.036 145.01 120.774L136.124 112.252C135.548 111.701 135.529 110.788 136.081 110.213C136.633 109.638 137.545 109.618 138.12 110.17L144.992 116.76L146.985 103.361C147.103 102.575 147.828 102.035 148.625 102.147C149.413 102.264 149.957 102.998 149.839 103.786L147.435 119.946C147.355 120.479 146.985 120.924 146.474 121.098C146.322 121.15 146.164 121.176 146.008 121.176Z" fill="#FDFFFF"/>
<path d="M270.759 229.865C270.693 229.865 270.626 229.863 270.559 229.863L270.561 229.702C270.655 229.705 270.748 229.711 270.839 229.703C270.949 229.703 271.058 229.702 271.166 229.7L271.167 229.862C271.034 229.863 270.898 229.866 270.759 229.865ZM269.945 229.84C269.745 229.827 269.542 229.813 269.336 229.795L269.35 229.636C269.554 229.655 269.756 229.668 269.954 229.679L269.945 229.84ZM271.779 229.834L271.769 229.673C271.973 229.661 272.175 229.642 272.37 229.62L272.388 229.778C272.191 229.801 271.986 229.819 271.779 229.834ZM268.728 229.732C268.53 229.708 268.328 229.682 268.124 229.653L268.146 229.495C268.35 229.524 268.55 229.55 268.748 229.574L268.728 229.732ZM272.995 229.69L272.967 229.531C273.171 229.496 273.369 229.455 273.557 229.41L273.595 229.565C273.403 229.612 273.201 229.655 272.995 229.69ZM267.521 229.557C267.323 229.525 267.123 229.489 266.92 229.449L266.95 229.291C267.152 229.33 267.351 229.367 267.547 229.399L267.521 229.557ZM274.186 229.4L274.137 229.248C274.33 229.187 274.521 229.119 274.702 229.044L274.763 229.193C274.577 229.268 274.383 229.338 274.186 229.4ZM266.323 229.324C266.113 229.278 265.918 229.23 265.728 229.176L265.772 229.021C265.959 229.075 266.151 229.123 266.358 229.169L266.323 229.324ZM265.145 228.988C264.953 228.918 264.762 228.841 264.576 228.761L264.64 228.615C264.823 228.694 265.011 228.768 265.2 228.835L265.145 228.988ZM275.324 228.94L275.251 228.797C275.436 228.703 275.612 228.604 275.774 228.502L275.859 228.639C275.694 228.742 275.513 228.844 275.324 228.94ZM264.024 228.5C263.849 228.412 263.674 228.315 263.488 228.202L263.57 228.065C263.753 228.175 263.925 228.27 264.097 228.357L264.024 228.5ZM276.362 228.289L276.265 228.161C276.431 228.033 276.579 227.905 276.719 227.771L276.831 227.887C276.687 228.025 276.534 228.156 276.362 228.289ZM262.974 227.871C262.817 227.765 262.656 227.646 262.48 227.51L262.579 227.382C262.752 227.518 262.91 227.634 263.064 227.737L262.974 227.871ZM277.256 227.442L277.134 227.338C277.264 227.189 277.388 227.029 277.504 226.866L277.635 226.958C277.516 227.127 277.388 227.29 277.256 227.442ZM262.008 227.121C261.851 226.982 261.7 226.843 261.558 226.706L261.67 226.591C261.81 226.726 261.959 226.863 262.113 226.999L262.008 227.121ZM277.964 226.438L277.826 226.359C277.923 226.189 278.017 226.009 278.102 225.825L278.248 225.892C278.16 226.08 278.065 226.265 277.964 226.438ZM261.131 226.268C260.994 226.119 260.858 225.968 260.725 225.811L260.847 225.707C260.978 225.861 261.112 226.012 261.248 226.158L261.131 226.268ZM260.339 225.334C260.215 225.176 260.094 225.011 259.974 224.845L260.105 224.751C260.223 224.917 260.343 225.079 260.466 225.237L260.339 225.334ZM278.483 225.325L278.332 225.27C278.4 225.086 278.464 224.894 278.521 224.698L278.675 224.743C278.616 224.943 278.552 225.139 278.483 225.325ZM259.629 224.343C259.518 224.174 259.409 224.003 259.302 223.827L259.439 223.744C259.544 223.918 259.653 224.089 259.763 224.255L259.629 224.343ZM278.826 224.148L278.67 224.114C278.713 223.918 278.751 223.72 278.782 223.522L278.941 223.546C278.909 223.747 278.871 223.95 278.826 224.148ZM258.991 223.301C258.893 223.124 258.794 222.946 258.699 222.765L258.84 222.689C258.936 222.87 259.033 223.048 259.131 223.222L258.991 223.301ZM279.023 222.94L278.863 222.922C278.884 222.733 278.901 222.531 278.914 222.321L279.074 222.33C279.06 222.543 279.043 222.748 279.023 222.94ZM258.421 222.22C258.332 222.04 258.244 221.856 258.157 221.67L258.303 221.603C258.389 221.789 258.476 221.97 258.564 222.15L258.421 222.22ZM279.097 221.719L278.938 221.716C278.94 221.615 278.941 221.515 278.941 221.416C278.941 221.314 278.941 221.213 278.938 221.111L279.098 221.108C279.101 221.21 279.101 221.314 279.101 221.416C279.101 221.518 279.1 221.618 279.097 221.719ZM257.909 221.116C257.829 220.932 257.751 220.743 257.673 220.553L257.822 220.492C257.898 220.682 257.977 220.868 258.057 221.052L257.909 221.116ZM278.916 220.505C278.906 220.306 278.892 220.105 278.874 219.899L279.034 219.887C279.052 220.093 279.065 220.297 279.076 220.496L278.916 220.505ZM257.451 219.983C257.378 219.794 257.307 219.604 257.238 219.412L257.389 219.357C257.458 219.549 257.529 219.739 257.6 219.925L257.451 219.983ZM278.814 219.299C278.792 219.1 278.766 218.9 278.738 218.698L278.896 218.676C278.925 218.879 278.951 219.081 278.974 219.281L278.814 219.299ZM257.036 218.838C256.972 218.647 256.909 218.452 256.847 218.257L256.999 218.209C257.061 218.404 257.125 218.596 257.189 218.786L257.036 218.838ZM278.647 218.097C278.614 217.899 278.579 217.7 278.542 217.499L278.699 217.469C278.737 217.673 278.772 217.872 278.805 218.07L278.647 218.097ZM256.665 217.673C256.608 217.481 256.55 217.286 256.495 217.088L256.649 217.045C256.704 217.24 256.761 217.435 256.819 217.627L256.665 217.673ZM278.424 216.905C278.382 216.709 278.339 216.511 278.293 216.313L278.45 216.276C278.496 216.477 278.539 216.675 278.581 216.872L278.424 216.905ZM256.333 216.5C256.28 216.307 256.229 216.109 256.179 215.911L256.334 215.871C256.385 216.069 256.436 216.264 256.488 216.457L256.333 216.5ZM278.152 215.722C278.103 215.527 278.052 215.33 278 215.132L278.156 215.093C278.207 215.291 278.258 215.487 278.307 215.682L278.152 215.722ZM256.033 215.321C255.985 215.125 255.938 214.927 255.893 214.727L256.05 214.691C256.095 214.89 256.14 215.088 256.188 215.282L256.033 215.321ZM277.839 214.548C277.784 214.356 277.727 214.161 277.668 213.966L277.822 213.92C277.881 214.115 277.938 214.31 277.992 214.505L277.839 214.548ZM255.762 214.132C255.721 213.934 255.68 213.736 255.639 213.535L255.796 213.505C255.836 213.702 255.877 213.9 255.919 214.098L255.762 214.132ZM277.489 213.384C277.428 213.192 277.366 212.999 277.302 212.807L277.454 212.755C277.518 212.95 277.581 213.144 277.642 213.335L277.489 213.384ZM255.522 212.938C255.484 212.74 255.446 212.541 255.41 212.338L255.568 212.311C255.605 212.51 255.641 212.71 255.679 212.908L255.522 212.938ZM277.108 212.231C277.043 212.041 276.976 211.851 276.906 211.659L277.057 211.604C277.127 211.796 277.194 211.989 277.26 212.18L277.108 212.231ZM255.306 211.738C255.271 211.539 255.239 211.338 255.207 211.136L255.365 211.112C255.397 211.313 255.43 211.511 255.464 211.711L255.306 211.738ZM276.698 211.086C276.628 210.899 276.557 210.708 276.483 210.518L276.633 210.46C276.707 210.651 276.779 210.841 276.849 211.031L276.698 211.086ZM255.113 210.535C255.083 210.335 255.054 210.134 255.025 209.93L255.183 209.909C255.212 210.11 255.242 210.311 255.271 210.511L255.113 210.535ZM276.263 209.952C276.188 209.766 276.113 209.577 276.036 209.388L276.183 209.327C276.261 209.516 276.337 209.705 276.412 209.894L276.263 209.952ZM254.942 209.33C254.915 209.129 254.889 208.928 254.864 208.724L255.022 208.706C255.047 208.907 255.073 209.108 255.101 209.309L254.942 209.33ZM275.804 208.828C275.725 208.643 275.646 208.456 275.565 208.27L275.713 208.206C275.794 208.392 275.873 208.579 275.951 208.767L275.804 208.828ZM254.791 208.12C254.766 207.919 254.743 207.718 254.721 207.515L254.881 207.497C254.903 207.699 254.926 207.9 254.949 208.101L254.791 208.12ZM275.322 207.709C275.241 207.524 275.158 207.34 275.074 207.154L275.22 207.087C275.304 207.273 275.387 207.46 275.468 207.645L275.322 207.709ZM254.656 206.909C254.636 206.708 254.616 206.505 254.597 206.303L254.756 206.288C254.775 206.49 254.795 206.693 254.816 206.894L254.656 206.909ZM274.821 206.601C274.738 206.419 274.651 206.234 274.564 206.052L274.709 205.982C274.796 206.167 274.882 206.352 274.967 206.534L274.821 206.601ZM254.541 205.698C254.524 205.496 254.506 205.293 254.489 205.091L254.649 205.079C254.666 205.281 254.683 205.484 254.701 205.683L254.541 205.698ZM274.303 205.502C274.215 205.321 274.126 205.138 274.037 204.955L274.182 204.885C274.271 205.068 274.36 205.251 274.447 205.432L274.303 205.502ZM254.441 204.481C254.425 204.28 254.411 204.078 254.396 203.875L254.556 203.863C254.571 204.066 254.585 204.268 254.6 204.469L254.441 204.481ZM273.766 204.413C273.675 204.232 273.584 204.05 273.492 203.869L273.635 203.796C273.727 203.977 273.818 204.159 273.909 204.34L273.766 204.413ZM273.214 203.329C273.122 203.149 273.027 202.969 272.932 202.791L273.074 202.715C273.169 202.896 273.263 203.076 273.357 203.256L273.214 203.329ZM254.356 203.266C254.343 203.065 254.331 202.863 254.319 202.66L254.479 202.651C254.491 202.854 254.503 203.056 254.516 203.257L254.356 203.266ZM272.646 202.253C272.555 202.083 272.462 201.912 272.369 201.739L272.357 201.717L272.498 201.641L272.51 201.663C272.603 201.836 272.696 202.007 272.787 202.177L272.646 202.253ZM254.286 202.052C254.275 201.851 254.266 201.649 254.256 201.445L254.415 201.436C254.425 201.64 254.435 201.842 254.446 202.043L254.286 202.052ZM272.064 201.186L271.767 200.654L271.907 200.575L272.204 201.107L272.064 201.186ZM254.229 200.837C254.221 200.635 254.212 200.432 254.205 200.228L254.364 200.222C254.372 200.426 254.38 200.629 254.389 200.831L254.229 200.837ZM271.469 200.123C271.369 199.948 271.268 199.771 271.166 199.596L271.305 199.517C271.406 199.692 271.508 199.869 271.607 200.044L271.469 200.123ZM254.184 199.622C254.177 199.419 254.171 199.217 254.166 199.011L254.326 199.008C254.331 199.211 254.337 199.413 254.344 199.616L254.184 199.622ZM270.86 199.071C270.758 198.897 270.656 198.722 270.552 198.548L270.689 198.466C270.793 198.64 270.897 198.815 270.999 198.992L270.86 199.071ZM254.15 198.404C254.145 198.201 254.141 197.999 254.138 197.795L254.297 197.792C254.301 197.996 254.305 198.198 254.31 198.401L254.15 198.404ZM270.239 198.026C270.135 197.852 270.03 197.679 269.924 197.505L270.061 197.423C270.167 197.597 270.272 197.77 270.376 197.944L270.239 198.026ZM254.128 197.185C254.125 196.983 254.123 196.78 254.122 196.575H254.281C254.283 196.777 254.285 196.98 254.288 197.182L254.128 197.185ZM269.606 196.987L269.285 196.471L269.42 196.386L269.742 196.902L269.606 196.987ZM254.118 195.967C254.116 195.764 254.115 195.562 254.115 195.358H254.275C254.275 195.562 254.276 195.764 254.278 195.967H254.118ZM268.962 195.955L268.635 195.442L268.771 195.356L269.098 195.87L268.962 195.955ZM268.306 194.93C268.197 194.761 268.087 194.59 267.975 194.421L268.109 194.333C268.221 194.502 268.331 194.673 268.442 194.845L268.306 194.93ZM254.276 194.75H254.116C254.117 194.548 254.118 194.345 254.119 194.141H254.279C254.278 194.345 254.277 194.548 254.276 194.75ZM267.64 193.913L267.303 193.406L267.437 193.317L267.774 193.824L267.64 193.913ZM254.285 193.535L254.125 193.532C254.127 193.329 254.129 193.127 254.132 192.923L254.292 192.926C254.289 193.13 254.287 193.332 254.285 193.535ZM266.964 192.902L266.622 192.399L266.755 192.308L267.096 192.81L266.964 192.902ZM254.303 192.318L254.143 192.315L254.156 191.708L254.316 191.711L254.303 192.318ZM266.276 191.898L265.93 191.399L266.061 191.307L266.409 191.807L266.276 191.898ZM254.329 191.1L254.17 191.097C254.175 190.894 254.18 190.69 254.186 190.488L254.346 190.494C254.34 190.696 254.335 190.897 254.329 191.1ZM265.58 190.9C265.463 190.734 265.346 190.57 265.228 190.406L265.359 190.311C265.477 190.476 265.594 190.643 265.711 190.809L265.58 190.9ZM264.875 189.911L264.518 189.417L264.647 189.323L265.004 189.816L264.875 189.911ZM254.365 189.885L254.205 189.879C254.212 189.676 254.219 189.474 254.227 189.271L254.386 189.277C254.379 189.48 254.372 189.682 254.365 189.885ZM264.158 188.928L263.796 188.438L263.926 188.344L264.288 188.834L264.158 188.928ZM254.409 188.671L254.249 188.665L254.274 188.057L254.434 188.063L254.409 188.671ZM263.433 187.952L263.067 187.466L263.195 187.369L263.561 187.855L263.433 187.952ZM254.46 187.454L254.3 187.448C254.31 187.246 254.319 187.041 254.329 186.839L254.489 186.848C254.479 187.051 254.469 187.252 254.46 187.454ZM262.698 186.982C262.576 186.821 262.452 186.659 262.328 186.499L262.455 186.402C262.579 186.562 262.702 186.723 262.826 186.885L262.698 186.982ZM254.519 186.24L254.359 186.231C254.37 186.029 254.38 185.826 254.392 185.624L254.552 185.633C254.54 185.835 254.53 186.038 254.519 186.24ZM261.955 186.02L261.58 185.541L261.706 185.441L262.082 185.922L261.955 186.02ZM261.204 185.063L260.824 184.587L260.949 184.486L261.329 184.963L261.204 185.063ZM254.587 185.027L254.427 185.018C254.438 184.815 254.45 184.612 254.463 184.41L254.623 184.419C254.61 184.622 254.598 184.824 254.587 185.027ZM260.442 184.114L260.06 183.644L260.185 183.543L260.567 184.014L260.442 184.114ZM254.66 183.81L254.5 183.801L254.54 183.193L254.699 183.205L254.66 183.81ZM259.675 183.176L259.288 182.709L259.411 182.605L259.799 183.073L259.675 183.176ZM254.74 182.598L254.58 182.586L254.623 181.979L254.782 181.992L254.74 182.598ZM258.899 182.243C258.77 182.088 258.639 181.932 258.508 181.778L258.63 181.675C258.761 181.829 258.892 181.984 259.023 182.139L258.899 182.243ZM254.827 181.384L254.667 181.372L254.713 180.766L254.873 180.778L254.827 181.384ZM258.115 181.319L257.718 180.857L257.84 180.753L258.236 181.215L258.115 181.319ZM257.32 180.4L256.918 179.943L257.039 179.837L257.44 180.294L257.32 180.4ZM254.92 180.172L254.76 180.16L254.81 179.554L254.97 179.566L254.92 180.172ZM256.515 179.488C256.38 179.336 256.245 179.185 256.11 179.034L256.228 178.927C256.364 179.078 256.5 179.229 256.635 179.381L256.515 179.488ZM255.02 178.96L254.86 178.944L254.913 178.338L255.073 178.354L255.02 178.96ZM255.702 178.58C255.566 178.43 255.43 178.28 255.293 178.133L255.41 178.023C255.547 178.171 255.685 178.323 255.821 178.474L255.702 178.58ZM255.127 177.746L254.967 177.731L254.98 177.591L254.88 177.683C254.742 177.534 254.604 177.385 254.465 177.237L254.582 177.127C254.716 177.271 254.85 177.414 254.983 177.558L255.022 177.126L255.182 177.141L255.127 177.746ZM254.047 176.792L253.628 176.349L253.744 176.24L254.164 176.683L254.047 176.792ZM255.239 176.535L255.079 176.52L255.137 175.914L255.296 175.929L255.239 176.535ZM253.205 175.908L252.781 175.469L252.897 175.356L253.321 175.795L253.205 175.908ZM255.355 175.324L255.195 175.309L255.256 174.703L255.416 174.718L255.355 175.324ZM252.356 175.034C252.213 174.889 252.071 174.744 251.929 174.601L252.043 174.488C252.185 174.632 252.328 174.776 252.47 174.921L252.356 175.034ZM251.501 174.169L251.069 173.739L251.182 173.626L251.613 174.056L251.501 174.169ZM255.478 174.115L255.319 174.097L255.382 173.491L255.542 173.509L255.478 174.115ZM250.635 173.316L250.2 172.891L250.311 172.775L250.748 173.2L250.635 173.316ZM255.608 172.905L255.448 172.886L255.514 172.279L255.674 172.297L255.608 172.905ZM249.762 172.469L249.322 172.049L249.433 171.933L249.874 172.353L249.762 172.469ZM255.742 171.692L255.582 171.674C255.605 171.472 255.628 171.269 255.651 171.066L255.811 171.085C255.788 171.287 255.765 171.49 255.742 171.692ZM248.88 171.63L248.435 171.214L248.545 171.098L248.989 171.514L248.88 171.63ZM247.988 170.805C247.839 170.667 247.689 170.53 247.539 170.395L247.647 170.276C247.797 170.412 247.947 170.549 248.096 170.686L247.988 170.805ZM255.881 170.477L255.721 170.459L255.793 169.853L255.953 169.871L255.881 170.477ZM247.088 169.987C246.937 169.851 246.786 169.716 246.634 169.582L246.741 169.463C246.892 169.597 247.044 169.732 247.195 169.868L247.088 169.987ZM256.026 169.265L255.866 169.247C255.89 169.046 255.916 168.843 255.941 168.641L256.099 168.659C256.074 168.861 256.049 169.064 256.026 169.265ZM246.177 169.181C246.024 169.047 245.871 168.913 245.718 168.781L245.823 168.659C245.976 168.791 246.13 168.925 246.283 169.059L246.177 169.181ZM245.258 168.383C245.104 168.251 244.949 168.12 244.795 167.989L244.898 167.867C245.053 167.998 245.207 168.129 245.363 168.261L245.258 168.383ZM256.174 168.056L256.016 168.034L256.093 167.428L256.251 167.45L256.174 168.056ZM244.33 167.599L243.862 167.211L243.964 167.086L244.432 167.474L244.33 167.599ZM256.329 166.845L256.171 166.824L256.25 166.218L256.408 166.239L256.329 166.845ZM243.392 166.825L242.918 166.442L243.019 166.317L243.493 166.7L243.392 166.825ZM242.444 166.062L241.966 165.685L242.065 165.56L242.543 165.937L242.444 166.062ZM256.49 165.634L256.331 165.613C256.358 165.411 256.385 165.21 256.413 165.009L256.571 165.03C256.544 165.231 256.516 165.432 256.49 165.634ZM241.487 165.315C241.326 165.191 241.166 165.068 241.004 164.945L241.101 164.817C241.263 164.94 241.424 165.063 241.584 165.187L241.487 165.315ZM240.518 164.577C240.356 164.456 240.194 164.334 240.031 164.217L240.125 164.086C240.288 164.206 240.452 164.328 240.614 164.45L240.518 164.577ZM256.653 164.427L256.495 164.405C256.522 164.203 256.551 164.002 256.579 163.801L256.737 163.822C256.709 164.023 256.681 164.224 256.653 164.427ZM239.541 163.854C239.376 163.735 239.213 163.617 239.048 163.499L239.141 163.368C239.305 163.486 239.471 163.604 239.635 163.726L239.541 163.854ZM256.822 163.219L256.664 163.198C256.692 162.995 256.721 162.794 256.75 162.592L256.908 162.616C256.879 162.816 256.851 163.017 256.822 163.219ZM238.552 163.148C238.387 163.03 238.221 162.915 238.054 162.799L238.146 162.668C238.312 162.784 238.478 162.899 238.645 163.017L238.552 163.148ZM237.554 162.453C237.387 162.34 237.218 162.226 237.051 162.113L237.141 161.98C237.308 162.092 237.476 162.206 237.644 162.322L237.554 162.453ZM256.995 162.013L256.837 161.99C256.866 161.788 256.896 161.587 256.925 161.386L257.083 161.409C257.054 161.61 257.024 161.811 256.995 162.013ZM236.544 161.776C236.374 161.664 236.205 161.553 236.035 161.443L236.122 161.309C236.292 161.419 236.462 161.53 236.632 161.642L236.544 161.776ZM235.523 161.115C235.352 161.006 235.181 160.898 235.009 160.791L235.094 160.655C235.266 160.763 235.437 160.871 235.609 160.98L235.523 161.115ZM257.173 160.806L257.014 160.783C257.044 160.582 257.074 160.381 257.105 160.18L257.263 160.204C257.233 160.405 257.202 160.606 257.173 160.806ZM234.492 160.474C234.318 160.368 234.144 160.263 233.972 160.159L234.054 160.022C234.228 160.126 234.402 160.231 234.575 160.337L234.492 160.474ZM233.449 159.847C233.274 159.745 233.099 159.643 232.924 159.542L233.003 159.403C233.18 159.504 233.355 159.606 233.53 159.709L233.449 159.847ZM257.355 159.601L257.197 159.576L257.29 158.974L257.448 158.998L257.355 159.601ZM232.394 159.244C232.217 159.144 232.04 159.046 231.862 158.948L231.94 158.808C232.117 158.906 232.295 159.004 232.473 159.104L232.394 159.244ZM231.329 158.66C231.15 158.564 230.97 158.47 230.791 158.376L230.866 158.235C231.045 158.328 231.224 158.423 231.405 158.519L231.329 158.66ZM257.543 158.396L257.384 158.372C257.415 158.172 257.447 157.971 257.479 157.769L257.637 157.795C257.605 157.995 257.573 158.196 257.543 158.396ZM230.251 158.098C230.071 158.006 229.89 157.916 229.708 157.826L229.78 157.683C229.961 157.772 230.142 157.863 230.324 157.955L230.251 158.098ZM229.162 157.561C228.979 157.472 228.795 157.386 228.613 157.3L228.681 157.156C228.864 157.241 229.047 157.328 229.232 157.416L229.162 157.561ZM228.06 157.048C227.875 156.965 227.69 156.882 227.505 156.801L227.569 156.655C227.756 156.736 227.941 156.819 228.126 156.902L228.06 157.048ZM226.947 156.562L226.915 156.548L226.978 156.4L227.01 156.414L226.947 156.562Z" fill="#141414"/>
<path d="M280.292 76.9999C280.292 76.9999 280.087 76.9322 279.707 76.7966L279.76 76.6459C280.138 76.7799 280.342 76.8477 280.342 76.8477L280.292 76.9999ZM279.129 76.5903C278.956 76.5271 278.764 76.457 278.555 76.3802L278.61 76.2294C278.819 76.3063 279.01 76.3764 279.184 76.4396L279.129 76.5903ZM277.983 76.1639C277.801 76.0954 277.611 76.0231 277.412 75.9462L277.47 75.797C277.669 75.8739 277.859 75.9462 278.039 76.0147L277.983 76.1639ZM276.843 75.7261C276.66 75.6545 276.471 75.5799 276.275 75.5022L276.335 75.353C276.531 75.4307 276.719 75.5053 276.901 75.5768L276.843 75.7261ZM275.71 75.2746L275.145 75.0455L275.206 74.8963L275.771 75.1262L275.71 75.2746ZM274.582 74.8116C274.398 74.7355 274.21 74.6571 274.019 74.5764L274.081 74.4287C274.272 74.5094 274.459 74.5878 274.643 74.6641L274.582 74.8116ZM273.458 74.3388C273.274 74.2604 273.087 74.1805 272.898 74.0966L272.962 73.9504C273.151 74.0326 273.338 74.1126 273.521 74.1911L273.458 74.3388ZM272.339 73.8537L271.781 73.6077L271.846 73.4615L272.403 73.7075L272.339 73.8537ZM271.226 73.358C271.043 73.2758 270.857 73.1921 270.671 73.1067L270.738 72.9605C270.924 73.0458 271.108 73.1295 271.291 73.2118L271.226 73.358ZM270.117 72.8517C269.934 72.7665 269.749 72.6803 269.564 72.5936L269.633 72.4489C269.818 72.5357 270.001 72.6218 270.184 72.7056L270.117 72.8517ZM269.013 72.3347C268.831 72.2487 268.647 72.161 268.462 72.072L268.532 71.9273C268.717 72.0164 268.899 72.104 269.081 72.19L269.013 72.3347ZM267.915 71.807C267.734 71.7187 267.552 71.6288 267.367 71.5382L267.439 71.3951C267.622 71.4856 267.804 71.574 267.985 71.6623L267.915 71.807ZM266.822 71.2671C266.642 71.1773 266.461 71.0859 266.278 70.9938L266.351 70.8507C266.532 70.9427 266.713 71.0342 266.894 71.124L266.822 71.2671ZM265.735 70.7166C265.555 70.6245 265.375 70.5308 265.193 70.4365L265.267 70.2948C265.448 70.3892 265.628 70.4814 265.808 70.5735L265.735 70.7166ZM264.654 70.1539C264.475 70.0595 264.296 69.9642 264.115 69.8684L264.191 69.7267C264.37 69.8228 264.549 69.9179 264.728 70.0122L264.654 70.1539ZM263.578 69.5806L263.044 69.289L263.12 69.1489L263.655 69.439L263.578 69.5806ZM262.511 68.9942C262.334 68.8959 262.156 68.797 261.979 68.6973L262.059 68.5572C262.235 68.6569 262.412 68.756 262.589 68.8541L262.511 68.9942ZM261.449 68.395C261.274 68.2944 261.097 68.1932 260.921 68.0911L261.002 67.9525C261.178 68.0546 261.353 68.1558 261.529 68.2563L261.449 68.395ZM260.396 67.7843L259.872 67.4743L259.954 67.3358L260.476 67.6457L260.396 67.7843ZM225.738 67.7112C225.539 67.7105 225.339 67.7089 225.138 67.7074L225.13 67.5476C225.341 67.5491 225.539 67.5506 225.738 67.5514V67.7112ZM226.346 67.7089V67.5491C226.549 67.5483 226.751 67.546 226.953 67.543L226.956 67.7029C226.753 67.7059 226.55 67.7082 226.346 67.7089ZM224.519 67.6983C224.317 67.6945 224.114 67.6899 223.911 67.6846L223.915 67.5248C224.118 67.5301 224.32 67.5346 224.522 67.5384L224.519 67.6983ZM227.563 67.6907L227.56 67.5308C227.763 67.5263 227.966 67.5202 228.167 67.5134L228.173 67.6732C227.971 67.6799 227.768 67.686 227.563 67.6907ZM223.301 67.6655C223.1 67.6587 222.897 67.6511 222.693 67.6419L222.701 67.4821C222.903 67.4912 223.106 67.4988 223.307 67.5056L223.301 67.6655ZM228.782 67.6488L228.775 67.4889C228.978 67.4798 229.18 67.4699 229.381 67.4593L229.391 67.6191C229.188 67.6296 228.986 67.6397 228.782 67.6488ZM222.085 67.6137C221.882 67.6038 221.679 67.5932 221.476 67.581L221.485 67.4212C221.689 67.4333 221.891 67.444 222.092 67.4538L222.085 67.6137ZM229.999 67.584L229.988 67.4242C230.192 67.4113 230.393 67.3968 230.594 67.3815L230.607 67.5414C230.406 67.5567 230.202 67.5711 229.999 67.584ZM220.869 67.5452C220.667 67.5322 220.464 67.5186 220.262 67.504L220.272 67.3441C220.475 67.3586 220.677 67.3723 220.879 67.3853L220.869 67.5452ZM231.213 67.4918L231.199 67.332C231.402 67.3145 231.603 67.2954 231.804 67.2756L231.82 67.4355C231.619 67.4553 231.416 67.4743 231.213 67.4918ZM219.654 67.4584L219.046 67.4089L219.06 67.249L219.666 67.2985L219.654 67.4584ZM232.427 67.3731L232.408 67.2133C232.611 67.1905 232.813 67.1668 233.012 67.1432L233.032 67.3016C232.831 67.3267 232.629 67.3502 232.427 67.3731ZM218.44 67.3555C218.239 67.3373 218.038 67.3182 217.834 67.2984L217.849 67.1386C218.053 67.1583 218.255 67.1774 218.456 67.1957L218.44 67.3555ZM217.228 67.2376C217.027 67.2171 216.825 67.1957 216.622 67.1729L216.64 67.013C216.842 67.0358 217.044 67.0572 217.245 67.0778L217.228 67.2376ZM233.636 67.2223L233.615 67.064C233.817 67.0374 234.017 67.0084 234.217 66.9787L234.24 67.137C234.04 67.1668 233.838 67.1957 233.636 67.2223ZM259.348 67.16L258.829 66.8432L258.912 66.7061L259.432 67.0229L259.348 67.16ZM216.019 67.1051C215.817 67.0816 215.616 67.0571 215.414 67.032L215.434 66.8737C215.636 66.8988 215.837 66.9217 216.037 66.9453L216.019 67.1051ZM234.841 67.0434L234.815 66.8851C235.016 66.8524 235.216 66.8181 235.414 66.7831L235.442 66.9415C235.243 66.9764 235.042 67.0106 234.841 67.0434ZM214.809 66.9574L214.77 66.9529C214.582 66.9285 214.394 66.9041 214.205 66.8783L214.227 66.7199C214.415 66.745 214.604 66.7695 214.79 66.7938L214.83 66.7991L214.809 66.9574ZM236.042 66.8302L236.011 66.6734C236.211 66.6346 236.41 66.5943 236.607 66.5531L236.639 66.7099C236.441 66.751 236.243 66.7914 236.042 66.8302ZM213.602 66.7967C213.401 66.7693 213.2 66.7411 212.999 66.7122L213.022 66.5539C213.223 66.5827 213.424 66.611 213.623 66.6384L213.602 66.7967ZM212.397 66.623C212.196 66.5934 211.996 66.5629 211.795 66.5317L211.819 66.3734C212.02 66.4046 212.22 66.4351 212.42 66.4647L212.397 66.623ZM237.235 66.5805L237.2 66.4237C237.398 66.3787 237.595 66.3331 237.79 66.2851L237.828 66.4404C237.632 66.4884 237.434 66.5355 237.235 66.5805ZM258.311 66.5218C258.139 66.4144 257.967 66.3064 257.795 66.1982L257.881 66.0626C258.052 66.1708 258.224 66.2789 258.396 66.3863L258.311 66.5218ZM211.194 66.4358L210.593 66.3384L210.619 66.1801L211.22 66.2776L211.194 66.4358ZM238.419 66.2912L238.379 66.1359C238.576 66.0848 238.771 66.0315 238.964 65.9775L239.008 66.1313C238.813 66.1868 238.617 66.2401 238.419 66.2912ZM209.992 66.2378L209.393 66.1342L209.42 65.9759L210.02 66.0795L209.992 66.2378ZM208.793 66.0277L208.194 65.9188L208.223 65.7604L208.822 65.8694L208.793 66.0277ZM239.595 65.9622L239.547 65.8084C239.742 65.749 239.935 65.6896 240.127 65.6279L240.176 65.7802C239.984 65.8419 239.79 65.9028 239.595 65.9622ZM257.281 65.8692C257.111 65.7588 256.939 65.6485 256.77 65.5372L256.859 65.4032C257.028 65.5144 257.197 65.6248 257.368 65.7337L257.281 65.8692ZM207.596 65.806L206.998 65.691L207.029 65.5342L207.626 65.6492L207.596 65.806ZM240.754 65.5868L240.703 65.4345C240.894 65.369 241.085 65.3005 241.273 65.2305L241.329 65.3812C241.14 65.4512 240.948 65.5198 240.754 65.5868ZM206.4 65.5731L205.803 65.4527L205.835 65.2959L206.432 65.4163L206.4 65.5731ZM205.208 65.3309L204.612 65.206L204.645 65.0492L205.24 65.1741L205.208 65.3309ZM256.263 65.2037C256.095 65.0918 255.926 64.9784 255.759 64.8657L255.848 64.7332C256.016 64.8459 256.183 64.9577 256.352 65.0697L256.263 65.2037ZM241.899 65.1627L241.839 65.0135C242.029 64.9389 242.216 64.8627 242.401 64.7843L242.463 64.932C242.276 65.0103 242.088 65.0881 241.899 65.1627ZM204.018 65.0773L203.828 65.0361L203.862 64.8793L204.052 64.9205L204.018 65.0773ZM243.022 64.6876L242.956 64.5414C243.142 64.4577 243.325 64.3723 243.505 64.2848L243.575 64.4294C243.393 64.5169 243.209 64.6037 243.022 64.6876ZM255.257 64.5238C255.089 64.4095 254.922 64.2939 254.756 64.1773L254.847 64.0464C255.014 64.1629 255.181 64.277 255.346 64.3913L255.257 64.5238ZM244.121 64.1583L244.048 64.0152C244.228 63.9224 244.406 63.8271 244.582 63.7305L244.66 63.8706C244.482 63.9687 244.303 64.0639 244.121 64.1583ZM254.258 63.8271C254.092 63.7098 253.926 63.5911 253.762 63.4716L253.856 63.3421C254.021 63.4617 254.185 63.5788 254.351 63.6961L254.258 63.8271ZM245.19 63.5682L245.109 63.4296C245.284 63.3277 245.456 63.2218 245.626 63.1151L245.711 63.2507C245.54 63.3588 245.366 63.4646 245.19 63.5682ZM253.269 63.1128C253.104 62.9925 252.941 62.8707 252.778 62.7482L252.874 62.6202C253.037 62.7428 253.2 62.8632 253.363 62.9834L253.269 63.1128ZM246.223 62.9171L246.133 62.7846C246.301 62.6704 246.467 62.5554 246.63 62.4382L246.724 62.5677C246.56 62.6865 246.393 62.803 246.223 62.9171ZM252.291 62.3803C252.129 62.2562 251.967 62.1321 251.806 62.0064L251.905 61.88C252.065 62.0056 252.226 62.1298 252.388 62.2523L252.291 62.3803ZM247.211 62.2007L247.114 62.0743C247.275 61.9502 247.431 61.8237 247.586 61.6951L247.688 61.8184C247.532 61.9486 247.373 62.0766 247.211 62.2007ZM251.327 61.6296C251.167 61.5032 251.009 61.376 250.852 61.2488L250.952 61.1239C251.109 61.2511 251.268 61.3783 251.426 61.5047L251.327 61.6296ZM248.151 61.4179L248.044 61.2991C248.194 61.1643 248.342 61.0265 248.487 60.8872L248.598 61.003C248.452 61.1438 248.302 61.2816 248.151 61.4179ZM250.38 60.8636C250.223 60.7342 250.066 60.604 249.911 60.473L250.015 60.3511C250.169 60.4806 250.325 60.6108 250.482 60.7402L250.38 60.8636ZM249.03 60.5711L248.914 60.4599C249.054 60.3138 249.191 60.1661 249.324 60.0152L249.445 60.1219C249.31 60.2742 249.171 60.4235 249.03 60.5711ZM249.448 60.0778C249.295 59.9453 249.142 59.8113 248.988 59.6773L249.095 59.5569C249.247 59.6909 249.4 59.8234 249.554 59.9559L249.448 60.0778ZM249.841 59.6575L249.716 59.5555C249.845 59.3987 249.969 59.241 250.09 59.0804L250.218 59.1763C250.096 59.3384 249.97 59.499 249.841 59.6575ZM248.533 59.2714C248.382 59.1351 248.232 58.9981 248.083 58.8603L248.193 58.743C248.341 58.8808 248.491 59.0163 248.641 59.1526L248.533 59.2714ZM250.574 58.6828L250.443 58.5915C250.556 58.4293 250.667 58.2602 250.776 58.0881L250.912 58.1733C250.802 58.3478 250.688 58.5191 250.574 58.6828ZM247.638 58.4452C247.489 58.3051 247.342 58.165 247.197 58.0226L247.308 57.9084C247.454 58.0492 247.6 58.1893 247.747 58.3279L247.638 58.4452ZM251.228 57.6511L251.089 57.5704C251.19 57.3967 251.287 57.2194 251.382 57.0397L251.523 57.1143C251.429 57.2954 251.33 57.4744 251.228 57.6511ZM246.762 57.5963C246.617 57.4524 246.474 57.3085 246.333 57.1638L246.447 57.0511C246.589 57.1957 246.732 57.3396 246.875 57.482L246.762 57.5963ZM245.909 56.7259C245.768 56.5782 245.628 56.4305 245.491 56.282L245.608 56.1723C245.746 56.3207 245.884 56.4684 246.024 56.6147L245.909 56.7259ZM251.796 56.5668L251.651 56.4983C251.737 56.3201 251.82 56.1343 251.899 55.947L252.047 56.0095C251.967 56.199 251.882 56.3871 251.796 56.5668ZM245.08 55.832C244.943 55.6805 244.808 55.5289 244.675 55.3752L244.795 55.27C244.929 55.4223 245.063 55.5739 245.199 55.7239L245.08 55.832ZM252.273 55.4422L252.123 55.3858C252.194 55.1985 252.262 55.0081 252.326 54.8163L252.478 54.8666C252.413 55.0614 252.345 55.2533 252.273 55.4422ZM244.277 54.9137C244.146 54.7577 244.016 54.6015 243.888 54.4454L244.011 54.3435C244.139 54.4995 244.269 54.6557 244.399 54.8102L244.277 54.9137ZM252.662 54.2854L252.508 54.2412C252.564 54.0486 252.617 53.8536 252.667 53.6564L252.822 53.6961C252.772 53.8949 252.718 54.0914 252.662 54.2854ZM243.505 53.9703C243.378 53.8112 243.253 53.6505 243.129 53.4891L243.257 53.3916C243.379 53.5529 243.504 53.7121 243.629 53.8712L243.505 53.9703ZM252.961 53.1007L252.804 53.0673C252.847 52.8716 252.886 52.6736 252.921 52.4741L253.08 52.5015C253.043 52.704 253.004 52.9035 252.961 53.1007ZM242.764 53.0017C242.643 52.838 242.525 52.6727 242.407 52.5075L242.538 52.4147C242.654 52.58 242.773 52.7437 242.893 52.9073L242.764 53.0017ZM242.059 52.0065C241.944 51.8382 241.831 51.6684 241.721 51.4993L241.855 51.411C241.965 51.5801 242.077 51.7483 242.191 51.9166L242.059 52.0065ZM253.176 51.8984L253.018 51.8756C253.047 51.6776 253.073 51.4774 253.095 51.2756L253.255 51.2938C253.231 51.4971 253.205 51.6989 253.176 51.8984ZM241.393 50.9854C241.285 50.8125 241.179 50.639 241.076 50.4638L241.214 50.3831C241.316 50.5567 241.422 50.7288 241.529 50.9001L241.393 50.9854ZM253.314 50.6854L253.154 50.6733C253.17 50.4738 253.183 50.272 253.194 50.0687L253.354 50.0763C253.343 50.2811 253.329 50.4844 253.314 50.6854ZM240.77 49.937C240.67 49.7595 240.572 49.5822 240.475 49.4032L240.617 49.3271C240.712 49.5045 240.81 49.6819 240.91 49.8578L240.77 49.937ZM253.377 49.4664L253.217 49.4634C253.221 49.2967 253.222 49.1291 253.222 48.9609V48.8574H253.382V48.9609C253.382 49.1306 253.38 49.2996 253.377 49.4664ZM240.192 48.8626C240.1 48.6806 240.01 48.4979 239.923 48.3151L240.067 48.2466C240.154 48.4279 240.243 48.6091 240.335 48.7895L240.192 48.8626ZM253.211 48.2518C253.205 48.0508 253.196 47.849 253.184 47.6457L253.344 47.6366C253.355 47.8414 253.365 48.0447 253.371 48.2472L253.211 48.2518ZM239.668 47.7607C239.585 47.5741 239.503 47.3868 239.425 47.1996L239.573 47.1371C239.651 47.3245 239.731 47.5103 239.814 47.6952L239.668 47.7607ZM253.143 47.0396C253.127 46.8393 253.109 46.6383 253.087 46.4358L253.247 46.4191C253.269 46.6231 253.287 46.8257 253.303 47.0274L253.143 47.0396ZM239.197 46.6315C239.123 46.4419 239.053 46.2515 238.985 46.0597L239.136 46.0064C239.203 46.1968 239.274 46.3856 239.346 46.5737L239.197 46.6315ZM253.02 45.8312C252.995 45.6332 252.967 45.433 252.937 45.2304L253.096 45.2076C253.125 45.4102 253.153 45.6119 253.178 45.8114L253.02 45.8312ZM238.787 45.484C238.725 45.2913 238.664 45.0979 238.607 44.903L238.761 44.8573C238.818 45.0507 238.877 45.2426 238.94 45.4337L238.787 45.484ZM252.844 44.6312C252.812 44.4294 252.777 44.2299 252.742 44.0319L252.901 44.0045C252.936 44.2025 252.97 44.4035 253.003 44.6053L252.844 44.6312ZM238.443 44.316C238.391 44.1196 238.342 43.9223 238.296 43.7251L238.451 43.6885C238.497 43.8842 238.546 44.0799 238.598 44.2748L238.443 44.316ZM252.633 43.4358C252.594 43.2348 252.554 43.0368 252.514 42.8403L252.671 42.8083C252.711 43.0048 252.751 43.2043 252.79 43.4053L252.633 43.4358ZM238.165 43.1304C238.125 42.9317 238.087 42.7322 238.052 42.5312L238.21 42.5038C238.245 42.7033 238.282 42.9013 238.322 43.0985L238.165 43.1304ZM252.386 42.2464C252.341 42.0461 252.296 41.8497 252.25 41.6547L252.405 41.6181C252.452 41.8131 252.498 42.0111 252.543 42.2113L252.386 42.2464ZM237.958 41.9251L238.038 41.9159L237.958 41.9152C237.929 41.7104 237.903 41.5154 237.88 41.3212L238.04 41.303C238.062 41.4957 238.087 41.6891 238.114 41.8848L238.118 41.9068L237.958 41.9251ZM252.103 41.0661C252.051 40.8674 251.999 40.6724 251.946 40.4798L252.1 40.4371C252.154 40.6298 252.206 40.8262 252.258 41.025L252.103 41.0661ZM237.817 40.7144C237.799 40.5088 237.784 40.3063 237.771 40.106L237.931 40.0954C237.944 40.2941 237.959 40.4966 237.977 40.7007L237.817 40.7144ZM251.779 39.8966C251.721 39.7002 251.661 39.5067 251.6 39.3171L251.752 39.2683C251.813 39.4595 251.874 39.6529 251.933 39.8509L251.779 39.8966ZM237.742 39.4961C237.735 39.289 237.731 39.0857 237.731 38.8847H237.891C237.891 39.0842 237.895 39.286 237.902 39.49L237.742 39.4961ZM251.409 38.7399C251.344 38.5465 251.276 38.3561 251.207 38.1695L251.357 38.1131C251.427 38.3012 251.494 38.4931 251.561 38.688L251.409 38.7399ZM237.9 38.2786L237.74 38.274C237.746 38.0662 237.756 37.8628 237.769 37.6633L237.929 37.674C237.916 37.872 237.906 38.0738 237.9 38.2786ZM250.99 37.6024C250.914 37.4113 250.838 37.2247 250.76 37.042L250.908 36.9796C250.986 37.1639 251.063 37.352 251.139 37.5445L250.99 37.6024ZM237.98 37.0709L237.82 37.0542C237.841 36.8479 237.867 36.6453 237.896 36.4474L238.054 36.4702C238.025 36.6666 238.001 36.866 237.98 37.0709ZM250.516 36.4876C250.431 36.3011 250.345 36.1183 250.257 35.9402L250.4 35.8686C250.489 36.0484 250.576 36.2325 250.662 36.4206L250.516 36.4876ZM238.153 35.8747L237.996 35.8442C238.035 35.6424 238.078 35.4406 238.125 35.2457L238.28 35.2837C238.235 35.4757 238.192 35.6744 238.153 35.8747ZM249.981 35.3996C249.886 35.2183 249.787 35.0417 249.689 34.8696L249.828 34.7904C249.927 34.9641 250.026 35.1422 250.123 35.325L249.981 35.3996ZM238.436 34.6997L238.283 34.654C238.341 34.4545 238.406 34.2588 238.474 34.0715L238.625 34.1263C238.558 34.3106 238.494 34.5033 238.436 34.6997ZM249.378 34.351C249.269 34.1758 249.159 34.0069 249.048 33.8431L249.18 33.7533C249.293 33.9186 249.404 34.0891 249.514 34.2658L249.378 34.351ZM238.847 33.5659L238.699 33.502C238.783 33.3093 238.871 33.1227 238.963 32.9477L239.105 33.0223C239.015 33.1937 238.928 33.3771 238.847 33.5659ZM248.698 33.3505C248.574 33.1838 248.448 33.023 248.326 32.8746L248.449 32.7726C248.573 32.9234 248.7 33.0856 248.826 33.2546L248.698 33.3505ZM239.403 32.4999L239.267 32.4147C239.375 32.241 239.493 32.0705 239.615 31.9084L239.743 32.0043C239.624 32.1634 239.509 32.3302 239.403 32.4999ZM247.931 32.4177C247.795 32.2693 247.654 32.1231 247.511 31.9836L247.624 31.8694C247.768 32.0102 247.911 32.1587 248.05 32.3095L247.931 32.4177ZM247.067 31.5779C246.908 31.4416 246.748 31.316 246.596 31.2032L246.69 31.0738C246.847 31.1888 247.008 31.3175 247.171 31.4561L247.067 31.5779ZM240.127 31.5436L240.01 31.4354C240.149 31.2839 240.297 31.1393 240.451 31.006L240.556 31.1263C240.407 31.2566 240.262 31.3966 240.127 31.5436ZM246.098 30.8659C245.927 30.76 245.751 30.6619 245.573 30.5743L245.644 30.4312C245.826 30.521 246.007 30.6216 246.183 30.7304L246.098 30.8659ZM241.032 30.7615L240.942 30.629C241.114 30.5133 241.293 30.4083 241.475 30.3176L241.547 30.4607C241.371 30.5484 241.197 30.6497 241.032 30.7615ZM245.024 30.3367C244.833 30.2667 244.641 30.2072 244.452 30.1608L244.49 30.0055C244.685 30.0527 244.883 30.1136 245.079 30.186L245.024 30.3367ZM242.098 30.2355L242.048 30.0832C242.245 30.0185 242.447 29.9682 242.649 29.9325L242.676 30.0908C242.482 30.1243 242.288 30.173 242.098 30.2355ZM243.865 30.0573C243.663 30.0345 243.461 30.026 243.268 30.0314L243.265 29.8716C243.467 29.8693 243.674 29.8746 243.883 29.8974L243.865 30.0573Z" fill="#141414"/>
<path d="M290.102 75.1084C290.811 72.9729 291.188 70.794 291.245 68.5455C291.258 68.0296 290.456 68.0299 290.443 68.5455C290.388 70.7236 290.016 72.8293 289.329 74.8953C289.166 75.3859 289.939 75.5962 290.102 75.1084Z" fill="#FDFFFF"/>
<path d="M296.57 79.6981C299.138 77.0242 301.814 74.4622 304.597 72.012C304.985 71.6705 304.416 71.1054 304.03 71.4453C301.247 73.8955 298.572 76.4575 296.003 79.1314C295.646 79.5034 296.212 80.0709 296.57 79.6981Z" fill="#FDFFFF"/>
<path d="M299.68 88.0173C301.373 87.5321 303.067 87.0469 304.76 86.5617C305.255 86.4199 305.044 85.6463 304.547 85.789C302.854 86.2741 301.16 86.7593 299.467 87.2445C298.972 87.3863 299.183 88.1599 299.68 88.0173Z" fill="#FDFFFF"/>
</g>
<defs>
<clipPath id="clip0_26187_6194">
<rect width="380" height="253.333" fill="white"/>
</clipPath>
</defs>
</svg>
