<svg width="24" height="24" viewBox="0 0 24 24" fill="none" xmlns="http://www.w3.org/2000/svg">
<g clip-path="url(#clip0_26224_12368)">
<path fill-rule="evenodd" clip-rule="evenodd" d="M3.75461 2.36813C2.89264 1.93734 1.96329 2.81509 2.34218 3.69874L5.58004 11.2502H11.6264C12.0405 11.2502 12.3763 11.5859 12.3763 12C12.3763 12.4141 12.0405 12.7498 11.6264 12.7498H5.58004L2.34218 20.3013C1.96329 21.1849 2.89264 22.0627 3.75465 21.6319L21.1789 12.9238C21.9406 12.5431 21.9406 11.4569 21.1789 11.0762L3.75461 2.36813ZM4.26968 12L0.963698 4.28966C0.0335933 2.12042 2.31501 -0.0278708 4.42519 1.02672L21.8495 9.73478C23.7168 10.668 23.7168 13.332 21.8495 14.2652L4.42519 22.9733C2.31502 24.0279 0.0335895 21.8796 0.963694 19.7104L4.26968 12Z" fill="#FDFFFF"/>
</g>
<defs>
<clipPath id="clip0_26224_12368">
<rect width="24" height="24" fill="white"/>
</clipPath>
</defs>
</svg>
