<svg width="48" height="48" viewBox="0 0 48 48" fill="none" xmlns="http://www.w3.org/2000/svg">
<path d="M0 24C0 10.7452 10.7452 0 24 0C37.2548 0 48 10.7452 48 24C48 37.2548 37.2548 48 24 48C10.7452 48 0 37.2548 0 24Z" fill="#E4EDEA"/>
<path d="M21.1933 14.5967C21.2983 13.9643 21.8467 13.5 22.4883 13.5H25.5135C26.1552 13.5 26.7035 13.9643 26.8085 14.5967L27.057 16.0912C27.1305 16.5275 27.4222 16.8915 27.8095 17.1062C27.8958 17.1528 27.981 17.203 28.0662 17.2543C28.4453 17.483 28.9062 17.5542 29.3203 17.399L30.7402 16.867C31.0311 16.7576 31.3515 16.755 31.6442 16.8597C31.9369 16.9644 32.1829 17.1695 32.3385 17.4387L33.8505 20.0602C34.0057 20.3293 34.0604 20.6448 34.0049 20.9505C33.9493 21.2562 33.7871 21.5323 33.5472 21.7297L32.377 22.6945C32.0352 22.9757 31.866 23.4097 31.8753 23.8518C31.877 23.951 31.877 24.0502 31.8753 24.1493C31.866 24.5903 32.0352 25.0243 32.377 25.3055L33.5483 26.2703C34.043 26.6787 34.1713 27.3845 33.8517 27.9387L32.3373 30.5602C32.182 30.8292 31.9362 31.0345 31.6438 31.1394C31.3513 31.2443 31.0311 31.242 30.7402 31.133L29.3203 30.601C28.9062 30.4458 28.4453 30.517 28.065 30.7457C27.9804 30.7971 27.8948 30.8469 27.8083 30.895C27.4222 31.1085 27.1305 31.4725 27.057 31.9088L26.8085 33.4033C26.7035 34.0368 26.1552 34.5 25.5135 34.5H22.4872C21.8455 34.5 21.2983 34.0357 21.1922 33.4033L20.9437 31.9088C20.8713 31.4725 20.5797 31.1085 20.1923 30.8938C20.1058 30.8461 20.0202 30.7967 19.9357 30.7457C19.5565 30.517 19.0957 30.4458 18.6803 30.601L17.2605 31.133C16.9697 31.2421 16.6496 31.2445 16.3571 31.1399C16.0647 31.0352 15.8188 30.8302 15.6633 30.5613L14.1502 27.9398C13.9949 27.6707 13.9402 27.3552 13.9958 27.0495C14.0513 26.7438 14.2135 26.4677 14.4535 26.2703L15.6248 25.3055C15.9655 25.0255 16.1347 24.5903 16.1265 24.1493C16.1247 24.0502 16.1247 23.951 16.1265 23.8518C16.1347 23.4085 15.9655 22.9757 15.6248 22.6945L14.4535 21.7297C14.2138 21.5324 14.0518 21.2565 13.9962 20.9511C13.9407 20.6456 13.9952 20.3304 14.1502 20.0613L15.6633 17.4398C15.8187 17.1705 16.0647 16.9651 16.3574 16.8602C16.6501 16.7553 16.9706 16.7577 17.2617 16.867L18.6803 17.399C19.0957 17.5542 19.5565 17.483 19.9357 17.2543C20.0197 17.203 20.106 17.154 20.1923 17.105C20.5797 16.8915 20.8713 16.5275 20.9437 16.0912L21.1933 14.5967Z" stroke="#004225" stroke-width="1.5" stroke-linecap="round" stroke-linejoin="round"/>
<path d="M27.5 24C27.5 24.9283 27.1313 25.8185 26.4749 26.4749C25.8185 27.1313 24.9283 27.5 24 27.5C23.0717 27.5 22.1815 27.1313 21.5251 26.4749C20.8687 25.8185 20.5 24.9283 20.5 24C20.5 23.0717 20.8687 22.1815 21.5251 21.5251C22.1815 20.8687 23.0717 20.5 24 20.5C24.9283 20.5 25.8185 20.8687 26.4749 21.5251C27.1313 22.1815 27.5 23.0717 27.5 24Z" stroke="#004225" stroke-width="1.5" stroke-linecap="round" stroke-linejoin="round"/>
</svg>
