<svg width="36" height="36" viewBox="0 0 36 36" fill="none" xmlns="http://www.w3.org/2000/svg">
<path d="M0 18C0 8.05888 8.05888 0 18 0C27.9411 0 36 8.05888 36 18C36 27.9411 27.9411 36 18 36C8.05888 36 0 27.9411 0 18Z" fill="#E4EDEA"/>
<path d="M18 20.5C18.663 20.5 19.2989 20.2366 19.7678 19.7678C20.2366 19.2989 20.5 18.663 20.5 18C20.5 17.337 20.2366 16.7011 19.7678 16.2322C19.2989 15.7634 18.663 15.5 18 15.5C17.337 15.5 16.7011 15.7634 16.2322 16.2322C15.7634 16.7011 15.5 17.337 15.5 18C15.5 18.663 15.7634 19.2989 16.2322 19.7678C16.7011 20.2366 17.337 20.5 18 20.5Z" fill="#004225"/>
<path fill-rule="evenodd" clip-rule="evenodd" d="M9.1024 17.5392C10.3424 13.8133 13.8566 11.125 18.0007 11.125C22.1424 11.125 25.6549 13.8108 26.8966 17.5333C26.9966 17.835 26.9966 18.16 26.8966 18.4608C25.6574 22.1867 22.1424 24.875 17.9991 24.875C13.8574 24.875 10.3441 22.1892 9.10323 18.4667C9.00302 18.1656 9.00302 17.8402 9.10323 17.5392H9.1024ZM22.3749 18C22.3749 19.1603 21.914 20.2731 21.0935 21.0936C20.273 21.9141 19.1602 22.375 17.9999 22.375C16.8396 22.375 15.7268 21.9141 14.9063 21.0936C14.0858 20.2731 13.6249 19.1603 13.6249 18C13.6249 16.8397 14.0858 15.7269 14.9063 14.9064C15.7268 14.0859 16.8396 13.625 17.9999 13.625C19.1602 13.625 20.273 14.0859 21.0935 14.9064C21.914 15.7269 22.3749 16.8397 22.3749 18Z" fill="#004225"/>
</svg>
