<svg width="24" height="24" viewBox="0 0 24 24" fill="none" xmlns="http://www.w3.org/2000/svg">
<path fill-rule="evenodd" clip-rule="evenodd" d="M9.16109 12.1916L1.09448 7.0059L1.90562 5.74414L9.97221 10.9298C11.2075 11.7239 12.7926 11.7239 14.0279 10.9298L22.0945 5.74414L22.9056 7.0059L14.839 12.1916C13.1096 13.3034 10.8905 13.3034 9.16109 12.1916Z" fill="#004225"/>
<path fill-rule="evenodd" clip-rule="evenodd" d="M0.75 6.75C0.75 4.67895 2.42893 3 4.5 3H19.5C21.5711 3 23.25 4.67895 23.25 6.75V17.25C23.25 19.3211 21.5711 21 19.5 21H4.5C2.42893 21 0.75 19.3211 0.75 17.25V6.75ZM4.5 4.5C3.25736 4.5 2.25 5.50736 2.25 6.75V17.25C2.25 18.4926 3.25736 19.5 4.5 19.5H19.5C20.7426 19.5 21.75 18.4926 21.75 17.25V6.75C21.75 5.50736 20.7426 4.5 19.5 4.5H4.5Z" fill="#004225"/>
</svg>
