<svg width="26" height="26" viewBox="0 0 26 26" fill="none" xmlns="http://www.w3.org/2000/svg">
<path d="M0 13C0 5.8203 5.8203 0 13 0C20.1797 0 26 5.8203 26 13C26 20.1797 20.1797 26 13 26C5.8203 26 0 20.1797 0 13Z" fill="#004225"/>
<path d="M13 5.5C13.15 5.5 13.292 5.56731 13.387 5.68338L15.637 8.43337C15.8119 8.6471 15.7804 8.96212 15.5666 9.13697C15.3529 9.31185 15.0379 9.28035 14.863 9.06663L13.5 7.4007V12C13.5 12.2761 13.2762 12.5 13 12.5C12.7239 12.5 12.5 12.2761 12.5 12V7.40071L11.137 9.06663C10.9621 9.28035 10.6471 9.31185 10.4334 9.13697C10.2197 8.96212 10.1882 8.6471 10.363 8.43337L12.613 5.68338C12.708 5.56731 12.85 5.5 13 5.5Z" fill="#FDFFFF"/>
<path fill-rule="evenodd" clip-rule="evenodd" d="M9.33657 11C8.9478 11 8.59427 11.2253 8.4301 11.5777L7.53462 13.5H9.2561C9.9185 13.5 10.5025 13.9345 10.6928 14.569L11.0152 15.6437C11.0787 15.8552 11.2733 16 11.4941 16H14.5061C14.7269 16 14.9215 15.8552 14.985 15.6437L15.3074 14.569C15.4977 13.9345 16.0817 13.5 16.7441 13.5H18.4656L17.5701 11.5777C17.406 11.2253 17.0524 11 16.6637 11H15.0599C14.7837 11 14.5599 10.7761 14.5599 10.5C14.5599 10.2239 14.7837 10 15.0599 10H16.6637C17.4412 10 18.1483 10.4506 18.4766 11.1554L19.6988 13.7792C19.7165 13.815 19.73 13.8532 19.7387 13.8933C19.7472 13.9322 19.751 13.9715 19.7501 14.0105V17C19.7501 18.933 18.1831 20.5 16.2501 20.5H9.75012C7.81712 20.5 6.25012 18.933 6.25012 17V14.0107C6.24924 13.9709 6.25313 13.9306 6.2621 13.8907C6.27081 13.8517 6.28407 13.8144 6.30131 13.7794L7.52362 11.1554C7.85195 10.4506 8.55902 10 9.33657 10H10.9403C11.2165 10 11.4403 10.2239 11.4403 10.5C11.4403 10.7761 11.2165 11 10.9403 11H9.33657ZM7.25012 17V14.5H9.2561C9.4769 14.5 9.67155 14.6448 9.735 14.8563L10.0574 15.931C10.2477 16.5655 10.8317 17 11.4941 17H14.5061C15.1685 17 15.7525 16.5655 15.9428 15.931L16.2652 14.8563C16.3287 14.6448 16.5233 14.5 16.7441 14.5H18.7501V17C18.7501 18.3807 17.6308 19.5 16.2501 19.5H9.75012C8.36942 19.5 7.25012 18.3807 7.25012 17Z" fill="#FDFFFF"/>
</svg>
