<svg width="200" height="200" viewBox="0 0 200 200" fill="none" xmlns="http://www.w3.org/2000/svg">
<path d="M0 100C0 44.7715 44.7715 0 100 0C155.228 0 200 44.7715 200 100C200 155.228 155.228 200 100 200C44.7715 200 0 155.228 0 100Z" fill="#E4EDEA"/>
<path d="M100 43.75C101.125 43.75 102.19 44.2548 102.902 45.1253L119.777 65.7503C121.089 67.3532 120.853 69.7159 119.25 71.0273C117.647 72.3389 115.284 72.1026 113.973 70.4997L103.75 58.0053V92.5C103.75 94.5711 102.071 96.25 100 96.25C97.929 96.25 96.2502 94.5711 96.2502 92.5V58.0053L86.0275 70.4997C84.7161 72.1026 82.3534 72.3389 80.7505 71.0273C79.1475 69.7159 78.9113 67.3532 80.2228 65.7503L97.0978 45.1254C97.81 44.2548 98.8753 43.75 100 43.75Z" fill="#004225"/>
<path fill-rule="evenodd" clip-rule="evenodd" d="M72.5233 85C69.6075 85 66.9561 86.6899 65.7248 89.3329L59.0087 103.75H71.9198C76.8878 103.75 81.2678 107.009 82.6952 111.767L85.1134 119.828C85.5893 121.414 87.0491 122.5 88.7051 122.5H111.295C112.951 122.5 114.411 121.414 114.887 119.828L117.305 111.767C118.732 107.009 123.112 103.75 128.08 103.75H140.991L134.275 89.3329C133.044 86.6899 130.392 85 127.477 85H115.448C113.377 85 111.698 83.3211 111.698 81.25C111.698 79.1789 113.377 77.5 115.448 77.5H127.477C133.308 77.5 138.611 80.8799 141.074 86.1659L150.24 105.844C150.373 106.112 150.474 106.399 150.539 106.699C150.603 106.992 150.631 107.286 150.625 107.578V130C150.625 144.497 138.872 156.25 124.375 156.25H75.6249C61.1274 156.25 49.3749 144.497 49.3749 130V107.58C49.3683 107.281 49.3975 106.979 49.4648 106.68C49.5301 106.388 49.6296 106.108 49.7588 105.845L58.9262 86.1659C61.3886 80.8799 66.6917 77.5 72.5233 77.5H84.5516C86.6226 77.5 88.3016 79.1789 88.3016 81.25C88.3016 83.3211 86.6226 85 84.5516 85H72.5233ZM56.8749 130V111.25H71.9198C73.5758 111.25 75.0356 112.336 75.5115 113.922L77.9297 121.983C79.3571 126.741 83.7371 130 88.7051 130H111.295C116.263 130 120.643 126.741 122.07 121.983L124.488 113.922C124.964 112.336 126.424 111.25 128.08 111.25H143.125V130C143.125 140.355 134.73 148.75 124.375 148.75H75.6249C65.2697 148.75 56.8749 140.355 56.8749 130Z" fill="#868989"/>
</svg>
