<svg width="20" height="20" viewBox="0 0 20 20" fill="none" xmlns="http://www.w3.org/2000/svg">
<path d="M13.8539 18.1508C13.4945 18.4383 12.97 18.3801 12.6825 18.0206C12.395 17.6612 12.4533 17.1368 12.8127 16.8493L15.1243 15.0001H2.49996C2.03973 15.0001 1.66663 14.627 1.66663 14.1667C1.66663 13.7065 2.03973 13.3334 2.49996 13.3334H15.1243L12.8127 11.4841C12.4533 11.1966 12.395 10.6722 12.6825 10.3128C12.97 9.95339 13.4945 9.89514 13.8539 10.1826L18.0146 13.5112C18.2086 13.6638 18.3333 13.9007 18.3333 14.1667C18.3333 14.3732 18.2582 14.5621 18.1338 14.7077C18.1088 14.737 18.0817 14.7647 18.0525 14.7906C18.0405 14.8012 18.028 14.8116 18.0153 14.8216L13.8539 18.1508Z" fill="#000"/>
<path d="M6.14605 1.84914C6.50543 1.56164 7.02984 1.6199 7.31735 1.97929C7.60486 2.33868 7.54659 2.86309 7.18721 3.15059L4.87561 4.99987L17.5 4.99988C17.9602 4.99988 18.3333 5.37297 18.3333 5.83321C18.3333 6.29344 17.9602 6.66654 17.5 6.66654L4.87562 6.66654L7.18721 8.51579C7.54659 8.80329 7.60486 9.32771 7.31735 9.68713C7.02984 10.0465 6.50543 10.1048 6.14605 9.81729L1.98522 6.48859C1.96878 6.47567 1.95284 6.46214 1.93743 6.44804C1.91535 6.42783 1.89446 6.40654 1.87484 6.38428C1.74173 6.23329 1.66663 6.03773 1.66663 5.8332C1.66663 5.63221 1.73917 5.43987 1.86799 5.28999C1.89184 5.26224 1.91762 5.23595 1.94523 5.21134C1.95806 5.19988 1.97126 5.1888 1.98479 5.17814L6.14605 1.84914Z" fill="#000"/>
</svg>
