<svg width="20" height="20" viewBox="0 0 20 20" fill="none" xmlns="http://www.w3.org/2000/svg">
<path d="M11.1187 12.4508C10.7053 12.2527 10.3274 11.9878 10.0003 11.6667C9.22146 10.9032 8.1743 10.4756 7.08366 10.4756C5.99302 10.4756 4.94586 10.9032 4.16699 11.6667M4.16699 11.6667V4.16666C4.94586 3.40321 5.99302 2.97559 7.08366 2.97559C8.1743 2.97559 9.22146 3.40321 10.0003 4.16666C10.7792 4.9301 11.8264 5.35773 12.917 5.35773C14.0076 5.35773 15.0548 4.9301 15.8337 4.16666V9.99999M4.16699 11.6667V17.5M14.167 17.5L17.5003 14.1667M13.3337 15.8333C13.3337 16.4964 13.5971 17.1322 14.0659 17.6011C14.5347 18.0699 15.1706 18.3333 15.8337 18.3333C16.4967 18.3333 17.1326 18.0699 17.6014 17.6011C18.0703 17.1322 18.3337 16.4964 18.3337 15.8333C18.3337 15.1703 18.0703 14.5344 17.6014 14.0656C17.1326 13.5967 16.4967 13.3333 15.8337 13.3333C15.1706 13.3333 14.5347 13.5967 14.0659 14.0656C13.5971 14.5344 13.3337 15.1703 13.3337 15.8333Z" stroke="#004225" stroke-width="1.5" stroke-linecap="round" stroke-linejoin="round"/>
</svg>
