<svg width="48" height="30" viewBox="0 0 48 30" fill="none" xmlns="http://www.w3.org/2000/svg">
<path d="M0 15C0 8.42504 0 5.13755 1.81592 2.92485C2.14835 2.51978 2.51978 2.14835 2.92485 1.81592C5.13755 0 8.42504 0 15 0H33C39.575 0 42.8624 0 45.0751 1.81592C45.4802 2.14835 45.8517 2.51978 46.1841 2.92485C48 5.13755 48 8.42504 48 15C48 21.575 48 24.8624 46.1841 27.0751C45.8517 27.4802 45.4802 27.8516 45.0751 28.1841C42.8624 30 39.575 30 33 30H15C8.42504 30 5.13755 30 2.92485 28.1841C2.51978 27.8516 2.14835 27.4802 1.81592 27.0751C0 24.8624 0 21.575 0 15Z" fill="#004225"/>
<g clip-path="url(#clip0_26187_6171)">
<path d="M24.6183 12.8803C24.5978 14.4997 26.0616 15.4034 27.1642 15.9407C28.2971 16.492 28.6776 16.8455 28.6731 17.3385C28.6647 18.093 27.7695 18.426 26.9318 18.4389C25.4702 18.4616 24.6204 18.0443 23.9449 17.7288L23.4184 20.1924C24.0962 20.5047 25.3513 20.7771 26.6528 20.7891C29.7078 20.7891 31.7065 19.281 31.7174 16.9428C31.7293 13.9754 27.6128 13.8111 27.6409 12.4847C27.6506 12.0825 28.0344 11.6534 28.8753 11.5442C29.2916 11.4891 30.4406 11.4469 31.7434 12.0468L32.2547 9.66323C31.5541 9.40814 30.6537 9.16387 29.5326 9.16387C26.6571 9.16387 24.6346 10.6925 24.6183 12.8803ZM37.1678 9.36919C36.61 9.36919 36.1399 9.69459 35.9301 10.194L31.566 20.614H34.6189L35.2264 18.9351H38.9569L39.3093 20.614H42L39.652 9.36919H37.1678ZM37.5949 12.4068L38.4759 16.6294H36.0631L37.5949 12.4068ZM20.9169 9.36933L18.5106 20.6138H21.4197L23.8249 9.36905L20.9169 9.36933ZM16.6134 9.36933L13.5855 17.0228L12.3606 10.5151C12.2169 9.78867 11.6493 9.36919 11.019 9.36919H6.06933L6 9.69572C7.01616 9.91622 8.17069 10.2719 8.87016 10.6524C9.29822 10.8848 9.42028 11.088 9.56091 11.6404L11.8808 20.614H14.955L19.6682 9.36919L16.6134 9.36933Z" fill="#FDFFFF"/>
</g>
<defs>
<clipPath id="clip0_26187_6171">
<rect width="36" height="11.6719" fill="white" transform="translate(6 9.16406)"/>
</clipPath>
</defs>
</svg>
