<svg width="16" height="16" viewBox="0 0 16 16" fill="none" xmlns="http://www.w3.org/2000/svg">
<path d="M8.00066 1.33337C11.6827 1.33337 14.6673 4.31804 14.6673 8.00004C14.6673 11.682 11.6827 14.6667 8.00066 14.6667C6.8225 14.6687 5.66505 14.3569 4.64733 13.7634L1.33666 14.6667L2.23799 11.3547C1.64397 10.3367 1.33193 9.17872 1.33399 8.00004C1.33399 4.31804 4.31866 1.33337 8.00066 1.33337ZM5.72866 4.86671L5.59533 4.87204C5.50912 4.87798 5.42489 4.90062 5.34733 4.93871C5.27504 4.97971 5.20904 5.03091 5.15133 5.09071C5.07133 5.16604 5.02599 5.23137 4.97733 5.29471C4.73074 5.61531 4.59798 6.00892 4.59999 6.41337C4.60133 6.74004 4.68666 7.05804 4.81999 7.35537C5.09266 7.95671 5.54133 8.59337 6.13333 9.18337C6.27599 9.32537 6.416 9.46804 6.56666 9.60071C7.30228 10.2483 8.17885 10.7154 9.12666 10.9647L9.50533 11.0227C9.62866 11.0294 9.752 11.02 9.876 11.014C10.0701 11.0038 10.2597 10.9512 10.4313 10.86C10.5186 10.8149 10.6038 10.766 10.6867 10.7134C10.6867 10.7134 10.7149 10.6943 10.77 10.6534C10.86 10.5867 10.9153 10.5394 10.99 10.4614C11.046 10.4036 11.0927 10.3365 11.13 10.26C11.182 10.1514 11.234 9.94404 11.2553 9.77137C11.2713 9.63937 11.2667 9.56737 11.2647 9.52271C11.262 9.45137 11.2027 9.37737 11.138 9.34604L10.75 9.17204C10.75 9.17204 10.17 8.91937 9.81533 8.75804C9.7782 8.74188 9.73844 8.73262 9.698 8.73071C9.65238 8.72594 9.60627 8.73103 9.56279 8.74563C9.51931 8.76024 9.47948 8.78403 9.446 8.81537C9.44266 8.81404 9.39799 8.85204 8.91599 9.43604C8.88833 9.47322 8.85022 9.50131 8.80653 9.51674C8.76284 9.53218 8.71554 9.53426 8.67066 9.52271C8.62721 9.51113 8.58466 9.49642 8.54333 9.47871C8.46066 9.44404 8.43199 9.43071 8.37533 9.40671C7.99258 9.23998 7.63829 9.01436 7.32533 8.73804C7.24133 8.66471 7.16333 8.58471 7.08333 8.50737C6.82107 8.25618 6.5925 7.97203 6.40333 7.66204L6.36399 7.59871C6.33617 7.55591 6.31335 7.51005 6.29599 7.46204C6.27066 7.36404 6.33666 7.28537 6.33666 7.28537C6.33666 7.28537 6.49866 7.10804 6.57399 7.01204C6.64733 6.91871 6.70933 6.82804 6.74933 6.76337C6.82799 6.63671 6.85266 6.50671 6.81133 6.40604C6.62466 5.95004 6.43177 5.49649 6.23266 5.04537C6.19333 4.95604 6.07666 4.89204 5.97066 4.87937C5.93466 4.87493 5.89866 4.87137 5.86266 4.86871C5.77315 4.86357 5.68339 4.86446 5.59399 4.87137L5.72866 4.86671Z" fill="#34C759"/>
</svg>
