<svg width="22" height="22" viewBox="0 0 22 22" fill="none" xmlns="http://www.w3.org/2000/svg">
<g clip-path="url(#clip0_26101_4021)">
<path d="M12.6248 11.2466C12.6187 11.566 12.5179 11.8764 12.3352 12.1385C12.1525 12.4006 11.8961 12.6025 11.5985 12.7187C11.3009 12.8349 10.9755 12.8601 10.6635 12.7911C10.3516 12.7222 10.0671 12.5621 9.84621 12.3313C9.62532 12.1005 9.47792 11.8093 9.42271 11.4947C9.3675 11.18 9.40696 10.856 9.53609 10.5638C9.66521 10.2716 9.87819 10.0243 10.148 9.85322C10.4179 9.68218 10.7324 9.59511 11.0518 9.60304C11.4762 9.61876 11.8778 9.79915 12.1714 10.106C12.4651 10.4128 12.6277 10.8219 12.6248 11.2466Z" fill="#000"/>
<path d="M14.0405 5.75293H8.07305C7.48258 5.75293 6.91629 5.98749 6.49877 6.40502C6.08124 6.82254 5.84668 7.38883 5.84668 7.9793V14.0809C5.84668 14.3733 5.90427 14.6628 6.01615 14.9329C6.12804 15.203 6.29203 15.4485 6.49877 15.6552C6.70551 15.8619 6.95094 16.0259 7.22106 16.1378C7.49117 16.2497 7.78068 16.3073 8.07305 16.3073H14.0405C14.3328 16.3073 14.6224 16.2497 14.8925 16.1378C15.1626 16.0259 15.408 15.8619 15.6148 15.6552C15.8215 15.4485 15.9855 15.203 16.0974 14.9329C16.2093 14.6628 16.2668 14.3733 16.2668 14.0809V7.9903C16.268 7.69709 16.2113 7.40653 16.1 7.13527C15.9886 6.86401 15.8248 6.6174 15.618 6.40955C15.4112 6.2017 15.1654 6.03672 14.8947 5.92404C14.624 5.81136 14.3337 5.75322 14.0405 5.75293ZM11.0562 14.2481C10.4655 14.2615 9.88418 14.0985 9.38648 13.78C8.88878 13.4615 8.49727 13.0019 8.26191 12.4599C8.02654 11.918 7.95801 11.3181 8.06504 10.737C8.17207 10.1559 8.44982 9.61989 8.86285 9.19733C9.27587 8.77478 9.80542 8.48486 10.3839 8.3646C10.9624 8.24433 11.5637 8.29916 12.1109 8.52209C12.6581 8.74502 13.1265 9.12595 13.4563 9.61624C13.786 10.1065 13.9622 10.684 13.9624 11.2749C13.9672 11.661 13.8958 12.0443 13.7522 12.4028C13.6087 12.7614 13.3959 13.0881 13.126 13.3642C12.856 13.6404 12.5343 13.8606 12.1791 14.0123C11.824 14.164 11.4424 14.2441 11.0562 14.2481ZM14.2858 8.3027C14.2132 8.30271 14.1413 8.28824 14.0744 8.26014C14.0075 8.23204 13.9468 8.19086 13.896 8.13903C13.8452 8.08719 13.8053 8.02574 13.7785 7.95827C13.7517 7.89081 13.7387 7.81867 13.7402 7.74611C13.7402 7.59849 13.7988 7.45692 13.9032 7.35253C14.0076 7.24815 14.1492 7.18951 14.2968 7.18951C14.4444 7.18951 14.586 7.24815 14.6903 7.35253C14.7947 7.45692 14.8534 7.59849 14.8534 7.74611C14.8556 7.82468 14.8407 7.90281 14.8099 7.97513C14.7791 8.04745 14.733 8.11225 14.6748 8.16511C14.6167 8.21797 14.5477 8.25763 14.4728 8.28138C14.3979 8.30512 14.3187 8.3124 14.2407 8.3027H14.2858Z" fill="#000"/>
<path d="M11.055 0.00013769C8.13766 -0.014449 5.334 1.13047 3.26081 3.18303C1.18762 5.23559 0.0147244 8.02766 0.00013769 10.945C-0.014449 13.8623 1.13047 16.666 3.18303 18.7392C5.23559 20.8124 8.02766 21.9853 10.945 21.9999C12.3895 22.0071 13.8213 21.7297 15.1587 21.1836C16.496 20.6375 17.7127 19.8333 18.7392 18.817C19.7657 17.8006 20.582 16.5921 21.1415 15.2603C21.701 13.9285 21.9926 12.4995 21.9999 11.055C22.0071 9.61048 21.7297 8.17868 21.1836 6.84135C20.6375 5.50402 19.8333 4.28735 18.817 3.26081C17.8006 2.23427 16.5921 1.41797 15.2603 0.8585C13.9285 0.299032 12.4995 0.0073603 11.055 0.00013769ZM17.7352 13.9722C17.7383 14.4657 17.6434 14.9548 17.456 15.4114C17.2686 15.8679 16.9924 16.2827 16.6435 16.6317C16.2946 16.9807 15.8799 17.257 15.4234 17.4445C14.9669 17.6321 14.4778 17.7271 13.9843 17.7242H8.12794C7.63445 17.7273 7.14526 17.6324 6.68872 17.445C6.23219 17.2576 5.8174 16.9814 5.46839 16.6325C5.11938 16.2836 4.8431 15.8689 4.65556 15.4124C4.46803 14.9559 4.37296 14.4668 4.37588 13.9733V8.11584C4.37282 7.62235 4.46774 7.13316 4.65514 6.67662C4.84255 6.22009 5.1187 5.8053 5.46761 5.45629C5.81652 5.10728 6.23123 4.831 6.68771 4.64346C7.14418 4.45593 7.63335 4.36086 8.12684 4.36378H13.9843C14.4777 4.36086 14.9667 4.45589 15.4231 4.64336C15.8795 4.83083 16.2942 5.10701 16.6431 5.4559C16.992 5.80479 17.2682 6.21946 17.4556 6.67586C17.6431 7.13227 17.7381 7.62134 17.7352 8.11474V13.9722Z" fill="#000"/>
</g>
<defs>
<clipPath id="clip0_26101_4021">
<rect width="22" height="22" fill="white"/>
</clipPath>
</defs>
</svg>
