<svg width="22" height="22" viewBox="0 0 22 22" fill="none" xmlns="http://www.w3.org/2000/svg">
<g clip-path="url(#clip0_26101_4018)">
<path d="M18.319 14.6094C18.319 14.3993 18.214 14.2704 18.0039 14.2227C17.3641 14.0794 16.8008 13.7977 16.3138 13.3776C15.8268 12.9575 15.4449 12.4418 15.168 11.8307C15.1011 11.6493 15.0677 11.5299 15.0677 11.4727C15.0677 11.3294 15.1608 11.2053 15.347 11.1003C15.5332 10.9952 15.7385 10.9141 15.9629 10.8568C16.1873 10.7995 16.3926 10.7016 16.5788 10.5632C16.765 10.4247 16.8581 10.2504 16.8581 10.0404C16.8581 9.85894 16.7697 9.70855 16.5931 9.58919C16.4165 9.46984 16.2326 9.41016 16.0417 9.41016C15.9271 9.41016 15.7743 9.44835 15.5833 9.52474C15.3924 9.60113 15.2444 9.63932 15.1393 9.63932C15.1011 9.63932 15.0438 9.62977 14.9674 9.61068C15.0152 8.70356 15.0391 8.15929 15.0391 7.97786C15.0391 7.22352 14.9579 6.67925 14.7956 6.34505C14.4518 5.60026 13.9601 5.02018 13.3203 4.60482C12.6806 4.18945 11.9549 3.98177 11.1432 3.98177C9.24306 3.98177 7.93012 4.76953 7.20443 6.34505C7.0421 6.67925 6.96094 7.22352 6.96094 7.97786C6.96094 8.15929 6.98481 8.70356 7.03255 9.61068C6.99436 9.62977 6.92752 9.63932 6.83203 9.63932C6.71745 9.63932 6.56467 9.60352 6.3737 9.5319C6.18273 9.46029 6.0395 9.42448 5.94401 9.42448C5.74349 9.42448 5.55968 9.48177 5.39258 9.59635C5.22548 9.71094 5.14193 9.86372 5.14193 10.0547C5.14193 10.2552 5.23503 10.4247 5.42122 10.5632C5.60742 10.7016 5.81272 10.7995 6.03711 10.8568C6.2615 10.9141 6.4668 10.9952 6.653 11.1003C6.83919 11.2053 6.93229 11.3294 6.93229 11.4727C6.93229 11.5299 6.89887 11.6493 6.83203 11.8307C6.22092 13.1484 5.27561 13.9457 3.99609 14.2227C3.78602 14.2704 3.68099 14.3993 3.68099 14.6094C3.68099 15.0486 4.33507 15.3733 5.64323 15.5833C5.66233 15.6311 5.69097 15.7552 5.72917 15.9557C5.76736 16.1562 5.82227 16.3019 5.89388 16.3926C5.9655 16.4833 6.07769 16.5286 6.23047 16.5286C6.34505 16.5286 6.52409 16.5072 6.76758 16.4642C7.01107 16.4212 7.19965 16.3997 7.33333 16.3997C7.66753 16.3997 7.98741 16.4714 8.29297 16.6146C8.59852 16.7578 8.85634 16.913 9.06641 17.0801C9.27648 17.2472 9.551 17.4023 9.88997 17.5456C10.2289 17.6888 10.5942 17.7604 10.9857 17.7604C11.3963 17.7604 11.7734 17.6888 12.1172 17.5456C12.4609 17.4023 12.7355 17.2472 12.9408 17.0801C13.1461 16.913 13.4015 16.7578 13.707 16.6146C14.0126 16.4714 14.3325 16.3997 14.6667 16.3997C14.8003 16.3997 14.9889 16.4188 15.2324 16.457C15.4759 16.4952 15.6597 16.5143 15.7839 16.5143C15.9366 16.5143 16.0464 16.4666 16.1133 16.3711C16.1801 16.2756 16.2326 16.1324 16.2708 15.9414C16.309 15.7504 16.3377 15.6311 16.3568 15.5833C17.6649 15.3733 18.319 15.0486 18.319 14.6094ZM22 11C22 12.9957 21.5082 14.8362 20.5247 16.5215C19.5412 18.2068 18.2068 19.5412 16.5215 20.5247C14.8362 21.5082 12.9957 22 11 22C9.00434 22 7.16385 21.5082 5.47852 20.5247C3.79319 19.5412 2.45877 18.2068 1.47526 16.5215C0.491754 14.8362 0 12.9957 0 11C0 9.00434 0.491754 7.16385 1.47526 5.47852C2.45877 3.79319 3.79319 2.45877 5.47852 1.47526C7.16385 0.491754 9.00434 0 11 0C12.9957 0 14.8362 0.491754 16.5215 1.47526C18.2068 2.45877 19.5412 3.79319 20.5247 5.47852C21.5082 7.16385 22 9.00434 22 11Z" fill="#000"/>
</g>
<defs>
<clipPath id="clip0_26101_4018">
<rect width="22" height="22" fill="white"/>
</clipPath>
</defs>
</svg>
