<svg width="28" height="28" viewBox="0 0 28 28" fill="none" xmlns="http://www.w3.org/2000/svg">
<path d="M0 14C0 6.26801 6.26801 0 14 0V0C21.732 0 28 6.26801 28 14V14C28 21.732 21.732 28 14 28V28C6.26801 28 0 21.732 0 14V14Z" fill="#000"/>
<path d="M21.2849 10.817L19.9266 11.1779C19.9232 11.1474 19.9232 11.1166 19.9266 11.0862C19.773 10.5401 19.5504 10.0159 19.2641 9.52618C18.6822 8.55647 17.7718 7.82762 16.6983 7.47202C16.1289 7.2845 15.5369 7.17462 14.9383 7.14535C14.4976 7.10346 14.0539 7.10346 13.6133 7.14535C12.9285 7.21043 12.261 7.39784 11.6424 7.69868C10.8267 8.10553 10.152 8.74801 9.70575 9.54285C9.39713 10.0879 9.17105 10.6757 9.03492 11.287C8.91214 11.7748 8.83131 12.2692 8.79242 12.7704C8.76242 13.2542 8.76242 13.7379 8.79242 14.2212C8.80938 15.0728 8.93884 15.9185 9.17742 16.7362C9.36174 17.3562 9.64512 17.9424 10.0166 18.472C10.5362 19.203 11.2635 19.761 12.1041 20.0737C12.6208 20.272 13.1624 20.3962 13.7141 20.4429C14.2519 20.4969 14.7938 20.4969 15.3316 20.4429C15.9608 20.3964 16.5755 20.2313 17.1433 19.9562C17.7912 19.6508 18.3444 19.1757 18.7441 18.5812C18.9946 18.2281 19.1598 17.8217 19.2267 17.394C19.2937 16.9663 19.2605 16.5289 19.1299 16.1162C18.9795 15.5993 18.6532 15.1513 18.2074 14.8495L17.9141 14.6412C17.9141 14.7495 17.9141 14.8412 17.8724 14.9337C17.7891 15.452 17.6149 15.9504 17.3608 16.4095C17.1403 16.8275 16.8255 17.1883 16.4413 17.4635C16.0571 17.7386 15.6141 17.9204 15.1474 17.9945C14.5343 18.1144 13.9013 18.0827 13.3033 17.902C12.8183 17.7682 12.3762 17.5113 12.0199 17.1562C11.6222 16.7576 11.376 16.2327 11.3241 15.672C11.2619 15.1947 11.3379 14.7096 11.543 14.2742C11.7482 13.8387 12.0739 13.4713 12.4816 13.2154C12.8958 12.9511 13.3569 12.7689 13.8399 12.6787C14.3274 12.5994 14.8212 12.5659 15.3149 12.5787C15.6944 12.587 16.0719 12.6204 16.4474 12.6787H16.5141V12.6287C16.4686 12.3114 16.3603 12.0063 16.1958 11.7312C16.0821 11.542 15.9301 11.3786 15.7495 11.2516C15.569 11.1246 15.3639 11.0367 15.1474 10.9937C14.6393 10.8384 14.0964 10.8384 13.5883 10.9937C13.2181 11.1152 12.8973 11.3535 12.6741 11.6729L12.6324 11.7895L11.4833 10.9937C11.5055 10.9677 11.5251 10.9395 11.5416 10.9095C12.0306 10.2284 12.7639 9.76262 13.5883 9.60952C14.2908 9.45123 15.0229 9.48316 15.7091 9.70202C16.0978 9.81764 16.4581 10.0131 16.767 10.2758C17.076 10.5385 17.3267 10.8628 17.5033 11.2279C17.7141 11.6437 17.8533 12.0912 17.9141 12.5529C17.9141 12.7287 17.9558 12.9054 17.9724 13.0812V13.1479L18.3166 13.3162C18.8575 13.5875 19.3368 13.967 19.7249 14.4312C20.1391 14.912 20.4275 15.4881 20.5641 16.1079C20.6324 16.4745 20.6549 16.8495 20.6308 17.2229C20.5739 18.1877 20.1961 19.1058 19.5574 19.8312C18.7536 20.7783 17.6609 21.435 16.4474 21.7003C15.4233 21.9278 14.3683 21.9753 13.3283 21.842C12.53 21.7506 11.753 21.524 11.0308 21.172C10.0782 20.7059 9.2698 19.9902 8.69159 19.1012C8.26508 18.4398 7.94533 17.7154 7.74409 16.9545C7.59123 16.4051 7.48201 15.8445 7.41742 15.2779C7.36373 14.788 7.33563 14.2956 7.33325 13.8029C7.33325 13.3245 7.33325 12.8379 7.41659 12.352C7.48103 11.8026 7.58186 11.2604 7.71909 10.7254C7.89159 10.0412 8.15742 9.38368 8.50742 8.77118C9.24103 7.4756 10.4398 6.50741 11.8608 6.06285C12.3614 5.89441 12.8784 5.77932 13.4033 5.71952C14.0666 5.64818 14.7357 5.64818 15.3991 5.71952C16.1824 5.80452 16.9466 6.01368 17.6624 6.34035C18.7184 6.81001 19.6177 7.57229 20.2541 8.53702C20.7041 9.22535 21.0441 9.98118 21.2599 10.7754C21.2638 10.792 21.2721 10.8059 21.2849 10.817ZM16.5641 14.1712H16.5058C16.2288 14.1143 15.9485 14.075 15.6666 14.0537C15.3705 14.0361 15.0735 14.0361 14.7774 14.0537C14.4461 14.0556 14.1164 14.1004 13.7966 14.187C13.5031 14.2651 13.2366 14.4218 13.0258 14.6404C12.9169 14.7491 12.8323 14.8795 12.7774 15.0232C12.7225 15.1669 12.6986 15.3206 12.7072 15.4742C12.7159 15.6278 12.7569 15.7778 12.8276 15.9145C12.8983 16.0511 12.997 16.1712 13.1174 16.267C13.3058 16.4162 13.5224 16.5245 13.7549 16.5854C14.1029 16.6735 14.4652 16.6905 14.8199 16.6354C15.0624 16.6054 15.2983 16.532 15.5158 16.4187C15.8399 16.2229 16.0924 15.9295 16.2366 15.5795C16.4241 15.1295 16.5341 14.6495 16.5633 14.1629L16.5641 14.1712Z" fill="white"/>
</svg>
