<svg width="28" height="28" viewBox="0 0 28 28" fill="none" xmlns="http://www.w3.org/2000/svg">
<path d="M0 14C0 6.26801 6.26801 0 14 0V0C21.732 0 28 6.26801 28 14V14C28 21.732 21.732 28 14 28V28C6.26801 28 0 21.732 0 14V14Z" fill="#000"/>
<path d="M20.8334 12.4163C20.8334 12.5997 20.6834 12.7505 20.5001 12.7413C19.5206 12.6922 18.5639 12.4276 17.6984 11.9663C17.4642 11.8413 17.1667 12.0038 17.1667 12.2697V16.9163C17.1667 17.891 16.8818 18.8445 16.347 19.6593C15.8122 20.4742 15.0509 21.1151 14.1567 21.503C13.2626 21.8909 12.2745 22.009 11.3141 21.8428C10.3537 21.6766 9.46279 21.2333 8.75099 20.5674C8.0392 19.9016 7.53754 19.0422 7.30772 18.095C7.0779 17.1478 7.12995 16.154 7.45746 15.236C7.78496 14.318 8.37365 13.5157 9.1511 12.9278C9.92856 12.34 10.8609 11.9922 11.8334 11.9272C11.8769 11.9249 11.9203 11.9316 11.9611 11.9468C12.0019 11.9621 12.0391 11.9856 12.0703 12.0158C12.1016 12.0461 12.1263 12.0825 12.1429 12.1227C12.1595 12.1629 12.1676 12.2062 12.1667 12.2497V14.583C12.1667 14.7663 12.0167 14.9138 11.8351 14.9438C11.459 15.0071 11.1088 15.1765 10.8259 15.4322C10.5429 15.6879 10.3389 16.0192 10.238 16.387C10.1371 16.7548 10.1435 17.1437 10.2563 17.508C10.3692 17.8723 10.5839 18.1968 10.875 18.4431C11.1662 18.6894 11.5217 18.8473 11.8997 18.8982C12.2776 18.9492 12.6623 18.891 13.0083 18.7305C13.3542 18.57 13.6471 18.314 13.8524 17.9926C14.0576 17.6711 14.1667 17.2977 14.1667 16.9163V6.41634C14.1667 6.32794 14.2019 6.24315 14.2644 6.18064C14.3269 6.11813 14.4117 6.08301 14.5001 6.08301H16.8334C16.9225 6.08528 17.0076 6.12069 17.072 6.18233C17.1364 6.24397 17.1756 6.3274 17.1817 6.41634C17.2597 7.27028 17.6344 8.06989 18.2408 8.67615C18.8473 9.28241 19.647 9.65696 20.5009 9.73467C20.6842 9.75134 20.8342 9.89884 20.8342 10.083L20.8334 12.4163Z" stroke="white" stroke-width="1.2" stroke-linecap="round" stroke-linejoin="round"/>
</svg>
