<svg width="28" height="28" viewBox="0 0 28 28" fill="none" xmlns="http://www.w3.org/2000/svg">
<path d="M0 14C0 6.26801 6.26801 0 14 0V0C21.732 0 28 6.26801 28 14V14C28 21.732 21.732 28 14 28V28C6.26801 28 0 21.732 0 14V14Z" fill="#000"/>
<path d="M12.7399 16.2092L16.7083 21.5H22.5416L15.9933 12.7683L21.4416 6.5H19.2333L14.9691 11.405L11.2916 6.5H5.45825L11.7166 14.8458L5.93325 21.5H8.14159L12.7399 16.2092ZM17.5416 19.8333L8.79159 8.16667H10.4583L19.2083 19.8333H17.5416Z" fill="white"/>
</svg>
