<svg width="125" height="32" viewBox="0 0 125 32" fill="none" xmlns="http://www.w3.org/2000/svg">
<path d="M16 0.5H109C112.785 0.5 115.574 0.500713 117.712 0.788086C119.835 1.07354 121.241 1.63315 122.304 2.69629C123.367 3.75943 123.926 5.16519 124.212 7.28809C124.499 9.42554 124.5 12.2146 124.5 16C124.5 19.7854 124.499 22.5745 124.212 24.7119C123.926 26.8348 123.367 28.2406 122.304 29.3037C121.241 30.3668 119.835 30.9265 117.712 31.2119C115.574 31.4993 112.785 31.5 109 31.5H16C12.2146 31.5 9.42554 31.4993 7.28809 31.2119C5.16519 30.9265 3.75943 30.3668 2.69629 29.3037C1.63315 28.2406 1.07354 26.8348 0.788086 24.7119C0.500713 22.5745 0.5 19.7854 0.5 16C0.5 12.2146 0.500713 9.42554 0.788086 7.28809C1.07354 5.16519 1.63315 3.75943 2.69629 2.69629C3.75943 1.63315 5.16519 1.07354 7.28809 0.788086C9.42554 0.500713 12.2146 0.5 16 0.5Z" fill="#F8FAFA"/>
<path d="M16 0.5H109C112.785 0.5 115.574 0.500713 117.712 0.788086C119.835 1.07354 121.241 1.63315 122.304 2.69629C123.367 3.75943 123.926 5.16519 124.212 7.28809C124.499 9.42554 124.5 12.2146 124.5 16C124.5 19.7854 124.499 22.5745 124.212 24.7119C123.926 26.8348 123.367 28.2406 122.304 29.3037C121.241 30.3668 119.835 30.9265 117.712 31.2119C115.574 31.4993 112.785 31.5 109 31.5H16C12.2146 31.5 9.42554 31.4993 7.28809 31.2119C5.16519 30.9265 3.75943 30.3668 2.69629 29.3037C1.63315 28.2406 1.07354 26.8348 0.788086 24.7119C0.500713 22.5745 0.5 19.7854 0.5 16C0.5 12.2146 0.500713 9.42554 0.788086 7.28809C1.07354 5.16519 1.63315 3.75943 2.69629 2.69629C3.75943 1.63315 5.16519 1.07354 7.28809 0.788086C9.42554 0.500713 12.2146 0.5 16 0.5Z" stroke="#E7EDED"/>
<g clip-path="url(#clip0_26861_6787)">
<path d="M22.0646 15.2488L24.1415 12.9984L29.5994 13.0078L30.8738 15.2551L22.0646 15.2488Z" fill="#868989"/>
<path d="M22.1288 21.9999L26.9504 16.7762L30.3769 16.7527L25.535 21.9999H22.1288Z" fill="#868989"/>
<path d="M16.5047 15.2567L21.3592 10H24.7653L19.9109 15.2567H16.5047Z" fill="#868989"/>
<path d="M17.2336 18.9906L16 16.7512H24.8296L22.7511 19.0016L17.2336 18.9906Z" fill="#868989"/>
<path d="M41.4715 17.2923C41.4715 18.7664 40.1344 19.2713 39.0686 19.2713C37.2158 19.2713 36.4571 18.2222 36.3129 17.1292H37.6139C37.7864 17.7533 38.1657 18.0701 39.0591 18.0701C39.7912 18.0701 40.1705 17.7988 40.1705 17.3471C40.1705 16.8955 39.7285 16.8139 38.6171 16.5693C37.487 16.3341 36.4759 15.964 36.4759 14.7157C36.4759 13.3874 37.6594 12.7272 38.8616 12.7272C40.5608 12.7272 41.2646 13.6399 41.4104 14.689H40.1C39.9652 14.2468 39.6485 13.93 38.8711 13.93C38.0936 13.93 37.777 14.2562 37.777 14.6624C37.777 15.0325 38.0936 15.1234 38.9243 15.3038C40.6141 15.666 41.4731 16.0361 41.4731 17.2923H41.4715Z" fill="#868989"/>
<path d="M49.2415 14.9603C49.2415 16.2885 48.3465 17.1213 46.9922 17.1213H45.6285V19.1647H44.3369V12.8353H46.9937C48.3496 12.8353 49.2431 13.6304 49.2431 14.9603H49.2415ZM47.9311 14.9791C47.9311 14.4192 47.605 14.0664 46.9373 14.0664H45.6269V15.8918H46.9373C47.6066 15.8918 47.9311 15.5295 47.9311 14.9791Z" fill="#868989"/>
<path d="M55.27 17.6717H52.7135L52.1711 19.1631H50.8074L53.1743 12.8353H54.8092L57.1761 19.1631H55.803L55.27 17.6717ZM54.8186 16.4422L53.9878 14.1464L53.1571 16.4422H54.8201H54.8186Z" fill="#868989"/>
<path d="M59.3188 16C59.3188 14.1386 60.7013 12.7272 62.5901 12.7272C64.0996 12.7272 65.2736 13.6587 65.6436 15.0058H64.261C63.9632 14.355 63.3582 13.9567 62.5807 13.9567C61.4145 13.9567 60.6198 14.816 60.6198 16C60.6198 17.184 61.4145 18.0434 62.5807 18.0434C63.3582 18.0434 63.9632 17.6451 64.261 16.9943H65.6436C65.2736 18.3414 64.098 19.2729 62.5901 19.2729C60.7013 19.2729 59.3188 17.8631 59.3188 16Z" fill="#868989"/>
<path d="M69.7723 14.0648V15.3398H72.4825V16.5693H69.7723V17.9336H72.727V19.1631H68.4807V12.8353H72.727V14.0648H69.7723Z" fill="#868989"/>
<path d="M77.6442 16.886H76.931V19.1647H75.6394V12.8353H78.3589C79.7148 12.8353 80.5189 13.6398 80.5189 14.896C80.5189 15.9263 79.986 16.5598 79.1004 16.7857L80.8716 19.1631H79.2806L77.6457 16.8845L77.6442 16.886ZM76.931 15.7553H78.2147C78.8919 15.7553 79.2085 15.4292 79.2085 14.9148C79.2085 14.4004 78.8825 14.0648 78.2147 14.0648H76.931V15.7553Z" fill="#868989"/>
<path d="M84.9 14.0648V15.3398H87.6102V16.5693H84.9V17.9336H87.8547V19.1631H83.6084V12.8353H87.8547V14.0648H84.9Z" fill="#868989"/>
<path d="M96.863 12.8353V19.1631H95.5714V14.6262L93.8096 17.2938H93.692L91.9396 14.6262V19.1647H90.648V12.8353H92.1292L93.7563 15.2676L95.3739 12.8353H96.8646H96.863Z" fill="#868989"/>
<path d="M100.036 12.8353H101.327V19.1631H100.036V12.8353Z" fill="#868989"/>
<path d="M109 14.0648H107.175V19.1631H105.884V14.0648H104.067V12.8353H109V14.0648Z" fill="#868989"/>
</g>
<defs>
<clipPath id="clip0_26861_6787">
<rect width="93" height="12" fill="white" transform="translate(16 10)"/>
</clipPath>
</defs>
</svg>
