<svg width="101" height="32" viewBox="0 0 101 32" fill="none" xmlns="http://www.w3.org/2000/svg">
<path d="M16 0.5H84.4443C88.2293 0.5 91.0179 0.500767 93.1553 0.788086C95.2781 1.0735 96.6839 1.63332 97.7471 2.69629C98.8102 3.75941 99.3698 5.16524 99.6553 7.28809C99.9426 9.42554 99.9443 12.2146 99.9443 16C99.9443 19.7854 99.9426 22.5745 99.6553 24.7119C99.3698 26.8348 98.8102 28.2406 97.7471 29.3037C96.6839 30.3667 95.2781 30.9265 93.1553 31.2119C91.0179 31.4992 88.2293 31.5 84.4443 31.5H16C12.2146 31.5 9.42553 31.4993 7.28809 31.2119C5.16519 30.9265 3.75943 30.3668 2.69629 29.3037C1.63315 28.2406 1.07354 26.8348 0.788086 24.7119C0.500713 22.5745 0.5 19.7854 0.5 16C0.5 12.2146 0.500713 9.42554 0.788086 7.28809C1.07354 5.16519 1.63315 3.75943 2.69629 2.69629C3.75943 1.63315 5.16519 1.07354 7.28809 0.788086C9.42554 0.500713 12.2146 0.5 16 0.5Z" fill="#F8FAFA"/>
<path d="M16 0.5H84.4443C88.2293 0.5 91.0179 0.500767 93.1553 0.788086C95.2781 1.0735 96.6839 1.63332 97.7471 2.69629C98.8102 3.75941 99.3698 5.16524 99.6553 7.28809C99.9426 9.42554 99.9443 12.2146 99.9443 16C99.9443 19.7854 99.9426 22.5745 99.6553 24.7119C99.3698 26.8348 98.8102 28.2406 97.7471 29.3037C96.6839 30.3667 95.2781 30.9265 93.1553 31.2119C91.0179 31.4992 88.2293 31.5 84.4443 31.5H16C12.2146 31.5 9.42553 31.4993 7.28809 31.2119C5.16519 30.9265 3.75943 30.3668 2.69629 29.3037C1.63315 28.2406 1.07354 26.8348 0.788086 24.7119C0.500713 22.5745 0.5 19.7854 0.5 16C0.5 12.2146 0.500713 9.42554 0.788086 7.28809C1.07354 5.16519 1.63315 3.75943 2.69629 2.69629C3.75943 1.63315 5.16519 1.07354 7.28809 0.788086C9.42554 0.500713 12.2146 0.5 16 0.5Z" stroke="#E7EDED"/>
<path d="M16 8.01343C18.317 8.01343 20.6339 8.01343 22.9509 8.01343C25.401 12.2346 27.8245 16.469 30.2746 20.6902C29.9817 21.1828 29.702 21.6755 29.4091 22.1815C29.1028 22.6742 28.7433 23.1403 28.2772 23.4732C27.8911 23.7395 27.4517 23.9525 26.9723 23.9792C26.4796 24.0324 26.0002 23.886 25.5608 23.633C25.0282 23.3134 24.6154 22.8473 24.2825 22.3413C24.0295 21.9418 23.8031 21.5291 23.5634 21.1163C21.0467 16.7486 18.53 12.3944 16 8.01343Z" fill="#868989"/>
<path d="M25.2544 8.01344C27.5713 8.01344 29.8883 8.01344 32.2053 8.01344C33.8698 10.903 35.5476 13.8059 37.2254 16.6821C37.4517 17.0949 37.9178 17.3745 38.3705 17.3745C38.8499 17.3745 39.3026 17.1082 39.5423 16.6821C37.8778 13.7925 36.2 10.8897 34.5356 8.00012C36.8525 8.00012 39.1695 8.00012 41.4864 8.00012C42.3786 9.54476 43.2708 11.1027 44.1763 12.6474C42.565 15.4437 40.9538 18.2267 39.3293 21.0231C39.0896 21.4225 38.8632 21.822 38.6235 22.2215C38.3173 22.7142 37.9311 23.1669 37.4784 23.4998C37.0789 23.7661 36.6128 23.9659 36.1201 23.9659C35.6275 23.9792 35.1481 23.8194 34.7486 23.5531C34.2426 23.2202 33.8431 22.7541 33.5235 22.2481C33.2839 21.862 33.0575 21.4625 32.8311 21.063C30.2878 16.722 27.7844 12.381 25.2544 8.01344Z" fill="#868989"/>
<path d="M46.8531 8.01344C47.3192 8.01344 47.7586 8.01344 48.2246 8.01344C48.4776 9.03876 48.7573 10.0375 49.0103 11.0628C49.2367 11.9549 49.463 12.8471 49.6361 13.7659C49.7959 12.8338 50.0356 11.915 50.262 10.9829C50.5017 9.99751 50.7547 8.99881 51.0077 8.01344C51.4737 8.01344 51.9398 8.01344 52.3925 8.01344C52.7787 9.45155 53.1382 10.8897 53.4977 12.3411C53.6043 12.7938 53.7108 13.22 53.7907 13.6727C53.8972 13.0468 54.0437 12.421 54.2035 11.8085C54.5097 10.5435 54.8426 9.26513 55.1755 8.00012C55.6283 8.00012 56.0544 8.00012 56.5071 8.00012C55.8413 10.4769 55.1489 12.9669 54.4831 15.4437C54.0037 15.4437 53.5111 15.4437 53.0317 15.4437C52.6855 14.0988 52.3259 12.7406 52.0064 11.3824C51.8998 10.8897 51.78 10.397 51.6868 9.87766C51.5536 10.6234 51.3672 11.369 51.1808 12.1147C50.8878 13.22 50.5949 14.3252 50.3019 15.4437C49.8226 15.4437 49.3565 15.4437 48.8771 15.4437C48.198 12.9803 47.5189 10.4902 46.8531 8.01344Z" fill="#868989"/>
<path d="M67.3199 8.73253C67.7194 8.63932 68.1322 8.51948 68.5317 8.42627C68.5317 8.9589 68.5317 9.46491 68.5317 9.99754C68.798 9.99754 69.0909 9.99754 69.3573 9.99754C69.3573 10.3438 69.3706 10.7033 69.3706 11.0495C69.0776 11.0495 68.8113 11.0495 68.5184 11.0495C68.5184 12.1015 68.5184 13.1401 68.5184 14.192C68.5184 14.3385 68.6515 14.4584 68.7847 14.4584C68.9711 14.4717 69.1708 14.4451 69.3573 14.4317C69.3573 14.7779 69.3573 15.1242 69.3573 15.4704C69.0244 15.5636 68.6915 15.5636 68.3452 15.5636C68.0922 15.5636 67.8126 15.4837 67.6262 15.2973C67.3865 15.0709 67.2933 14.7513 67.2933 14.4317C67.2933 13.2999 67.2933 12.168 67.2933 11.0229C67.0802 11.0229 66.8672 11.0229 66.6541 11.0229C66.6541 10.6767 66.6541 10.3171 66.6541 9.97091C66.8672 9.97091 67.0802 9.97091 67.2933 9.97091C67.3199 9.55812 67.3199 9.14533 67.3199 8.73253Z" fill="#868989"/>
<path d="M57.2663 10.237C57.7324 9.97071 58.2916 9.85087 58.8109 9.89082C59.3436 9.90413 59.8629 10.0639 60.2757 10.3835C60.6619 10.6498 60.9415 11.0493 61.1279 11.502C61.3543 12.0347 61.4209 12.6206 61.3942 13.1932C59.9827 13.1932 58.5713 13.1932 57.1598 13.1932C57.2264 13.6992 57.5593 14.1519 58.0253 14.3383C58.6378 14.5913 59.4102 14.4981 59.8895 14.0321C60.0227 13.9255 60.1159 13.7657 60.1958 13.6193C60.5287 13.7924 60.8616 13.9522 61.1812 14.1253C60.9282 14.6712 60.4488 15.084 59.8895 15.3237C59.3436 15.5634 58.7177 15.63 58.1318 15.5368C57.5726 15.4569 57.0266 15.2039 56.6271 14.8044C56.2277 14.4049 55.9613 13.8723 55.8548 13.313C55.7483 12.6605 55.8282 11.9548 56.1211 11.3689C56.4407 10.8895 56.8269 10.49 57.2663 10.237ZM57.6525 11.3023C57.3995 11.5154 57.2397 11.8349 57.1864 12.1545C58.1585 12.1545 59.1172 12.1545 60.0893 12.1545C60.0626 11.7684 59.8496 11.4221 59.5167 11.2091C58.9841 10.8362 58.1718 10.8762 57.6525 11.3023Z" fill="#868989"/>
<path d="M63.5249 9.91774C64.1507 9.82453 64.8299 9.90443 65.3625 10.264C65.8152 10.5702 66.0949 11.0762 66.0949 11.6222C65.7087 11.6888 65.3492 11.7687 64.963 11.8352C64.9364 11.6488 64.9097 11.4491 64.8165 11.2893C64.6701 11.0496 64.3904 10.9164 64.1108 10.8898C63.8578 10.8765 63.6048 10.9031 63.3784 11.0363C63.2319 11.1295 63.1387 11.2893 63.1521 11.4624C63.1654 11.6222 63.2985 11.7553 63.445 11.8352C63.6847 11.9684 63.9377 12.0217 64.2173 12.0882C64.6967 12.2214 65.1894 12.3279 65.6288 12.5809C65.9218 12.754 66.1614 13.007 66.268 13.3266C66.4411 13.8726 66.3479 14.5117 65.9484 14.9245C65.5489 15.3373 64.963 15.4971 64.4037 15.537C63.698 15.5903 62.9656 15.4305 62.393 14.9778C62.0202 14.7115 61.7805 14.2587 61.7805 13.7927C62.1667 13.7128 62.5662 13.6462 62.9523 13.5663C62.9656 13.7794 63.0322 13.9791 63.1787 14.1256C63.4184 14.3786 63.7912 14.4585 64.1241 14.4585C64.3771 14.4585 64.6701 14.4318 64.8698 14.2454C65.0429 14.0989 65.1095 13.8326 64.9763 13.6329C64.8698 13.4731 64.6567 13.3932 64.4836 13.3133C63.9776 13.1402 63.445 13.0603 62.9523 12.8339C62.6327 12.7008 62.3398 12.5143 62.1534 12.2214C61.8205 11.7154 61.8604 10.9697 62.2599 10.4903C62.5795 10.1974 63.0455 9.99764 63.5249 9.91774Z" fill="#868989"/>
<path d="M71.0617 10.2503C71.5277 9.98402 72.087 9.85086 72.633 9.87749C73.139 9.89081 73.6716 10.0506 74.0977 10.3569C74.4972 10.6498 74.8034 11.0493 74.9899 11.502C75.2162 12.0347 75.2828 12.6072 75.2429 13.1798C73.8314 13.1798 72.4199 13.1798 71.0084 13.1798C71.075 13.6725 71.3946 14.1253 71.834 14.3117C72.4066 14.5647 73.1123 14.4981 73.6183 14.1386C73.8048 13.9921 73.9512 13.819 74.0444 13.6059C74.3773 13.7657 74.7102 13.9388 75.0564 14.1119C74.8168 14.6446 74.3507 15.0441 73.8447 15.2837C72.8593 15.7498 71.6076 15.6566 70.7288 14.9775C70.2494 14.6046 69.9298 14.072 69.7834 13.4728C69.6236 12.7804 69.6901 12.0347 69.9964 11.3955C70.2494 10.9161 70.6223 10.5167 71.0617 10.2503ZM71.9405 11.0493C71.4612 11.2091 71.0883 11.6618 71.035 12.1545C72.0071 12.1545 72.9658 12.1545 73.9379 12.1545C73.9113 11.9015 73.8047 11.6618 73.645 11.4621C73.2455 10.9694 72.5264 10.8362 71.9405 11.0493Z" fill="#868989"/>
<path d="M81.6477 9.93081C82.2736 9.78433 82.9394 9.85091 83.4853 10.1971C83.8715 10.4368 84.1511 10.8363 84.2976 11.2624C84.4041 11.582 84.4441 11.9282 84.4441 12.2744C84.4441 13.3264 84.4441 14.4049 84.4441 15.4569C84.0179 15.4569 83.5785 15.4569 83.1524 15.4569C83.1524 14.4715 83.1524 13.4595 83.1524 12.4741C83.1524 12.1546 83.1258 11.8217 82.9394 11.542C82.8062 11.3157 82.6065 11.1559 82.3535 11.076C81.8475 10.9295 81.2083 11.0227 80.8887 11.4755C80.6623 11.7684 80.5824 12.1412 80.5824 12.5008C80.5824 13.4861 80.5824 14.4715 80.5824 15.4569C80.1563 15.4569 79.7169 15.4569 79.2908 15.4569C79.2908 13.6326 79.2908 11.795 79.2908 9.97075C79.6636 9.97075 80.0365 9.97075 80.4093 9.97075C80.4093 10.2238 80.4093 10.4768 80.4093 10.7564C80.6757 10.3303 81.155 10.0373 81.6477 9.93081Z" fill="#868989"/>
<path d="M75.8155 9.98419C76.1617 9.98419 76.5345 9.98419 76.8807 9.98419C76.8807 10.2106 76.8807 10.4502 76.8807 10.6766C77.0272 10.4502 77.227 10.2638 77.4666 10.144C77.8661 9.95756 78.3189 9.91761 78.745 9.98419C78.745 10.3703 78.745 10.7565 78.7316 11.1294C78.3854 11.0761 77.9993 11.0628 77.6397 11.2092C77.4134 11.3025 77.227 11.5022 77.1471 11.7153C77.0405 11.9816 77.0805 12.2878 77.0672 12.5675C77.0672 13.5262 77.0672 14.4983 77.0805 15.457C76.6544 15.457 76.2149 15.457 75.7888 15.457C75.8155 13.6327 75.8155 11.8218 75.8155 9.98419Z" fill="#868989"/>
<path d="M60.5418 16.429C60.7548 16.3624 61.0078 16.3757 61.1809 16.5089C61.4073 16.6554 61.5538 16.9084 61.5271 17.1614C61.5138 17.4943 61.2608 17.7872 60.9146 17.8538C60.6483 17.9071 60.342 17.7872 60.1822 17.5875C60.0357 17.401 59.9958 17.1347 60.0757 16.9217C60.1423 16.6953 60.3287 16.4956 60.5418 16.429Z" fill="#868989"/>
<path d="M47.426 20.9298C47.426 19.4251 47.426 17.9471 47.426 16.4424C47.8521 16.4424 48.3048 16.4424 48.7309 16.4424C48.7309 17.9338 48.7309 19.4118 48.7309 20.8899C48.7442 21.4225 48.8774 21.9951 49.2769 22.3813C49.6231 22.7142 50.1557 22.8074 50.6351 22.7674C51.0346 22.7408 51.4341 22.5544 51.6871 22.2348C52.0066 21.8486 52.0998 21.3426 52.0998 20.8633C52.0998 19.3985 52.0998 17.9204 52.0998 16.4557C52.526 16.4557 52.9654 16.4557 53.3915 16.4557C53.3915 17.7207 53.3915 18.9857 53.3915 20.2374C53.3915 20.6502 53.4048 21.063 53.3382 21.4891C53.245 22.115 53.0053 22.7408 52.5526 23.1802C52.1531 23.593 51.6205 23.8327 51.0612 23.9259C50.3954 24.0324 49.6764 23.9925 49.0505 23.7129C48.5845 23.4998 48.1717 23.1669 47.9187 22.7275C47.5858 22.2082 47.4526 21.569 47.426 20.9298Z" fill="#868989"/>
<path d="M56.547 18.373C57.1595 18.2399 57.8386 18.3064 58.3712 18.6393C58.7574 18.879 59.0237 19.2652 59.1702 19.678C59.2767 20.0109 59.33 20.3837 59.33 20.7299C59.33 21.7819 59.33 22.8338 59.33 23.8991C58.9039 23.8991 58.4644 23.8991 58.0383 23.8991C58.0383 22.9404 58.0383 21.9816 58.0383 21.0229C58.0383 20.7033 58.025 20.3571 57.8785 20.0508C57.7853 19.8244 57.5856 19.6513 57.3725 19.5581C57.1195 19.4516 56.8133 19.425 56.547 19.4782C56.254 19.5315 55.9877 19.6647 55.8013 19.9043C55.5749 20.1973 55.495 20.5701 55.495 20.9297C55.495 21.915 55.495 22.9137 55.495 23.8991C55.0689 23.8991 54.6295 23.8991 54.2034 23.8991C54.2034 22.0748 54.2034 20.2372 54.2034 18.413C54.5762 18.413 54.949 18.413 55.3219 18.413C55.3219 18.666 55.3219 18.919 55.3219 19.1986C55.5749 18.7592 56.0543 18.4662 56.547 18.373Z" fill="#868989"/>
<path d="M64.5899 18.3197C65.2557 18.2532 65.9482 18.3863 66.5207 18.7459C67.0001 19.0388 67.373 19.4782 67.5727 19.9975C67.9855 20.9829 67.839 22.2213 67.1466 23.0336C66.7338 23.5129 66.1612 23.8325 65.5354 23.9391C64.8429 24.0722 64.0973 23.9923 63.4714 23.6461C62.9787 23.3931 62.5792 22.9803 62.3396 22.5009C61.8469 21.4889 61.9401 20.1973 62.6591 19.3318C63.1385 18.7325 63.8576 18.3863 64.5899 18.3197ZM64.7098 19.5049C64.297 19.5581 63.9108 19.7712 63.6578 20.0908C63.1785 20.7033 63.1918 21.6221 63.6711 22.2346C63.9774 22.6208 64.4834 22.8471 64.9761 22.8072C65.4688 22.8072 65.9615 22.5542 66.2677 22.1414C66.7205 21.5156 66.6805 20.5701 66.1612 20.0109C65.7884 19.6114 65.2291 19.425 64.7098 19.5049Z" fill="#868989"/>
<path d="M70.7951 18.3731C71.4077 18.24 72.0735 18.2932 72.6061 18.6261C72.9923 18.8525 73.2586 19.212 73.4184 19.6381C73.5515 19.971 73.5915 20.3439 73.5915 20.7034C73.5915 21.7687 73.5915 22.8473 73.5915 23.8992C73.1654 23.8992 72.7259 23.8992 72.2998 23.8992C72.2998 22.8872 72.2998 21.8752 72.2998 20.8632C72.2998 20.5303 72.2466 20.1974 72.0601 19.9044C71.9137 19.6781 71.674 19.5316 71.421 19.4917C71.1547 19.4251 70.8617 19.4384 70.6087 19.5183C70.3557 19.5982 70.1293 19.758 69.9829 19.9843C69.7964 20.2507 69.7299 20.6102 69.7299 20.9298C69.7299 21.9151 69.7299 22.9138 69.7299 23.8992C69.3038 23.8992 68.8643 23.8992 68.4382 23.8992C68.4382 22.0749 68.4382 20.2373 68.4382 18.4131C68.8111 18.4131 69.1839 18.4131 69.5568 18.4131C69.5568 18.6661 69.5568 18.9191 69.5568 19.1987C69.8231 18.7593 70.3025 18.4796 70.7951 18.3731Z" fill="#868989"/>
<path d="M60.1426 18.4133C60.5687 18.4133 61.0081 18.4133 61.4342 18.4133C61.4342 20.2376 61.4342 22.0752 61.4342 23.8995C61.0081 23.8995 60.5687 23.8995 60.1426 23.8995C60.1426 22.0619 60.1426 20.2376 60.1426 18.4133Z" fill="#868989"/>
</svg>
