<svg width="95" height="32" viewBox="0 0 95 32" fill="none" xmlns="http://www.w3.org/2000/svg">
<path d="M16.444 0.5H78.444C82.2294 0.5 85.0185 0.500713 87.1559 0.788086C89.2788 1.07354 90.6846 1.63315 91.7477 2.69629C92.8109 3.75943 93.3705 5.16519 93.6559 7.28809C93.9433 9.42554 93.944 12.2146 93.944 16C93.944 19.7854 93.9433 22.5745 93.6559 24.7119C93.3705 26.8348 92.8109 28.2406 91.7477 29.3037C90.6846 30.3668 89.2788 30.9265 87.1559 31.2119C85.0185 31.4993 82.2294 31.5 78.444 31.5H16.444C12.6587 31.5 9.86956 31.4993 7.73211 31.2119C5.60922 30.9265 4.20345 30.3668 3.14031 29.3037C2.07718 28.2406 1.51756 26.8348 1.23211 24.7119C0.944736 22.5745 0.944023 19.7854 0.944023 16C0.944023 12.2146 0.944736 9.42554 1.23211 7.28809C1.51756 5.16519 2.07718 3.75943 3.14031 2.69629C4.20345 1.63315 5.60922 1.07354 7.73211 0.788086C9.86956 0.500713 12.6587 0.5 16.444 0.5Z" fill="#F8FAFA"/>
<path d="M16.444 0.5H78.444C82.2294 0.5 85.0185 0.500713 87.1559 0.788086C89.2788 1.07354 90.6846 1.63315 91.7477 2.69629C92.8109 3.75943 93.3705 5.16519 93.6559 7.28809C93.9433 9.42554 93.944 12.2146 93.944 16C93.944 19.7854 93.9433 22.5745 93.6559 24.7119C93.3705 26.8348 92.8109 28.2406 91.7477 29.3037C90.6846 30.3668 89.2788 30.9265 87.1559 31.2119C85.0185 31.4993 82.2294 31.5 78.444 31.5H16.444C12.6587 31.5 9.86956 31.4993 7.73211 31.2119C5.60922 30.9265 4.20345 30.3668 3.14031 29.3037C2.07718 28.2406 1.51756 26.8348 1.23211 24.7119C0.944736 22.5745 0.944023 19.7854 0.944023 16C0.944023 12.2146 0.944736 9.42554 1.23211 7.28809C1.51756 5.16519 2.07718 3.75943 3.14031 2.69629C4.20345 1.63315 5.60922 1.07354 7.73211 0.788086C9.86956 0.500713 12.6587 0.5 16.444 0.5Z" stroke="#E7EDED"/>
<g clip-path="url(#clip0_26861_6766)">
<mask id="mask0_26861_6766" style="mask-type:luminance" maskUnits="userSpaceOnUse" x="34" y="12" width="25" height="12">
<path d="M34.8476 12.1741H58.9396V23.9997H34.8476V12.1741Z" fill="white"/>
</mask>
<g mask="url(#mask0_26861_6766)">
<path fill-rule="evenodd" clip-rule="evenodd" d="M53.3734 20.9656L51.5206 15.1135H53.9015L54.47 17.7738C54.4792 17.8084 54.4923 17.8631 54.5099 17.9316C54.5909 18.2903 54.636 18.5942 54.6445 18.8453C54.6922 18.6875 54.7524 18.5192 54.8295 18.3379C54.904 18.156 54.9942 17.9603 55.1027 17.7477L56.4522 15.1135H58.9252L53.8622 23.9997H51.4559L53.3734 20.9656ZM48.0242 20.4504C47.7085 20.7954 47.3589 21.0582 46.9733 21.235C46.5897 21.413 46.1754 21.4998 45.7309 21.4998C44.9813 21.4998 44.369 21.2337 43.8886 20.6995C43.4083 20.1667 43.1691 19.4754 43.1691 18.6256C43.1691 17.5586 43.4939 16.6729 44.1442 15.9698C44.7944 15.2648 45.6055 14.9126 46.5773 14.9126C47.0289 14.9126 47.4341 15.0026 47.7909 15.1807C48.1477 15.3574 48.4706 15.6326 48.7601 16.0044L48.9071 15.1135H51.0867L50.0547 21.2748H47.9144L48.0242 20.4504ZM45.4813 18.4123C45.4813 18.8082 45.61 19.1245 45.863 19.3645C46.1178 19.6038 46.4531 19.7245 46.8714 19.7245C47.3275 19.7245 47.7085 19.5562 48.0131 19.2204C48.317 18.8858 48.4693 18.4671 48.4693 17.9629C48.4693 17.5794 48.3405 17.2696 48.0876 17.0316C47.8321 16.7942 47.5014 16.6755 47.0923 16.6755C46.6269 16.6755 46.2414 16.8398 45.9381 17.1685C45.6336 17.4986 45.4813 17.9134 45.4813 18.4123ZM34.8476 21.2748L36.3494 12.3384H38.9453C39.6629 12.3384 40.2053 12.3658 40.566 12.4212C40.9281 12.476 41.2425 12.5673 41.5091 12.699C41.9921 12.9306 42.3541 13.2495 42.5907 13.6506C42.8319 14.055 42.9502 14.5369 42.9502 15.0985C42.9502 15.6548 42.8234 16.1739 42.5646 16.6481C42.309 17.1248 41.9607 17.492 41.5228 17.7477C41.2647 17.8984 40.9588 18.004 40.6033 18.0686C40.2517 18.1312 39.6988 18.1618 38.9453 18.1618H37.8852L37.3559 21.2748H34.8476ZM38.2029 16.2633H38.4401C39.2577 16.2633 39.8112 16.1818 40.0994 16.0194C40.3883 15.8563 40.5314 15.5798 40.5314 15.1904C40.5314 14.8617 40.4072 14.6191 40.1609 14.4671C39.9125 14.3152 39.5243 14.2382 38.9956 14.2382H38.544L38.2029 16.2633Z" fill="#868989"/>
</g>
<mask id="mask1_26861_6766" style="mask-type:luminance" maskUnits="userSpaceOnUse" x="58" y="11" width="21" height="11">
<path d="M58.9396 11.8402H78.4437V21.691H58.9396V11.8402Z" fill="white"/>
</mask>
<g mask="url(#mask1_26861_6766)">
<path fill-rule="evenodd" clip-rule="evenodd" d="M76.2864 11.8676H78.4444L76.9536 21.3283H74.8015L76.2864 11.8676ZM71.2496 20.5026C70.9561 20.849 70.63 21.1118 70.2719 21.2885C69.9151 21.4653 69.5295 21.5533 69.1151 21.5533C68.4178 21.5533 67.8479 21.2872 67.3996 20.7531C66.9532 20.2202 66.7297 19.5276 66.7297 18.6791C66.7297 17.6121 67.033 16.7264 67.6381 16.0234C68.2433 15.319 68.9981 14.9661 69.9026 14.9661C70.3229 14.9661 70.6993 15.0561 71.0326 15.2329C71.3646 15.4109 71.6665 15.6849 71.9345 16.0579L72.0717 15.167H74.1003L73.1409 21.3283H71.1476L71.2496 20.5026ZM68.8831 18.4658C68.8831 18.8617 69.0014 19.178 69.2373 19.4187C69.4759 19.6574 69.7876 19.778 70.1771 19.778C70.6013 19.778 70.9561 19.6098 71.2398 19.2739C71.5228 18.9393 71.6639 18.5206 71.6639 18.0165C71.6639 17.633 71.5456 17.3232 71.3097 17.0851C71.0712 16.8477 70.7633 16.729 70.3817 16.729C69.9497 16.729 69.5903 16.8934 69.3073 17.2221C69.0243 17.5521 68.8831 17.9669 68.8831 18.4658ZM58.9827 21.3283L60.3819 12.3919H62.7974C63.466 12.3919 63.9698 12.4193 64.3071 12.4754C64.6436 12.5295 64.9371 12.6208 65.1854 12.7526C65.6344 12.9828 65.9703 13.3017 66.1919 13.7041C66.4154 14.1085 66.5265 14.5892 66.5265 15.152C66.5265 15.7083 66.4082 16.2275 66.167 16.7016C65.9291 17.1784 65.6056 17.5456 65.1978 17.8012C64.9573 17.9519 64.6724 18.0576 64.3417 18.1221C64.0136 18.1847 63.4986 18.2154 62.7974 18.2154H61.8106L61.3191 21.3283H58.9827ZM62.1066 16.3155H62.3282C63.0895 16.3155 63.6032 16.2347 63.8731 16.0729C64.1411 15.9099 64.2744 15.634 64.2744 15.244C64.2744 14.914 64.16 14.6727 63.9306 14.5207C63.6986 14.3687 63.3379 14.2918 62.8451 14.2918H62.4242L62.1066 16.3155Z" fill="#868989"/>
</g>
<path fill-rule="evenodd" clip-rule="evenodd" d="M19.8215 23.0638L21.5423 11.9373C21.5834 11.6171 21.7259 11.381 21.9827 11.381H24.8642C25.7602 11.381 26.4359 11.4169 26.8869 11.4925C27.3385 11.5649 27.7312 11.6869 28.0632 11.8623C28.6658 12.1727 29.1161 12.5986 29.4128 13.1373C29.7121 13.678 29.8611 14.3217 29.8611 15.0744C29.8611 15.8192 29.701 16.5125 29.3795 17.149C29.0612 17.7875 28.6272 18.278 28.0796 18.6204C27.7594 18.8206 27.3646 18.9191 26.9346 19.0495C26.168 19.2823 25.0903 19.3352 24.2695 19.3352C23.9349 19.4187 23.7989 19.6847 23.7453 20.0832L23.2813 23.0599C23.1879 23.3214 23.0193 23.4786 22.7794 23.5366L20.1613 23.536C19.8594 23.4968 19.7705 23.324 19.8215 23.0638Z" fill="#B5B9B9"/>
<path fill-rule="evenodd" clip-rule="evenodd" d="M16.4597 21.4529L18.4131 8.6405C18.4595 8.2707 18.6216 7.99939 18.9137 7.99939H22.1873C23.2049 7.99939 23.9662 8.16113 24.4838 8.12722C29.9546 7.77177 29.2651 13.7733 25.8386 16.3358C25.4929 16.5947 25.0263 16.6795 24.5374 16.8301C23.6663 17.0975 22.4428 17.1588 21.5109 17.1588C21.1318 17.256 20.977 17.5606 20.9155 18.0204L20.3888 21.449C20.2822 21.749 20.0914 21.9297 19.8195 21.9981L16.844 21.9955C16.5022 21.9505 16.4009 21.7529 16.4597 21.4529Z" fill="#868989"/>
</g>
<defs>
<clipPath id="clip0_26861_6766">
<rect width="62" height="16" fill="white" transform="translate(16.444 8)"/>
</clipPath>
</defs>
</svg>
