<svg width="76" height="32" viewBox="0 0 76 32" fill="none" xmlns="http://www.w3.org/2000/svg">
<path d="M16 0.5H60C63.7854 0.5 66.5745 0.500713 68.7119 0.788086C70.8348 1.07354 72.2406 1.63315 73.3037 2.69629C74.3668 3.75943 74.9265 5.16519 75.2119 7.28809C75.4993 9.42554 75.5 12.2146 75.5 16C75.5 19.7854 75.4993 22.5745 75.2119 24.7119C74.9265 26.8348 74.3668 28.2406 73.3037 29.3037C72.2406 30.3668 70.8348 30.9265 68.7119 31.2119C66.5745 31.4993 63.7854 31.5 60 31.5H16C12.2146 31.5 9.42554 31.4993 7.28809 31.2119C5.16519 30.9265 3.75943 30.3668 2.69629 29.3037C1.63315 28.2406 1.07354 26.8348 0.788086 24.7119C0.500713 22.5745 0.5 19.7854 0.5 16C0.5 12.2146 0.500713 9.42554 0.788086 7.28809C1.07354 5.16519 1.63315 3.75943 2.69629 2.69629C3.75943 1.63315 5.16519 1.07354 7.28809 0.788086C9.42554 0.500713 12.2146 0.5 16 0.5Z" fill="#F8FAFA"/>
<path d="M16 0.5H60C63.7854 0.5 66.5745 0.500713 68.7119 0.788086C70.8348 1.07354 72.2406 1.63315 73.3037 2.69629C74.3668 3.75943 74.9265 5.16519 75.2119 7.28809C75.4993 9.42554 75.5 12.2146 75.5 16C75.5 19.7854 75.4993 22.5745 75.2119 24.7119C74.9265 26.8348 74.3668 28.2406 73.3037 29.3037C72.2406 30.3668 70.8348 30.9265 68.7119 31.2119C66.5745 31.4993 63.7854 31.5 60 31.5H16C12.2146 31.5 9.42554 31.4993 7.28809 31.2119C5.16519 30.9265 3.75943 30.3668 2.69629 29.3037C1.63315 28.2406 1.07354 26.8348 0.788086 24.7119C0.500713 22.5745 0.5 19.7854 0.5 16C0.5 12.2146 0.500713 9.42554 0.788086 7.28809C1.07354 5.16519 1.63315 3.75943 2.69629 2.69629C3.75943 1.63315 5.16519 1.07354 7.28809 0.788086C9.42554 0.500713 12.2146 0.5 16 0.5Z" stroke="#E7EDED"/>
<g clip-path="url(#clip0_26861_6808)">
<path d="M38.7557 13.4096C38.7306 15.3889 40.5197 16.4933 41.8674 17.1501C43.252 17.8238 43.7171 18.2559 43.7116 18.8585C43.7013 19.7806 42.6071 20.1876 41.5833 20.2034C39.797 20.2311 38.7583 19.7211 37.9326 19.3355L37.2891 22.3465C38.1176 22.7283 39.6515 23.0612 41.2423 23.0758C44.9762 23.0758 47.4191 21.2326 47.4323 18.3749C47.4469 14.7479 42.4156 14.5472 42.45 12.9261C42.4619 12.4345 42.9309 11.9099 43.9587 11.7766C44.4675 11.7092 45.8719 11.6576 47.4641 12.3909L48.0891 9.47757C47.2328 9.16579 46.1323 8.86724 44.7621 8.86724C41.2476 8.86724 38.7757 10.7355 38.7557 13.4096ZM54.094 9.11818C53.4122 9.11818 52.8376 9.5159 52.5812 10.1262L47.2474 22.8618H50.9786L51.7211 20.8098H56.2806L56.7113 22.8618H60L57.1302 9.11818H54.094ZM54.616 12.8309L55.6928 17.9917H52.7438L54.616 12.8309ZM34.2318 9.11835L31.2907 22.8616H34.8463L37.786 9.11801L34.2318 9.11835ZM28.9719 9.11835L25.2711 18.4726L23.7741 10.5188C23.5984 9.63088 22.9047 9.11818 22.1344 9.11818H16.0847L16 9.51727C17.242 9.78677 18.6531 10.2214 19.508 10.6865C20.0312 10.9706 20.1803 11.219 20.3522 11.8941L23.1876 22.8618H26.945L32.7056 9.11818L28.9719 9.11835Z" fill="#868989"/>
</g>
<defs>
<clipPath id="clip0_26861_6808">
<rect width="44" height="14.2656" fill="white" transform="translate(16 8.86719)"/>
</clipPath>
</defs>
</svg>
