<svg width="92" height="32" viewBox="0 0 92 32" fill="none" xmlns="http://www.w3.org/2000/svg">
<path d="M16 0.5H76C79.7854 0.5 82.5745 0.500713 84.7119 0.788086C86.8348 1.07354 88.2406 1.63315 89.3037 2.69629C90.3668 3.75943 90.9265 5.16519 91.2119 7.28809C91.4993 9.42554 91.5 12.2146 91.5 16C91.5 19.7854 91.4993 22.5745 91.2119 24.7119C90.9265 26.8348 90.3668 28.2406 89.3037 29.3037C88.2406 30.3668 86.8348 30.9265 84.7119 31.2119C82.5745 31.4993 79.7854 31.5 76 31.5H16C12.2146 31.5 9.42554 31.4993 7.28809 31.2119C5.16519 30.9265 3.75943 30.3668 2.69629 29.3037C1.63315 28.2406 1.07354 26.8348 0.788086 24.7119C0.500713 22.5745 0.5 19.7854 0.5 16C0.5 12.2146 0.500713 9.42554 0.788086 7.28809C1.07354 5.16519 1.63315 3.75943 2.69629 2.69629C3.75943 1.63315 5.16519 1.07354 7.28809 0.788086C9.42554 0.500713 12.2146 0.5 16 0.5Z" fill="#F8FAFA"/>
<path d="M16 0.5H76C79.7854 0.5 82.5745 0.500713 84.7119 0.788086C86.8348 1.07354 88.2406 1.63315 89.3037 2.69629C90.3668 3.75943 90.9265 5.16519 91.2119 7.28809C91.4993 9.42554 91.5 12.2146 91.5 16C91.5 19.7854 91.4993 22.5745 91.2119 24.7119C90.9265 26.8348 90.3668 28.2406 89.3037 29.3037C88.2406 30.3668 86.8348 30.9265 84.7119 31.2119C82.5745 31.4993 79.7854 31.5 76 31.5H16C12.2146 31.5 9.42554 31.4993 7.28809 31.2119C5.16519 30.9265 3.75943 30.3668 2.69629 29.3037C1.63315 28.2406 1.07354 26.8348 0.788086 24.7119C0.500713 22.5745 0.5 19.7854 0.5 16C0.5 12.2146 0.500713 9.42554 0.788086 7.28809C1.07354 5.16519 1.63315 3.75943 2.69629 2.69629C3.75943 1.63315 5.16519 1.07354 7.28809 0.788086C9.42554 0.500713 12.2146 0.5 16 0.5Z" stroke="#E7EDED"/>
<path d="M21.4542 10.2175L26 7.66663L30.5467 10.2175L28.88 11.1616L26 9.55079L23.125 11.1616L21.4542 10.2175ZM30.5458 13.44L28.8792 12.495L26 14.1066L23.125 12.495L21.4542 13.44V15.3233L24.3242 16.935V20.1525L26 21.0975L27.6717 20.1525V16.9358L30.5467 15.3241L30.5458 13.44ZM30.5458 18.5466V16.6575L28.8792 17.6016V19.4858L30.5458 18.5466ZM31.7367 19.2133L28.8617 20.8191V22.7083L33.4075 20.1525V15.0508L31.7367 15.9908V19.2133ZM30.065 11.8283L31.7317 12.7733V14.6566L33.4075 13.7175V11.8283L31.7367 10.8841L30.065 11.8333V11.8283ZM24.3242 21.505V23.3883L26 24.3333L27.6717 23.3891V21.5083L26 22.45L24.3292 21.505H24.3242ZM21.4542 18.5416L23.1208 19.4858V17.6025L21.4542 16.6575V18.5466V18.5416ZM24.3242 11.8283L26 12.7733L27.6717 11.8283L26 10.8841L24.3292 11.8333L24.3242 11.8283ZM20.2642 12.7733L21.935 11.8283L20.2683 10.8841L18.5933 11.8333V13.7225L20.2642 14.6625V12.7733ZM20.2642 15.9908L18.5917 15.0508V20.1525L23.1383 22.7083V20.815L20.2683 19.2083V15.9858L20.2642 15.9908Z" fill="#868989"/>
<path d="M40.65 12.8C40.65 12.7333 40.6833 12.7 40.75 12.7H43.4C44.14 12.7 44.6867 12.8667 45.04 13.2C45.3933 13.5333 45.57 13.97 45.57 14.51C45.57 14.8833 45.4933 15.1867 45.34 15.42C45.1933 15.6533 45.0067 15.8333 44.78 15.96V15.98C44.8933 16.02 45.0033 16.0867 45.11 16.18C45.2233 16.2667 45.32 16.3767 45.4 16.51C45.4867 16.6433 45.5567 16.7967 45.61 16.97C45.6633 17.1367 45.69 17.32 45.69 17.52C45.69 18.1933 45.48 18.6933 45.06 19.02C44.6467 19.34 44.07 19.5 43.33 19.5H40.75C40.6833 19.5 40.65 19.4667 40.65 19.4V12.8ZM43.22 15.48C43.5 15.48 43.7167 15.41 43.87 15.27C44.03 15.13 44.11 14.9333 44.11 14.68C44.11 14.4267 44.03 14.2333 43.87 14.1C43.7167 13.96 43.5 13.89 43.22 13.89H42.18C42.14 13.89 42.12 13.91 42.12 13.95V15.42C42.12 15.46 42.14 15.48 42.18 15.48H43.22ZM42.12 18.25C42.12 18.29 42.14 18.31 42.18 18.31H43.3C43.6 18.31 43.8267 18.2367 43.98 18.09C44.14 17.9367 44.22 17.7267 44.22 17.46C44.22 17.2 44.14 16.9933 43.98 16.84C43.8267 16.6867 43.6 16.61 43.3 16.61H42.18C42.14 16.61 42.12 16.63 42.12 16.67V18.25ZM46.8335 13.89C46.7668 13.89 46.7335 13.8567 46.7335 13.79V12.8C46.7335 12.7333 46.7668 12.7 46.8335 12.7H48.0335C48.1002 12.7 48.1335 12.7333 48.1335 12.8V13.79C48.1335 13.8567 48.1002 13.89 48.0335 13.89H46.8335ZM46.8335 19.5C46.7668 19.5 46.7335 19.4667 46.7335 19.4V14.76C46.7335 14.6933 46.7668 14.66 46.8335 14.66H48.0335C48.1002 14.66 48.1335 14.6933 48.1335 14.76V19.4C48.1335 19.4667 48.1002 19.5 48.0335 19.5H46.8335ZM52.3998 19.5C52.3331 19.5 52.2998 19.4667 52.2998 19.4V16.62C52.2998 16.3533 52.2364 16.14 52.1098 15.98C51.9898 15.82 51.8031 15.74 51.5498 15.74C51.3098 15.74 51.1231 15.82 50.9898 15.98C50.8564 16.14 50.7898 16.3533 50.7898 16.62V19.4C50.7898 19.4667 50.7564 19.5 50.6898 19.5H49.4898C49.4231 19.5 49.3898 19.4667 49.3898 19.4V14.76C49.3898 14.6933 49.4231 14.66 49.4898 14.66H50.6898C50.7564 14.66 50.7898 14.6933 50.7898 14.76V15.1H50.7998C50.9131 14.9467 51.0698 14.8167 51.2698 14.71C51.4764 14.6033 51.7364 14.55 52.0498 14.55C52.3164 14.55 52.5531 14.5933 52.7598 14.68C52.9664 14.7667 53.1398 14.89 53.2798 15.05C53.4198 15.21 53.5231 15.4 53.5898 15.62C53.6631 15.84 53.6998 16.0833 53.6998 16.35V19.4C53.6998 19.4667 53.6664 19.5 53.5998 19.5H52.3998ZM57.7571 19.5C57.6904 19.5 57.6571 19.4667 57.6571 19.4V19.08H57.6471C57.5204 19.24 57.3504 19.37 57.1371 19.47C56.9238 19.5633 56.6504 19.61 56.3171 19.61C56.1038 19.61 55.8971 19.58 55.6971 19.52C55.5038 19.4667 55.3338 19.38 55.1871 19.26C55.0404 19.14 54.9238 18.9867 54.8371 18.8C54.7504 18.6133 54.7071 18.39 54.7071 18.13C54.7071 17.5967 54.8904 17.2033 55.2571 16.95C55.6304 16.6967 56.1171 16.57 56.7171 16.57H57.5771C57.6171 16.57 57.6371 16.55 57.6371 16.51V16.33C57.6371 16.1033 57.5671 15.9367 57.4271 15.83C57.2938 15.7233 57.0338 15.67 56.6471 15.67C56.4004 15.67 56.1871 15.7 56.0071 15.76C55.8271 15.82 55.6804 15.8933 55.5671 15.98C55.5138 16.02 55.4704 16.0133 55.4371 15.96L54.9871 15.17C54.9538 15.11 54.9638 15.0633 55.0171 15.03C55.2238 14.8833 55.4738 14.7667 55.7671 14.68C56.0671 14.5933 56.4171 14.55 56.8171 14.55C57.2104 14.55 57.5438 14.5867 57.8171 14.66C58.0904 14.7267 58.3104 14.8333 58.4771 14.98C58.6504 15.12 58.7738 15.3 58.8471 15.52C58.9271 15.74 58.9671 16 58.9671 16.3V19.4C58.9671 19.4667 58.9338 19.5 58.8671 19.5H57.7571ZM56.7371 18.56C57.3371 18.56 57.6371 18.3367 57.6371 17.89V17.56C57.6371 17.52 57.6171 17.5 57.5771 17.5H56.8971C56.3238 17.5 56.0371 17.6833 56.0371 18.05C56.0371 18.39 56.2704 18.56 56.7371 18.56ZM63.2103 19.5C63.1436 19.5 63.1103 19.4667 63.1103 19.4V16.62C63.1103 16.3533 63.047 16.14 62.9203 15.98C62.8003 15.82 62.6136 15.74 62.3603 15.74C62.1203 15.74 61.9336 15.82 61.8003 15.98C61.667 16.14 61.6003 16.3533 61.6003 16.62V19.4C61.6003 19.4667 61.567 19.5 61.5003 19.5H60.3003C60.2336 19.5 60.2003 19.4667 60.2003 19.4V14.76C60.2003 14.6933 60.2336 14.66 60.3003 14.66H61.5003C61.567 14.66 61.6003 14.6933 61.6003 14.76V15.1H61.6103C61.7236 14.9467 61.8803 14.8167 62.0803 14.71C62.287 14.6033 62.547 14.55 62.8603 14.55C63.127 14.55 63.3636 14.5933 63.5703 14.68C63.777 14.7667 63.9503 14.89 64.0903 15.05C64.2303 15.21 64.3336 15.4 64.4003 15.62C64.4736 15.84 64.5103 16.0833 64.5103 16.35V19.4C64.5103 19.4667 64.477 19.5 64.4103 19.5H63.2103ZM67.7277 19.61C67.2143 19.61 66.7743 19.4967 66.4077 19.27C66.041 19.0367 65.7843 18.6933 65.6377 18.24C65.5843 18.0933 65.5443 17.9267 65.5177 17.74C65.4977 17.5533 65.4877 17.3333 65.4877 17.08C65.4877 16.8267 65.4977 16.6067 65.5177 16.42C65.5443 16.2333 65.5843 16.0667 65.6377 15.92C65.7843 15.4667 66.041 15.1267 66.4077 14.9C66.7743 14.6667 67.2143 14.55 67.7277 14.55C68.1477 14.55 68.5143 14.6367 68.8277 14.81C69.141 14.9767 69.3843 15.1933 69.5577 15.46C69.591 15.5133 69.5843 15.56 69.5377 15.6L68.6677 16.17C68.6077 16.21 68.5577 16.2033 68.5177 16.15C68.411 16.0033 68.2977 15.8967 68.1777 15.83C68.0643 15.7633 67.921 15.73 67.7477 15.73C67.561 15.73 67.401 15.7733 67.2677 15.86C67.141 15.9467 67.051 16.0767 66.9977 16.25C66.9643 16.35 66.941 16.4633 66.9277 16.59C66.9143 16.7167 66.9077 16.88 66.9077 17.08C66.9077 17.28 66.9143 17.4433 66.9277 17.57C66.941 17.6967 66.9643 17.81 66.9977 17.91C67.051 18.0833 67.141 18.2133 67.2677 18.3C67.401 18.3867 67.561 18.43 67.7477 18.43C67.921 18.43 68.0643 18.3967 68.1777 18.33C68.2977 18.2633 68.411 18.1567 68.5177 18.01C68.5577 17.9567 68.6077 17.95 68.6677 17.99L69.5377 18.56C69.5843 18.6 69.591 18.6467 69.5577 18.7C69.3843 18.9667 69.141 19.1867 68.8277 19.36C68.5143 19.5267 68.1477 19.61 67.7277 19.61ZM72.6121 19.61C72.0588 19.61 71.5988 19.49 71.2321 19.25C70.8654 19.01 70.6121 18.67 70.4721 18.23C70.4188 18.0767 70.3754 17.91 70.3421 17.73C70.3154 17.55 70.3021 17.3333 70.3021 17.08C70.3021 16.8267 70.3154 16.61 70.3421 16.43C70.3688 16.2433 70.4088 16.0733 70.4621 15.92C70.6021 15.48 70.8521 15.1433 71.2121 14.91C71.5788 14.67 72.0221 14.55 72.5421 14.55C73.0821 14.55 73.5288 14.67 73.8821 14.91C74.2421 15.15 74.4921 15.4833 74.6321 15.91C74.6588 15.99 74.6821 16.0767 74.7021 16.17C74.7221 16.2567 74.7388 16.3567 74.7521 16.47C74.7654 16.5833 74.7754 16.7167 74.7821 16.87C74.7888 17.0167 74.7921 17.1933 74.7921 17.4C74.7921 17.4667 74.7554 17.5 74.6821 17.5H71.7521C71.7121 17.5 71.6921 17.52 71.6921 17.56C71.6988 17.66 71.7188 17.75 71.7521 17.83C71.8188 18.0433 71.9388 18.2033 72.1121 18.31C72.2854 18.4167 72.4988 18.47 72.7521 18.47C72.9921 18.47 73.2021 18.4333 73.3821 18.36C73.5621 18.28 73.7221 18.1733 73.8621 18.04C73.9221 17.9933 73.9688 17.9933 74.0021 18.04L74.6621 18.66C74.7154 18.7067 74.7188 18.7533 74.6721 18.8C74.4388 19.0467 74.1488 19.2433 73.8021 19.39C73.4554 19.5367 73.0588 19.61 72.6121 19.61ZM73.3521 16.57C73.3921 16.57 73.4121 16.55 73.4121 16.51C73.4121 16.4367 73.4054 16.3733 73.3921 16.32C73.3854 16.26 73.3754 16.2033 73.3621 16.15C73.3088 15.9833 73.2088 15.8533 73.0621 15.76C72.9221 15.6667 72.7521 15.62 72.5521 15.62C72.3521 15.62 72.1788 15.6667 72.0321 15.76C71.8921 15.8533 71.7954 15.9833 71.7421 16.15C71.7288 16.2033 71.7154 16.26 71.7021 16.32C71.6954 16.3733 71.6921 16.4367 71.6921 16.51C71.6921 16.55 71.7121 16.57 71.7521 16.57H73.3521Z" fill="#868989"/>
</svg>
