<svg width="72" height="32" viewBox="0 0 72 32" fill="none" xmlns="http://www.w3.org/2000/svg">
<path d="M16 0.5H56C59.7854 0.5 62.5745 0.500713 64.7119 0.788086C66.8348 1.07354 68.2406 1.63315 69.3037 2.69629C70.3668 3.75943 70.9265 5.16519 71.2119 7.28809C71.4993 9.42554 71.5 12.2146 71.5 16C71.5 19.7854 71.4993 22.5745 71.2119 24.7119C70.9265 26.8348 70.3668 28.2406 69.3037 29.3037C68.2406 30.3668 66.8348 30.9265 64.7119 31.2119C62.5745 31.4993 59.7854 31.5 56 31.5H16C12.2146 31.5 9.42554 31.4993 7.28809 31.2119C5.16519 30.9265 3.75943 30.3668 2.69629 29.3037C1.63315 28.2406 1.07354 26.8348 0.788086 24.7119C0.500713 22.5745 0.5 19.7854 0.5 16C0.5 12.2146 0.500713 9.42554 0.788086 7.28809C1.07354 5.16519 1.63315 3.75943 2.69629 2.69629C3.75943 1.63315 5.16519 1.07354 7.28809 0.788086C9.42554 0.500713 12.2146 0.5 16 0.5Z" fill="#F8FAFA"/>
<path d="M16 0.5H56C59.7854 0.5 62.5745 0.500713 64.7119 0.788086C66.8348 1.07354 68.2406 1.63315 69.3037 2.69629C70.3668 3.75943 70.9265 5.16519 71.2119 7.28809C71.4993 9.42554 71.5 12.2146 71.5 16C71.5 19.7854 71.4993 22.5745 71.2119 24.7119C70.9265 26.8348 70.3668 28.2406 69.3037 29.3037C68.2406 30.3668 66.8348 30.9265 64.7119 31.2119C62.5745 31.4993 59.7854 31.5 56 31.5H16C12.2146 31.5 9.42554 31.4993 7.28809 31.2119C5.16519 30.9265 3.75943 30.3668 2.69629 29.3037C1.63315 28.2406 1.07354 26.8348 0.788086 24.7119C0.500713 22.5745 0.5 19.7854 0.5 16C0.5 12.2146 0.500713 9.42554 0.788086 7.28809C1.07354 5.16519 1.63315 3.75943 2.69629 2.69629C3.75943 1.63315 5.16519 1.07354 7.28809 0.788086C9.42554 0.500713 12.2146 0.5 16 0.5Z" stroke="#E7EDED"/>
<g clip-path="url(#clip0_26861_6850)">
<path d="M18.8111 14.1628C18.8111 13.7295 19.1667 13.5628 19.7556 13.5628C20.6 13.5628 21.6667 13.8184 22.5111 14.274V11.6628C21.5889 11.2962 20.6778 11.1517 19.7556 11.1517C17.5 11.1517 16 12.3295 16 14.2962C16 17.3628 20.2222 16.874 20.2222 18.1962C20.2222 18.7073 19.7778 18.874 19.1556 18.874C18.2333 18.874 17.0556 18.4962 16.1222 17.9851V20.6295C17.1556 21.074 18.2 21.2628 19.1556 21.2628C21.4667 21.2628 23.0556 20.1184 23.0556 18.1295C23.0444 14.8184 18.8111 15.4073 18.8111 14.1628ZM26.3222 8.92951L23.6111 9.50729L23.6 18.4073C23.6 20.0517 24.8333 21.2628 26.4778 21.2628C27.3889 21.2628 28.0556 21.0962 28.4222 20.8962V18.6406C28.0667 18.7851 26.3111 19.2962 26.3111 17.6517V13.7073H28.4222V11.3406H26.3111L26.3222 8.92951ZM31.8778 12.1628L31.7 11.3406H29.3V21.0628H32.0778V14.474C32.7333 13.6184 33.8444 13.774 34.1889 13.8962V11.3406C33.8333 11.2073 32.5333 10.9628 31.8778 12.1628ZM34.8667 11.3406H37.6556V21.0628H34.8667V11.3406ZM34.8667 10.4962L37.6556 9.89618V7.64062L34.8667 8.22951V10.4962ZM43.4556 11.1517C42.3667 11.1517 41.6667 11.6628 41.2778 12.0184L41.1333 11.3295H38.6889V24.2851L41.4667 23.6962L41.4778 20.5517C41.8778 20.8406 42.4667 21.2517 43.4444 21.2517C45.4333 21.2517 47.2444 19.6517 47.2444 16.1295C47.2333 12.9073 45.4 11.1517 43.4556 11.1517ZM42.7889 18.8073C42.1333 18.8073 41.7444 18.574 41.4778 18.2851L41.4667 14.1628C41.7556 13.8406 42.1556 13.6184 42.7889 13.6184C43.8 13.6184 44.5 14.7517 44.5 16.2073C44.5 17.6962 43.8111 18.8073 42.7889 18.8073ZM56 16.2406C56 13.3962 54.6222 11.1517 51.9889 11.1517C49.3444 11.1517 47.7444 13.3962 47.7444 16.2184C47.7444 19.5628 49.6333 21.2517 52.3444 21.2517C53.6667 21.2517 54.6667 20.9517 55.4222 20.5295V18.3073C54.6667 18.6851 53.8 18.9184 52.7 18.9184C51.6222 18.9184 50.6667 18.5406 50.5444 17.2295H55.9778C55.9778 17.0851 56 16.5073 56 16.2406ZM50.5111 15.1851C50.5111 13.9295 51.2778 13.4073 51.9778 13.4073C52.6556 13.4073 53.3778 13.9295 53.3778 15.1851H50.5111Z" fill="#868989"/>
</g>
<defs>
<clipPath id="clip0_26861_6850">
<rect width="40" height="16.7188" fill="white" transform="translate(16 7.64062)"/>
</clipPath>
</defs>
</svg>
