<svg width="81" height="32" viewBox="0 0 81 32" fill="none" xmlns="http://www.w3.org/2000/svg">
<path d="M16 0.5H65C68.7854 0.5 71.5745 0.500713 73.7119 0.788086C75.8348 1.07354 77.2406 1.63315 78.3037 2.69629C79.3668 3.75943 79.9265 5.16519 80.2119 7.28809C80.4993 9.42554 80.5 12.2146 80.5 16C80.5 19.7854 80.4993 22.5745 80.2119 24.7119C79.9265 26.8348 79.3668 28.2406 78.3037 29.3037C77.2406 30.3668 75.8348 30.9265 73.7119 31.2119C71.5745 31.4993 68.7854 31.5 65 31.5H16C12.2146 31.5 9.42554 31.4993 7.28809 31.2119C5.16519 30.9265 3.75943 30.3668 2.69629 29.3037C1.63315 28.2406 1.07354 26.8348 0.788086 24.7119C0.500713 22.5745 0.5 19.7854 0.5 16C0.5 12.2146 0.500713 9.42554 0.788086 7.28809C1.07354 5.16519 1.63315 3.75943 2.69629 2.69629C3.75943 1.63315 5.16519 1.07354 7.28809 0.788086C9.42554 0.500713 12.2146 0.5 16 0.5Z" fill="#F8FAFA"/>
<path d="M16 0.5H65C68.7854 0.5 71.5745 0.500713 73.7119 0.788086C75.8348 1.07354 77.2406 1.63315 78.3037 2.69629C79.3668 3.75943 79.9265 5.16519 80.2119 7.28809C80.4993 9.42554 80.5 12.2146 80.5 16C80.5 19.7854 80.4993 22.5745 80.2119 24.7119C79.9265 26.8348 79.3668 28.2406 78.3037 29.3037C77.2406 30.3668 75.8348 30.9265 73.7119 31.2119C71.5745 31.4993 68.7854 31.5 65 31.5H16C12.2146 31.5 9.42554 31.4993 7.28809 31.2119C5.16519 30.9265 3.75943 30.3668 2.69629 29.3037C1.63315 28.2406 1.07354 26.8348 0.788086 24.7119C0.500713 22.5745 0.5 19.7854 0.5 16C0.5 12.2146 0.500713 9.42554 0.788086 7.28809C1.07354 5.16519 1.63315 3.75943 2.69629 2.69629C3.75943 1.63315 5.16519 1.07354 7.28809 0.788086C9.42554 0.500713 12.2146 0.5 16 0.5Z" stroke="#E7EDED"/>
<g clip-path="url(#clip0_26861_6892)">
<path d="M27.2342 14.6677V13.1801H30.636V10.9135H21.3728V13.1801H24.775V14.6665C22.01 14.7935 19.931 15.3411 19.931 15.9971C19.931 16.6531 22.011 17.2007 24.775 17.3285V22.0935H27.235V17.3281C29.995 17.2007 32.0698 16.6535 32.0698 15.9981C32.0698 15.3427 29.995 14.7955 27.235 14.6681M27.235 16.9245V16.9233C27.1656 16.9277 26.809 16.9491 26.015 16.9491C25.3802 16.9491 24.9336 16.9311 24.7762 16.9229V16.9249C22.3334 16.8167 20.51 16.3913 20.51 15.8823C20.51 15.3733 22.3336 14.9485 24.7762 14.8401V16.5011C24.9362 16.5121 25.3938 16.5391 26.0254 16.5391C26.784 16.5391 27.1654 16.5075 27.2354 16.5011V14.8401C29.6734 14.9487 31.4926 15.3745 31.4926 15.8817C31.4926 16.3889 29.6726 16.8149 27.2354 16.9235" fill="#868989"/>
</g>
<path d="M43.23 19.61C42.85 19.61 42.5 19.5533 42.18 19.44C41.86 19.3267 41.5833 19.16 41.35 18.94C41.1233 18.72 40.9433 18.4467 40.81 18.12C40.6833 17.7933 40.62 17.42 40.62 17V12.8C40.62 12.7333 40.6533 12.7 40.72 12.7H41.99C42.0567 12.7 42.09 12.7333 42.09 12.8V17.04C42.09 17.4467 42.1933 17.76 42.4 17.98C42.6067 18.2 42.8833 18.31 43.23 18.31C43.57 18.31 43.8433 18.2 44.05 17.98C44.2567 17.76 44.36 17.4467 44.36 17.04V12.8C44.36 12.7333 44.3933 12.7 44.46 12.7H45.73C45.7967 12.7 45.83 12.7333 45.83 12.8V17C45.83 17.42 45.7633 17.7933 45.63 18.12C45.5033 18.4467 45.3233 18.72 45.09 18.94C44.8633 19.16 44.59 19.3267 44.27 19.44C43.9567 19.5533 43.61 19.61 43.23 19.61ZM49.3853 19.61C49.1186 19.61 48.8553 19.5833 48.5953 19.53C48.342 19.4833 48.102 19.42 47.8753 19.34C47.6486 19.2533 47.4386 19.1533 47.2453 19.04C47.0586 18.9267 46.8986 18.8067 46.7653 18.68C46.712 18.6267 46.7086 18.57 46.7553 18.51L47.5153 17.64C47.5553 17.5867 47.6053 17.5833 47.6653 17.63C47.892 17.81 48.1553 17.9733 48.4553 18.12C48.7553 18.26 49.0853 18.33 49.4453 18.33C49.8053 18.33 50.0786 18.2567 50.2653 18.11C50.4586 17.9567 50.5553 17.76 50.5553 17.52C50.5553 17.32 50.482 17.1567 50.3353 17.03C50.1886 16.9033 49.912 16.8133 49.5053 16.76L49.1453 16.71C48.452 16.6167 47.9186 16.4067 47.5453 16.08C47.1786 15.7467 46.9953 15.2767 46.9953 14.67C46.9953 14.3567 47.052 14.0733 47.1653 13.82C47.2786 13.56 47.4386 13.34 47.6453 13.16C47.8586 12.98 48.112 12.84 48.4053 12.74C48.7053 12.64 49.0386 12.59 49.4053 12.59C49.8586 12.59 50.2853 12.6533 50.6853 12.78C51.0853 12.9067 51.4286 13.08 51.7153 13.3C51.7753 13.34 51.782 13.39 51.7353 13.45L51.1253 14.36C51.0853 14.4133 51.0386 14.4233 50.9853 14.39C50.7253 14.2167 50.4653 14.0867 50.2053 14C49.952 13.9133 49.6853 13.87 49.4053 13.87C49.1053 13.87 48.8786 13.94 48.7253 14.08C48.572 14.22 48.4953 14.3967 48.4953 14.61C48.4953 14.8033 48.572 14.9633 48.7253 15.09C48.8853 15.2167 49.162 15.3067 49.5553 15.36L49.9153 15.41C50.622 15.5033 51.1553 15.7167 51.5153 16.05C51.8753 16.3767 52.0553 16.85 52.0553 17.47C52.0553 17.7767 51.9986 18.0633 51.8853 18.33C51.772 18.59 51.602 18.8167 51.3753 19.01C51.1553 19.1967 50.8786 19.3433 50.5453 19.45C50.212 19.5567 49.8253 19.61 49.3853 19.61ZM53.0426 12.8C53.0426 12.7333 53.0759 12.7 53.1426 12.7H55.6726C56.2726 12.7 56.7726 12.8267 57.1726 13.08C57.5726 13.3333 57.8559 13.7167 58.0226 14.23C58.0492 14.3233 58.0726 14.4233 58.0926 14.53C58.1192 14.63 58.1392 14.75 58.1526 14.89C58.1726 15.03 58.1859 15.1967 58.1926 15.39C58.1992 15.5833 58.2026 15.82 58.2026 16.1C58.2026 16.38 58.1992 16.6167 58.1926 16.81C58.1859 17.0033 58.1726 17.17 58.1526 17.31C58.1392 17.45 58.1192 17.5733 58.0926 17.68C58.0726 17.78 58.0492 17.8767 58.0226 17.97C57.8559 18.4833 57.5726 18.8667 57.1726 19.12C56.7726 19.3733 56.2726 19.5 55.6726 19.5H53.1426C53.0759 19.5 53.0426 19.4667 53.0426 19.4V12.8ZM54.5126 18.13C54.5126 18.17 54.5326 18.19 54.5726 18.19H55.3426C55.6826 18.19 55.9559 18.1367 56.1626 18.03C56.3692 17.9167 56.5159 17.72 56.6026 17.44C56.6226 17.3933 56.6392 17.34 56.6526 17.28C56.6659 17.2133 56.6759 17.13 56.6826 17.03C56.6959 16.93 56.7026 16.8067 56.7026 16.66C56.7092 16.5067 56.7126 16.32 56.7126 16.1C56.7126 15.88 56.7092 15.6967 56.7026 15.55C56.7026 15.4033 56.6959 15.28 56.6826 15.18C56.6759 15.08 56.6659 15 56.6526 14.94C56.6392 14.8733 56.6226 14.8133 56.6026 14.76C56.5159 14.48 56.3692 14.2867 56.1626 14.18C55.9559 14.0667 55.6826 14.01 55.3426 14.01H54.5726C54.5326 14.01 54.5126 14.03 54.5126 14.07V18.13ZM60.6656 19.5C60.599 19.5 60.5656 19.4667 60.5656 19.4V14.07C60.5656 14.03 60.5456 14.01 60.5056 14.01H58.7856C58.719 14.01 58.6856 13.9767 58.6856 13.91V12.8C58.6856 12.7333 58.719 12.7 58.7856 12.7H63.8156C63.8823 12.7 63.9156 12.7333 63.9156 12.8V13.91C63.9156 13.9767 63.8823 14.01 63.8156 14.01H62.0956C62.0556 14.01 62.0356 14.03 62.0356 14.07V19.4C62.0356 19.4667 62.0023 19.5 61.9356 19.5H60.6656Z" fill="#868989"/>
<defs>
<clipPath id="clip0_26861_6892">
<rect width="20" height="20" fill="white" transform="translate(16 6)"/>
</clipPath>
</defs>
</svg>
