<svg width="58" height="32" viewBox="0 0 58 32" fill="none" xmlns="http://www.w3.org/2000/svg">
<path d="M16 0.5H42C45.7854 0.5 48.5745 0.500713 50.7119 0.788086C52.8348 1.07354 54.2406 1.63315 55.3037 2.69629C56.3668 3.75943 56.9265 5.16519 57.2119 7.28809C57.4993 9.42554 57.5 12.2146 57.5 16C57.5 19.7854 57.4993 22.5745 57.2119 24.7119C56.9265 26.8348 56.3668 28.2406 55.3037 29.3037C54.2406 30.3668 52.8348 30.9265 50.7119 31.2119C48.5745 31.4993 45.7854 31.5 42 31.5H16C12.2146 31.5 9.42554 31.4993 7.28809 31.2119C5.16519 30.9265 3.75943 30.3668 2.69629 29.3037C1.63315 28.2406 1.07354 26.8348 0.788086 24.7119C0.500713 22.5745 0.5 19.7854 0.5 16C0.5 12.2146 0.500713 9.42554 0.788086 7.28809C1.07354 5.16519 1.63315 3.75943 2.69629 2.69629C3.75943 1.63315 5.16519 1.07354 7.28809 0.788086C9.42554 0.500713 12.2146 0.5 16 0.5Z" fill="#F8FAFA"/>
<path d="M16 0.5H42C45.7854 0.5 48.5745 0.500713 50.7119 0.788086C52.8348 1.07354 54.2406 1.63315 55.3037 2.69629C56.3668 3.75943 56.9265 5.16519 57.2119 7.28809C57.4993 9.42554 57.5 12.2146 57.5 16C57.5 19.7854 57.4993 22.5745 57.2119 24.7119C56.9265 26.8348 56.3668 28.2406 55.3037 29.3037C54.2406 30.3668 52.8348 30.9265 50.7119 31.2119C48.5745 31.4993 45.7854 31.5 42 31.5H16C12.2146 31.5 9.42554 31.4993 7.28809 31.2119C5.16519 30.9265 3.75943 30.3668 2.69629 29.3037C1.63315 28.2406 1.07354 26.8348 0.788086 24.7119C0.500713 22.5745 0.5 19.7854 0.5 16C0.5 12.2146 0.500713 9.42554 0.788086 7.28809C1.07354 5.16519 1.63315 3.75943 2.69629 2.69629C3.75943 1.63315 5.16519 1.07354 7.28809 0.788086C9.42554 0.500713 12.2146 0.5 16 0.5Z" stroke="#E7EDED"/>
<g clip-path="url(#clip0_26861_6829)">
<path d="M20.7267 25.9006V24.5769C20.7267 24.0694 20.4145 23.7385 19.8794 23.7385C19.6119 23.7385 19.322 23.8267 19.1213 24.1136C18.9653 23.8709 18.7424 23.7385 18.4079 23.7385C18.1849 23.7385 17.9621 23.8046 17.7836 24.0474V23.7826H17.3154V25.9006H17.7836V24.7313C17.7836 24.3563 17.9843 24.1797 18.2965 24.1797C18.6085 24.1797 18.7647 24.3783 18.7647 24.7313V25.9006H19.2329V24.7313C19.2329 24.3563 19.4558 24.1797 19.7456 24.1797C20.0578 24.1797 20.2138 24.3783 20.2138 24.7313V25.9006H20.7267ZM27.6605 23.7826H26.9025V23.1428H26.4343V23.7826H26.0107V24.2017H26.4342V25.1726C26.4342 25.658 26.6349 25.9447 27.17 25.9447C27.3707 25.9447 27.5936 25.8786 27.7498 25.7904L27.6159 25.3932C27.4821 25.4814 27.3261 25.5035 27.2146 25.5035C26.9917 25.5035 26.9025 25.3712 26.9025 25.1505V24.2017H27.6605V23.7826ZM31.6291 23.7384C31.3616 23.7384 31.1833 23.8709 31.0718 24.0474V23.7826H30.6036V25.9006H31.0718V24.7093C31.0718 24.3563 31.2278 24.1577 31.5176 24.1577C31.6068 24.1577 31.7183 24.1798 31.8075 24.2018L31.9412 23.7606C31.8521 23.7385 31.7183 23.7385 31.6291 23.7385M25.6317 23.9592C25.4086 23.8047 25.0965 23.7386 24.7621 23.7386C24.2271 23.7386 23.8704 24.0033 23.8704 24.4225C23.8704 24.7756 24.1379 24.9741 24.6061 25.0403L24.829 25.0624C25.0743 25.1064 25.2081 25.1727 25.2081 25.283C25.2081 25.4374 25.0297 25.5478 24.7175 25.5478C24.4053 25.5478 24.1601 25.4374 24.004 25.3272L23.7811 25.6801C24.0264 25.8566 24.3608 25.9448 24.6952 25.9448C25.3195 25.9448 25.6763 25.6581 25.6763 25.2609C25.6763 24.8858 25.3864 24.6873 24.9404 24.6211L24.7175 24.599C24.5168 24.5769 24.3608 24.5329 24.3608 24.4005C24.3608 24.246 24.5168 24.1578 24.7621 24.1578C25.0297 24.1578 25.2972 24.2681 25.431 24.3343L25.6317 23.9592ZM38.0726 23.7386C37.805 23.7386 37.6266 23.871 37.5151 24.0475V23.7827H37.0469V25.9007H37.5151V24.7094C37.5151 24.3564 37.6712 24.1578 37.961 24.1578C38.0502 24.1578 38.1617 24.1799 38.2509 24.2019L38.3847 23.7607C38.2955 23.7386 38.1617 23.7386 38.0726 23.7386ZM32.0973 24.8417C32.0973 25.4815 32.5432 25.9448 33.2344 25.9448C33.5465 25.9448 33.7695 25.8787 33.9924 25.7022L33.7695 25.3272C33.5911 25.4595 33.4128 25.5256 33.2121 25.5256C32.8331 25.5256 32.5656 25.2609 32.5656 24.8417C32.5656 24.4446 32.8331 24.1798 33.2121 24.1578C33.4128 24.1578 33.5911 24.2239 33.7695 24.3564L33.9924 23.9813C33.7695 23.8047 33.5465 23.7386 33.2344 23.7386C32.5432 23.7386 32.0973 24.2019 32.0973 24.8417ZM36.4227 24.8417V23.7827H35.9545V24.0475C35.7984 23.849 35.5755 23.7386 35.2856 23.7386C34.6836 23.7386 34.2154 24.2019 34.2154 24.8417C34.2154 25.4815 34.6836 25.9448 35.2856 25.9448C35.5977 25.9448 35.8207 25.8346 35.9545 25.636V25.9007H36.4227V24.8417ZM34.7059 24.8417C34.7059 24.4666 34.9512 24.1578 35.3524 24.1578C35.7315 24.1578 35.9991 24.4446 35.9991 24.8417C35.9991 25.2168 35.7315 25.5256 35.3524 25.5256C34.9512 25.5035 34.7059 25.2168 34.7059 24.8417ZM29.1098 23.7386C28.4855 23.7386 28.0395 24.1798 28.0395 24.8417C28.0395 25.5036 28.4854 25.9448 29.132 25.9448C29.4441 25.9448 29.7563 25.8566 30.0016 25.6581L29.7786 25.3272C29.6002 25.4595 29.3773 25.5478 29.1544 25.5478C28.8645 25.5478 28.5747 25.4154 28.5077 25.0402H30.0908V24.8638C30.1131 24.1798 29.7118 23.7386 29.1098 23.7386ZM29.1097 24.1357C29.3994 24.1357 29.6002 24.3123 29.6447 24.6432H28.53C28.5746 24.3564 28.7752 24.1357 29.1097 24.1357ZM40.7256 24.8417V22.9443H40.2574V24.0475C40.1013 23.849 39.8784 23.7386 39.5885 23.7386C38.9865 23.7386 38.5183 24.2019 38.5183 24.8417C38.5183 25.4815 38.9865 25.9448 39.5885 25.9448C39.9007 25.9448 40.1236 25.8346 40.2574 25.636V25.9007H40.7256V24.8417ZM39.0089 24.8417C39.0089 24.4666 39.2541 24.1578 39.6554 24.1578C40.0345 24.1578 40.302 24.4446 40.302 24.8417C40.302 25.2168 40.0345 25.5256 39.6554 25.5256C39.2541 25.5035 39.0089 25.2168 39.0089 24.8417ZM23.3574 24.8417V23.7827H22.8892V24.0475C22.7331 23.849 22.5102 23.7386 22.2203 23.7386C21.6183 23.7386 21.1501 24.2019 21.1501 24.8417C21.1501 25.4815 21.6183 25.9448 22.2203 25.9448C22.5325 25.9448 22.7554 25.8346 22.8892 25.636V25.9007H23.3574V24.8417ZM21.6183 24.8417C21.6183 24.4666 21.8636 24.1578 22.2649 24.1578C22.6439 24.1578 22.9115 24.4446 22.9115 24.8417C22.9115 25.2168 22.6439 25.5256 22.2649 25.5256C21.8636 25.5035 21.6183 25.2168 21.6183 24.8417Z" fill="#868989"/>
<path d="M25.4756 7.69885H32.4986V20.1864H25.4756V7.69885Z" fill="#D7DCDC"/>
<path d="M25.9215 13.9426C25.9215 11.4054 27.1255 9.15497 28.9759 7.69879C27.616 6.6398 25.8993 6 24.0265 6C19.5895 6 16 9.55206 16 13.9426C16 18.3332 19.5895 21.8852 24.0264 21.8852C25.8992 21.8852 27.6159 21.2454 28.9759 20.1863C27.1255 18.7523 25.9215 16.4798 25.9215 13.9426Z" fill="#868989"/>
<path d="M41.9742 13.9426C41.9742 18.3331 38.3847 21.8852 33.9478 21.8852C32.075 21.8852 30.3583 21.2454 28.9983 20.1863C30.8711 18.7303 32.0528 16.4798 32.0528 13.9426C32.0528 11.4054 30.8487 9.15497 28.9983 7.69879C30.3582 6.6398 32.075 6 33.9478 6C38.3847 6 41.9742 9.57417 41.9742 13.9426Z" fill="#B5B9B9"/>
</g>
<defs>
<clipPath id="clip0_26861_6829">
<rect width="26" height="20" fill="white" transform="translate(16 6)"/>
</clipPath>
</defs>
</svg>
