<svg width="22" height="22" viewBox="0 0 22 22" fill="none" xmlns="http://www.w3.org/2000/svg">
<g clip-path="url(#clip0_26101_4012)">
<path d="M22 11C22 4.92491 17.0751 0 11 0C4.92491 0 0 4.92491 0 11C0 16.4904 4.02256 21.0412 9.28125 21.8664V14.1797H6.48828V11H9.28125V8.57656C9.28125 5.81969 10.9235 4.29688 13.4362 4.29688C14.6396 4.29688 15.8984 4.51172 15.8984 4.51172V7.21875H14.5114C13.1449 7.21875 12.7188 8.0667 12.7188 8.93664V11H15.7695L15.2818 14.1797H12.7188V21.8664C17.9774 21.0412 22 16.4905 22 11Z" fill="#004225"/>
</g>
<defs>
<clipPath id="clip0_26101_4012">
<rect width="22" height="22" fill="white"/>
</clipPath>
</defs>
</svg>
