<svg width="22" height="22" viewBox="0 0 22 22" fill="none" xmlns="http://www.w3.org/2000/svg">
<g clip-path="url(#clip0_26101_4027)">
<path d="M12.7632 10.8162L10.2926 9.66344C10.077 9.56334 9.89994 9.67554 9.89994 9.91424V12.0856C9.89994 12.3243 10.077 12.4365 10.2926 12.3364L12.7621 11.1836C12.9788 11.0824 12.9788 10.9174 12.7632 10.8162ZM10.9999 0.439941C5.16774 0.439941 0.439941 5.16774 0.439941 10.9999C0.439941 16.8321 5.16774 21.5599 10.9999 21.5599C16.8321 21.5599 21.5599 16.8321 21.5599 10.9999C21.5599 5.16774 16.8321 0.439941 10.9999 0.439941ZM10.9999 15.2899C5.59454 15.2899 5.49994 14.8026 5.49994 10.9999C5.49994 7.19724 5.59454 6.70994 10.9999 6.70994C16.4053 6.70994 16.4999 7.19724 16.4999 10.9999C16.4999 14.8026 16.4053 15.2899 10.9999 15.2899Z" fill="#004225"/>
</g>
<defs>
<clipPath id="clip0_26101_4027">
<rect width="22" height="22" fill="white"/>
</clipPath>
</defs>
</svg>
