<svg width="199" height="40" viewBox="0 0 199 40" fill="none" xmlns="http://www.w3.org/2000/svg">
<g clip-path="url(#clip0_26204_4207)">
<path d="M11.0967 9.80809H15.4559L14.557 11.399H21.1474L20.4036 13.8849L17.6354 16.1917C17.6354 16.1917 18.2877 18.077 19.9821 17.1542C21.6764 16.2315 21.9071 16.1161 21.9071 16.1161H31.1027C31.1027 16.1161 33.7953 15.7701 33.143 13.2326C32.4908 10.695 31.5282 5.69156 24.7946 4.42279C18.061 3.15402 10.6751 3.53982 6.40743 5.23019C2.1318 6.92055 1.01815 12.1547 1.01815 12.1547C1.01815 12.1547 -1.02222 19.465 0.672119 27.6941C2.36646 35.9272 5.52048 36.2732 10.8262 37.3511C16.136 38.429 24.019 37.3511 26.481 36.5437C28.943 35.7363 32.4192 33.0834 33.2385 28.0044C34.0578 22.9253 33.5607 22.9651 30.3669 22.0424C27.1731 21.1196 24.9418 20.7378 24.9418 20.7378L23.0168 21.5412C23.0168 21.5412 25.7492 27.5788 22.1338 30.8124C18.5184 34.042 13.2484 32.3118 13.2484 32.3118C13.2484 32.3118 8.55518 30.8124 9.1319 25.5782C9.70861 20.348 10.8262 20.7378 10.8262 20.7378C10.8262 20.7378 13.7496 21.927 13.9047 20.0418L11.403 19.5048L11.916 18.8366C11.916 18.8366 15.4797 20.0179 15.6587 18.069L12.8905 17.4525L13.4274 16.8639C13.4274 16.8639 16.299 17.8145 16.478 16.0445L12.9382 15.2769L13.1689 14.557C13.1689 14.557 16.2473 15.5076 16.3746 13.7099L12.3734 12.8627L11.0927 9.81207L11.0967 9.80809Z" fill="#004225"/>
<path d="M14.553 26.0555C14.899 26.3219 15.249 26.5248 15.607 26.672C15.9649 26.8112 16.3229 26.8827 16.6769 26.8827C16.8956 26.8827 17.0666 26.847 17.1899 26.7714C17.3093 26.6958 17.3689 26.5924 17.3689 26.4572C17.3689 26.3657 17.3132 26.2822 17.1979 26.2106C17.1064 26.1509 16.8558 26.0793 16.4502 26.0038L15.77 25.8646C15.2371 25.7532 14.8274 25.5305 14.5371 25.1884C14.2388 24.8503 14.0916 24.4287 14.0916 23.9355C14.0916 23.3787 14.2905 22.9134 14.6842 22.5355C15.07 22.1537 15.599 21.923 16.2712 21.8475V21.1554H17.3649V21.8315C18.0649 21.8673 18.7252 22.0463 19.3377 22.3764L18.6138 24.0628C18.0093 23.681 17.4803 23.4901 17.0348 23.4901C16.8081 23.4901 16.6371 23.5299 16.5178 23.6054C16.3865 23.681 16.3189 23.7884 16.3189 23.9236C16.3189 24.1026 16.6132 24.2458 17.2019 24.3452L17.2416 24.3532C17.2416 24.3532 17.2655 24.3532 17.2774 24.3611L17.9059 24.4844C18.4627 24.5839 18.8883 24.7867 19.1826 25.089C19.4809 25.3913 19.628 25.7691 19.628 26.2225C19.628 26.8947 19.4331 27.4356 19.0434 27.8373C18.6576 28.239 18.0729 28.4936 17.2933 28.601V29.3487H16.1996V28.601C15.77 28.593 15.3524 28.5254 14.9507 28.3941C14.545 28.2589 14.1672 28.068 13.8092 27.8214L14.549 26.0555H14.553Z" fill="#FFB000"/>
<path d="M56.4463 13.686C59.0196 15.4838 60.3043 18.1685 60.3043 21.7401V37.3113H52.5087L51.8803 35.8755C50.2536 37.2795 47.8831 37.9835 44.7728 37.9835C42.2114 37.9835 40.0796 37.5062 38.3733 36.5477C36.0386 35.2232 34.8693 33.1431 34.8693 30.3073C34.8693 26.5805 36.7983 23.8163 40.6563 22.0185C42.7285 21.06 44.7649 20.5827 46.7575 20.5827C48.3445 20.5827 49.9155 20.885 51.4627 21.4895V20.8014C51.4627 20.1452 51.0888 19.5923 50.3411 19.1469C49.5138 18.6338 48.42 18.3793 47.0518 18.3793C44.1643 18.3793 41.0063 19.5923 37.5818 22.0225L36.5199 15.094C39.0534 12.6678 42.9035 11.4507 48.078 11.4507C51.5144 11.4507 54.3065 12.1985 56.4463 13.694V13.686ZM47.195 31.5402C49.3746 31.5402 50.7985 30.7249 51.4667 29.0982V26.7157C50.8502 26.5725 50.2337 26.501 49.6172 26.501C48.7382 26.501 47.8513 26.6441 46.9603 26.9345C45.4132 27.4476 44.6376 28.2748 44.6376 29.4163C44.6376 30.8323 45.4887 31.5442 47.199 31.5442L47.195 31.5402Z" fill="#004225"/>
<path d="M80.1313 20.7537C78.2938 19.4292 76.6869 18.765 75.3068 18.765C73.9267 18.765 73.2585 19.1667 73.2585 19.9662C73.2585 20.3719 73.7556 20.8014 74.7539 21.2469C75.1079 21.4179 75.7005 21.6526 76.5278 21.9549C77.4585 22.3088 78.1546 22.5793 78.6159 22.7622C82.5256 24.4287 84.4825 26.8112 84.4825 29.9095C84.4825 32.455 83.4126 34.4715 81.2728 35.9551C79.3438 37.3073 76.9096 37.9835 73.9704 37.9835C70.1919 37.9835 66.5487 36.5516 63.0447 33.6919L66.3697 27.2367C69.1777 29.5197 71.4368 30.6612 73.1431 30.6612C74.5471 30.6612 75.2511 30.3669 75.2511 29.7743C75.2511 29.3686 74.0698 28.7362 71.7073 27.885C69.2135 26.9941 67.4476 25.9083 66.4135 24.6356C65.4152 23.4026 64.918 21.756 64.918 19.6957C64.918 17.1622 65.9481 15.1099 68.0084 13.5348C69.8181 12.1428 71.8982 11.4467 74.2488 11.4467C77.3591 11.4467 80.4375 12.4451 83.4842 14.4377L80.1392 20.7577L80.1313 20.7537Z" fill="#004225"/>
<path d="M109.13 13.8411C110.693 15.2729 111.473 17.2218 111.473 19.6878V37.3074H102.476V21.1435C102.476 20.4475 102.193 19.8509 101.629 19.3537C101 18.7889 100.133 18.5065 99.0315 18.5065C98.1525 18.5065 97.2656 18.7292 96.3746 19.1747V37.3074H87.3779V3.30914H96.3746V12.6996C97.9099 11.8843 99.6162 11.4786 101.493 11.4786C104.866 11.4786 107.412 12.2661 109.13 13.8411Z" fill="#004225"/>
<path d="M127.461 19.652V27.5669C127.461 29.655 128.329 30.697 130.059 30.697C130.504 30.697 131.26 30.5936 132.322 30.3828V36.9573C129.8 37.6375 127.648 37.9795 125.863 37.9795C122.649 37.9795 120.493 36.838 119.403 34.555C118.759 33.2027 118.437 30.9913 118.437 27.9208V19.652H114.125V12.1507H118.437V7.07169H127.454V12.1507H132.887V19.652H127.454H127.461Z" fill="#004225"/>
<path d="M136.733 37.3113V12.1508H145.749V37.3113H136.733Z" fill="#004225"/>
<path d="M170.95 13.4672C173.221 14.8315 174.951 16.8281 176.148 19.4531L167.998 23.7049C167.29 20.9486 165.747 19.5685 163.373 19.5685C162.048 19.5685 160.951 20.0298 160.084 20.9486C159.193 21.8952 158.743 23.1282 158.743 24.6515C158.743 26.1748 159.189 27.3958 160.084 28.3544C160.951 29.2731 162.044 29.7345 163.373 29.7345C165.668 29.7345 167.199 28.414 167.959 25.7771L176.108 30.009C174.915 32.6061 173.181 34.5908 170.91 35.9551C168.651 37.3074 166.137 37.9835 163.369 37.9835C159.459 37.9835 156.198 36.7625 153.585 34.3204C150.896 31.8147 149.548 28.605 149.548 24.6952C149.548 20.7855 150.892 17.5599 153.585 15.0661C156.198 12.6519 159.459 11.4428 163.369 11.4428C166.165 11.4428 168.69 12.1189 170.95 13.4712V13.4672Z" fill="#004225"/>
<path d="M194.515 20.7537C192.678 19.4292 191.071 18.765 189.691 18.765C188.311 18.765 187.642 19.1667 187.642 19.9662C187.642 20.3719 188.14 20.8014 189.138 21.2469C189.492 21.4179 190.085 21.6526 190.912 21.9549C191.843 22.3088 192.539 22.5793 193 22.7622C196.91 24.4287 198.867 26.8112 198.867 29.9095C198.867 32.455 197.797 34.4715 195.657 35.9551C193.728 37.3073 191.294 37.9835 188.354 37.9835C184.576 37.9835 180.933 36.5516 177.429 33.6919L180.758 27.2367C183.566 29.5197 185.825 30.6612 187.531 30.6612C188.935 30.6612 189.639 30.3669 189.639 29.7743C189.639 29.3686 188.458 28.7362 186.095 27.885C183.602 26.9941 181.836 25.9083 180.798 24.6356C179.799 23.4026 179.302 21.756 179.302 19.6957C179.302 17.1622 180.332 15.1099 182.392 13.5348C184.202 12.1428 186.282 11.4467 188.633 11.4467C191.743 11.4467 194.822 12.4451 197.864 14.4377L194.515 20.7577V20.7537Z" fill="#004225"/>
<path d="M144.568 3.32903C145.526 4.27564 146.004 5.40122 146.004 6.71374C146.004 8.02626 145.526 9.11605 144.568 10.0587C143.609 11.0053 142.488 11.4746 141.203 11.4746C139.918 11.4746 138.781 11.0013 137.838 10.0587C136.908 9.11207 136.442 7.99842 136.442 6.71374C136.442 5.42906 136.908 4.27166 137.838 3.32903C138.785 2.3705 139.907 1.89322 141.203 1.89322C142.5 1.89322 143.625 2.3705 144.568 3.32903Z" fill="#FFB000"/>
</g>
<defs>
<clipPath id="clip0_26204_4207">
<rect width="198.866" height="40" fill="white"/>
</clipPath>
</defs>
</svg>
