<svg width="24" height="24" viewBox="0 0 24 24" fill="none" xmlns="http://www.w3.org/2000/svg">
<path d="M16.0776 3.98697C18.1686 4.91531 19.8757 6.52838 20.9136 8.55673C21.9516 10.5851 22.2576 12.9059 21.7806 15.1314C21.3035 17.3569 20.0722 19.3524 18.2925 20.7846C16.5127 22.2167 14.2922 22.9987 12.002 23C10.0427 23.0001 8.12656 22.4285 6.49144 21.3561C4.85631 20.2837 3.57424 18.7578 2.8044 16.9678C2.03456 15.1778 1.81086 13.2025 2.16109 11.2873C2.51131 9.3721 3.42003 7.60126 4.77441 6.19468C5.70715 7.48999 6.93836 8.54473 8.36515 9.27078C8.39014 7.67928 8.76826 6.11287 9.47254 4.68323C10.1768 3.2536 11.1899 1.99596 12.4396 1C13.3933 2.2709 14.6407 3.29534 16.0764 3.98697H16.0776Z" stroke="black" stroke-width="1.2" stroke-linecap="round" stroke-linejoin="round"/>
<path d="M11.9964 19C13.2655 19.0019 14.4878 18.5667 15.4151 17.7829C16.3424 16.999 16.9051 15.9252 16.9891 14.7796C17.073 13.634 16.6718 12.5024 15.867 11.6147C15.0622 10.727 13.9141 10.1497 12.6558 10C11.2803 11.1136 10.3741 12.6243 10.0916 14.2746C9.06534 14.0471 8.09945 13.637 7.25023 13.0683C7.00334 13.7472 6.93794 14.4694 7.0594 15.1756C7.18085 15.8817 7.48571 16.5518 7.94893 17.1307C8.41215 17.7097 9.02053 18.1809 9.72413 18.5059C10.4277 18.8308 11.2065 19.0002 11.9964 19Z" stroke="black" stroke-width="1.2" stroke-linecap="round" stroke-linejoin="round"/>
</svg>
