<svg width="186" height="48" viewBox="0 0 186 48" fill="none" xmlns="http://www.w3.org/2000/svg">
<g clip-path="url(#clip0_26029_3952)">
<rect width="186" height="48" fill="#004225"/>
<path opacity="0.05" d="M62 11C62 -1.15026 71.8497 -11 84 -11C96.1503 -11 106 -1.15026 106 11C106 23.1503 96.1503 33 84 33C71.8497 33 62 23.1503 62 11Z" fill="#FDFFFF"/>
<path opacity="0.05" d="M130 39.5C130 30.3873 137.387 23 146.5 23C155.613 23 163 30.3873 163 39.5C163 48.6127 155.613 56 146.5 56C137.387 56 130 48.6127 130 39.5Z" fill="#FDFFFF"/>
<path opacity="0.05" d="M163 10.5C163 6.35786 166.358 3 170.5 3C174.642 3 178 6.35786 178 10.5C178 14.6421 174.642 18 170.5 18C166.358 18 163 14.6421 163 10.5Z" fill="#FDFFFF"/>
</g>
<defs>
<clipPath id="clip0_26029_3952">
<rect width="186" height="48" fill="white"/>
</clipPath>
</defs>
</svg>
