<svg width="24" height="24" viewBox="0 0 24 24" fill="none" xmlns="http://www.w3.org/2000/svg">
<path d="M5.5 7C5.5 6.33696 5.76339 5.70107 6.23223 5.23223C6.70107 4.76339 7.33696 4.5 8 4.5C8.66304 4.5 9.29893 4.76339 9.76777 5.23223C10.2366 5.70107 10.5 6.33696 10.5 7C10.5 7.66304 10.2366 8.29893 9.76777 8.76777C9.29893 9.23661 8.66304 9.5 8 9.5C7.33696 9.5 6.70107 9.23661 6.23223 8.76777C5.76339 8.29893 5.5 7.66304 5.5 7ZM8 3C6.93913 3 5.92172 3.42143 5.17157 4.17157C4.42143 4.92172 4 5.93913 4 7C4 8.06087 4.42143 9.07828 5.17157 9.82843C5.92172 10.5786 6.93913 11 8 11C9.06087 11 10.0783 10.5786 10.8284 9.82843C11.5786 9.07828 12 8.06087 12 7C12 5.93913 11.5786 4.92172 10.8284 4.17157C10.0783 3.42143 9.06087 3 8 3ZM15.5 8C15.5 7.60218 15.658 7.22064 15.9393 6.93934C16.2206 6.65804 16.6022 6.5 17 6.5C17.3978 6.5 17.7794 6.65804 18.0607 6.93934C18.342 7.22064 18.5 7.60218 18.5 8C18.5 8.39782 18.342 8.77936 18.0607 9.06066C17.7794 9.34196 17.3978 9.5 17 9.5C16.6022 9.5 16.2206 9.34196 15.9393 9.06066C15.658 8.77936 15.5 8.39782 15.5 8ZM17 5C16.2044 5 15.4413 5.31607 14.8787 5.87868C14.3161 6.44129 14 7.20435 14 8C14 8.79565 14.3161 9.55871 14.8787 10.1213C15.4413 10.6839 16.2044 11 17 11C17.7956 11 18.5587 10.6839 19.1213 10.1213C19.6839 9.55871 20 8.79565 20 8C20 7.20435 19.6839 6.44129 19.1213 5.87868C18.5587 5.31607 17.7956 5 17 5ZM4.25 13C3.65326 13 3.08097 13.2371 2.65901 13.659C2.23705 14.081 2 14.6533 2 15.25V15.528C2.00105 15.5975 2.00572 15.667 2.014 15.736C2.09712 16.48 2.36453 17.1915 2.792 17.806C3.61 18.974 5.172 20 8 20C9.369 20 10.441 19.76 11.276 19.38C11.1242 18.8761 11.0343 18.3556 11.008 17.83C10.363 18.21 9.413 18.5 8 18.5C5.578 18.5 4.514 17.65 4.02 16.945C3.74025 16.5409 3.56409 16.0742 3.507 15.586L3.5 15.507V15.25C3.5 15.0511 3.57902 14.8603 3.71967 14.7197C3.86032 14.579 4.05109 14.5 4.25 14.5H11.732C11.981 14.023 12.287 13.581 12.641 13.183C12.36 13.0606 12.0565 12.9983 11.75 13H4.25ZM23 17.5C23 18.9587 22.4205 20.3576 21.3891 21.3891C20.3576 22.4205 18.9587 23 17.5 23C16.0413 23 14.6424 22.4205 13.6109 21.3891C12.5795 20.3576 12 18.9587 12 17.5C12 16.0413 12.5795 14.6424 13.6109 13.6109C14.6424 12.5795 16.0413 12 17.5 12C18.9587 12 20.3576 12.5795 21.3891 13.6109C22.4205 14.6424 23 16.0413 23 17.5ZM18.055 14.42C18.0207 14.2993 17.9479 14.193 17.8478 14.1174C17.7476 14.0417 17.6255 14.0008 17.5 14.0008C17.3745 14.0008 17.2524 14.0417 17.1522 14.1174C17.0521 14.193 16.9793 14.2993 16.945 14.42L16.388 16.208H14.585C14.019 16.208 13.785 16.962 14.242 17.308L15.7 18.413L15.143 20.2C14.968 20.761 15.584 21.228 16.042 20.881L17.5 19.777L18.958 20.881C19.416 21.228 20.032 20.761 19.857 20.201L19.3 18.413L20.758 17.309C21.216 16.962 20.981 16.208 20.415 16.208H18.612L18.055 14.42Z" fill="black"/>
</svg>
