<svg width="24" height="24" viewBox="0 0 24 24" fill="none" xmlns="http://www.w3.org/2000/svg">
<path fill-rule="evenodd" clip-rule="evenodd" d="M1.03142 7.41349C1.33197 4.83173 3.57869 3 6.12056 3H17.8718C20.3969 3 22.6368 4.80844 22.9515 7.37359C23.3505 10.6249 23.3496 13.3342 22.948 16.6176C22.6339 19.1854 20.3936 21 17.8641 21H6.12555C3.58084 21 1.33381 19.1644 1.03354 16.5809C0.656505 13.337 0.655181 10.6455 1.03142 7.41349ZM6.12056 4.5C4.5372 4.5 3.16434 5.47729 2.68221 6.8787C9.85792 6.71044 14.2636 6.70699 21.3042 6.86947C20.8223 5.47234 19.4513 4.5 17.8718 4.5H6.12056ZM2.28919 10.355C2.31987 9.71235 2.36858 9.0597 2.43531 8.38492C9.85324 8.20834 14.2782 8.20489 21.5557 8.37574C21.6264 9.0567 21.6778 9.71546 21.7099 10.3645C14.3226 10.5481 9.87817 10.5453 2.28919 10.355ZM2.25024 11.8545C9.8658 12.0454 14.335 12.0483 21.7498 11.864C21.7548 13.3368 21.6579 14.81 21.4591 16.4354C21.2439 18.1946 19.6938 19.5 17.8641 19.5H6.12555C4.28542 19.5 2.72947 18.1798 2.52351 16.4078C2.33577 14.7925 2.24463 13.325 2.25024 11.8545Z" fill="#000"/>
<path d="M18 16.875C18.4142 16.875 18.75 16.5392 18.75 16.125C18.75 15.7108 18.4142 15.375 18 15.375H15.75C15.3358 15.375 15 15.7108 15 16.125C15 16.5392 15.3358 16.875 15.75 16.875H18Z" fill="#000"/>
</svg>
