<svg width="24" height="24" viewBox="0 0 24 24" fill="none" xmlns="http://www.w3.org/2000/svg">
<path fill-rule="evenodd" clip-rule="evenodd" d="M7.5 16.5C7.5 14.0147 9.51473 12 12 12C14.4853 12 16.5 14.0147 16.5 16.5V22.5C16.5 22.9142 16.1642 23.25 15.75 23.25H8.25C7.83578 23.25 7.5 22.9142 7.5 22.5V16.5ZM12 13.5C10.3431 13.5 9 14.8431 9 16.5V21.75H15V16.5C15 14.8431 13.6569 13.5 12 13.5Z" fill="black"/>
<path fill-rule="evenodd" clip-rule="evenodd" d="M14.3206 3.04172C12.9593 1.98609 11.0407 1.98609 9.67943 3.04172L3.67941 7.69459C2.77503 8.39591 2.25 9.46541 2.25 10.5943V18.0586C2.25 20.0881 3.91965 21.75 6 21.75H18C20.0803 21.75 21.75 20.0881 21.75 18.0586V10.5943C21.75 9.46541 21.225 8.39591 20.3206 7.69459L14.3206 3.04172ZM8.76019 1.85637C10.6625 0.38121 13.3375 0.38121 15.2398 1.85637L21.2398 6.50925C22.507 7.49197 23.25 8.99734 23.25 10.5943V18.0586C23.25 20.935 20.8902 23.25 18 23.25H6C3.10981 23.25 0.75 20.935 0.75 18.0586V10.5943C0.75 8.99734 1.49296 7.49197 2.76019 6.50925L8.76019 1.85637Z" fill="black"/>
</svg>
