<svg width="24" height="24" viewBox="0 0 24 24" fill="none" xmlns="http://www.w3.org/2000/svg">
<path d="M4.80024 15.2004C4.3584 15.2004 4.00024 15.5586 4.00024 16.0004C4.00024 16.4423 4.3584 16.8004 4.80024 16.8004H6.80024C7.24208 16.8004 7.60024 16.4423 7.60024 16.0004C7.60024 15.5586 7.24208 15.2004 6.80024 15.2004H4.80024Z" fill="black"/>
<path d="M20.6301 16.4935C20.9024 16.1456 20.8411 15.6428 20.4931 15.3705C20.1452 15.0982 19.6423 15.1595 19.3701 15.5074L16.8826 18.6859L15.8397 17.2977C15.5743 16.9445 15.0728 16.8733 14.7195 17.1386C14.3663 17.404 14.2951 17.9056 14.5605 18.2588L16.23 20.481C16.3795 20.6799 16.613 20.798 16.8618 20.8004C17.1106 20.8029 17.3463 20.6894 17.4996 20.4935L20.6301 16.4935Z" fill="black"/>
<path fill-rule="evenodd" clip-rule="evenodd" d="M5.31008 0C3.70996 0 2.2638 0.953588 1.63349 2.42432L0 6.2358V16C0 18.651 2.14903 20.8 4.8 20.8H12.0562C13.1628 22.713 15.2311 24 17.6 24C21.1346 24 24 21.1346 24 17.6C24 15.2311 22.713 13.1628 20.8 12.0562V6.2358L19.1665 2.42432C18.5362 0.953588 17.09 0 15.4899 0H5.31008ZM11.2 17.6C11.2 18.1525 11.27 18.6886 11.4016 19.2H4.8C3.03269 19.2 1.6 17.7673 1.6 16V7.2H19.2V11.4016C18.6886 11.27 18.1525 11.2 17.6 11.2C14.0654 11.2 11.2 14.0654 11.2 17.6ZM3.10412 3.05459C3.48232 2.17215 4.35 1.6 5.31008 1.6H9.6V5.6H2.01323L3.10412 3.05459ZM11.2 5.6V1.6H15.4899C16.45 1.6 17.3177 2.17215 17.6959 3.0546L18.7868 5.6H11.2ZM17.6 12.8C14.949 12.8 12.8 14.949 12.8 17.6C12.8 20.251 14.949 22.4 17.6 22.4C20.251 22.4 22.4 20.251 22.4 17.6C22.4 14.949 20.251 12.8 17.6 12.8Z" fill="black"/>
</svg>
