<svg width="24" height="24" viewBox="0 0 24 24" fill="none" xmlns="http://www.w3.org/2000/svg">
<path d="M5.5 8.25C6.22935 8.25 6.92882 7.96027 7.44454 7.44454C7.96027 6.92882 8.25 6.22935 8.25 5.5C8.25 4.77065 7.96027 4.07118 7.44454 3.55546C6.92882 3.03973 6.22935 2.75 5.5 2.75C4.77065 2.75 4.07118 3.03973 3.55546 3.55546C3.03973 4.07118 2.75 4.77065 2.75 5.5C2.75 6.22935 3.03973 6.92882 3.55546 7.44454C4.07118 7.96027 4.77065 8.25 5.5 8.25ZM5.5 8.25V15.75M5.5 15.75C4.77065 15.75 4.07118 16.0397 3.55546 16.5555C3.03973 17.0712 2.75 17.7707 2.75 18.5C2.75 19.2293 3.03973 19.9288 3.55546 20.4445C4.07118 20.9603 4.77065 21.25 5.5 21.25C6.22935 21.25 6.92882 20.9603 7.44454 20.4445C7.96027 19.9288 8.25 19.2293 8.25 18.5C8.25 17.7707 7.96027 17.0712 7.44454 16.5555C6.92882 16.0397 6.22935 15.75 5.5 15.75ZM21.25 18.5C21.25 19.2293 20.9603 19.9288 20.4445 20.4445C19.9288 20.9603 19.2293 21.25 18.5 21.25C17.7707 21.25 17.0712 20.9603 16.5555 20.4445C16.0397 19.9288 15.75 19.2293 15.75 18.5C15.75 17.7707 16.0397 17.0712 16.5555 16.5555C17.0712 16.0397 17.7707 15.75 18.5 15.75C19.2293 15.75 19.9288 16.0397 20.4445 16.5555C20.9603 17.0712 21.25 17.7707 21.25 18.5Z" stroke="black" stroke-width="1.5" stroke-linecap="round" stroke-linejoin="round"/>
<path d="M18.4999 15.75V8.5C18.4999 7.70435 18.1839 6.94129 17.6213 6.37868C17.0587 5.81607 16.2956 5.5 15.4999 5.5H11.1639M11.1639 5.5C11.164 5.76519 11.2694 6.01951 11.4569 6.207L13.2499 8M11.1639 5.5C11.164 5.23481 11.2694 4.98049 11.4569 4.793L13.2499 3" stroke="black" stroke-width="1.5" stroke-linecap="round" stroke-linejoin="round"/>
</svg>
