<svg width="40" height="40" viewBox="0 0 40 40" fill="none" xmlns="http://www.w3.org/2000/svg">
<path d="M0 20C0 8.95431 8.95431 0 20 0C31.0457 0 40 8.95431 40 20C40 31.0457 31.0457 40 20 40C8.95431 40 0 31.0457 0 20Z" fill="#E4EDEA"/>
<path d="M20 9.6875C20.6403 9.6875 21.2636 9.76045 21.862 9.89849C21.5135 10.2552 21.2291 10.6748 21.0275 11.1388C20.6923 11.0885 20.3492 11.0625 20 11.0625C16.203 11.0625 13.125 14.1405 13.125 17.9375V24.8125C13.125 24.8864 13.1131 24.9598 13.0897 25.0299L12.7039 26.1875H27.2962L26.9103 25.0299C26.8869 24.9598 26.875 24.8864 26.875 24.8125V17.9375C26.875 17.4245 26.8188 16.9246 26.7123 16.4437C27.1598 16.2111 27.5592 15.8989 27.892 15.5259C28.1247 16.2887 28.25 17.0985 28.25 17.9375V24.7009L28.7455 26.1875H28.9375C29.3172 26.1875 29.625 26.4953 29.625 26.875C29.625 27.2547 29.3172 27.5625 28.9375 27.5625H11.0625C10.6828 27.5625 10.375 27.2547 10.375 26.875C10.375 26.4953 10.6828 26.1875 11.0625 26.1875H11.2545L11.75 24.7009V17.9375C11.75 13.3812 15.4437 9.6875 20 9.6875Z" fill="#004225"/>
<path d="M21.0312 27.9062C21.0312 28.4758 20.5696 28.9375 20 28.9375C19.4304 28.9375 18.9688 28.4758 18.9688 27.9062H17.5938C17.5938 29.2352 18.6711 30.3125 20 30.3125C21.3289 30.3125 22.4062 29.2352 22.4062 27.9062H21.0312Z" fill="#004225"/>
<path fill-rule="evenodd" clip-rule="evenodd" d="M27.9062 12.7812C27.9062 11.0726 26.5211 9.6875 24.8125 9.6875C23.1039 9.6875 21.7188 11.0726 21.7188 12.7812C21.7188 14.4899 23.1039 15.875 24.8125 15.875C26.5211 15.875 27.9062 14.4899 27.9062 12.7812ZM24.8125 11.0625C25.7617 11.0625 26.5312 11.832 26.5312 12.7812C26.5312 13.7305 25.7617 14.5 24.8125 14.5C23.8633 14.5 23.0938 13.7305 23.0938 12.7812C23.0938 11.832 23.8633 11.0625 24.8125 11.0625Z" fill="#E22900"/>
</svg>
