<svg width="24" height="24" viewBox="0 0 24 24" fill="none" xmlns="http://www.w3.org/2000/svg">
<g clip-path="url(#clip0_28002_4)">
<path fill-rule="evenodd" clip-rule="evenodd" d="M12 0.75C6.45169 0.75 1.87031 4.88951 0.928043 10.3018C0.811001 10.9741 0.75 11.666 0.75 12.3719C0.75 12.6506 0.759506 12.9266 0.778234 13.1998C0.964924 15.9227 2.06637 18.3399 3.76672 20.2037C4.7814 21.3159 6.44801 21.1865 7.45927 20.289C8.48104 19.3821 8.68065 17.8838 7.91171 16.7524L5.92354 13.827C5.40109 13.0583 4.54005 12.5822 3.60791 12.5249L2.25022 12.4415C2.25007 12.4183 2.25 12.3951 2.25 12.3719C2.25 11.7525 2.30351 11.1468 2.40581 10.5591C3.23169 5.81531 7.2303 2.25 12 2.25C16.7697 2.25 20.7683 5.81531 21.5942 10.5591C21.6965 11.1468 21.75 11.7525 21.75 12.3719L21.7499 12.4114L21.7498 12.4415L20.3921 12.5249C19.4599 12.5822 18.5989 13.0583 18.0765 13.827L16.0883 16.7524C15.3193 17.8838 15.519 19.3821 16.5407 20.289C16.7877 20.5082 17.0739 20.6816 17.38 20.8023C17.0573 21.3684 16.4482 21.75 15.75 21.75H14.6147C14.6215 21.6884 14.625 21.6259 14.625 21.5625C14.625 20.6305 13.8695 19.875 12.9375 19.875H12.1875C11.2555 19.875 10.5 20.6305 10.5 21.5625C10.5 22.4945 11.2555 23.25 12.1875 23.25H12.9375C12.9753 23.25 13.0129 23.2488 13.0501 23.2463C13.0747 23.2488 13.0997 23.25 13.125 23.25H15.75C17.2409 23.25 18.506 22.2833 18.9527 20.9426C19.4231 20.841 19.87 20.6019 20.2333 20.2037C21.9336 18.3399 23.0351 15.9227 23.2218 13.1998C23.2405 12.9266 23.25 12.6506 23.25 12.3719C23.25 11.666 23.189 10.9741 23.0719 10.3018C22.1297 4.88951 17.5483 0.75 12 0.75ZM4.87489 19.1928C3.57504 17.7679 2.67835 15.9748 2.36902 13.9516L3.51596 14.0221C4.00058 14.0519 4.43036 14.2985 4.68292 14.6701L6.6711 17.5955C7.00961 18.0936 6.93049 18.7527 6.46358 19.1671C5.94443 19.6279 5.23316 19.5855 4.87489 19.1928ZM20.484 14.0221L21.631 13.9516C21.3216 15.9748 20.4249 17.7679 19.1251 19.1928C18.7668 19.5855 18.0556 19.6279 17.5364 19.1671C17.0695 18.7527 16.9904 18.0936 17.3289 17.5955L19.3171 14.6701C19.5696 14.2985 19.9994 14.0519 20.484 14.0221ZM12.1875 21.375C12.084 21.375 12 21.459 12 21.5625C12 21.666 12.084 21.75 12.1875 21.75H12.9375C13.041 21.75 13.125 21.666 13.125 21.5625C13.125 21.459 13.041 21.375 12.9375 21.375H12.1875Z" fill="black"/>
<path fill-rule="evenodd" clip-rule="evenodd" d="M12 5.625C9.1005 5.625 6.75 7.9755 6.75 10.875C6.75 12.1915 7.2354 13.3959 8.03573 14.317V15.375C8.03573 15.574 8.11481 15.7649 8.25562 15.9056C8.39644 16.0463 8.58739 16.1252 8.7864 16.125C9.85759 16.124 10.9286 16.125 12 16.125C14.8995 16.125 17.25 13.7745 17.25 10.875C17.25 7.9755 14.8995 5.625 12 5.625ZM8.25 10.875C8.25 8.80395 9.92895 7.125 12 7.125C14.0711 7.125 15.75 8.80395 15.75 10.875C15.75 12.9461 14.0711 14.625 12 14.625C11.1795 14.625 10.3575 14.6244 9.53573 14.6246V14.0244C9.53573 13.8281 9.45877 13.6396 9.32141 13.4994C8.65785 12.8223 8.25 11.897 8.25 10.875Z" fill="black"/>
</g>
<defs>
<clipPath id="clip0_28002_4">
<rect width="24" height="24" fill="white"/>
</clipPath>
</defs>
</svg>
