<svg width="24" height="24" viewBox="0 0 24 24" fill="none" xmlns="http://www.w3.org/2000/svg">
<g clip-path="url(#clip0_26224_12142)">
<path fill-rule="evenodd" clip-rule="evenodd" d="M0.75 12C0.75 5.78681 5.78681 0.75 12 0.75C18.2132 0.75 23.25 5.78681 23.25 12C23.25 18.2132 18.2132 23.25 12 23.25C9.49939 23.25 7.00031 23.2477 4.50067 23.25C4.30166 23.2502 4.11071 23.1713 3.9699 23.0306C3.82912 22.8899 3.75 22.6991 3.75 22.5V19.6486C1.88892 17.642 0.75 14.9533 0.75 12ZM12 2.25C6.61522 2.25 2.25 6.61522 2.25 12C2.25 14.6569 3.3117 17.0643 5.03569 18.8235C5.17305 18.9637 5.25 19.1522 5.25 19.3485V21.7494C7.50019 21.7481 9.75097 21.75 12 21.75C17.3848 21.75 21.75 17.3848 21.75 12C21.75 6.61522 17.3848 2.25 12 2.25Z" fill="black"/>
<path d="M12 18C12 18.4142 11.6642 18.75 11.25 18.75C10.8358 18.75 10.5 18.4142 10.5 18C10.5 17.5858 10.8358 17.25 11.25 17.25C11.6642 17.25 12 17.5858 12 18Z" fill="black"/>
<path d="M9.375 10.05C9.375 8.64169 10.5167 7.5 11.925 7.5H12C13.4461 7.5 14.625 8.6841 14.625 10.1374C14.625 11.6046 13.435 12.8 11.975 12.8H11.25C10.8358 12.8 10.5 13.1358 10.5 13.55V15.75C10.5 16.1642 10.8358 16.5 11.25 16.5C11.6642 16.5 12 16.1642 12 15.75V14.2999C14.284 14.2864 16.125 12.4175 16.125 10.1374C16.125 7.86289 14.2818 6 12 6H11.925C9.68824 6 7.875 7.81324 7.875 10.05C7.875 10.4642 8.21078 10.8 8.625 10.8C9.03922 10.8 9.375 10.4642 9.375 10.05Z" fill="black"/>
</g>
<defs>
<clipPath id="clip0_26224_12142">
<rect width="24" height="24" fill="white"/>
</clipPath>
</defs>
</svg>
