<svg width="24" height="24" viewBox="0 0 24 24" fill="none" xmlns="http://www.w3.org/2000/svg">
<path fill-rule="evenodd" clip-rule="evenodd" d="M8.01937 0.75C4.99406 0.75 2.3942 3.01029 2.16266 6.06863C1.79696 10.8991 1.78022 15.6877 2.11086 20.5283C2.29682 23.2508 5.66835 24.1519 7.30762 22.0853L10.8065 17.6742C11.407 16.9171 12.5579 16.9171 13.1585 17.6742L16.6825 22.1169C18.3165 24.177 21.6788 23.2895 21.8743 20.5736C22.2254 15.6949 22.2076 10.8809 21.8218 6.03615C21.5794 2.99064 18.9846 0.75 15.973 0.75H8.01937ZM3.65838 6.18188C3.82736 3.9501 5.73345 2.2502 8.01937 2.2502H15.973C18.2493 2.2502 20.1499 3.93559 20.3266 6.15521C20.7063 10.9242 20.7238 15.6624 20.3781 20.4659C20.2876 21.7238 18.7005 22.2472 17.8576 21.1845L14.3336 16.7418C13.1325 15.2276 10.8325 15.2276 9.63139 16.7418L6.13249 21.1529C5.28765 22.218 3.6937 21.69 3.60737 20.4261C3.28161 15.657 3.29813 10.9404 3.65838 6.18188Z" fill="#000"/>
<path d="M15.75 6.3758C16.1642 6.3758 16.5 6.03995 16.5 5.62569C16.5 5.21142 16.1642 4.87561 15.75 4.87561H8.25C7.83578 4.87561 7.5 5.21142 7.5 5.62569C7.5 6.03995 7.83578 6.3758 8.25 6.3758H15.75Z" fill="#000"/>
</svg>
