<svg width="24" height="24" viewBox="0 0 24 24" fill="none" xmlns="http://www.w3.org/2000/svg">
<path fill-rule="evenodd" clip-rule="evenodd" d="M2.25 3.75C2.25 2.09314 3.59314 0.75 5.25 0.75H18.75C20.4069 0.75 21.75 2.09314 21.75 3.75V17.25C21.75 17.6642 21.4142 18 21 18C20.9711 18 20.7983 18.0273 20.5905 18.3909C20.3949 18.7333 20.25 19.2565 20.25 19.875C20.25 20.4935 20.3949 21.0167 20.5905 21.3591C20.7983 21.7227 20.9711 21.75 21 21.75C21.4142 21.75 21.75 22.0858 21.75 22.5C21.75 22.9142 21.4142 23.25 21 23.25H5.625C3.76102 23.25 2.25 21.739 2.25 19.875V3.75ZM20.25 3.75V16.5H5.625C4.93121 16.5 4.28629 16.7094 3.75 17.0683V3.75C3.75 2.92157 4.42159 2.25 5.25 2.25H18.75C19.5784 2.25 20.25 2.92157 20.25 3.75ZM19.1125 18H5.625C4.58948 18 3.75 18.8395 3.75 19.875C3.75 20.9105 4.58948 21.75 5.625 21.75H19.1125C18.8771 21.2035 18.75 20.5532 18.75 19.875C18.75 19.1968 18.8771 18.5465 19.1125 18Z" fill="black"/>
<path d="M14.8372 7.5916C15.0949 7.2673 15.0409 6.79551 14.7166 6.53781C14.3923 6.28015 13.9205 6.33415 13.6628 6.65845L11.2551 9.68856L10.3372 8.53341C10.0795 8.20911 9.60775 8.15511 9.28345 8.41281C8.95915 8.67051 8.90515 9.1423 9.16281 9.4666L10.6527 11.3416C10.804 11.5319 11.029 11.6292 11.2547 11.6249C11.4807 11.6295 11.706 11.5322 11.8575 11.3416L14.8372 7.5916Z" fill="black"/>
</svg>
