<svg width="20" height="20" viewBox="0 0 20 20" fill="none" xmlns="http://www.w3.org/2000/svg">
<path fill-rule="evenodd" clip-rule="evenodd" d="M10.0001 1.66663C11.0944 1.66662 12.1781 1.88216 13.1891 2.30095C14.2002 2.71974 15.1188 3.33356 15.8926 4.10739C16.6665 4.88121 17.2803 5.79987 17.6991 6.81091C18.1179 7.82196 18.3334 8.9056 18.3334 9.99995C18.3334 14.6023 14.6025 18.3333 10.0001 18.3333C5.39772 18.3333 1.66675 14.6023 1.66675 9.99995C1.66675 5.3976 5.39772 1.66663 10.0001 1.66663ZM10.8334 10.8333H9.16675C7.10366 10.8333 5.33245 12.0828 4.56851 13.8664C5.77726 15.5614 7.7596 16.6666 10.0001 16.6666C12.2405 16.6666 14.2229 15.5614 15.4317 13.8663C14.6677 12.0828 12.8965 10.8333 10.8334 10.8333ZM10.0001 4.16663C8.61937 4.16663 7.50007 5.28592 7.50007 6.66663C7.50007 8.04733 8.61937 9.16663 10.0001 9.16663C11.3808 9.16663 12.5001 8.04733 12.5001 6.66663C12.5001 5.28592 11.3808 4.16663 10.0001 4.16663Z" fill="#004225"/>
</svg>
