<svg width="32" height="32" viewBox="0 0 32 32" fill="none" xmlns="http://www.w3.org/2000/svg">
<path d="M0 16C0 7.16344 7.16344 0 16 0C24.8366 0 32 7.16344 32 16C32 24.8366 24.8366 32 16 32C7.16344 32 0 24.8366 0 16Z" fill="#004225"/>
<g clip-path="url(#clip0_26101_4510)">
<path d="M21.625 16.6113C21.2798 16.6113 21 16.8916 21 17.2374C21 17.5831 21.2798 17.8634 21.625 17.8634H22.25C22.5952 17.8634 22.875 17.5831 22.875 17.2374C22.875 16.8916 22.5952 16.6113 22.25 16.6113H21.625Z" fill="#FDFFFF"/>
<path fill-rule="evenodd" clip-rule="evenodd" d="M21.7054 9.50734C21.7817 9.86156 21.8866 10.3357 21.9666 10.6991C23.0051 11.3479 23.7518 12.4293 23.8995 13.7395C23.9222 13.9407 23.9431 14.1393 23.9624 14.3359C24.707 14.6778 25.2691 15.379 25.3376 16.2745C25.3878 16.9306 25.3875 17.5368 25.3367 18.1973C25.2696 19.07 24.7343 19.7594 24.0174 20.1112C23.9846 20.5164 23.9444 20.9295 23.8967 21.3541C23.6548 23.5071 21.7977 25.046 19.6828 25.0624L19.6681 25.0625L19.6487 25.0625H11.0936C8.95294 25.0625 7.07117 23.5036 6.82755 21.3306C6.68318 20.0429 6.6161 18.9194 6.626 17.7873C6.61559 16.4833 6.68613 15.189 6.83782 13.7706C6.99673 12.2848 7.92457 11.0873 9.17831 10.4775C9.34197 10.3893 9.51206 10.3111 9.68778 10.2436L17.4277 7.14747C19.2751 6.43831 21.295 7.60041 21.7054 9.50734ZM22.6574 13.88C22.666 13.9561 22.6743 14.0318 22.6824 14.1072H20.9582C19.7409 14.1072 18.6279 15.0017 18.5349 16.2902C18.4882 16.9369 18.4884 17.5343 18.5354 18.1826C18.6288 19.4712 19.7414 20.3674 20.9601 20.3674H22.7408C22.7156 20.6448 22.6868 20.9266 22.6545 21.2141C22.4875 22.7003 21.1877 23.8105 19.6487 23.8105H11.0936C9.54656 23.8105 8.24221 22.6888 8.08241 21.1925C7.8066 18.61 7.8057 16.4754 8.08071 13.9039C8.24051 12.4098 9.54385 11.2902 11.0897 11.2902H19.6548C21.1919 11.2902 22.4903 12.3971 22.6574 13.88ZM17.875 8.31659C18.9779 7.89322 20.2281 8.58446 20.4835 9.77116C20.5012 9.85337 20.5452 10.0507 20.5631 10.1332C20.2685 10.0707 19.9643 10.0381 19.6548 10.0381H13.716L17.875 8.31659ZM20.9582 15.3593C20.3227 15.3593 19.8222 15.8178 19.7816 16.3804C19.7393 16.9667 19.7395 17.5037 19.7821 18.092C19.823 18.6561 20.3243 19.1153 20.9601 19.1153H22.9153C23.5483 19.1153 24.0474 18.6604 24.0904 18.1011C24.1363 17.504 24.1365 16.9619 24.0913 16.3701C24.0487 15.8131 23.5509 15.3593 22.9182 15.3593H20.9582Z" fill="#FDFFFF"/>
</g>
<defs>
<clipPath id="clip0_26101_4510">
<rect width="20" height="20" fill="white" transform="translate(6 6)"/>
</clipPath>
</defs>
</svg>
