<svg width="24" height="24" viewBox="0 0 24 24" fill="none" xmlns="http://www.w3.org/2000/svg">
<g clip-path="url(#clip0_28002_48)">
<path fill-rule="evenodd" clip-rule="evenodd" d="M16.9867 8.5028C15.639 7.16573 13.4564 7.16573 12.1087 8.5028L12 8.61065L11.8913 8.5028C10.5436 7.16573 8.36094 7.16573 7.01323 8.5028C5.66225 9.84316 5.66225 12.0188 7.01326 13.3591L11.4718 17.7824C11.7642 18.0725 12.2358 18.0725 12.5282 17.7824L16.9867 13.3591C18.3377 12.0188 18.3377 9.84316 16.9867 8.5028ZM13.1651 9.56768C13.928 8.81078 15.1674 8.81078 15.9303 9.56768C16.6899 10.3213 16.6899 11.5406 15.9303 12.2942L12 16.1935L8.06971 12.2942C7.31008 11.5406 7.31008 10.3213 8.06968 9.56768C8.83258 8.81078 10.072 8.81078 10.8349 9.56768L11.4718 10.1996C11.7642 10.4897 12.2358 10.4897 12.5282 10.1996L13.1651 9.56768Z" fill="black"/>
<path fill-rule="evenodd" clip-rule="evenodd" d="M12 0.75C5.78681 0.75 0.750016 5.78681 0.750016 12C0.750016 13.868 1.20587 15.6315 2.01285 17.1834L0.801012 22.2282C0.697126 22.4953 0.754579 22.7983 0.949047 23.0088C1.14351 23.2194 1.44099 23.3007 1.71553 23.2184L6.2073 21.6458C7.89979 22.6643 9.88253 23.25 12 23.25C18.2132 23.25 23.25 18.2132 23.25 12C23.25 5.78681 18.2132 0.75 12 0.75ZM2.25002 12C2.25002 6.61523 6.61523 2.25 12 2.25C17.3848 2.25 21.75 6.61523 21.75 12C21.75 17.3848 17.3848 21.75 12 21.75C10.0541 21.75 8.24344 21.1807 6.72278 20.1999C6.53831 20.0809 6.31099 20.0487 6.10073 20.1118L2.75574 21.3403L3.53654 17.4039C3.61782 17.1949 3.60131 16.9605 3.49155 16.765C2.70106 15.3567 2.25002 13.7322 2.25002 12Z" fill="black"/>
</g>
<defs>
<clipPath id="clip0_28002_48">
<rect width="24" height="24" fill="white"/>
</clipPath>
</defs>
</svg>
