<svg width="1078" height="213" viewBox="0 0 1078 213" fill="none" xmlns="http://www.w3.org/2000/svg">
<g clip-path="url(#clip0_26127_2520)">
<path opacity="0.03" d="M-19 -35.0417C-19 -132.104 59.6849 -211.379 156.748 -211.379C253.81 -211.379 332.495 -132.104 332.495 -35.0418C332.495 62.0209 253.81 141.296 156.748 141.296C59.6849 141.296 -19 62.0209 -19 -35.0417Z" fill="#004225"/>
<path opacity="0.03" d="M955.278 -24.4258C955.278 -63.8371 987.228 -95.7864 1026.64 -95.7864C1066.05 -95.7864 1098 -63.8371 1098 -24.4258C1098 14.9856 1066.05 46.9348 1026.64 46.9348C987.228 46.9348 955.278 14.9856 955.278 -24.4258Z" fill="#004225"/>
<path opacity="0.03" d="M811.378 249.618C811.378 180.241 867.619 124 936.996 124C1006.37 124 1062.61 180.241 1062.61 249.618C1062.61 318.995 1006.37 375.237 936.996 375.237C867.619 375.237 811.378 318.995 811.378 249.618Z" fill="#004225"/>
<path opacity="0.03" d="M737.068 123.603C737.068 111.877 746.574 102.372 758.3 102.372C770.025 102.372 779.531 111.877 779.531 123.603C779.531 135.329 770.025 144.834 758.3 144.834C746.574 144.834 737.068 135.329 737.068 123.603Z" fill="#004225"/>
<path opacity="0.03" d="M594.348 15.6778C594.348 -1.58506 608.342 -15.5793 625.605 -15.5793H626.784C644.047 -15.5793 658.041 -1.58506 658.041 15.6778C658.041 32.9406 644.047 46.9349 626.784 46.9349H625.605C608.342 46.9349 594.348 32.9406 594.348 15.6778Z" fill="#004225"/>
<path opacity="0.03" d="M326.598 190.245C326.598 150.834 358.547 118.885 397.958 118.885C437.37 118.885 469.319 150.834 469.319 190.245C469.319 229.657 437.37 261.606 397.958 261.606C358.547 261.606 326.598 229.657 326.598 190.245Z" fill="#004225"/>
</g>
<defs>
<clipPath id="clip0_26127_2520">
<path d="M0 40C0 21.1438 0 11.7157 5.85786 5.85786C11.7157 0 21.1438 0 40 0H1038C1056.86 0 1066.28 0 1072.14 5.85786C1078 11.7157 1078 21.1438 1078 40V173C1078 191.856 1078 201.284 1072.14 207.142C1066.28 213 1056.86 213 1038 213H40C21.1438 213 11.7157 213 5.85786 207.142C0 201.284 0 191.856 0 173V40Z" fill="white"/>
</clipPath>
</defs>
</svg>
