<svg width="20" height="20" viewBox="0 0 20 20" fill="none" xmlns="http://www.w3.org/2000/svg">
<path d="M10 0.5C15.2467 0.5 19.5 4.7533 19.5 10C19.5 15.2467 15.2467 19.5 10 19.5C4.7533 19.5 0.5 15.2467 0.5 10C0.5 4.7533 4.7533 0.5 10 0.5Z" stroke="#E7EDED"/>
<g clip-path="url(#clip0_34003_677)">
<path d="M8.18034 4.39496C6.98135 4.8109 5.94735 5.60037 5.2302 6.6474C4.51306 7.69443 4.15058 8.94385 4.196 10.2121C4.24143 11.4804 4.69236 12.7007 5.48257 13.6937C6.27277 14.6868 7.36061 15.4002 8.58628 15.7293C9.57995 15.9857 10.621 15.997 11.62 15.7621C12.525 15.5589 13.3617 15.1241 14.0482 14.5003C14.7626 13.8312 15.2812 12.9801 15.5482 12.0384C15.8383 11.0143 15.89 9.9374 15.6991 8.89027H10.1191V11.205H13.3507C13.2861 11.5741 13.1477 11.9265 12.9437 12.2409C12.7398 12.5554 12.4745 12.8254 12.1638 13.035C11.7692 13.296 11.3243 13.4716 10.8578 13.5506C10.39 13.6376 9.91008 13.6376 9.44221 13.5506C8.96801 13.4525 8.51943 13.2568 8.12503 12.9759C7.49141 12.5274 7.01566 11.8902 6.76565 11.1553C6.51141 10.4066 6.51141 9.5949 6.76565 8.84621C6.94361 8.32141 7.23781 7.84359 7.62628 7.4484C8.07083 6.98785 8.63365 6.65864 9.25298 6.49691C9.87232 6.33517 10.5242 6.34715 11.1372 6.53152C11.6161 6.67851 12.0539 6.93534 12.416 7.28152C12.7803 6.91902 13.1441 6.55559 13.5072 6.19121C13.6947 5.99527 13.8991 5.80871 14.0838 5.60809C13.5312 5.09384 12.8825 4.6937 12.175 4.43059C10.8866 3.96276 9.47688 3.95019 8.18034 4.39496Z" fill="white"/>
<path d="M8.18029 4.39542C9.47673 3.95034 10.8865 3.96259 12.175 4.4301C12.8826 4.69501 13.531 5.09708 14.0828 5.61323C13.8953 5.81385 13.6975 6.00135 13.5062 6.19635C13.1425 6.55948 12.779 6.92135 12.4159 7.28198C12.0539 6.93579 11.616 6.67897 11.1372 6.53198C10.5244 6.34695 9.8725 6.33429 9.253 6.49536C8.6335 6.65644 8.07033 6.98504 7.62529 7.4451C7.23682 7.84029 6.94263 8.31812 6.76467 8.84292L4.82123 7.33823C5.51686 5.95875 6.72131 4.90356 8.18029 4.39542Z" fill="#E33629"/>
<path d="M4.30564 8.82852C4.4101 8.31082 4.58352 7.80948 4.82126 7.33789L6.7647 8.84633C6.51047 9.59502 6.51047 10.4067 6.7647 11.1554C6.1172 11.6554 5.46939 12.1579 4.82126 12.6629C4.22609 11.4782 4.04458 10.1284 4.30564 8.82852Z" fill="#F8BD00"/>
<path d="M10.1191 8.88867H15.6991C15.8899 9.9358 15.8383 11.0127 15.5481 12.0368C15.2812 12.9785 14.7626 13.8296 14.0481 14.4987C13.4209 14.0093 12.7909 13.5237 12.1638 13.0343C12.4747 12.8246 12.7401 12.5542 12.944 12.2394C13.148 11.9246 13.2863 11.5719 13.3506 11.2024H10.1191C10.1181 10.4318 10.1191 9.66023 10.1191 8.88867Z" fill="#587DBD"/>
<path d="M4.82031 12.6618C5.46844 12.1618 6.11625 11.6593 6.76375 11.1543C7.01426 11.8895 7.49069 12.5267 8.125 12.9749C8.52063 13.2545 8.97019 13.4487 9.445 13.5449C9.91287 13.6319 10.3928 13.6319 10.8606 13.5449C11.3271 13.466 11.772 13.2903 12.1666 13.0293C12.7938 13.5187 13.4237 14.0043 14.0509 14.4937C13.3646 15.1178 12.5279 15.5529 11.6228 15.7565C10.6238 15.9913 9.58274 15.9801 8.58906 15.7237C7.80316 15.5138 7.06907 15.1439 6.43281 14.6371C5.75937 14.1024 5.20933 13.4286 4.82031 12.6618Z" fill="#319F43"/>
</g>
<defs>
<clipPath id="clip0_34003_677">
<rect width="12" height="12" fill="white" transform="translate(4 4)"/>
</clipPath>
</defs>
</svg>
