<svg width="14" height="14" viewBox="0 0 14 14" fill="none" xmlns="http://www.w3.org/2000/svg">
<path d="M5.10201 2.60598C5.94668 1.09132 6.36868 0.333984 7.00001 0.333984C7.63135 0.333984 8.05335 1.09132 8.89801 2.60598L9.11668 2.99798C9.35668 3.42865 9.47668 3.64398 9.66335 3.78598C9.85001 3.92798 10.0833 3.98065 10.55 4.08598L10.974 4.18198C12.614 4.55332 13.4333 4.73865 13.6287 5.36598C13.8233 5.99265 13.2647 6.64665 12.1467 7.95398L11.8573 8.29198C11.54 8.66332 11.3807 8.84932 11.3093 9.07865C11.238 9.30865 11.262 9.55665 11.31 10.052L11.354 10.5033C11.5227 12.248 11.6073 13.12 11.0967 13.5073C10.586 13.8947 9.81801 13.5413 8.28335 12.8347L7.88535 12.652C7.44935 12.4507 7.23135 12.3507 7.00001 12.3507C6.76868 12.3507 6.55068 12.4507 6.11468 12.652L5.71735 12.8347C4.18201 13.5413 3.41401 13.8947 2.90401 13.508C2.39268 13.12 2.47735 12.248 2.64601 10.5033L2.69001 10.0527C2.73801 9.55665 2.76201 9.30865 2.69001 9.07932C2.61935 8.84932 2.46001 8.66332 2.14268 8.29265L1.85335 7.95398C0.735348 6.64732 0.176681 5.99332 0.371348 5.36598C0.566014 4.73865 1.38668 4.55265 3.02668 4.18198L3.45068 4.08598C3.91668 3.98065 4.14935 3.92798 4.33668 3.78598C4.52401 3.64398 4.64335 3.42865 4.88335 2.99798L5.10201 2.60598Z" fill="#262567"/>
</svg>
