<svg width="61" height="60" viewBox="0 0 61 60" fill="none" xmlns="http://www.w3.org/2000/svg">
<path d="M0.333252 30C0.333252 13.4315 13.7647 0 30.3333 0C46.9018 0 60.3333 13.4315 60.3333 30C60.3333 46.5685 46.9018 60 30.3333 60C13.7647 60 0.333252 46.5685 0.333252 30Z" fill="#FBEAE4"/>
<path d="M29.2083 13.125C30.2468 13.125 31.2026 13.4765 31.9638 14.067C31.4056 14.5742 30.9044 15.1429 30.4707 15.7623C30.1105 15.5178 29.6758 15.375 29.2083 15.375C28.1218 15.375 27.213 16.1462 27.0037 17.1716C26.9192 17.5862 26.6091 17.9182 26.2014 18.031C21.4472 19.3461 17.9583 23.7046 17.9583 28.875V38.1562C17.9583 38.2874 17.9353 38.4175 17.8905 38.5407L17.3144 40.125H41.1021L40.526 38.5407C40.4812 38.4175 40.4583 38.2874 40.4583 38.1562V31.5475C41.2425 31.4159 41.9962 31.1942 42.7083 30.8934V37.9581L43.4963 40.125H43.8333C44.4546 40.125 44.9583 40.6287 44.9583 41.25C44.9583 41.8713 44.4546 42.375 43.8333 42.375H14.5833C13.9619 42.375 13.4583 41.8713 13.4583 41.25C13.4583 40.6287 13.9619 40.125 14.5833 40.125H14.9203L15.7083 37.958V28.875C15.7083 22.8898 19.6023 17.8168 24.9933 16.0463C25.6328 14.3399 27.2776 13.125 29.2083 13.125Z" fill="#E22900"/>
<path d="M29.2083 44.625C30.1403 44.625 30.8958 43.8695 30.8958 42.9375H33.1458C33.1458 45.1121 31.3829 46.875 29.2083 46.875C27.0336 46.875 25.2708 45.1121 25.2708 42.9375H27.5208C27.5208 43.8695 28.2762 44.625 29.2083 44.625Z" fill="#E22900"/>
<path d="M40.899 18.1216C41.066 17.5232 40.7163 16.9027 40.1178 16.7357C39.5194 16.5686 38.8989 16.9184 38.7319 17.5169L38.1972 19.4329L37.8584 19.1028C37.4133 18.6692 36.7011 18.6785 36.2675 19.1234C35.8339 19.5684 35.8431 20.2807 36.2881 20.7143L37.9857 22.3683C38.2702 22.6455 38.6798 22.7521 39.0634 22.6489C39.447 22.5455 39.7476 22.2476 39.8544 21.865L40.899 18.1216Z" fill="#E22900"/>
<path fill-rule="evenodd" clip-rule="evenodd" d="M38.7708 13.125C43.4307 13.125 47.2083 16.9026 47.2083 21.5625C47.2083 26.2224 43.4307 30 38.7708 30C34.1108 30 30.3333 26.2224 30.3333 21.5625C30.3333 21.2712 30.348 20.9835 30.3768 20.6998C30.8089 16.4452 34.4021 13.125 38.7708 13.125ZM44.9263 20.9299C44.6094 17.8098 41.9744 15.375 38.7708 15.375C35.3535 15.375 32.5833 18.1453 32.5833 21.5625C32.5833 24.9797 35.3535 27.75 38.7708 27.75C42.188 27.75 44.9583 24.9797 44.9583 21.5625C44.9583 21.3489 44.9475 21.1379 44.9263 20.9299Z" fill="#E22900"/>
</svg>
