<svg width="61" height="60" viewBox="0 0 61 60" fill="none" xmlns="http://www.w3.org/2000/svg">
<path d="M0.666504 30C0.666504 13.4315 14.098 0 30.6665 0C47.235 0 60.6665 13.4315 60.6665 30C60.6665 46.5685 47.235 60 30.6665 60C14.098 60 0.666504 46.5685 0.666504 30Z" fill="#FDF8E6"/>
<path d="M16.0415 40.125C24.0449 40.1185 32.0135 41.1783 39.737 43.2765C40.8275 43.5735 41.9165 42.7635 41.9165 41.6325V40.125M18.2915 18.75V19.875C18.2915 20.1734 18.173 20.4595 17.962 20.6705C17.751 20.8815 17.4649 21 17.1665 21H16.0415M16.0415 21V20.4375C16.0415 19.506 16.7975 18.75 17.729 18.75H43.0415M16.0415 21V34.5M43.0415 18.75V19.875C43.0415 20.496 43.5455 21 44.1665 21H45.2915M43.0415 18.75H43.604C44.5355 18.75 45.2915 19.506 45.2915 20.4375V35.0625C45.2915 35.994 44.5355 36.75 43.604 36.75H43.0415M16.0415 34.5V35.0625C16.0415 35.5101 16.2193 35.9393 16.5358 36.2557C16.8522 36.5722 17.2815 36.75 17.729 36.75H18.2915M16.0415 34.5H17.1665C17.4649 34.5 17.751 34.6185 17.962 34.8295C18.173 35.0405 18.2915 35.3266 18.2915 35.625V36.75M43.0415 36.75V35.625C43.0415 35.3266 43.16 35.0405 43.371 34.8295C43.582 34.6185 43.8681 34.5 44.1665 34.5H45.2915M43.0415 36.75H18.2915M35.1665 27.75C35.1665 28.9435 34.6924 30.0881 33.8485 30.932C33.0046 31.7759 31.86 32.25 30.6665 32.25C29.473 32.25 28.3284 31.7759 27.4845 30.932C26.6406 30.0881 26.1665 28.9435 26.1665 27.75C26.1665 26.5565 26.6406 25.4119 27.4845 24.568C28.3284 23.7241 29.473 23.25 30.6665 23.25C31.86 23.25 33.0046 23.7241 33.8485 24.568C34.6924 25.4119 35.1665 26.5565 35.1665 27.75ZM39.6665 27.75H39.6785V27.762H39.6665V27.75ZM21.6665 27.75H21.6785V27.762H21.6665V27.75Z" stroke="#FFB000" stroke-width="2" stroke-linecap="round" stroke-linejoin="round"/>
</svg>
