<svg width="60" height="60" viewBox="0 0 60 60" fill="none" xmlns="http://www.w3.org/2000/svg">
<path d="M0 30C0 13.4315 13.4315 0 30 0C46.5685 0 60 13.4315 60 30C60 46.5685 46.5685 60 30 60C13.4315 60 0 46.5685 0 30Z" fill="#E4EDEA"/>
<path d="M40.125 31.1003C39.5037 31.1003 39 31.6048 39 32.2272C39 32.8495 39.5037 33.354 40.125 33.354H41.25C41.8713 33.354 42.375 32.8495 42.375 32.2272C42.375 31.6048 41.8713 31.1003 41.25 31.1003H40.125Z" fill="#004225"/>
<path fill-rule="evenodd" clip-rule="evenodd" d="M40.2698 18.3132C40.407 18.9508 40.5958 19.8043 40.7399 20.4584C42.6091 21.6263 43.9533 23.5727 44.2191 25.9312C44.2599 26.2932 44.2976 26.6508 44.3323 27.0046C45.6726 27.6201 46.6844 28.8823 46.8077 30.4941C46.898 31.6751 46.8974 32.7662 46.806 33.955C46.6853 35.526 45.7217 36.767 44.4313 37.4002C44.3723 38.1295 44.2999 38.8732 44.214 39.6374C43.7786 43.5128 40.4358 46.2827 36.6291 46.3123L36.6025 46.3124L36.5676 46.3125H21.1685C17.3153 46.3125 13.9281 43.5065 13.4896 39.5951C13.2297 37.2772 13.109 35.255 13.1268 33.2171C13.1081 30.8699 13.235 28.5402 13.5081 25.9871C13.7941 23.3126 15.4642 21.1571 17.721 20.0595C18.0155 19.9007 18.3217 19.7599 18.638 19.6385L32.5698 14.0655C35.8952 12.789 39.5311 14.8807 40.2698 18.3132ZM41.9833 26.1839C41.9987 26.321 42.0137 26.4573 42.0283 26.593H38.9248C36.7336 26.593 34.7302 28.2032 34.5628 30.5223C34.4787 31.6865 34.4791 32.7618 34.5637 33.9287C34.7318 36.2481 36.7345 37.8613 38.9282 37.8613H42.1334C42.0881 38.3606 42.0363 38.8679 41.9782 39.3853C41.6775 42.0606 39.3378 44.0588 36.5677 44.0588H21.1685C18.3838 44.0588 16.036 42.0398 15.7483 39.3465C15.2519 34.6981 15.2503 30.8558 15.7453 26.2271C16.0329 23.5377 18.3789 21.5223 21.1614 21.5223H36.5786C39.3454 21.5223 41.6825 23.5147 41.9833 26.1839ZM33.375 16.1699C35.3602 15.4078 37.6106 16.652 38.0703 18.7881C38.1021 18.9361 38.1814 19.2913 38.2136 19.4397C37.6832 19.3273 37.1357 19.2686 36.5786 19.2686H25.8888L33.375 16.1699ZM38.9248 28.8467C37.7808 28.8467 36.88 29.6721 36.8069 30.6848C36.7307 31.7401 36.731 32.7066 36.8078 33.7656C36.8814 34.781 37.7838 35.6076 38.9282 35.6076H42.4475C43.587 35.6076 44.4853 34.7888 44.5627 33.782C44.6453 32.7072 44.6457 31.7315 44.5643 30.6662C44.4876 29.6636 43.5916 28.8467 42.4527 28.8467H38.9248Z" fill="#004225"/>
</svg>
