<svg width="1380" height="183" viewBox="0 0 1380 183" fill="none" xmlns="http://www.w3.org/2000/svg">
<g clip-path="url(#clip0_26861_7067)">
<rect width="1380" height="183" fill="#E4EDEA"/>
<path opacity="0.05" d="M-12 25C-12 -97.6072 87.3928 -197 210 -197C332.607 -197 432 -97.6072 432 25C432 147.607 332.607 247 210 247C87.3928 247 -12 147.607 -12 25Z" fill="#004225"/>
<path opacity="0.05" d="M1217 38C1217 -11.7056 1257.29 -52 1307 -52C1356.71 -52 1397 -11.7056 1397 38C1397 87.7056 1356.71 128 1307 128C1257.29 128 1217 87.7056 1217 38Z" fill="#004225"/>
<path opacity="0.05" d="M762 89C762 66.9086 779.909 49 802 49C824.091 49 842 66.9086 842 89C842 111.091 824.091 129 802 129C779.909 129 762 111.091 762 89Z" fill="#004225"/>
</g>
<defs>
<clipPath id="clip0_26861_7067">
<rect width="1380" height="183" fill="white"/>
</clipPath>
</defs>
</svg>
