<svg width="48" height="48" viewBox="0 0 48 48" fill="none" xmlns="http://www.w3.org/2000/svg">
<path d="M0 24C0 10.7452 10.7452 0 24 0C37.2548 0 48 10.7452 48 24C48 37.2548 37.2548 48 24 48C10.7452 48 0 37.2548 0 24Z" fill="#E4EDEA"/>
<path d="M23.3333 24.6667L28 20.0001M36.064 12.0707C33.16 8.94272 11.3147 16.6041 11.3333 19.4001C11.3533 22.5721 19.864 23.5467 22.2227 24.2094C23.6413 24.6081 24.0213 25.0147 24.348 26.5027C25.8293 33.2387 26.5747 36.5907 28.268 36.6654C30.9707 36.7854 38.8973 15.1227 36.064 12.0707Z" stroke="#004225" stroke-width="2.5" stroke-linecap="round" stroke-linejoin="round"/>
</svg>
