<svg width="49" height="48" viewBox="0 0 49 48" fill="none" xmlns="http://www.w3.org/2000/svg">
<path d="M0.333328 24C0.333328 10.7452 11.0785 0 24.3333 0C37.5882 0 48.3333 10.7452 48.3333 24C48.3333 37.2548 37.5882 48 24.3333 48C11.0785 48 0.333328 37.2548 0.333328 24Z" fill="#E4EDEA"/>
<path d="M29.7702 13.316C32.5582 14.5538 34.8342 16.7045 36.2182 19.409C37.6021 22.1135 38.0102 25.2078 37.3741 28.1752C36.738 31.1426 35.0963 33.8033 32.7233 35.7128C30.3503 37.6223 27.3896 38.665 24.336 38.6667C21.7236 38.6669 19.1687 37.9047 16.9886 36.4749C14.8084 35.045 13.099 33.0105 12.0725 30.6238C11.0461 28.2371 10.7478 25.6034 11.2148 23.0498C11.6817 20.4962 12.8934 18.1351 14.6992 16.2596C15.9429 17.9867 17.5845 19.393 19.4869 20.3611C19.5202 18.2391 20.0243 16.1505 20.9634 14.2444C21.9024 12.3382 23.2532 10.6613 24.9195 9.33337C26.1911 11.0279 27.8542 12.3938 29.7685 13.316H29.7702Z" stroke="#004225" stroke-width="2.5" stroke-linecap="round" stroke-linejoin="round"/>
<path d="M24.3286 33.3333C26.0207 33.3358 27.6504 32.7556 28.8868 31.7105C30.1232 30.6653 30.8735 29.2336 30.9854 27.7061C31.0973 26.1786 30.5624 24.6699 29.4893 23.4862C28.4162 22.3026 26.8854 21.5329 25.2078 21.3333C23.3737 22.8182 22.1654 24.8324 21.7887 27.0328C20.4204 26.7295 19.1326 26.1827 18.0003 25.4244C17.6711 26.3295 17.5839 27.2925 17.7459 28.234C17.9078 29.1756 18.3143 30.0691 18.9319 30.8409C19.5495 31.6128 20.3607 32.2412 21.2988 32.6745C22.237 33.1077 23.2753 33.3335 24.3286 33.3333Z" stroke="#004225" stroke-width="2.5" stroke-linecap="round" stroke-linejoin="round"/>
</svg>
