<svg width="49" height="48" viewBox="0 0 49 48" fill="none" xmlns="http://www.w3.org/2000/svg">
<path d="M0.666748 24C0.666748 10.7452 11.4119 0 24.6667 0C37.9216 0 48.6667 10.7452 48.6667 24C48.6667 37.2548 37.9216 48 24.6667 48C11.4119 48 0.666748 37.2548 0.666748 24Z" fill="#E4EDEA"/>
<path d="M11.6667 33C18.7809 32.9942 25.8641 33.9363 32.7294 35.8013C33.6987 36.0653 34.6667 35.3453 34.6667 34.34V33M13.6667 14V15C13.6667 15.2652 13.5614 15.5196 13.3739 15.7071C13.1863 15.8946 12.932 16 12.6667 16H11.6667M11.6667 16V15.5C11.6667 14.672 12.3387 14 13.1667 14H35.6667M11.6667 16V28M35.6667 14V15C35.6667 15.552 36.1147 16 36.6667 16H37.6667M35.6667 14H36.1667C36.9947 14 37.6667 14.672 37.6667 15.5V28.5C37.6667 29.328 36.9947 30 36.1667 30H35.6667M11.6667 28V28.5C11.6667 28.8978 11.8248 29.2794 12.1061 29.5607C12.3874 29.842 12.7689 30 13.1667 30H13.6667M11.6667 28H12.6667C12.932 28 13.1863 28.1054 13.3739 28.2929C13.5614 28.4804 13.6667 28.7348 13.6667 29V30M35.6667 30V29C35.6667 28.7348 35.7721 28.4804 35.9596 28.2929C36.1472 28.1054 36.4015 28 36.6667 28H37.6667M35.6667 30H13.6667M28.6667 22C28.6667 23.0609 28.2453 24.0783 27.4952 24.8284C26.745 25.5786 25.7276 26 24.6667 26C23.6059 26 22.5885 25.5786 21.8383 24.8284C21.0882 24.0783 20.6667 23.0609 20.6667 22C20.6667 20.9391 21.0882 19.9217 21.8383 19.1716C22.5885 18.4214 23.6059 18 24.6667 18C25.7276 18 26.745 18.4214 27.4952 19.1716C28.2453 19.9217 28.6667 20.9391 28.6667 22ZM32.6667 22H32.6774V22.0107H32.6667V22ZM16.6667 22H16.6774V22.0107H16.6667V22Z" stroke="#004225" stroke-width="2" stroke-linecap="round" stroke-linejoin="round"/>
</svg>
