<svg width="9" height="14" viewBox="0 0 9 14" fill="none" xmlns="http://www.w3.org/2000/svg">
<path d="M0.96 11.524C0.864 11.4493 0.853333 11.3693 0.928 11.284L1.776 10.212C1.85067 10.1267 1.92533 10.1213 2 10.196C2.23467 10.388 2.528 10.5693 2.88 10.74C3.232 10.9107 3.62133 11.0173 4.048 11.06V7.78C3.13067 7.63067 2.41067 7.28933 1.888 6.756C1.376 6.212 1.12 5.52933 1.12 4.708C1.12 4.26 1.18933 3.84933 1.328 3.476C1.47733 3.10267 1.68 2.77733 1.936 2.5C2.20267 2.212 2.512 1.98267 2.864 1.812C3.22667 1.63067 3.62133 1.51867 4.048 1.476V0.643999C4.048 0.537333 4.10133 0.483999 4.208 0.483999H4.832C4.93867 0.483999 4.992 0.537333 4.992 0.643999V1.476C5.46133 1.51867 5.89867 1.61467 6.304 1.764C6.72 1.91333 7.09867 2.1 7.44 2.324C7.51467 2.388 7.52533 2.46267 7.472 2.548L6.736 3.636C6.672 3.71067 6.59733 3.72133 6.512 3.668C6.27733 3.51867 6.032 3.396 5.776 3.3C5.53067 3.204 5.26933 3.13467 4.992 3.092V6.212C5.96267 6.372 6.69333 6.71867 7.184 7.252C7.68533 7.78533 7.936 8.468 7.936 9.3C7.936 10.2067 7.67467 10.9587 7.152 11.556C6.62933 12.1427 5.90933 12.5 4.992 12.628V13.476C4.992 13.5827 4.93867 13.636 4.832 13.636H4.208C4.10133 13.636 4.048 13.5827 4.048 13.476V12.66C3.44 12.6387 2.87467 12.5267 2.352 12.324C1.84 12.1213 1.376 11.8547 0.96 11.524ZM4.048 3.092C3.68533 3.16667 3.39733 3.33733 3.184 3.604C2.97067 3.87067 2.864 4.196 2.864 4.58C2.864 4.92133 2.944 5.21467 3.104 5.46C3.27467 5.70533 3.58933 5.892 4.048 6.02V3.092ZM4.992 11.012C5.792 10.82 6.192 10.2707 6.192 9.364C6.192 9.05467 6.10667 8.77733 5.936 8.532C5.76533 8.28667 5.45067 8.09467 4.992 7.956V11.012Z" fill="#004225"/>
</svg>
