<svg width="20" height="20" viewBox="0 0 20 20" fill="none" xmlns="http://www.w3.org/2000/svg">
<g clip-path="url(#clip0_28003_3920)">
<path fill-rule="evenodd" clip-rule="evenodd" d="M1.69194 0.808059C1.44786 0.56398 1.05214 0.56398 0.808059 0.808059C0.56398 1.05214 0.56398 1.44786 0.808059 1.69194L4.79169 5.67559C4.22859 6.05894 3.69534 6.51065 3.20256 7.03069L0.796321 9.57012C0.567893 9.81119 0.567893 10.1888 0.796321 10.4299L3.20256 12.9693C6.14437 16.0739 10.5291 16.7431 14.0928 14.9767L18.3081 19.1919C18.5521 19.436 18.9479 19.436 19.1919 19.1919C19.436 18.9479 19.436 18.5521 19.1919 18.3081L1.69194 0.808059ZM13.1514 14.0353L11.4973 12.3812C11.0637 12.6544 10.5503 12.8125 10 12.8125C8.44669 12.8125 7.1875 11.5533 7.1875 10C7.1875 9.44965 7.34556 8.93625 7.61878 8.50265L5.69409 6.57797C5.13 6.93847 4.59747 7.37597 4.10994 7.89047L2.11102 10L4.10994 12.1095C6.55759 14.6927 10.1398 15.3346 13.1514 14.0353ZM8.54512 9.429C8.47566 9.60587 8.4375 9.79847 8.4375 10C8.4375 10.8629 9.13706 11.5625 10 11.5625C10.2015 11.5625 10.3941 11.5243 10.571 11.4549L8.54512 9.429Z" fill="#141414"/>
<path d="M9.65503 7.20847L12.7917 10.3452C12.8056 10.232 12.8127 10.1168 12.8127 10C12.8127 8.44669 11.5535 7.1875 10.0002 7.1875C9.88334 7.1875 9.76815 7.19463 9.65503 7.20847Z" fill="#004225"/>
<path d="M15.8902 12.1095C15.6704 12.3414 15.4416 12.5577 15.2047 12.7583L16.0913 13.6449C16.3347 13.4342 16.5704 13.209 16.7975 12.9693L19.2038 10.4299C19.4322 10.1888 19.4322 9.81119 19.2038 9.57012L16.7975 7.03069C14.1527 4.2395 10.3416 3.41687 7.00928 4.56281L8.01218 5.56572C10.746 4.85828 13.7512 5.63319 15.8902 7.89047L17.8891 10L15.8902 12.1095Z" fill="#004225"/>
</g>
<defs>
<clipPath id="clip0_28003_3920">
<rect width="20" height="20" fill="white"/>
</clipPath>
</defs>
</svg>
