<svg width="20" height="20" viewBox="0 0 20 20" fill="none" xmlns="http://www.w3.org/2000/svg">
<path d="M10 12.5C10.663 12.5 11.2989 12.2366 11.7678 11.7678C12.2366 11.2989 12.5 10.663 12.5 10C12.5 9.33696 12.2366 8.70107 11.7678 8.23223C11.2989 7.76339 10.663 7.5 10 7.5C9.33696 7.5 8.70107 7.76339 8.23223 8.23223C7.76339 8.70107 7.5 9.33696 7.5 10C7.5 10.663 7.76339 11.2989 8.23223 11.7678C8.70107 12.2366 9.33696 12.5 10 12.5Z" fill="#004225"/>
<path fill-rule="evenodd" clip-rule="evenodd" d="M1.1024 9.53917C2.3424 5.81333 5.85657 3.125 10.0007 3.125C14.1424 3.125 17.6549 5.81083 18.8966 9.53333C18.9966 9.835 18.9966 10.16 18.8966 10.4608C17.6574 14.1867 14.1424 16.875 9.99907 16.875C5.8574 16.875 2.34407 14.1892 1.10323 10.4667C1.00302 10.1656 1.00302 9.84021 1.10323 9.53917H1.1024ZM14.3749 10C14.3749 11.1603 13.914 12.2731 13.0935 13.0936C12.273 13.9141 11.1602 14.375 9.9999 14.375C8.83958 14.375 7.72678 13.9141 6.90631 13.0936C6.08584 12.2731 5.6249 11.1603 5.6249 10C5.6249 8.83968 6.08584 7.72688 6.90631 6.90641C7.72678 6.08594 8.83958 5.625 9.9999 5.625C11.1602 5.625 12.273 6.08594 13.0935 6.90641C13.914 7.72688 14.3749 8.83968 14.3749 10Z" fill="#004225"/>
</svg>
