<svg width="20" height="20" viewBox="0 0 20 20" fill="none" xmlns="http://www.w3.org/2000/svg">
<g clip-path="url(#clip0_26205_10033)">
<path d="M11.477 10.2243C11.4714 10.5147 11.3798 10.7969 11.2137 11.0352C11.0476 11.2734 10.8145 11.457 10.544 11.5626C10.2734 11.6682 9.9776 11.6911 9.69401 11.6285C9.41042 11.5658 9.15183 11.4203 8.95102 11.2105C8.7502 11.0006 8.61621 10.7359 8.56601 10.4498C8.51582 10.1638 8.55169 9.86925 8.66908 9.6036C8.78647 9.33794 8.98009 9.11312 9.22539 8.95763C9.4707 8.80214 9.75665 8.72298 10.047 8.73019C10.4328 8.74448 10.7979 8.90847 11.0649 9.1874C11.3318 9.46633 11.4796 9.83826 11.477 10.2243Z" fill="#004225"/>
<path d="M12.7638 5.22974H7.33892C6.80212 5.22974 6.28732 5.44298 5.90775 5.82254C5.52818 6.20211 5.31494 6.71692 5.31494 7.25371V12.8006C5.31494 13.0664 5.36729 13.3296 5.46901 13.5752C5.57072 13.8207 5.71981 14.0439 5.90775 14.2318C6.09569 14.4198 6.31881 14.5688 6.56437 14.6706C6.80993 14.7723 7.07312 14.8246 7.33892 14.8246H12.7638C13.0296 14.8246 13.2928 14.7723 13.5384 14.6706C13.7839 14.5688 14.0071 14.4198 14.195 14.2318C14.383 14.0439 14.532 13.8207 14.6338 13.5752C14.7355 13.3296 14.7878 13.0664 14.7878 12.8006V7.26371C14.7889 6.99715 14.7373 6.73301 14.6361 6.48641C14.5349 6.23981 14.386 6.01562 14.198 5.82666C14.0099 5.63771 13.7865 5.48772 13.5404 5.38529C13.2943 5.28286 13.0304 5.23 12.7638 5.22974ZM10.0509 12.9526C9.51385 12.9648 8.98539 12.8166 8.53294 12.5271C8.08049 12.2375 7.72457 11.8197 7.5106 11.327C7.29664 10.8343 7.23433 10.289 7.33163 9.76074C7.42894 9.23246 7.68144 8.74516 8.05691 8.36101C8.43238 7.97687 8.9138 7.71331 9.43972 7.60398C9.96564 7.49464 10.5122 7.54449 11.0097 7.74716C11.5071 7.94982 11.9329 8.29611 12.2327 8.74184C12.5325 9.18757 12.6927 9.71251 12.6928 10.2497C12.6972 10.6007 12.6323 10.9492 12.5018 11.2751C12.3713 11.601 12.1779 11.898 11.9325 12.1491C11.6871 12.4002 11.3946 12.6004 11.0717 12.7383C10.7488 12.8761 10.4019 12.949 10.0509 12.9526ZM12.9868 7.54771C12.9209 7.54772 12.8555 7.53457 12.7947 7.50902C12.7339 7.48347 12.6787 7.44604 12.6325 7.39892C12.5864 7.3518 12.55 7.29593 12.5257 7.2346C12.5014 7.17326 12.4895 7.10769 12.4909 7.04171C12.4909 6.90752 12.5442 6.77882 12.6391 6.68392C12.7339 6.58903 12.8626 6.53572 12.9968 6.53572C13.131 6.53572 13.2597 6.58903 13.3546 6.68392C13.4495 6.77882 13.5028 6.90752 13.5028 7.04171C13.5048 7.11315 13.4914 7.18417 13.4633 7.24992C13.4353 7.31566 13.3934 7.37458 13.3405 7.42263C13.2877 7.47068 13.225 7.50673 13.1569 7.52832C13.0887 7.54991 13.0168 7.55652 12.9458 7.54771H12.9868Z" fill="#004225"/>
<path d="M10.05 0.000125172C7.39787 -0.0131355 4.84909 1.0277 2.96438 2.89367C1.07966 4.75963 0.0133858 7.29787 0.000125172 9.95C-0.0131355 12.6021 1.0277 15.1509 2.89367 17.0356C4.75963 18.9203 7.29787 19.9866 9.95 19.9999C11.2632 20.0064 12.5648 19.7543 13.7806 19.2578C14.9963 18.7613 16.1024 18.0303 17.0356 17.1063C17.9688 16.1824 18.7109 15.0837 19.2195 13.873C19.7282 12.6623 19.9933 11.3632 19.9999 10.05C20.0064 8.7368 19.7543 7.43516 19.2578 6.21941C18.7613 5.00365 18.0303 3.89759 17.1063 2.96438C16.1824 2.03116 15.0837 1.28906 13.873 0.780454C12.6623 0.271847 11.3632 0.00669118 10.05 0.000125172ZM16.1229 12.702C16.1257 13.1506 16.0394 13.5953 15.8691 14.0103C15.6987 14.4254 15.4476 14.8025 15.1304 15.1197C14.8133 15.437 14.4362 15.6882 14.0213 15.8587C13.6063 16.0292 13.1616 16.1156 12.713 16.1129H7.38903C6.94041 16.1157 6.49569 16.0294 6.08066 15.8591C5.66563 15.6887 5.28854 15.4376 4.97126 15.1204C4.65398 14.8033 4.40282 14.4262 4.23233 14.0113C4.06184 13.5963 3.97542 13.1516 3.97808 12.703V7.37803C3.97529 6.92941 4.06158 6.48469 4.23195 6.06966C4.40231 5.65463 4.65337 5.27754 4.97055 4.96026C5.28774 4.64298 5.66475 4.39182 6.07973 4.22133C6.49471 4.05084 6.9394 3.96442 7.38803 3.96708H12.713C13.1615 3.96442 13.6061 4.05081 14.021 4.22124C14.4359 4.39166 14.8129 4.64274 15.1301 4.95991C15.4473 5.27709 15.6983 5.65405 15.8688 6.06896C16.0392 6.48388 16.1256 6.92849 16.1229 7.37703V12.702Z" fill="#004225"/>
</g>
<defs>
<clipPath id="clip0_26205_10033">
<rect width="20" height="20" fill="white"/>
</clipPath>
</defs>
</svg>
