<svg width="9" height="14" viewBox="0 0 9 14" fill="none" xmlns="http://www.w3.org/2000/svg">
<path d="M0.976 11.604C0.944 11.5827 0.922667 11.5507 0.912 11.508C0.912 11.4547 0.928 11.412 0.96 11.38L1.552 10.58C1.616 10.5053 1.69067 10.5 1.776 10.564C2.05333 10.7667 2.384 10.9533 2.768 11.124C3.152 11.2947 3.57333 11.396 4.032 11.428V7.588C3.06133 7.40667 2.336 7.06533 1.856 6.564C1.38667 6.052 1.152 5.40133 1.152 4.612C1.152 4.164 1.22133 3.75867 1.36 3.396C1.49867 3.02267 1.696 2.70267 1.952 2.436C2.208 2.15867 2.512 1.94 2.864 1.78C3.216 1.60933 3.60533 1.50267 4.032 1.46V0.643999C4.032 0.537333 4.08533 0.483999 4.192 0.483999H4.656C4.76267 0.483999 4.816 0.537333 4.816 0.643999V1.46C5.27467 1.50267 5.70667 1.59333 6.112 1.732C6.51733 1.87067 6.88 2.04667 7.2 2.26C7.27467 2.324 7.28533 2.39867 7.232 2.484L6.72 3.268C6.656 3.35333 6.58133 3.36933 6.496 3.316C5.93067 2.98533 5.37067 2.788 4.816 2.724V6.404C5.79733 6.57467 6.528 6.916 7.008 7.428C7.488 7.92933 7.728 8.58 7.728 9.38C7.728 10.276 7.472 11.0173 6.96 11.604C6.448 12.18 5.73333 12.5213 4.816 12.628V13.476C4.816 13.5827 4.76267 13.636 4.656 13.636H4.192C4.08533 13.636 4.032 13.5827 4.032 13.476V12.676C3.424 12.6547 2.85867 12.548 2.336 12.356C1.824 12.1533 1.37067 11.9027 0.976 11.604ZM4.032 2.724C3.552 2.788 3.168 2.98 2.88 3.3C2.60267 3.60933 2.464 4.00933 2.464 4.5C2.464 4.948 2.576 5.316 2.8 5.604C3.024 5.892 3.43467 6.11067 4.032 6.26V2.724ZM4.816 11.38C5.31733 11.2947 5.70667 11.092 5.984 10.772C6.272 10.4413 6.416 10.004 6.416 9.46C6.416 9.02267 6.29333 8.66 6.048 8.372C5.81333 8.084 5.40267 7.87067 4.816 7.732V11.38Z" fill="#004225"/>
</svg>
