<svg width="28" height="28" viewBox="0 0 28 28" fill="none" xmlns="http://www.w3.org/2000/svg">
<path fill-rule="evenodd" clip-rule="evenodd" d="M4.7225 5.64174C4.93071 2.92794 7.21512 0.875 9.91384 0.875H18.0723C20.7613 0.875 23.042 2.91382 23.2599 5.61816C23.7474 11.6674 23.7469 16.2567 23.257 22.3762C23.0404 25.0824 20.7592 27.125 18.0677 27.125H9.91677C7.21643 27.125 4.9318 25.0697 4.7243 22.3548C4.2596 16.275 4.25814 11.6944 4.7225 5.64174ZM9.33397 2.67282C7.79463 2.92945 6.58897 4.19089 6.46739 5.77561C6.00989 11.7386 6.01125 16.2299 6.46918 22.2214C6.60529 24.0019 8.10862 25.375 9.91677 25.375H18.0677C19.8702 25.375 21.3706 24.0102 21.5126 22.2366C21.9951 16.2093 21.9954 11.7138 21.5156 5.75873C21.3888 4.18575 20.1924 2.93531 18.6647 2.67494L18.2283 3.37312C17.6687 4.26854 16.6873 4.8125 15.6313 4.8125H12.3686C11.3127 4.8125 10.3313 4.26854 9.77165 3.37312L9.33397 2.67282ZM11.3904 2.625C11.637 2.90078 11.9917 3.0625 12.3686 3.0625H15.6313C16.0083 3.0625 16.363 2.90078 16.6096 2.625H11.3904Z" fill="#004225"/>
<path d="M11.375 22.75C11.375 22.2667 11.7667 21.875 12.25 21.875H15.75C16.2333 21.875 16.625 22.2667 16.625 22.75C16.625 23.2333 16.2333 23.625 15.75 23.625H12.25C11.7667 23.625 11.375 23.2333 11.375 22.75Z" fill="#004225"/>
</svg>
