<svg width="20" height="20" viewBox="0 0 20 20" fill="none" xmlns="http://www.w3.org/2000/svg">
<g clip-path="url(#clip0_26206_11726)">
<path d="M16.6536 13.2812C16.6536 13.0903 16.5582 12.9731 16.3672 12.9297C15.7856 12.7995 15.2734 12.5434 14.8307 12.1615C14.388 11.7795 14.0408 11.3108 13.7891 10.7552C13.7283 10.5903 13.6979 10.4818 13.6979 10.4297C13.6979 10.2995 13.7826 10.1866 13.9518 10.0911C14.1211 9.99566 14.3077 9.92188 14.5117 9.86979C14.7157 9.81771 14.9023 9.72873 15.0716 9.60286C15.2409 9.477 15.3255 9.31858 15.3255 9.1276C15.3255 8.96267 15.2452 8.82595 15.0846 8.71745C14.924 8.60894 14.7569 8.55469 14.5833 8.55469C14.4792 8.55469 14.3403 8.58941 14.1667 8.65885C13.9931 8.7283 13.8585 8.76302 13.763 8.76302C13.7283 8.76302 13.6762 8.75434 13.6068 8.73698C13.6502 7.91233 13.6719 7.41753 13.6719 7.2526C13.6719 6.56684 13.5981 6.07205 13.4505 5.76823C13.138 5.09115 12.691 4.5638 12.1094 4.1862C11.5278 3.80859 10.8681 3.61979 10.1302 3.61979C8.40278 3.61979 7.2092 4.33594 6.54948 5.76823C6.40191 6.07205 6.32812 6.56684 6.32812 7.2526C6.32812 7.41753 6.34983 7.91233 6.39323 8.73698C6.35851 8.75434 6.29774 8.76302 6.21094 8.76302C6.10677 8.76302 5.96788 8.73047 5.79427 8.66536C5.62066 8.60026 5.49045 8.56771 5.40365 8.56771C5.22135 8.56771 5.05425 8.61979 4.90234 8.72396C4.75043 8.82812 4.67448 8.96701 4.67448 9.14062C4.67448 9.32292 4.75911 9.477 4.92839 9.60286C5.09766 9.72873 5.28429 9.81771 5.48828 9.86979C5.69227 9.92188 5.87891 9.99566 6.04818 10.0911C6.21745 10.1866 6.30208 10.2995 6.30208 10.4297C6.30208 10.4818 6.2717 10.5903 6.21094 10.7552C5.65538 11.9531 4.79601 12.678 3.63281 12.9297C3.44184 12.9731 3.34635 13.0903 3.34635 13.2812C3.34635 13.6806 3.94097 13.9757 5.13021 14.1667C5.14757 14.2101 5.17361 14.3229 5.20833 14.5052C5.24306 14.6875 5.29297 14.8199 5.35807 14.9023C5.42318 14.9848 5.52517 15.026 5.66406 15.026C5.76823 15.026 5.93099 15.0065 6.15234 14.9674C6.3737 14.9284 6.54514 14.9089 6.66667 14.9089C6.97049 14.9089 7.26128 14.974 7.53906 15.1042C7.81684 15.2344 8.05122 15.3754 8.24219 15.5273C8.43316 15.6793 8.68273 15.8203 8.99088 15.9505C9.29904 16.0807 9.63108 16.1458 9.98698 16.1458C10.3602 16.1458 10.7031 16.0807 11.0156 15.9505C11.3281 15.8203 11.5777 15.6793 11.7643 15.5273C11.951 15.3754 12.1832 15.2344 12.4609 15.1042C12.7387 14.974 13.0295 14.9089 13.3333 14.9089C13.4549 14.9089 13.6263 14.9262 13.8477 14.9609C14.069 14.9957 14.2361 15.013 14.349 15.013C14.4878 15.013 14.5877 14.9696 14.6484 14.8828C14.7092 14.796 14.7569 14.6658 14.7917 14.4922C14.8264 14.3186 14.8524 14.2101 14.8698 14.1667C16.059 13.9757 16.6536 13.6806 16.6536 13.2812ZM20 10C20 11.8142 19.553 13.4874 18.6589 15.0195C17.7648 16.5516 16.5516 17.7648 15.0195 18.6589C13.4874 19.553 11.8142 20 10 20C8.18576 20 6.51259 19.553 4.98047 18.6589C3.44835 17.7648 2.23524 16.5516 1.34115 15.0195C0.447049 13.4874 0 11.8142 0 10C0 8.18576 0.447049 6.51259 1.34115 4.98047C2.23524 3.44835 3.44835 2.23524 4.98047 1.34115C6.51259 0.447049 8.18576 0 10 0C11.8142 0 13.4874 0.447049 15.0195 1.34115C16.5516 2.23524 17.7648 3.44835 18.6589 4.98047C19.553 6.51259 20 8.18576 20 10Z" fill="#004225"/>
</g>
<defs>
<clipPath id="clip0_26206_11726">
<rect width="20" height="20" fill="white"/>
</clipPath>
</defs>
</svg>
