<svg width="20" height="20" viewBox="0 0 20 20" fill="none" xmlns="http://www.w3.org/2000/svg">
<g clip-path="url(#clip0_26206_11733)">
<path d="M11.6698 9.82616L9.33021 8.7345C9.12604 8.63971 8.95833 8.74595 8.95833 8.972V11.0282C8.95833 11.2543 9.12604 11.3605 9.33021 11.2657L11.6687 10.1741C11.874 10.0782 11.874 9.922 11.6698 9.82616ZM10 0.00012207C4.47708 0.00012207 0 4.47721 0 10.0001C0 15.523 4.47708 20.0001 10 20.0001C15.5229 20.0001 20 15.523 20 10.0001C20 4.47721 15.5229 0.00012207 10 0.00012207ZM10 14.0626C4.88125 14.0626 4.79167 13.6012 4.79167 10.0001C4.79167 6.39908 4.88125 5.93762 10 5.93762C15.1187 5.93762 15.2083 6.39908 15.2083 10.0001C15.2083 13.6012 15.1187 14.0626 10 14.0626Z" fill="#004225"/>
</g>
<defs>
<clipPath id="clip0_26206_11733">
<rect width="20" height="20" fill="white"/>
</clipPath>
</defs>
</svg>
