<svg width="15" height="14" viewBox="0 0 15 14" fill="none" xmlns="http://www.w3.org/2000/svg">
<g clip-path="url(#clip0_26101_13778)">
<path d="M0.5 5.46875H14.5V8.53125H0.5V5.46875Z" fill="#E6E7E8"/>
<path d="M12.3125 2.1875H2.6875C1.23784 2.1875 0.5 3.26484 0.5 4.59375V5.46875H14.5V4.59375C14.5 3.26484 13.7622 2.1875 12.3125 2.1875Z" fill="#EC1C24"/>
<path d="M0.5 9.40625C0.5 10.7352 1.23784 11.8125 2.6875 11.8125H12.3125C13.7622 11.8125 14.5 10.7352 14.5 9.40625V8.53125H0.5V9.40625Z" fill="#25333A"/>
<path fill-rule="evenodd" clip-rule="evenodd" d="M8.51593 6.21407C8.53737 6.41007 8.53693 6.60651 8.54634 6.80338C8.56428 7.17963 8.57828 7.55763 8.59359 7.93498V8.00323C8.47831 7.89473 8.37265 7.79629 8.26809 7.69676C8.26525 7.68691 8.27006 7.68013 8.27706 7.67335C8.29609 7.65191 8.28931 7.62654 8.28778 7.60335C8.27706 7.44038 8.274 7.27676 8.26546 7.11313C8.25409 6.87688 8.24709 6.64107 8.23309 6.40482C8.22937 6.33241 8.25278 6.28035 8.31512 6.24404C8.35428 6.22085 8.38053 6.23026 8.38184 6.27576C8.38534 6.36435 8.3884 6.45273 8.39321 6.54132C8.407 6.79616 8.41487 7.05144 8.42712 7.30607C8.43281 7.42441 8.44418 7.54232 8.44046 7.66023C8.43915 7.69566 8.44134 7.73023 8.44681 7.75123C8.42865 7.67729 8.44331 7.58869 8.43631 7.50032C8.4234 7.35004 8.42056 7.1991 8.41422 7.04816C8.40481 6.79069 8.38993 6.53432 8.3825 6.27685C8.38075 6.1946 8.39803 6.18366 8.47853 6.21254C8.49078 6.21473 8.50368 6.20685 8.51593 6.21407ZM6.80312 7.74051C6.71234 7.82494 6.62112 7.90916 6.524 7.99841C6.524 7.91748 6.52137 7.84769 6.52443 7.7766C6.54368 7.30476 6.56446 6.83248 6.58437 6.35976C6.58656 6.31098 6.59203 6.26263 6.5964 6.21385C6.60931 6.2086 6.61828 6.22785 6.63184 6.21801C6.64441 6.20848 6.65901 6.20197 6.6745 6.19898C6.71037 6.19285 6.73071 6.20991 6.73071 6.24644C6.73071 6.35866 6.72328 6.46957 6.71781 6.58026C6.71409 6.66688 6.70775 6.75351 6.70556 6.84013C6.70009 7.03526 6.68893 7.22994 6.68172 7.42398C6.67712 7.53248 6.67493 7.64141 6.66859 7.74904C6.6769 7.64776 6.6769 7.54451 6.68106 7.44257C6.69506 7.11444 6.7095 6.78632 6.72415 6.45819C6.72634 6.39957 6.73268 6.34029 6.7305 6.28101C6.72962 6.2611 6.73268 6.24119 6.75368 6.2331C6.77206 6.22501 6.78628 6.23791 6.80159 6.24644C6.85978 6.28101 6.88187 6.33066 6.87903 6.39891C6.86617 6.67684 6.85407 6.9548 6.84272 7.23279C6.83747 7.35769 6.83834 7.48348 6.82368 7.6086C6.81953 7.65213 6.80793 7.69588 6.80312 7.74051Z" fill="#BF9200"/>
<path fill-rule="evenodd" clip-rule="evenodd" d="M6.80315 7.74054C6.78825 7.69996 6.78764 7.65551 6.8014 7.61454C6.80883 7.61322 6.82065 7.63313 6.82371 7.61125C6.82546 7.59157 6.83115 7.57319 6.83115 7.55438C6.83115 7.42707 6.84012 7.29997 6.84624 7.17375C6.85499 6.99329 6.85915 6.81238 6.87183 6.63257C6.87643 6.57197 6.87577 6.51072 6.87708 6.45035C6.87796 6.41775 6.87643 6.3775 6.9158 6.36788C6.95496 6.35847 6.97815 6.39063 6.99958 6.4195C7.01249 6.437 7.01336 6.45822 7.01205 6.47966C7.00046 6.65138 6.99805 6.82288 6.98952 6.99482C6.98208 7.1615 6.97618 7.32797 6.9683 7.49532C6.97968 7.249 6.99083 7.00247 7.00024 6.75572C7.00265 6.67807 7.00855 6.60041 7.01074 6.52166C7.01249 6.45932 7.02912 6.44729 7.09233 6.45319C7.12187 6.45647 7.1503 6.46216 7.18049 6.46413C7.19427 6.46938 7.20937 6.47441 7.21352 6.49104C7.2074 6.51335 7.18749 6.51094 7.17152 6.51138C7.13674 6.51379 7.12493 6.53413 7.13455 6.56388C7.14571 6.5956 7.14155 6.62819 7.14308 6.65991C7.14155 6.68879 7.1409 6.71766 7.13849 6.74654C7.13107 6.80985 7.12734 6.87354 7.12733 6.93729C7.12602 7.05279 7.11508 7.16894 7.11202 7.28422C7.10107 7.32678 7.09847 7.37105 7.10437 7.4146C7.10721 7.4286 7.11137 7.4426 7.11487 7.4566C7.11815 7.47738 7.10962 7.49619 7.09824 7.51238C7.09269 7.51847 7.08588 7.52328 7.07829 7.52649C7.0707 7.5297 7.06251 7.53123 7.05427 7.53097C7.03305 7.52769 7.02387 7.54497 7.01183 7.55547L6.80315 7.74054ZM8.2784 7.68891C8.27468 7.69197 8.27118 7.6946 8.2679 7.69788C8.22283 7.65588 8.1769 7.61432 8.13249 7.57144C8.12921 7.56204 8.13336 7.5546 8.13861 7.54716C8.14299 7.53907 8.1419 7.53054 8.1419 7.52157C8.13861 7.26388 8.12462 7.00772 8.11171 6.75091C8.10712 6.6575 8.11062 6.56322 8.10033 6.47004C8.09777 6.45397 8.10144 6.43753 8.11062 6.4241C8.13162 6.39435 8.15502 6.35913 8.1968 6.36919C8.23574 6.37882 8.23465 6.41929 8.23508 6.45166C8.2423 6.73647 8.2598 7.02129 8.27227 7.3061C8.27665 7.40804 8.27227 7.51129 8.28736 7.613C8.29065 7.63729 8.29436 7.66485 8.2784 7.68891ZM8.14015 7.84554C8.14452 7.88666 8.16137 7.8965 8.20446 7.88425C8.27118 7.865 8.3648 7.91072 8.35124 7.9956C8.34818 8.01879 8.35408 8.0341 8.37749 8.04504C8.41183 8.061 8.42408 8.10563 8.46608 8.11329C8.47221 8.11482 8.47549 8.12729 8.47002 8.13144C8.43065 8.15441 8.44224 8.20975 8.40505 8.23447C8.40002 8.23841 8.3928 8.24497 8.39215 8.25066C8.38952 8.32635 8.33352 8.33991 8.27533 8.35238C7.99927 8.41254 7.71949 8.41822 7.43883 8.41254C7.2319 8.40904 7.0254 8.39766 6.82283 8.348C6.76946 8.33575 6.73555 8.31563 6.71718 8.25613C6.70258 8.21478 6.68089 8.17629 6.65308 8.14238C6.6369 8.12247 6.64127 8.1205 6.65943 8.10563C6.70515 8.06844 6.76793 8.04591 6.76421 7.96432C6.76137 7.90591 6.84383 7.86238 6.90837 7.88382C6.95037 7.8976 6.96808 7.88732 6.97268 7.84554C6.98668 7.84269 6.99215 7.85254 6.99718 7.86238C7.00462 7.87813 7.00287 7.8941 7.0009 7.91072C6.99827 7.91806 6.99316 7.92425 6.98646 7.92822C6.96612 7.93785 6.94599 7.93216 6.92652 7.92647C6.91252 7.92188 6.89524 7.91532 6.88277 7.93019C6.86724 7.94966 6.89087 7.95535 6.89743 7.9676C6.90091 7.97346 6.90245 7.98028 6.9018 7.98707C6.89852 7.99844 6.88912 8.00435 6.87993 8.00982C6.84821 8.01704 6.82196 8.03125 6.80796 8.06363C6.80162 8.07938 6.78499 8.08791 6.76968 8.09819C6.7268 8.12816 6.72265 8.15179 6.75458 8.19204C6.76049 8.20013 6.77012 8.208 6.77208 8.21763C6.78499 8.28194 6.83487 8.29288 6.88802 8.30338C7.06718 8.33794 7.24918 8.35325 7.43205 8.35435C7.5959 8.35588 7.75908 8.35894 7.92249 8.34385C8.03821 8.33313 8.15415 8.32154 8.26702 8.29288C8.30027 8.28457 8.32499 8.27166 8.33308 8.23513C8.3368 8.21829 8.34905 8.20429 8.35977 8.1905C8.38843 8.15507 8.38668 8.12816 8.35102 8.10257C8.32663 8.08857 8.30639 8.06834 8.2924 8.04394C8.27818 8.01572 8.25105 8.01966 8.22393 8.02338C8.15021 8.03585 8.07912 8.05707 8.00583 8.07129C7.99621 8.06997 7.98987 8.06472 7.9844 8.05619C7.97933 8.04841 7.97635 8.03945 7.97573 8.03018C7.97512 8.02091 7.9769 8.01164 7.9809 8.00325C7.9848 7.99559 7.9912 7.98949 7.99905 7.98597C8.07824 8.01835 8.14583 7.96672 8.21999 7.95775C8.23027 7.95622 8.23596 7.94835 8.23487 7.93894C8.23115 7.92472 8.21977 7.92079 8.20577 7.92275C8.18062 7.9256 8.1559 7.94069 8.12921 7.92997C8.12219 7.92601 8.11666 7.91987 8.11346 7.91247C8.10936 7.89609 8.11035 7.87884 8.1163 7.86304C8.1209 7.85297 8.12615 7.84291 8.14102 7.84554" fill="#BF9200"/>
<path fill-rule="evenodd" clip-rule="evenodd" d="M8.14281 7.56221L8.13231 7.5703C8.10037 7.55674 8.08484 7.51912 8.04896 7.51058C8.04541 7.51341 8.04119 7.51528 8.03671 7.51601C8.03223 7.51674 8.02763 7.5163 8.02337 7.51474C8.00303 7.5014 7.99581 7.48302 7.9969 7.45983C7.99887 7.4454 8.00499 7.43205 8.00718 7.41696C8.01394 7.37483 8.01178 7.33176 8.00084 7.29052C7.99646 7.16452 7.98465 7.03962 7.98421 6.91318C7.98421 6.8714 7.99034 6.82699 7.9654 6.78871C7.95667 6.78264 7.94985 6.77422 7.94571 6.76443C7.9549 6.70165 7.96759 6.63952 7.97524 6.57608C7.98137 6.5238 7.98312 6.52118 7.93171 6.51177C7.91837 6.50937 7.90393 6.50937 7.89868 6.4923C7.90262 6.4748 7.91859 6.47043 7.93281 6.46452C7.9654 6.46168 7.99799 6.45512 8.03059 6.45205C8.08003 6.44724 8.0984 6.46146 8.10124 6.51133C8.10606 6.61087 8.10934 6.70974 8.11349 6.80883C8.1264 7.05449 8.13209 7.30168 8.14696 7.54777C8.14696 7.55302 8.14434 7.55783 8.14281 7.56221Z" fill="#BF9200"/>
<path fill-rule="evenodd" clip-rule="evenodd" d="M8.02878 7.50964C8.03578 7.50964 8.04235 7.5103 8.04913 7.5103L8.09025 7.67611C8.09616 7.68595 8.0955 7.69449 8.08457 7.70083C8.07647 7.70499 8.06553 7.68967 8.0581 7.70499C8.02266 7.77389 8.03622 7.83799 8.09966 7.88677C8.10819 7.89267 8.11716 7.89749 8.1211 7.90864C8.12498 7.91216 8.12907 7.91545 8.13335 7.91849C8.13291 7.94277 8.11257 7.94452 8.09791 7.94845C8.05963 7.95633 8.02266 7.96858 7.98328 7.96595C7.96949 7.96594 7.95584 7.96884 7.94325 7.97449C7.86494 7.9898 7.78575 7.98892 7.707 7.98608C7.69322 7.9852 7.67703 7.98389 7.67266 8.00227C7.66894 8.01977 7.68316 8.02545 7.69694 8.02939C7.73194 8.0412 7.76847 8.03683 7.80391 8.0388C7.8236 8.03989 7.84547 8.03311 7.86078 8.05302C7.86319 8.08036 7.84153 8.08167 7.82338 8.08474C7.80107 8.08802 7.77843 8.08846 7.756 8.08605C7.71094 8.08342 7.66982 8.09174 7.63635 8.12542C7.63204 8.13062 7.62646 8.13461 7.62016 8.13702C7.58472 8.14905 7.55497 8.10924 7.50969 8.13592C7.48278 8.15233 7.44057 8.10289 7.42 8.06592C7.41796 8.05843 7.41766 8.05058 7.41913 8.04295C7.42241 8.02589 7.45063 8.01933 7.43991 7.99877C7.42832 7.97755 7.40513 7.98805 7.38763 7.98608C7.34891 7.98214 7.30757 8.00358 7.27278 7.97339C7.27082 7.93861 7.30625 7.9432 7.32222 7.92614C7.33188 7.91796 7.34393 7.91313 7.35656 7.91236C7.36444 7.91236 7.37122 7.9152 7.37757 7.92002C7.38347 7.9257 7.38982 7.93336 7.39878 7.93249C7.45303 7.92702 7.49744 7.94583 7.53813 7.97864C7.54819 7.98674 7.56022 7.99024 7.57116 7.98083C7.61469 7.94736 7.66303 7.92745 7.72056 7.93161C7.72647 7.93161 7.73128 7.92395 7.73653 7.91958C7.74243 7.91497 7.74946 7.91203 7.75688 7.91105C7.79516 7.92614 7.82228 7.92483 7.84197 7.87867C7.85925 7.83733 7.88222 7.84105 7.9321 7.88567C7.9671 7.83711 7.96688 7.82683 7.92466 7.76492C7.9006 7.78483 7.90081 7.83164 7.86056 7.8312C7.82316 7.8312 7.81507 7.79249 7.79319 7.7717C7.77285 7.79489 7.78882 7.84192 7.7431 7.84805C7.72166 7.83405 7.71991 7.81327 7.72363 7.79117C7.74003 7.74414 7.73741 7.69624 7.7326 7.64855C7.7342 7.64072 7.73748 7.63333 7.74222 7.62689C7.76519 7.59977 7.75972 7.56477 7.76803 7.53349C7.77547 7.50658 7.7746 7.46874 7.81244 7.46545C7.84613 7.46327 7.861 7.49564 7.87741 7.5197C7.8819 7.52596 7.88469 7.53327 7.8855 7.54092C7.8831 7.5197 7.8925 7.4928 7.90738 7.46874C7.92685 7.43767 7.96316 7.44052 7.98985 7.47355C8.00078 7.48733 8.0056 7.50877 8.02878 7.50964Z" fill="#BF9200"/>
<path fill-rule="evenodd" clip-rule="evenodd" d="M7.34692 7.9493C7.32548 7.96855 7.29551 7.9517 7.2732 7.96833C7.24279 8.00464 7.20713 7.97205 7.17432 7.97533C7.15945 7.97249 7.14632 7.96483 7.13123 7.96592C7.09142 7.96855 7.05357 7.9563 7.01529 7.94842C7.0002 7.94449 6.97963 7.94296 6.97876 7.91845C6.98307 7.91547 6.98717 7.91218 6.99101 7.90861C6.99473 7.89745 7.00392 7.89286 7.01245 7.88674C7.07523 7.83795 7.08988 7.77386 7.05467 7.70561C7.04657 7.69074 7.03607 7.70496 7.02754 7.70102C7.01617 7.69467 7.01617 7.68614 7.02185 7.6763C7.02667 7.62642 7.05401 7.5818 7.05401 7.53127C7.05664 7.52547 7.06072 7.52046 7.06585 7.5167C7.07099 7.51295 7.077 7.51058 7.08332 7.50983C7.09907 7.50983 7.10826 7.49999 7.11526 7.48664C7.12838 7.4628 7.14698 7.44377 7.17695 7.44749C7.20626 7.45121 7.21085 7.47855 7.21982 7.5013C7.22223 7.50699 7.22223 7.51464 7.22792 7.51945C7.23163 7.52033 7.2336 7.51836 7.23623 7.51508C7.25526 7.49408 7.26882 7.4582 7.3036 7.4663C7.34298 7.47527 7.33904 7.51639 7.34604 7.54745C7.35173 7.57217 7.35042 7.59952 7.37404 7.61702C7.37969 7.62223 7.38365 7.62901 7.38542 7.63649C7.37579 7.69052 7.36879 7.74345 7.39417 7.79595C7.3957 7.81608 7.39088 7.83314 7.37404 7.84539C7.32176 7.84736 7.34145 7.79399 7.31892 7.77233C7.25635 7.8537 7.24651 7.8537 7.19029 7.76774C7.14785 7.81455 7.14654 7.82549 7.17585 7.88455C7.19182 7.8852 7.19685 7.86836 7.20757 7.86114C7.22988 7.84561 7.25438 7.84452 7.26554 7.86836C7.28151 7.90817 7.31454 7.92742 7.34692 7.9493ZM7.40795 6.01052C7.41757 5.94839 7.43442 5.88758 7.4307 5.82436C7.43007 5.80343 7.42432 5.78297 7.41395 5.76477C7.40358 5.74658 7.3889 5.73121 7.3712 5.72002C7.36055 5.71441 7.34867 5.71155 7.33663 5.7117C7.31826 5.70974 7.29463 5.7513 7.28282 5.70974C7.27789 5.69375 7.27759 5.67669 7.28196 5.66055C7.28634 5.6444 7.29521 5.62982 7.30754 5.61852C7.31388 5.61261 7.32329 5.60714 7.33051 5.60758C7.43463 5.6148 7.53963 5.57411 7.64354 5.61939C7.69801 5.64389 7.73148 5.67911 7.7352 5.7397C7.73979 5.7502 7.74132 5.76005 7.72973 5.76661C7.7131 5.76661 7.70413 5.7548 7.69888 5.74233C7.68051 5.69661 7.64201 5.69311 7.60898 5.71258C7.5416 5.7537 7.48998 5.7268 7.44054 5.6837C7.42013 5.66711 7.39675 5.65456 7.37163 5.64674C7.41713 5.65767 7.45454 5.68939 7.48801 5.72352C7.51207 5.74714 7.52017 5.77317 7.49107 5.80489C7.45651 5.84186 7.47685 5.89436 7.46263 5.93833C7.4517 5.97092 7.46001 6.01314 7.4156 6.02867C7.40707 6.02517 7.40379 6.01949 7.40795 6.01052ZM7.80563 6.21417C7.81592 6.23955 7.83823 6.23495 7.85857 6.23386C7.95329 6.23036 8.03642 6.19274 8.11823 6.15008C8.12742 6.14439 8.13223 6.14899 8.13573 6.15708C8.13485 6.18595 8.11167 6.1982 8.0911 6.21046C8.05644 6.2302 8.01929 6.24521 7.98063 6.25508C7.93448 6.26842 7.88985 6.28767 7.84588 6.30058C7.78573 6.31895 7.71638 6.35505 7.64813 6.31108C7.62998 6.2997 7.61204 6.29686 7.59017 6.3102C7.54007 6.34214 7.51032 6.32639 7.49654 6.2647C7.49757 6.26113 7.49932 6.25781 7.50169 6.25495C7.50406 6.25209 7.507 6.24975 7.51032 6.24808C7.57485 6.24677 7.5766 6.24567 7.57573 6.17699C7.57573 6.15905 7.57267 6.14199 7.57463 6.1247C7.5812 6.09145 7.58295 6.05777 7.58251 6.0243C7.58229 6.00527 7.57879 5.98602 7.59673 5.97267C7.63151 5.97136 7.62779 5.99827 7.62932 6.01949C7.63304 6.07833 7.62779 6.13695 7.64048 6.19558C7.64529 6.21942 7.65317 6.23824 7.68488 6.25092C7.65886 6.18104 7.64145 6.10824 7.63304 6.03414C7.63151 6.01839 7.62888 6.0033 7.62976 5.98755C7.63042 5.96633 7.63151 5.94074 7.65929 5.94074C7.68073 5.9403 7.69057 5.96174 7.69188 5.98208C7.69385 6.00942 7.70129 6.03611 7.70413 6.06389C7.70873 6.1107 7.71923 6.1562 7.7387 6.1993C7.74723 6.21702 7.75663 6.24195 7.78463 6.21942C7.79098 6.21417 7.79754 6.21111 7.80563 6.21417Z" fill="#BF9200"/>
<path fill-rule="evenodd" clip-rule="evenodd" d="M7.40794 6.01039C7.41122 6.01543 7.41428 6.02024 7.41822 6.02505C7.44031 6.04736 7.42587 6.07099 7.41909 6.09265C7.40334 6.14318 7.37141 6.18561 7.34559 6.23199C7.38059 6.22346 7.39438 6.1959 7.40488 6.16702C7.42478 6.11343 7.44403 6.05939 7.45147 6.00121C7.45256 5.99705 7.45147 5.99093 7.45344 5.98677C7.46438 5.96424 7.45891 5.92464 7.49369 5.92793C7.53306 5.93164 7.51556 5.96818 7.51425 5.99136C7.50824 6.08346 7.48123 6.17295 7.43528 6.25299C7.42894 6.26349 7.42238 6.27289 7.4215 6.2858C7.40991 6.29652 7.40991 6.30986 7.41297 6.32408C7.39394 6.34771 7.37359 6.3558 7.35763 6.32364C7.34713 6.30221 7.33444 6.30811 7.31869 6.31227C7.28784 6.32036 7.2605 6.31621 7.23972 6.28952C7.22506 6.27158 7.20406 6.26918 7.18284 6.26633C7.12773 6.25824 7.07466 6.23975 7.02644 6.21186C7.00369 6.20049 6.97853 6.18824 6.97656 6.15696C6.98006 6.14886 6.98487 6.14405 6.99428 6.14996C7.07391 6.19174 7.15506 6.22739 7.24759 6.23483C7.27844 6.23658 7.29791 6.22849 7.31519 6.20115C7.35281 6.14055 7.38169 6.07624 7.40794 6.01039Z" fill="#BF9200"/>
<path fill-rule="evenodd" clip-rule="evenodd" d="M6.99434 6.14894C6.98975 6.15178 6.98559 6.15506 6.98078 6.15878C6.95847 6.17628 6.93834 6.16337 6.91778 6.15419C6.87203 6.1334 6.82345 6.11954 6.77362 6.11306C6.71434 6.10497 6.67037 6.13297 6.64653 6.18875C6.63778 6.21106 6.62684 6.23381 6.61481 6.25437C6.59075 6.24847 6.61153 6.22265 6.59644 6.21303C6.61875 6.10365 6.68306 6.05772 6.79244 6.07281C6.8655 6.08287 6.93244 6.10781 6.99434 6.14894ZM8.13162 6.15987C8.12758 6.15607 8.1231 6.15277 8.11828 6.15003C8.18609 6.10497 8.26025 6.07894 8.34031 6.07106C8.43415 6.06165 8.49562 6.11306 8.51597 6.21412L8.50569 6.24781C8.47922 6.23819 8.47506 6.21128 8.46609 6.18984C8.44094 6.13297 8.39565 6.10497 8.33375 6.11459C8.28562 6.12164 8.23871 6.13541 8.1944 6.1555C8.17406 6.16447 8.15372 6.17715 8.13162 6.15987ZM7.80569 6.21412C7.80197 6.21811 7.79853 6.22235 7.7954 6.22681C7.76981 6.22637 7.75953 6.20865 7.75253 6.18853C7.72932 6.1328 7.71671 6.07323 7.71534 6.01287C7.71994 5.99231 7.72606 5.97153 7.74662 5.95972C7.75953 6.0459 7.77047 6.13253 7.80569 6.21412Z" fill="#BF9200"/>
<path fill-rule="evenodd" clip-rule="evenodd" d="M7.74736 5.96079C7.74277 5.97829 7.74911 5.99907 7.73621 6.01569C7.70493 5.97916 7.69749 5.80307 7.72636 5.76479C7.72921 5.75647 7.73249 5.74904 7.73577 5.74072C7.75721 5.81357 7.74824 5.88685 7.74736 5.96166M7.02199 7.67579C7.02549 7.68257 7.02855 7.69022 7.03096 7.69744C7.06049 7.73747 7.04146 7.767 7.01083 7.79413C6.99333 7.79588 6.99924 7.77838 6.99268 7.77138C7.00077 7.739 7.00624 7.70532 7.02199 7.67579ZM8.08139 7.69766C8.08424 7.69066 8.08708 7.683 8.09036 7.676C8.10611 7.70554 8.1118 7.73922 8.11968 7.77182C8.11355 7.7786 8.11968 7.7961 8.10152 7.79457C8.07089 7.76744 8.05186 7.73769 8.08139 7.69766Z" fill="#BF9200"/>
<path fill-rule="evenodd" clip-rule="evenodd" d="M6.9928 7.77193C6.99674 7.77915 6.9998 7.78681 7.00374 7.7949C7.02409 7.82684 7.02212 7.85265 6.98187 7.86665C6.97837 7.85965 6.97596 7.85265 6.97246 7.84543C6.97946 7.82115 6.98602 7.79643 6.9928 7.77193ZM8.1093 7.79512C8.11259 7.78703 8.11565 7.77937 8.11959 7.77215C8.12615 7.79643 8.13293 7.82137 8.14015 7.84587C8.13643 7.85287 8.13402 7.85987 8.13052 7.86709C8.09027 7.85265 8.0883 7.82706 8.1093 7.79512ZM7.14702 6.81184C7.13412 6.78909 7.13171 6.76393 7.12668 6.73921C7.11071 6.71296 7.12515 6.68759 7.12821 6.66156C7.13805 6.70728 7.14812 6.75343 7.15752 6.79959C7.15424 6.80374 7.15424 6.8114 7.14702 6.81184ZM7.10415 7.37293C7.10874 7.36221 7.11246 7.35171 7.11662 7.34165C7.12537 7.34603 7.12034 7.35696 7.12537 7.36265C7.11924 7.39503 7.11312 7.42893 7.09693 7.45868C7.09365 7.44731 7.09124 7.4355 7.08752 7.42325C7.09584 7.4075 7.08468 7.38496 7.10415 7.37293ZM7.27368 6.48349C7.25224 6.48634 7.23146 6.49028 7.21068 6.494C7.19952 6.49028 7.18815 6.48743 7.17743 6.48415C7.20018 6.47496 7.22446 6.47474 7.24896 6.47365C7.25924 6.47146 7.27149 6.46293 7.27368 6.48349ZM6.89634 7.98237C6.9368 7.9909 6.97837 7.99528 7.01665 8.00993C7.07965 8.0329 7.11093 8.00271 7.13324 7.95087C7.14637 7.94912 7.15796 7.95021 7.16846 7.95896C7.18268 7.97012 7.20368 7.97296 7.20849 7.99549C7.21396 8.02437 7.23562 8.03071 7.26143 8.02765C7.31305 8.03465 7.36424 8.04187 7.41696 8.03618C7.41961 8.03664 7.42214 8.03764 7.4244 8.0391C7.42665 8.04057 7.42859 8.04248 7.43009 8.04471V8.06265C7.37142 8.07023 7.31204 8.07038 7.25334 8.06309C7.19865 8.05609 7.16212 8.07206 7.1398 8.13221C7.12296 8.03837 7.0534 8.03181 6.98405 8.02021C6.94643 8.01475 6.90859 8.0095 6.87402 7.99134C6.88168 7.98871 6.8889 7.98521 6.89634 7.98237ZM7.97915 7.95153C7.97543 7.97318 8.0043 7.97362 8.00584 7.99156L7.99577 8.00293C7.98484 8.01234 7.96187 8.01146 7.96274 8.03203C7.96471 8.04821 7.98505 8.04493 7.99512 8.05346L8.0054 8.06462C7.9949 8.08518 7.98374 8.10553 7.96974 8.13331C7.95093 8.0749 7.91352 8.05434 7.86015 8.06374C7.82165 8.04668 7.78184 8.05937 7.74268 8.05565C7.72212 8.0539 7.7009 8.05871 7.68252 8.04581C7.71643 8.01168 7.7604 8.02918 7.79934 8.02831C7.84637 8.02634 7.89187 8.03684 7.91352 7.97909C7.91746 7.96903 7.9343 7.96749 7.94393 7.96028C7.95355 7.95087 7.96602 7.94934 7.97915 7.95153ZM7.9879 7.36265C7.98317 7.34723 7.97858 7.33177 7.97412 7.31628C7.96515 7.30928 7.95509 7.30468 7.94962 7.29418C7.9143 7.21267 7.89101 7.12646 7.88049 7.03824C7.8794 7.02796 7.88159 7.01812 7.87874 7.0074C7.9074 6.92843 7.94765 6.85296 7.95771 6.76787C7.96274 6.77159 7.96843 6.77443 7.97368 6.77815C7.99118 6.82365 7.98309 6.872 7.98505 6.91925C7.9903 7.05859 7.99118 7.19859 8.01021 7.3364C8.0078 7.34996 8.00562 7.36309 7.9879 7.36265ZM7.90237 6.49421C7.8619 6.49465 7.82471 6.4824 7.78643 6.47343C7.78796 6.45265 7.80109 6.46118 7.81137 6.46293C7.85249 6.46993 7.89449 6.47715 7.93496 6.48328C7.92422 6.48728 7.91335 6.49093 7.90237 6.49421Z" fill="#BF9200"/>
<path fill-rule="evenodd" clip-rule="evenodd" d="M7.9966 7.3418C8.00054 7.35187 8.00469 7.36281 8.00907 7.37309C8.02854 7.38512 8.01738 7.40765 8.02547 7.42384C8.02197 7.43565 8.01957 7.44746 8.0165 7.45927C8.0001 7.42887 7.99485 7.39584 7.98763 7.36281C7.99025 7.35581 7.99375 7.34902 7.9966 7.3418ZM7.74504 7.37396C7.71507 7.4328 7.68072 7.49034 7.70304 7.56077C7.7085 7.56996 7.7026 7.58002 7.70457 7.58943C7.72185 7.65527 7.74044 7.72156 7.74394 7.79068C7.73937 7.80945 7.73997 7.8291 7.74569 7.84756C7.77216 7.86681 7.78069 7.88999 7.75488 7.91668C7.7517 7.92045 7.74863 7.92431 7.74569 7.92827C7.72819 7.93024 7.7131 7.94031 7.69516 7.93834C7.66016 7.93396 7.62888 7.92084 7.62582 7.8819C7.62122 7.82787 7.61335 7.77362 7.60832 7.71959C7.60875 7.68656 7.60197 7.6544 7.6011 7.62159C7.59716 7.60977 7.59913 7.59643 7.59454 7.58571C7.59598 7.58913 7.59694 7.59274 7.59738 7.59643C7.59738 7.60999 7.60197 7.62202 7.60307 7.63602C7.60919 7.68196 7.60197 7.73031 7.61772 7.77559C7.61729 7.81015 7.62516 7.84427 7.62363 7.87949C7.62297 7.92587 7.59125 7.96131 7.55363 7.95934C7.51819 7.95802 7.48888 7.92346 7.48844 7.87949C7.48779 7.84187 7.49347 7.80359 7.49654 7.76618C7.50857 7.72352 7.50485 7.67956 7.50944 7.63602C7.51119 7.61284 7.52147 7.59052 7.51907 7.56712C7.5206 7.58877 7.51425 7.6089 7.50966 7.62946C7.51207 7.65943 7.50266 7.68896 7.50397 7.71871C7.49719 7.77143 7.49129 7.82371 7.48757 7.87709C7.48472 7.91515 7.45169 7.93921 7.41188 7.93856C7.39591 7.93812 7.38235 7.92959 7.36682 7.92849L7.35741 7.9169C7.33225 7.89021 7.33991 7.86724 7.36638 7.84777C7.37054 7.82984 7.37425 7.81059 7.37863 7.79265C7.37469 7.74584 7.37272 7.69946 7.39132 7.65462C7.39591 7.64171 7.39132 7.63493 7.3771 7.63537C7.37384 7.63179 7.37085 7.62799 7.36813 7.62399C7.38585 7.59643 7.40357 7.56865 7.4215 7.54174C7.43006 7.52156 7.43488 7.49999 7.43572 7.47809C7.43638 7.4409 7.44054 7.40393 7.45497 7.36849C7.46092 7.35565 7.47123 7.34534 7.48407 7.3394C7.55625 7.3919 7.55625 7.3919 7.62866 7.33831C7.64053 7.34471 7.65026 7.35444 7.65666 7.3663C7.66708 7.39269 7.6735 7.42049 7.67569 7.44877C7.67606 7.40918 7.68833 7.37061 7.71091 7.33809C7.71614 7.33186 7.7236 7.32793 7.73169 7.32715C7.7505 7.33021 7.76057 7.34115 7.76144 7.36018C7.75904 7.36871 7.7551 7.37549 7.74504 7.37396Z" fill="#BF9200"/>
<path fill-rule="evenodd" clip-rule="evenodd" d="M7.74276 7.64732C7.72569 7.62545 7.70885 7.60336 7.69135 7.58148C7.69507 7.57426 7.69879 7.5677 7.70273 7.56092C7.72351 7.58367 7.73904 7.60882 7.75282 7.63595L7.74276 7.64732ZM7.47173 6.25323C7.51394 6.20642 7.51394 6.14539 7.52335 6.08807C7.53276 6.03361 7.53626 5.9787 7.54216 5.92139C7.56426 5.92904 7.55835 5.94217 7.55769 5.95223C7.55157 6.04082 7.54304 6.12942 7.51745 6.21495C7.51373 6.22829 7.50826 6.2412 7.51373 6.25542C7.50979 6.25914 7.50694 6.26307 7.50344 6.26614H7.48332C7.47173 6.26942 7.46888 6.26417 7.47173 6.25323ZM7.59707 6.14692C7.58219 6.07604 7.59007 6.00517 7.58679 5.92817C7.61544 5.9437 7.6056 5.96076 7.60604 5.97454C7.5881 6.0312 7.60298 6.08982 7.59707 6.14692Z" fill="#BF9200"/>
<path fill-rule="evenodd" clip-rule="evenodd" d="M7.47193 6.25317C7.47571 6.25768 7.47973 6.26199 7.48396 6.26608C7.46209 6.28796 7.4378 6.30502 7.40937 6.31661C7.3958 6.3072 7.39668 6.29736 7.40937 6.28796C7.43562 6.28621 7.45159 6.26564 7.47193 6.25317ZM7.27374 6.48352C7.26565 6.48024 7.25712 6.47739 7.24902 6.47367C7.31202 6.45574 7.37437 6.43867 7.43759 6.42117C7.4483 6.4168 7.45159 6.42074 7.45159 6.43124C7.39455 6.45556 7.33487 6.47311 7.27374 6.48352ZM7.69877 6.44546C7.65751 6.43689 7.61898 6.41834 7.58655 6.39142C7.58765 6.38486 7.59312 6.38442 7.59793 6.38245L7.71277 6.43386C7.71387 6.44458 7.71102 6.45027 7.69877 6.44546Z" fill="#BF9200"/>
<path fill-rule="evenodd" clip-rule="evenodd" d="M7.4515 6.43103C7.44694 6.42753 7.44227 6.42418 7.4375 6.42097L7.53572 6.37109C7.53805 6.37192 7.54019 6.37322 7.542 6.37492C7.54381 6.37661 7.54524 6.37866 7.54622 6.38094C7.51909 6.40719 7.48519 6.41966 7.4515 6.43103ZM7.69869 6.44547L7.71269 6.43409C7.74528 6.44372 7.77875 6.45378 7.81113 6.46297C7.80303 6.46691 7.7945 6.46975 7.78619 6.47347C7.75644 6.46691 7.72559 6.46122 7.69869 6.44547Z" fill="#BF9200"/>
<path fill-rule="evenodd" clip-rule="evenodd" d="M7.54594 6.38094C7.542 6.37765 7.53937 6.37437 7.53544 6.37109C7.56409 6.33128 7.57787 6.36978 7.59756 6.38247L7.58619 6.39144C7.57328 6.38772 7.56344 6.37 7.54594 6.38094ZM7.69206 7.23406C7.70212 7.20103 7.70431 7.168 7.70431 7.13344C7.70344 6.93612 7.70431 6.73947 7.70344 6.54215C7.70344 6.52269 7.71284 6.50059 7.69206 6.48375C7.68922 6.48244 7.68813 6.48112 7.68922 6.47915C7.69009 6.47719 7.69097 6.47631 7.69206 6.47631C7.77519 6.49294 7.85612 6.52094 7.94253 6.52094C7.96528 6.52137 7.96638 6.53603 7.96572 6.55287C7.95478 6.81253 7.86991 7.042 7.69206 7.23406ZM7.41906 6.48353C7.39434 6.48812 7.39828 6.50825 7.39828 6.52422C7.39828 6.73728 7.39938 6.95078 7.39741 7.16384C7.39741 7.1855 7.4125 7.20234 7.41031 7.22334C7.27053 7.07197 7.19353 6.89084 7.15941 6.69069C7.15153 6.64475 7.15044 6.5975 7.14672 6.55047C7.14431 6.52903 7.15219 6.51962 7.17494 6.51962C7.25544 6.51787 7.33222 6.49359 7.40922 6.47412C7.42016 6.46887 7.42125 6.475 7.41906 6.48353ZM7.12594 7.36269C7.12332 7.35557 7.1204 7.34856 7.11719 7.34169C7.15219 7.16669 7.14847 6.98906 7.14781 6.81165L7.15831 6.79962C7.18347 6.86875 7.20906 6.93744 7.23422 7.00612C7.23991 7.01706 7.23378 7.0269 7.23531 7.0374C7.22263 7.12578 7.20031 7.21175 7.16444 7.29422C7.15962 7.30472 7.14913 7.30931 7.14059 7.31587C7.13556 7.33162 7.13097 7.34781 7.12594 7.36269ZM7.745 7.37406C7.7485 7.37034 7.75113 7.3664 7.75463 7.36269C7.79706 7.3489 7.78328 7.31434 7.78328 7.28547C7.78241 7.2555 7.75987 7.25659 7.73887 7.25506C7.73516 7.25408 7.73187 7.25194 7.72947 7.24895C7.72706 7.24595 7.72568 7.24227 7.72553 7.23844C7.78044 7.16515 7.83228 7.08837 7.87712 7.00744C7.8815 7.014 7.88587 7.02122 7.89047 7.02778C7.87565 7.08285 7.86584 7.13916 7.86116 7.196C7.85569 7.27125 7.89003 7.301 7.96134 7.28744C7.96528 7.2964 7.969 7.30625 7.97272 7.31631C7.934 7.38019 7.934 7.38019 7.87647 7.32419C7.86422 7.31237 7.85109 7.30078 7.83184 7.28284L7.80822 7.46112L7.745 7.37406Z" fill="#BF9200"/>
<path fill-rule="evenodd" clip-rule="evenodd" d="M7.13965 7.31549L7.15059 7.28727C7.19915 7.3074 7.22824 7.28137 7.25318 7.24506C7.26477 7.2304 7.27002 7.21049 7.28796 7.20153C7.3013 7.19912 7.31574 7.19978 7.32624 7.18774C7.32912 7.18561 7.33254 7.18435 7.33611 7.18412C7.33968 7.18389 7.34324 7.18469 7.34637 7.18643C7.35709 7.19977 7.37218 7.20962 7.37568 7.22843C7.37551 7.23314 7.37382 7.23767 7.37087 7.24134C7.35555 7.25249 7.33171 7.25293 7.32449 7.27502C7.31224 7.28793 7.3118 7.31243 7.28665 7.3109C7.28096 7.3039 7.28949 7.27459 7.26543 7.29646C7.24686 7.31201 7.22946 7.3289 7.21337 7.34699C7.18646 7.37849 7.1659 7.3844 7.15277 7.33649C7.15037 7.32884 7.14446 7.32249 7.13965 7.31549Z" fill="#BF9200"/>
<path fill-rule="evenodd" clip-rule="evenodd" d="M7.29231 7.20686C7.28662 7.22436 7.28072 7.2412 7.27569 7.25914C7.25928 7.25279 7.25381 7.23814 7.25272 7.22195C7.24669 7.15693 7.23623 7.09239 7.22144 7.02879C7.22515 7.02092 7.22953 7.01392 7.23325 7.00583C7.25731 7.04804 7.28203 7.08917 7.30609 7.13139C7.30854 7.13518 7.3099 7.13957 7.31003 7.14408C7.30434 7.15917 7.305 7.17492 7.30544 7.19089C7.30369 7.19833 7.3004 7.20401 7.29231 7.20686ZM7.36822 7.23179C7.3704 7.22983 7.37281 7.22917 7.37522 7.22786C7.41175 7.26504 7.44806 7.30136 7.48372 7.33876C7.48464 7.35117 7.48149 7.36353 7.47475 7.37398C7.44806 7.36326 7.43122 7.33133 7.39665 7.33876C7.38989 7.33626 7.38428 7.33136 7.3809 7.32498C7.38747 7.29239 7.34831 7.26592 7.36822 7.23179ZM7.72544 7.23836C7.72821 7.24002 7.7306 7.24225 7.73244 7.24492C7.746 7.27445 7.73856 7.30333 7.73156 7.33242L7.7215 7.34401C7.68759 7.33526 7.66331 7.35845 7.63728 7.37442C7.62875 7.36326 7.62831 7.35058 7.62765 7.33811C7.66003 7.30508 7.6935 7.27183 7.72544 7.23836ZM7.42028 7.23836C7.46578 7.24973 7.48984 7.28342 7.50975 7.32236C7.47344 7.30179 7.44697 7.27008 7.42028 7.23836ZM7.58565 6.43226C7.55415 6.40908 7.53184 6.44845 7.50297 6.44364C7.52922 6.4292 7.54869 6.36883 7.58565 6.43226ZM7.51981 7.32148C7.54715 7.35079 7.57362 7.33373 7.59987 7.31908C7.59244 7.34204 7.57669 7.36042 7.55415 7.36042C7.53753 7.35976 7.52069 7.34379 7.51981 7.32148Z" fill="#BF9200"/>
<path fill-rule="evenodd" clip-rule="evenodd" d="M7.3033 7.14871C7.30373 7.14258 7.30483 7.13733 7.3057 7.13165C7.31905 7.15002 7.33173 7.16818 7.34573 7.18655C7.342 7.19028 7.3385 7.19423 7.33523 7.19837C7.30876 7.20012 7.30483 7.1789 7.29761 7.16183C7.29822 7.15701 7.30019 7.15245 7.3033 7.14871ZM7.62923 7.2909C7.64148 7.27077 7.6487 7.24387 7.68129 7.24955C7.66664 7.26727 7.65395 7.28696 7.62923 7.2909ZM7.69223 6.4754V6.48305C7.67364 6.47758 7.65111 6.47846 7.64148 6.45483C7.66018 6.456 7.67799 6.46322 7.69223 6.4754ZM7.41923 6.48349C7.41617 6.48065 7.41289 6.47737 7.40939 6.47452C7.4247 6.46118 7.4422 6.45483 7.46167 6.46599C7.45051 6.47912 7.43411 6.48021 7.41923 6.48349ZM7.38861 7.32043L7.39845 7.33202C7.42733 7.36287 7.42951 7.4029 7.4363 7.44096C7.44001 7.45693 7.43848 7.47377 7.45051 7.48777C7.45008 7.51096 7.43411 7.52518 7.4212 7.5418C7.40917 7.48383 7.4002 7.42521 7.36717 7.37402C7.35733 7.37687 7.35295 7.3703 7.34989 7.36155C7.34989 7.33552 7.35864 7.31824 7.38861 7.32043Z" fill="#BF9200"/>
<path fill-rule="evenodd" clip-rule="evenodd" d="M7.35689 7.36143L7.36739 7.3739C7.35055 7.39884 7.33239 7.44456 7.31008 7.43996C7.27858 7.43231 7.29914 7.38528 7.29061 7.35706C7.28623 7.34218 7.28776 7.326 7.28623 7.3109C7.29192 7.2934 7.29805 7.2759 7.30373 7.25928C7.32933 7.27043 7.32692 7.29428 7.32692 7.31637C7.32692 7.33846 7.33305 7.35487 7.35689 7.36143ZM7.93986 8.264C7.92476 8.26706 7.90661 8.27406 7.90398 8.24934C7.90245 8.22659 7.91711 8.21368 7.93373 8.2034C7.96414 8.18503 7.9602 8.22571 7.98098 8.23534C7.98426 8.19881 8.02495 8.18131 8.01292 8.1415C8.01205 8.13909 8.0208 8.13165 8.0267 8.12903C8.02823 8.12815 8.03676 8.1334 8.0372 8.13625C8.03961 8.17562 8.08664 8.17168 8.09823 8.20143C8.10086 8.20909 8.11289 8.21193 8.11508 8.20668C8.13673 8.16578 8.16911 8.18284 8.2028 8.19268C8.19711 8.16403 8.19186 8.14106 8.18726 8.11831C8.18267 8.09556 8.17501 8.07609 8.1457 8.0879C8.13323 8.09293 8.12405 8.08747 8.12273 8.07631C8.11945 8.06187 8.13455 8.06253 8.14351 8.0599C8.18595 8.04896 8.20389 8.07128 8.2122 8.10956C8.21833 8.14434 8.21155 8.194 8.2752 8.16971C8.27848 8.16818 8.28789 8.17584 8.29051 8.18109C8.29489 8.1905 8.28373 8.19487 8.27958 8.19443C8.22314 8.19093 8.18726 8.25853 8.12623 8.23796C8.11573 8.23512 8.11114 8.2419 8.10764 8.25131C8.09255 8.28806 8.07461 8.29287 8.04201 8.26509C8.01226 8.24015 7.98448 8.25459 7.96436 8.28346C7.94445 8.29003 7.95211 8.26487 7.93986 8.264ZM7.3033 8.3189C7.3453 8.30425 7.37242 8.28653 7.34901 8.24453C7.34158 8.23096 7.34639 8.2185 7.35973 8.21456C7.37198 8.20997 7.37439 8.22353 7.37876 8.23293C7.38314 8.24256 7.3862 8.25437 7.39955 8.25043C7.41333 8.24715 7.40851 8.23403 7.40786 8.2244C7.40676 8.21259 7.40151 8.19837 7.41617 8.19181C7.43323 8.18481 7.43323 8.20428 7.44155 8.21084C7.4667 8.2279 7.4958 8.21718 7.5227 8.21981C7.54676 8.22375 7.57564 8.21718 7.56667 8.25831C7.58942 8.25525 7.58789 8.236 7.60014 8.22921C7.61414 8.22178 7.63208 8.20996 7.64258 8.22178C7.6522 8.23315 7.65133 8.25437 7.65133 8.27165C7.65176 8.2909 7.63536 8.2909 7.62136 8.29156C7.5962 8.292 7.57083 8.28696 7.55398 8.31715C7.54589 8.33115 7.52795 8.33028 7.51286 8.31781C7.4597 8.27603 7.4153 8.2745 7.36433 8.31234C7.34967 8.32371 7.3337 8.32634 7.3033 8.3189ZM7.23811 8.28062C7.24773 8.22746 7.25714 8.18678 7.25451 8.14456C7.25364 8.1299 7.25867 8.11875 7.27158 8.11875C7.29345 8.11875 7.28317 8.13625 7.28164 8.14565C7.27639 8.18875 7.26983 8.2314 7.26261 8.2745C7.25976 8.28915 7.24883 8.299 7.23483 8.30337C7.22105 8.30731 7.21208 8.29943 7.20376 8.28937C7.17095 8.24475 7.12108 8.23228 7.07383 8.26028C7.05808 8.26968 7.0432 8.2769 7.0198 8.26881C7.05173 8.25131 7.07492 8.2314 7.06005 8.19268C7.0572 8.18546 7.06333 8.17365 7.07251 8.17212C7.08367 8.16971 7.08542 8.18109 7.08651 8.18962C7.08892 8.20515 7.09111 8.2209 7.11058 8.22462C7.11998 8.22637 7.1283 8.22637 7.13464 8.21959C7.13989 8.21303 7.13223 8.208 7.1283 8.20253C7.0992 8.15725 7.15936 8.17037 7.16833 8.14609C7.17555 8.12815 7.19895 8.14565 7.19939 8.16118C7.20026 8.18109 7.25933 8.20143 7.20114 8.22156C7.2112 8.2384 7.2217 8.25437 7.23811 8.28062ZM6.85923 8.06471C6.88308 8.04918 6.90976 8.04525 6.92661 8.05421C6.94017 8.06187 6.92355 8.08506 6.91939 8.10168C6.91851 8.10496 6.91698 8.10825 6.91676 8.11196C6.91348 8.1334 6.88701 8.16403 6.91217 8.17562C6.94958 8.19137 6.92989 8.14456 6.94411 8.13253C6.95023 8.12815 6.95855 8.12662 6.97014 8.12181C6.96905 8.1334 6.96948 8.13996 6.96861 8.14653C6.96467 8.1649 6.94586 8.18809 6.97998 8.19575C7.01192 8.2034 7.00623 8.18284 7.00623 8.1625C7.00645 8.14718 7.02505 8.14543 7.03861 8.14478C7.0397 8.14718 7.04145 8.14893 7.04101 8.15046C7.0187 8.24278 7.03314 8.23381 6.94214 8.21193C6.91698 8.20646 6.89226 8.19859 6.86733 8.19093C6.85442 8.18787 6.83605 8.18962 6.83451 8.17125C6.83364 8.152 6.84655 8.13975 6.86448 8.13231C6.87437 8.12996 6.88353 8.12523 6.89117 8.11853C6.91283 8.09359 6.90145 8.07171 6.85923 8.06471ZM7.71105 8.29243C7.66905 8.2815 7.68589 8.25131 7.70055 8.2384C7.7292 8.215 7.72964 8.18962 7.71805 8.16031C7.7117 8.1439 7.7187 8.13537 7.73095 8.1334C7.74605 8.13165 7.74342 8.14675 7.74473 8.15615C7.74823 8.1824 7.75042 8.20778 7.75392 8.23359C7.75501 8.24759 7.75545 8.26443 7.77645 8.25875C7.79176 8.25459 7.79505 8.24409 7.78848 8.23053C7.78345 8.2185 7.77733 8.20559 7.79417 8.20121C7.81692 8.19575 7.81167 8.21675 7.81561 8.22834C7.82939 8.27318 7.80795 8.28806 7.76617 8.28543C7.74998 8.30534 7.7292 8.28937 7.71105 8.29243ZM7.81998 8.3189C7.85258 8.28696 7.87555 8.26334 7.84098 8.23118C7.83092 8.22287 7.83989 8.20668 7.85148 8.20143C7.86373 8.19684 7.8668 8.21084 7.87248 8.21937C7.90136 8.26684 7.88998 8.29834 7.81998 8.3189ZM7.30767 8.11984C7.32364 8.12837 7.33786 8.13275 7.33086 8.15068C7.31795 8.18175 7.31795 8.21478 7.31511 8.24671C7.31423 8.25787 7.31511 8.27471 7.29761 8.27121C7.27967 8.26793 7.28864 8.2524 7.29017 8.2419C7.29192 8.2209 7.29476 8.20078 7.29761 8.18043C7.30067 8.16162 7.3033 8.14303 7.30767 8.11984Z" fill="#BF9200"/>
<path fill-rule="evenodd" clip-rule="evenodd" d="M7.76485 8.29574C7.77535 8.29968 7.78607 8.30821 7.77819 8.31827C7.76485 8.33337 7.74385 8.32111 7.72635 8.32374C7.71497 8.32615 7.71301 8.31149 7.72176 8.30143C7.73466 8.2918 7.74997 8.29443 7.76485 8.29574ZM7.93985 8.26402C7.94794 8.27058 7.95516 8.27737 7.96391 8.28327C7.95429 8.30537 7.93744 8.30755 7.91601 8.30383C7.92082 8.28743 7.95144 8.28808 7.93985 8.26402ZM7.69813 8.15705C7.69572 8.1669 7.69026 8.16908 7.68369 8.1669C7.67976 8.1658 7.67516 8.16011 7.67516 8.15793C7.6756 8.1494 7.68194 8.1459 7.68982 8.14852C7.69332 8.14983 7.69594 8.15399 7.69813 8.15705ZM7.70097 8.1984C7.69682 8.20343 7.69222 8.20933 7.68522 8.2054C7.6791 8.20146 7.67407 8.19621 7.67844 8.18899C7.68194 8.18243 7.68697 8.1774 7.69419 8.18243C7.7001 8.18505 7.70447 8.19052 7.70097 8.1984ZM8.25616 8.2323C8.2531 8.24193 8.24676 8.2439 8.23954 8.24324C8.23297 8.24236 8.22488 8.2393 8.22947 8.23033C8.23188 8.22574 8.23888 8.2218 8.24457 8.22093C8.25244 8.22005 8.25551 8.2264 8.25616 8.2323ZM6.8811 8.21962C6.87716 8.22749 6.87213 8.2323 6.86447 8.22858C6.86097 8.2264 6.85726 8.22049 6.85835 8.21655C6.85988 8.21021 6.86644 8.20627 6.87344 8.21021C6.87716 8.21152 6.87913 8.21677 6.8811 8.21962ZM6.98347 8.24849C6.97844 8.25177 6.97494 8.25636 6.97166 8.2568C6.96335 8.25855 6.95854 8.25243 6.96116 8.24565C6.96247 8.24215 6.9686 8.23908 6.97254 8.23908C6.97538 8.2393 6.97844 8.24455 6.98347 8.24849ZM6.99901 7.96018C7.01394 7.95648 7.02956 7.95656 7.04446 7.96042C7.05936 7.96427 7.07306 7.97179 7.08432 7.98227C7.05282 7.9873 7.02547 7.97637 6.99901 7.96018ZM6.87454 7.92299C6.88843 7.91898 6.90318 7.91905 6.91703 7.9232C6.93088 7.92735 6.94324 7.93541 6.95263 7.9464C6.92529 7.95143 6.9021 7.94093 6.87454 7.92299ZM8.02844 7.97921C8.05272 7.96018 8.08226 7.9558 8.11179 7.95449C8.11266 7.95886 8.11441 7.96302 8.1155 7.9674L8.03282 7.99168L8.02844 7.97921ZM8.15335 7.94924C8.17785 7.92365 8.20257 7.91796 8.23801 7.92015C8.22695 7.93099 8.21361 7.93922 8.19896 7.94426C8.18432 7.94929 8.16874 7.95099 8.15335 7.94924ZM7.25297 8.04483H7.42032C7.36556 8.05992 7.30774 8.05992 7.25297 8.04483ZM7.51329 7.62483C7.51042 7.62524 7.50758 7.62575 7.50476 7.62636L7.5181 7.53296C7.52532 7.57408 7.52882 7.60033 7.51329 7.62483ZM7.58941 7.5929V7.54521C7.6021 7.55812 7.59685 7.5708 7.59904 7.58262C7.60407 7.59355 7.59816 7.59465 7.58941 7.5929Z" fill="#BF9200"/>
<path fill-rule="evenodd" clip-rule="evenodd" d="M7.58921 7.59304C7.5923 7.58951 7.59551 7.58608 7.59884 7.58276C7.60264 7.5874 7.60527 7.59287 7.60653 7.59873C7.60779 7.60459 7.60762 7.61067 7.60606 7.61645C7.60314 7.61966 7.6 7.62266 7.59665 7.62542C7.58812 7.61645 7.58746 7.60464 7.58921 7.59304ZM7.3009 8.00801C7.27011 8.01469 7.23832 8.01536 7.20728 8.00998C7.24009 7.98439 7.26699 7.98351 7.3009 8.00801ZM7.41268 8.01326C7.39037 8.02376 7.36631 8.02223 7.34093 8.02376C7.34465 8.00342 7.35734 8.00451 7.36893 8.00451C7.38228 8.01129 7.39999 7.99948 7.41268 8.01326Z" fill="#BF9200"/>
<path fill-rule="evenodd" clip-rule="evenodd" d="M7.41289 8.01321C7.3978 8.01081 7.38183 8.01321 7.36914 8.00446C7.38664 8.00337 7.40348 8.00228 7.42033 8.00228C7.42492 8.00228 7.43061 8.00687 7.42252 8.01125C7.42011 8.01321 7.41617 8.01212 7.41289 8.01321ZM7.89742 8.00468C7.87005 8.01452 7.84038 8.01612 7.81211 8.00928C7.84252 7.9804 7.86942 7.99178 7.89742 8.00468ZM7.74517 8.00446C7.75567 8.00228 7.76442 8.00665 7.77689 8.01934C7.75142 8.02527 7.72474 8.02313 7.70055 8.01321C7.71345 7.99943 7.73095 8.01125 7.74517 8.00446Z" fill="#BF9200"/>
<path fill-rule="evenodd" clip-rule="evenodd" d="M7.74513 8.00453C7.73135 8.01328 7.7156 8.01088 7.7005 8.01328C7.69613 8.01088 7.6771 8.01219 7.69197 8.00453C7.70532 7.99644 7.72653 8.00344 7.74513 8.00453ZM7.30325 7.15578C7.29188 7.16431 7.29669 7.177 7.29275 7.1875C7.28532 7.1735 7.28028 7.15885 7.28728 7.14441C7.29013 7.13741 7.29822 7.14528 7.30325 7.14878V7.15578ZM7.17178 8.17691C7.17616 8.18172 7.18075 8.18456 7.18163 8.1885C7.18622 8.19922 7.17703 8.19922 7.17091 8.19835C7.16741 8.19835 7.16194 8.19244 7.16238 8.18938C7.16282 8.18544 7.16741 8.18172 7.17178 8.17691Z" fill="#BF9200"/>
</g>
<defs>
<clipPath id="clip0_26101_13778">
<rect width="14" height="14" fill="white" transform="translate(0.5)"/>
</clipPath>
</defs>
</svg>
