<svg width="290" height="184" viewBox="0 0 290 184" fill="none" xmlns="http://www.w3.org/2000/svg">
<mask id="mask0_26361_9368" style="mask-type:luminance" maskUnits="userSpaceOnUse" x="233" y="97" width="27" height="87">
<path d="M233.82 97.4102H259.154V183.999H233.82V97.4102Z" fill="white"/>
</mask>
<g mask="url(#mask0_26361_9368)">
<path d="M258.039 141.067C258.039 127.322 258.013 113.572 258.071 99.8219C258.081 98.3375 257.789 97.8167 256.169 97.8427C249.68 97.9417 243.196 97.9208 236.706 97.8531C235.352 97.8427 234.789 98.0615 234.794 99.6136C234.841 127.108 234.841 154.603 234.794 182.098C234.794 183.634 235.336 183.874 236.701 183.858C243.185 183.796 249.675 183.775 256.164 183.874C257.768 183.895 258.081 183.395 258.071 181.895C258.013 168.285 258.039 154.676 258.039 141.067Z" fill="#004225"/>
</g>
<mask id="mask1_26361_9368" style="mask-type:luminance" maskUnits="userSpaceOnUse" x="139" y="97" width="26" height="87">
<path d="M139.154 97.4102H164.487V183.999H139.154V97.4102Z" fill="white"/>
</mask>
<g mask="url(#mask1_26361_9368)">
<path d="M161.675 97.7738C155.321 97.8415 148.966 97.8676 142.612 97.7634C140.836 97.7321 140.274 98.128 140.289 100.008C140.378 113.628 140.336 127.243 140.336 140.857C140.336 154.545 140.352 168.227 140.305 181.914C140.3 183.368 140.555 183.972 142.206 183.946C148.696 183.847 155.19 183.868 161.68 183.935C163.091 183.946 163.576 183.597 163.576 182.112C163.529 154.602 163.529 127.092 163.576 99.5863C163.576 98.0915 163.071 97.7582 161.675 97.7738Z" fill="#4C7B67"/>
</g>
<mask id="mask2_26361_9368" style="mask-type:luminance" maskUnits="userSpaceOnUse" x="201" y="105" width="27" height="79">
<path d="M201.82 105.41H227.154V183.999H201.82V105.41Z" fill="white"/>
</mask>
<g mask="url(#mask2_26361_9368)">
<path d="M226.159 107.307C226.159 105.765 225.581 105.531 224.232 105.541C218.024 105.598 211.81 105.651 205.596 105.52C203.581 105.479 202.914 105.89 202.94 108.072C203.06 120.239 202.997 132.411 202.997 144.578C202.997 156.953 203.024 169.328 202.966 181.703C202.956 183.375 203.393 183.973 205.159 183.947C211.503 183.854 217.862 183.885 224.211 183.937C225.544 183.947 226.164 183.739 226.164 182.171C226.112 157.218 226.112 132.26 226.159 107.307Z" fill="#4C7B67"/>
</g>
<mask id="mask3_26361_9368" style="mask-type:luminance" maskUnits="userSpaceOnUse" x="171" y="125" width="25" height="59">
<path d="M171.154 125.41H195.154V183.999H171.154V125.41Z" fill="white"/>
</mask>
<g mask="url(#mask3_26361_9368)">
<path d="M192.706 126.737C186.279 126.831 179.862 126.81 173.44 126.748C172.018 126.732 171.539 127.107 171.544 128.581C171.591 146.399 171.591 164.211 171.544 182.024C171.544 183.503 172.024 183.873 173.44 183.857C179.867 183.795 186.284 183.774 192.706 183.868C194.399 183.894 194.94 183.467 194.925 181.711C194.836 172.909 194.883 164.107 194.883 155.3C194.883 146.498 194.836 137.696 194.925 128.894C194.94 127.138 194.399 126.711 192.706 126.737Z" fill="#98B3A8"/>
</g>
<mask id="mask4_26361_9368" style="mask-type:luminance" maskUnits="userSpaceOnUse" x="265" y="138" width="25" height="47">
<path d="M265.82 138.746H289.487V184.001H265.82V138.746Z" fill="white"/>
</mask>
<g mask="url(#mask4_26361_9368)">
<path d="M287.612 138.975C281.128 139.043 274.643 139.058 268.164 138.97C266.487 138.944 265.925 139.355 265.951 141.111C266.055 147.84 265.992 154.574 265.992 161.303C265.992 168.178 266.029 175.043 265.966 181.913C265.951 183.402 266.362 183.965 267.94 183.949C274.492 183.876 281.044 183.876 287.596 183.944C289.065 183.959 289.487 183.444 289.477 182.027C289.44 168.293 289.44 154.553 289.487 140.814C289.492 139.35 289.044 138.959 287.612 138.975Z" fill="#FFB000"/>
</g>
<path d="M196.935 35.3324C196.94 34.8532 196.977 34.3689 196.951 33.8897C196.654 27.9939 191.654 23.4782 186.216 24.1866C178.279 25.223 174.721 32.3636 178.544 39.5928L180.966 42.0928C186.596 45.5095 191.659 44.3636 195.888 38.7178C196.237 37.5928 196.586 36.4678 196.935 35.3324ZM186.935 38.8741C184.185 38.9053 182.086 36.9001 182.018 34.1657C181.951 31.4157 184.164 29.1189 186.888 29.1032C189.466 29.0928 191.81 31.3324 191.893 33.9001C191.977 36.5355 189.68 38.8376 186.935 38.8741Z" fill="#4C7B67"/>
<path d="M8.33074 146.431C3.84116 147.415 0.492203 151.546 0.513036 156.238C0.528661 160.968 4.00262 165.056 8.73179 165.91C13.4557 166.764 18.0339 164.28 19.7214 159.952C21.4349 155.551 20.2526 151.806 17.1172 148.504L14.0182 146.754C12.138 146.311 10.2891 146.004 8.33074 146.431ZM15.487 156.322C15.362 159.046 13.0287 161.155 10.2526 161.051C7.57554 160.947 5.57033 158.764 5.63804 156.009C5.70054 153.358 7.95574 151.165 10.5755 151.218C13.237 151.275 15.6016 153.733 15.487 156.322Z" fill="#4C7B67"/>
<path d="M268.044 22.6158C269.747 23.3866 271.471 23.9127 273.404 23.871C278.143 23.7669 282.148 20.5116 283.065 15.8502C283.914 11.4908 281.45 6.6731 277.471 4.9231C273.003 2.95956 267.794 4.30331 265.122 8.17831C262.263 12.3294 262.784 16.4231 265.487 20.4283L268.044 22.6158ZM273.393 8.99081C275.982 9.08456 278.128 11.3658 278.107 13.996C278.086 16.8241 275.919 18.9596 273.148 18.8919C270.466 18.8189 268.174 16.4648 268.247 13.845C268.315 11.2981 270.862 8.89706 273.393 8.99081Z" fill="#4C7B67"/>
<path d="M241.112 67.8171C246.211 64.6244 247.091 58.0567 243.133 52.7234L240.503 50.6348C236.154 48.7703 232.148 49.2546 228.534 52.39L226.503 55.265C226.331 55.9213 226.143 56.5775 225.992 57.2442C225.07 61.2963 226.57 65.2703 229.888 67.5723C233.331 69.963 237.534 70.0567 241.112 67.8171ZM230.69 59.5411C230.685 56.8432 232.945 54.6192 235.68 54.6244C238.518 54.6296 240.643 56.7338 240.633 59.5359C240.628 62.1609 238.211 64.4994 235.581 64.4369C233.081 64.3796 230.69 61.9838 230.685 59.5411H230.69Z" fill="#FFB000"/>
<path d="M87.284 106.542C83.0704 105.26 79.3204 106.021 76.0756 109.047L74.1694 112.167C74.0965 112.505 74.034 112.844 73.9402 113.177C72.5756 118.234 75.0548 123.229 79.8517 125.088C84.7736 126.995 90.159 124.963 92.4454 120.24C94.6017 115.786 93.4663 111.865 90.2631 108.354L87.284 106.542ZM83.4975 120.838C80.8673 120.802 78.534 118.396 78.5809 115.781C78.6329 113.083 80.9559 110.87 83.6642 110.932C86.1902 110.995 88.5288 113.359 88.5236 115.854C88.5236 118.448 86.0756 120.875 83.4975 120.838Z" fill="#FFB000"/>
<path d="M123.357 61.4623C123.086 60.9155 122.841 60.353 122.544 59.8217C120.648 56.3582 117.789 54.4051 113.758 54.3946C109.685 54.379 106.549 56.1551 104.732 59.7488C102.617 63.9363 103.555 67.8373 106.414 71.3894L109.289 73.4051C111.523 74.103 113.789 74.603 116.112 73.9519C120.622 72.6759 122.935 69.504 123.706 65.0405C123.586 63.8478 123.471 62.6551 123.357 61.4623ZM113.643 69.2436C110.914 69.228 108.654 66.9676 108.664 64.2748C108.674 61.5769 110.961 59.3321 113.68 59.3373C116.258 59.3478 118.492 61.5873 118.534 64.2071C118.586 66.9051 116.299 69.2592 113.643 69.2436Z" fill="#4C7B67"/>
<path d="M160.581 59.9257C154.201 56.7226 148.404 58.6966 145.617 65.0247L144.951 68.3424C145.076 69.082 145.159 69.832 145.326 70.5664C146.779 76.9257 154.024 80.1914 159.768 77.1184C164.294 74.6966 167.143 68.3893 163.086 62.2486C162.248 61.4726 161.414 60.7018 160.581 59.9257ZM155.097 73.3216C152.487 73.358 150.097 70.9674 150.107 68.3476C150.128 65.5611 152.289 63.4466 155.107 63.4674C157.909 63.4882 160.039 65.6653 159.987 68.4518C159.935 70.9882 157.628 73.2851 155.097 73.3216Z" fill="#4C7B67"/>
<path d="M50.4037 97.3596C49.2058 91.5992 43.6016 88.2554 37.9037 89.7971C31.0027 91.6669 27.5704 100.886 34.2527 107.125L37.2579 108.886C44.4037 109.813 47.3412 108.318 50.3464 102.229C50.487 100.99 50.6224 99.7554 50.7631 98.521C50.6381 98.1304 50.487 97.7502 50.4037 97.3596ZM45.5964 99.5158C45.5183 102.141 43.2683 104.328 40.6589 104.328C37.9662 104.328 35.685 102.011 35.7214 99.3127C35.7631 96.6096 38.0756 94.3648 40.7631 94.4221C43.4506 94.4846 45.6745 96.8335 45.5964 99.5158Z" fill="#4C7B67"/>
<path d="M109.346 167.129C94.7942 167.145 80.2369 167.139 65.6848 167.113C64.2734 167.108 63.6015 167.29 63.5859 168.968C63.5703 170.785 64.5026 170.728 65.7734 170.723C73.0182 170.697 80.2578 170.712 87.5026 170.712C94.7473 170.712 101.987 170.712 109.232 170.712C110.45 170.712 111.7 171.025 111.721 168.983C111.742 167.04 110.669 167.124 109.346 167.129Z" fill="#4C7B67"/>
<path d="M109.628 174.14C102.247 174.171 94.8672 174.155 87.4818 174.155C80.1693 174.155 72.862 174.181 65.5443 174.129C64.1797 174.119 63.586 174.384 63.6016 175.916C63.612 177.369 64.06 177.765 65.4922 177.759C80.185 177.713 94.8777 177.707 109.57 177.749C110.971 177.754 111.732 177.535 111.711 175.864C111.695 174.244 110.883 174.134 109.628 174.14Z" fill="#4C7B67"/>
<path d="M65.3254 148.937C80.1692 148.884 95.0129 148.884 109.857 148.926C111.122 148.926 111.706 148.702 111.706 147.254C111.706 145.812 111.133 145.572 109.862 145.582C102.476 145.629 95.0858 145.603 87.7004 145.603C80.2421 145.603 72.7838 145.624 65.3306 145.582C64.1431 145.577 63.591 145.796 63.6171 147.15C63.6379 148.431 63.9035 148.942 65.3254 148.937Z" fill="#4C7B67"/>
<path d="M65.6954 155.931C80.336 155.915 94.9714 155.915 109.607 155.931C110.763 155.931 111.701 156.066 111.721 154.322C111.747 152.447 110.706 152.613 109.497 152.613C102.247 152.629 94.9975 152.629 87.7475 152.624C80.4297 152.624 73.112 152.629 65.7943 152.613C64.5704 152.613 63.5652 152.467 63.5964 154.332C63.6172 156.077 64.5443 155.931 65.6954 155.931Z" fill="#4C7B67"/>
<path d="M34.2525 107.125C27.5077 120.339 20.7629 133.547 14.0129 146.76C15.3723 146.766 16.3515 147.448 17.1119 148.505C19.3723 144.036 21.6379 139.573 23.8984 135.104C28.3463 126.365 32.7994 117.625 37.2577 108.885C35.9869 108.755 34.8411 108.417 34.2525 107.125Z" fill="#4C7B67"/>
<path d="M14.0129 146.762L17.1119 148.507C16.3515 147.449 15.3723 146.767 14.0129 146.762Z" fill="#4C7B67"/>
<path d="M34.2527 107.125C34.8412 108.417 35.9871 108.755 37.2579 108.885L34.2527 107.125Z" fill="#4C7B67"/>
<path d="M106.414 71.3906L87.2839 106.542C88.6954 106.464 89.5808 107.245 90.2631 108.354L109.284 73.4062C107.94 73.2865 106.982 72.6146 106.414 71.3906Z" fill="#4C7B67"/>
<path d="M87.2839 106.541L90.2631 108.353C89.5808 107.244 88.6954 106.462 87.2839 106.541Z" fill="#4C7B67"/>
<path d="M106.414 71.3906C106.982 72.6094 107.94 73.2812 109.289 73.4062L106.414 71.3906Z" fill="#4C7B67"/>
<path d="M243.133 52.7227C251.44 42.6862 259.742 32.6497 268.044 22.6133C266.69 22.4622 265.857 21.7122 265.487 20.4258C260.612 26.2539 255.711 32.0612 250.862 37.9102C247.372 42.1237 243.956 46.3893 240.502 50.6341C241.877 50.7122 242.607 51.5872 243.133 52.7227Z" fill="#4C7B67"/>
<path d="M268.044 22.6133L265.487 20.4258C265.857 21.7122 266.69 22.4622 268.044 22.6133Z" fill="#4C7B67"/>
<path d="M243.133 52.7253C242.607 51.5898 241.877 50.7148 240.502 50.6367L243.133 52.7253Z" fill="#4C7B67"/>
<path d="M228.534 52.3919C227.846 52.0742 227.138 51.793 226.476 51.4336C216.627 46.0742 206.778 40.7096 196.94 35.3398C197.289 36.6836 196.831 37.7826 195.893 38.7305L226.502 55.2669C226.627 53.9232 227.294 52.9544 228.534 52.3919Z" fill="#4C7B67"/>
<path d="M196.935 35.332C196.586 36.4622 196.237 37.5924 195.888 38.7227C196.831 37.7747 197.284 36.681 196.935 35.332Z" fill="#4C7B67"/>
<path d="M228.534 52.3906C227.294 52.9531 226.627 53.9167 226.502 55.2656L228.534 52.3906Z" fill="#4C7B67"/>
<path d="M76.0756 109.046L50.7631 98.5195C50.9923 99.7956 51.3256 101.082 50.3464 102.223C53.0131 102.91 55.435 104.207 57.9558 105.249C63.3829 107.493 68.7683 109.858 74.1694 112.171C74.2266 110.78 74.7527 109.671 76.0756 109.046Z" fill="#4C7B67"/>
<path d="M74.1692 112.172L76.0754 109.047C74.7525 109.672 74.2265 110.781 74.1692 112.172Z" fill="#4C7B67"/>
<path d="M50.7631 98.5195C50.6225 99.7539 50.4871 100.988 50.3464 102.223C51.3256 101.082 50.9923 99.7956 50.7631 98.5195Z" fill="#4C7B67"/>
<path d="M178.544 39.5977C176.492 41.9049 174.445 44.2122 172.398 46.5195C168.456 50.9831 164.513 55.4518 160.581 59.9258C161.956 60.1185 162.617 61.0768 163.081 62.2487L180.966 42.0977C179.476 41.9206 178.799 40.957 178.544 39.5977Z" fill="#4C7B67"/>
<path d="M178.544 39.5977C178.8 40.9622 179.477 41.9206 180.966 42.0924L178.544 39.5977Z" fill="#4C7B67"/>
<path d="M160.581 59.9258C161.414 60.6966 162.252 61.4727 163.081 62.2487C162.617 61.0768 161.956 60.1185 160.581 59.9258Z" fill="#4C7B67"/>
<path d="M54.1381 146.016C49.7214 146.016 49.7214 146.016 49.7214 150.333C49.7214 154.943 49.7214 154.943 54.3256 154.943C58.9506 154.943 58.9506 154.943 58.9506 150.76C58.9506 146.016 58.9506 146.016 54.1381 146.016Z" fill="#FFB000"/>
<path d="M54.2162 168.047C49.7214 168.047 49.7214 168.047 49.7214 172.562C49.7214 176.979 49.7214 176.979 54.2475 176.979C58.9506 176.979 58.9506 176.979 58.9506 172.734C58.9506 168.047 58.9506 168.047 54.2162 168.047Z" fill="#FFB000"/>
<path d="M145.612 65.0273L123.357 61.4648C124.128 62.5951 124.065 63.8034 123.706 65.0378L144.945 68.3398C144.576 67.1211 144.576 65.9701 145.612 65.0273Z" fill="#4C7B67"/>
<path d="M123.357 61.4648C123.472 62.6576 123.586 63.8503 123.706 65.043C124.07 63.8034 124.128 62.5951 123.357 61.4648Z" fill="#4C7B67"/>
<path d="M145.612 65.0273C144.576 65.9701 144.576 67.1211 144.946 68.3451L145.612 65.0273Z" fill="#4C7B67"/>
<path d="M40.3047 41.9023C35.1484 41.9023 29.9453 41.918 24.6641 41.918C26.9974 58.8659 35.4505 69.5951 50.0078 74.8398C63.4557 79.6888 76.3099 77.8971 88.6432 68.0638C84.9661 64.4284 81.388 60.8815 77.862 57.3919C75.8151 58.9492 73.5703 60.1367 71.1328 60.9544C68.6953 61.7773 66.1901 62.1836 63.6172 62.1784C51.7005 62.1784 41.8568 53.3503 40.3047 41.9023Z" fill="#FEC84D"/>
<mask id="mask5_26361_9368" style="mask-type:luminance" maskUnits="userSpaceOnUse" x="65" y="0" width="39" height="65">
<path d="M65.8203 0H103.154V64.0781H65.8203V0Z" fill="white"/>
</mask>
<g mask="url(#mask5_26361_9368)">
<path d="M87.1431 38.7246C87.1484 41.3079 86.7317 43.8236 85.8984 46.2663C85.065 48.7142 83.8567 50.959 82.2786 53.0059C85.6848 56.4902 89.1015 59.9798 92.5181 63.4694C103.122 51.9329 105.497 36.1465 98.8619 22.36C92.6275 9.4069 82.3619 1.9069 66.7473 0.0214844C66.7473 5.31836 66.7369 10.4486 66.7317 15.4798C78.2525 17.0007 87.1431 26.8288 87.1431 38.7246Z" fill="#004225"/>
</g>
<path d="M59.6485 15.6055V0.855531C41.8516 0.819074 25.7839 16.7826 25.6746 34.6732H40.435C42.1381 24.9389 49.8621 17.2618 59.6485 15.6055Z" fill="#4C7B67"/>
</svg>
