<svg width="120" height="200" viewBox="0 0 120 200" fill="none" xmlns="http://www.w3.org/2000/svg">
<mask id="mask0_26359_8878" style="mask-type:luminance" maskUnits="userSpaceOnUse" x="26" y="177" width="68" height="23">
<path d="M26.7576 177.154H93.4992V200H26.7576V177.154Z" fill="white"/>
</mask>
<g mask="url(#mask0_26359_8878)">
<path d="M91.5578 200.001C92.5126 196.134 93.1282 192.208 93.3728 188.254C93.6056 184.561 93.5148 180.852 93.0848 177.163L27.1441 178.24C26.8916 180.758 26.7969 183.279 26.789 185.828C26.7811 190.354 27.0928 195.424 27.5465 200.001H59.7001L61.0969 193.846L61.9255 193.676C61.7913 194.406 61.7913 195.144 61.8781 195.889C62.032 197.203 62.4818 198.715 63.0579 200.001H91.5578Z" fill="#141414"/>
</g>
<mask id="mask1_26359_8878" style="mask-type:luminance" maskUnits="userSpaceOnUse" x="3" y="53" width="114" height="81">
<path d="M3.19385 53.0537H116.803V133.495H3.19385V53.0537Z" fill="white"/>
</mask>
<g mask="url(#mask1_26359_8878)">
<path d="M65.97 53.1254C70.9455 52.8413 76.0473 54.3525 81.1136 55.9624C85.5486 57.375 89.952 58.8704 93.9924 61.0208C97.2989 62.7806 100.333 64.927 102.689 67.9416C106.682 73.0513 108.599 80.5836 110.292 88.1751C111.2 92.255 112.052 96.3546 113.173 100.375C114.127 103.8 115.287 107.166 116.053 110.603C116.672 113.376 117.027 116.17 116.645 118.857C116.152 122.309 114.522 125.498 111.772 127.427C107.597 130.355 101.142 130.201 94.462 130.059C69.4501 129.53 41.8104 129.325 20.5076 132.777C17.5009 133.267 14.6797 133.882 12.0401 133.065C6.78833 131.444 2.91759 125.166 3.20957 117.93C3.39897 113.294 5.43101 108.72 6.94221 103.871C8.53628 98.7654 9.51087 93.4545 10.2487 88.1239C11.1444 81.6529 11.7126 75.1859 14.7192 70.7706C16.6644 67.91 19.6119 65.9529 22.6895 64.1458C28.1464 60.9458 33.9585 58.4442 40.0112 56.3925C42.059 55.698 44.1384 55.0391 46.1034 55.2245C47.5317 55.3548 48.893 55.9584 50.4713 56.0965C54.6064 56.4674 60.1816 53.5634 65.97 53.1254Z" fill="#4C7B67"/>
</g>
<path d="M62.6753 4.52546C65.4649 4.75431 68.1046 5.89462 70.0143 7.86353C71.6123 9.51678 72.6185 11.7027 73.3406 14.0741C74.6032 18.2328 74.8676 22.8572 74.7137 27.5447C75.4081 27.0081 76.2407 26.8818 76.8483 27.1896C77.2744 27.4066 77.5704 27.8367 77.7677 28.3496C78.1701 29.3913 78.1425 30.7447 77.7913 32.0152C77.4796 33.1516 76.9469 34.2209 76.5682 35.3533C76.1618 36.5646 75.9881 37.8115 75.2463 38.4033C74.4967 39.0031 73.4234 38.9202 72.658 38.0955C72.4331 39.1885 72.3107 40.3012 72.1608 41.406C71.636 45.3872 70.7916 49.3014 71.8807 51.6017C72.3739 52.6513 73.2774 53.326 73.5773 54.2769C74.1534 56.1195 72.7211 58.6408 70.4326 60.5664C68.2269 62.4169 65.4452 63.4822 62.5057 64.224C58.7178 65.1749 54.8707 65.5498 51.4813 64.4647C49.0666 63.6953 46.9556 62.2235 45.4444 60.2231C44.5329 59.0157 43.8306 57.6505 43.511 56.1274C45.0301 55.7881 46.3322 54.9634 47.2831 53.8231C48.3642 52.5368 48.9324 50.8639 49.2757 49.1277C49.5953 47.5218 49.6663 45.8883 49.5164 44.2469C49.0902 43.3433 48.7115 42.424 48.3721 41.4849C47.9302 40.2657 47.5554 39.0188 47.2318 37.7562C46.565 37.7681 45.9889 37.4958 45.547 36.971C44.5093 35.7202 44.3633 33.045 43.8582 30.4211C43.5071 28.5785 42.8955 26.8187 43.5702 26.1479C44.1818 25.5364 45.6101 25.777 46.9201 26.874C45.2984 20.8725 46.1862 15.0447 49.6426 10.6176C52.8387 6.52593 57.7116 4.11116 62.6753 4.52546Z" fill="#F7BD9A"/>
<path d="M64.2892 20.5533C64.6601 20.2574 65.2164 20.2179 65.7925 20.2377C68.1204 20.3284 70.117 21.4766 70.7799 22.8063C71.0363 23.3232 71.0679 23.8046 70.839 24.0492C70.5076 24.3964 69.6435 24.1439 68.7005 23.9309C67.7298 23.7099 66.7552 23.5323 65.7767 23.3548C65.2282 23.2522 64.6956 23.1535 64.3286 22.8734C63.5198 22.2618 63.504 21.1649 64.2892 20.5533Z" fill="#141414"/>
<path d="M56.603 19.8626C56.2518 19.5391 55.7073 19.4523 55.1431 19.4286C52.8388 19.3418 50.8067 20.4545 50.0255 21.8473C49.7256 22.3839 49.6506 22.8969 49.8716 23.1652C50.1754 23.5321 51.0514 23.3348 51.9904 23.177C52.9611 23.0152 53.9396 22.889 54.9182 22.7509C55.4666 22.6759 55.9953 22.593 56.386 22.3366C57.2935 21.7329 57.3842 20.5689 56.603 19.8626Z" fill="#141414"/>
<path d="M67.1538 26.1398C67.1578 25.323 66.6409 24.6641 66.0056 24.6641C65.3704 24.6641 64.8574 25.323 64.8574 26.1398C64.8574 26.9565 65.3704 27.6155 66.0056 27.6155C66.6409 27.6155 67.1578 26.9565 67.1538 26.1398Z" fill="#222222"/>
<path d="M54.7879 25.8761C54.7879 25.0593 54.271 24.4004 53.6397 24.4004C53.0044 24.4004 52.4915 25.0593 52.4915 25.8761C52.4915 26.6928 53.0044 27.3557 53.6397 27.3557C54.271 27.3518 54.7879 26.6928 54.7879 25.8761Z" fill="#222222"/>
<path d="M59.2937 25.9029C59.1241 27.568 58.8084 29.2094 58.2166 30.7404C57.7549 31.9359 57.1197 33.0289 57.3603 33.8851C57.7431 35.2385 59.9053 35.8856 62.4227 35.2385" stroke="#004225" stroke-width="0.725501"/>
<path d="M67.8757 13.2778C65.9936 12.828 63.6775 14.276 61.2903 14.1932C59.7594 14.1419 58.2285 13.4672 56.6344 13.1752C54.3459 12.753 52.0653 13.0963 50.7277 14.4615C49.1573 16.0674 49.1257 19.0543 48.7588 22.0767C48.4944 24.2232 48.088 26.342 47.8986 28.4885C47.5356 32.6039 48.0288 36.4746 49.7018 37.6544C50.266 38.0568 50.9565 38.1199 51.6431 38.0489C52.4243 37.97 53.1858 37.7017 53.9631 37.4689C55.4862 37.0112 57.0605 36.7074 58.6151 36.7824C60.1895 36.8573 61.7441 37.315 63.2908 37.7846C64.4982 38.1476 65.7095 38.5185 66.909 38.8183C67.6153 38.992 68.3058 39.1616 68.9687 38.9446C70.6298 38.4119 71.9832 35.6578 72.6974 32.521C73.1196 30.6626 73.305 28.7568 73.2774 26.8392C73.2419 24.7006 72.9578 22.5778 72.504 20.4787C72.1647 18.9044 71.7346 17.3695 70.9613 16.024C70.2076 14.7101 69.1699 13.6171 67.8757 13.2778ZM45.9218 26.5038C45.764 23.3591 45.7719 20.1946 46.1388 17.1682C46.344 15.4676 46.6517 13.8065 47.1331 12.1769C45.8981 10.8512 45.5943 9.11111 46.1388 7.53677C46.924 5.26404 49.4611 3.61079 52.2902 2.36C55.8492 0.78172 59.6134 0.000469357 63.2553 0.600217C66.5894 1.15262 69.5526 2.90846 71.8372 5.62705C74.3743 7.33554 76.1104 9.82528 76.7812 12.5912C77.3809 15.0573 77.0534 17.7325 76.6904 20.4195C76.3748 22.7435 76.0197 25.0597 75.5817 27.3679C74.8517 28.2872 74.3743 29.3684 74.0389 30.5087C73.3602 32.8169 73.4115 35.4605 72.8631 38.0174C72.6658 38.9367 72.3857 39.8521 72.0463 40.736C70.8429 43.9004 68.8779 46.6348 66.2935 48.8641C64.9598 50.0163 63.4841 50.9672 61.8703 51.5433C60.6274 51.9891 59.3214 52.1943 58.0904 51.9497C57.0605 51.7484 56.1017 51.2315 55.1863 50.6278C53.6672 49.6296 52.2941 48.4064 51.138 46.9938C50.12 45.7588 49.2678 44.3936 48.668 42.9219C47.9933 41.2686 47.6263 39.4931 47.4014 37.6938C47.1055 35.283 47.0897 32.8603 46.7583 30.4613C46.5689 29.1277 46.3243 27.794 45.9218 26.5038Z" fill="#141414"/>
<path d="M57.0331 39.0625C58.5364 38.6443 60.1147 38.6443 61.5785 39.1217C62.9358 39.5597 64.1038 40.3567 64.522 41.501C64.8811 42.4913 64.6404 43.6277 63.9854 44.5194C63.0937 45.7308 61.7837 46.2042 61.0656 45.644C60.6592 45.3244 60.5448 44.6457 60.162 44.1998C59.6057 43.5488 58.7297 43.4225 58.1694 43.896C57.7038 44.2906 57.621 45.1271 57.1712 45.4309C56.6306 45.7939 55.7231 45.4269 54.9537 44.7049C53.9317 43.7461 53.4385 42.4203 53.8449 41.3116C54.2592 40.187 55.5613 39.4768 57.0331 39.0625Z" fill="#F7BD9A"/>
<path d="M62.6161 41.1933C61.4916 41.4892 60.3434 41.5839 59.211 41.4616C58.1496 41.3472 57.1198 41.0394 56.1531 40.5462" stroke="#004225" stroke-width="0.725501"/>
<path d="M68.0494 18.3633C67.0708 17.9529 66.0252 17.7635 64.9835 17.732C63.8709 17.7004 62.7463 17.8938 61.6179 18.0161C60.5012 18.1423 59.3728 18.2212 58.2482 18.1976C57.0448 18.1739 55.8334 18.0634 54.6418 17.8346" stroke="#004225" stroke-width="0.725501"/>
<path d="M64.0247 16.5487C63.5354 16.3751 63.0185 16.3159 62.5056 16.3356C61.8743 16.3553 61.243 16.525 60.6038 16.6236C60.1184 16.6947 59.6292 16.7302 59.1438 16.7025C58.6191 16.6749 58.0982 16.5802 57.5892 16.4461C57.0368 16.308 56.5042 16.1225 55.936 16.0357C55.0442 15.8976 54.0736 15.9884 53.1345 16.2172" stroke="#004225" stroke-width="0.725501"/>
<path d="M46.1702 29.8419C45.9453 30.0313 45.7678 30.2602 45.6336 30.5127C45.4758 30.8165 45.385 31.1479 45.4048 31.4794C45.4206 31.7516 45.5074 32.02 45.6691 32.237C45.8349 32.4579 46.0795 32.6158 46.2531 32.8367C46.5017 33.1484 46.6279 33.5825 46.624 34.0283" stroke="#004225" stroke-width="0.725501"/>
<path d="M74.9031 30.9232C75.0964 31.1639 75.2582 31.4204 75.3884 31.6966C75.5383 32.0122 75.6488 32.3476 75.6646 32.6869C75.6843 33.0539 75.6015 33.4129 75.3765 33.6536C75.0964 33.9535 74.6032 34.0324 74.2362 34.3007C73.8259 34.5967 73.5655 35.1056 73.5615 35.6738" stroke="#004225" stroke-width="0.725501"/>
<path d="M100.223 73.4053L15.24 75.8477L19.5132 183.112L103.576 179.821L100.223 73.4053Z" fill="#E4EDEA"/>
<path d="M108.513 108.499C108.453 108.286 108.457 108.057 108.469 107.828C108.513 106.972 108.69 106.136 108.382 105.544C107.905 104.628 106.346 104.36 104.685 104.202C103.438 104.084 102.191 104.032 100.925 104.218C98.9797 104.51 97.0266 105.358 95.0103 106.029C93.5267 106.518 92.0313 106.901 90.8831 107.757C89.944 108.46 89.3167 109.347 89.5218 110.093C89.6678 110.618 90.1808 110.957 90.8121 110.847C89.5258 111.304 88.6459 112.129 88.638 112.958C88.634 113.372 88.8708 113.751 89.1943 114.055C89.439 114.283 89.7309 114.473 90.0624 114.571C89.7033 114.97 89.5337 115.467 89.585 115.921C89.6205 116.272 89.7941 116.596 90.1058 116.836C90.8318 117.404 92.2523 117.44 93.7714 117.12C93.9963 117.842 94.4776 118.415 95.0853 118.793C95.8823 119.287 96.9161 119.397 97.9262 119.618C99.0547 119.867 100.175 120.19 101.252 120.612C101.17 121.106 101.174 121.599 101.237 122.1C101.343 122.98 101.647 123.879 102.03 124.747C102.665 125.028 103.348 125.095 104.014 125.028C105.202 124.917 106.295 124.353 106.978 123.437C107.783 122.36 107.948 120.833 108.28 119.306C108.438 118.58 108.631 117.858 108.785 117.128C108.939 116.386 109.053 115.633 109.077 114.879C109.096 114.331 109.065 113.778 109.144 113.246C109.266 112.382 109.68 111.569 109.609 110.815C109.558 110.267 109.254 109.754 108.923 109.257C108.757 109.008 108.587 108.767 108.513 108.499Z" fill="#F7BD9A"/>
<path d="M104.397 107.903C103.439 107.887 102.48 107.906 101.525 107.776C100.171 107.599 98.822 107.39 97.6699 107.67C96.8571 107.871 96.1547 108.36 95.3932 108.79C93.9609 109.607 92.3511 110.258 90.7412 110.814" stroke="#004225" stroke-width="0.725501"/>
<path d="M103.427 111.904C102.152 111.62 100.85 111.549 99.5795 111.707C98.5142 111.841 97.4686 112.161 96.423 112.476C94.9828 112.91 93.5544 113.36 92.1576 113.861C91.4711 114.11 90.8003 114.374 90.1375 114.654" stroke="#004225" stroke-width="0.725501"/>
<path d="M104.389 116.56C103.221 116.469 102.057 116.391 100.889 116.316C99.899 116.252 98.9086 116.189 97.9301 116.264C96.7148 116.359 95.5114 116.643 94.3513 117.081" stroke="#004225" stroke-width="0.725501"/>
<path d="M103.789 121.188C103.316 121.251 102.842 121.259 102.385 121.18C102.065 121.125 101.753 121.026 101.461 120.88" stroke="#004225" stroke-width="0.725501"/>
<mask id="mask2_26359_8878" style="mask-type:luminance" maskUnits="userSpaceOnUse" x="105" y="103" width="12" height="9">
<path d="M105.613 103.268H116.818V111.348H105.613V103.268Z" fill="white"/>
</mask>
<g mask="url(#mask2_26359_8878)">
<path d="M113.689 107.252C113.125 107.027 112.529 106.937 111.922 106.933C110.927 106.933 109.893 107.201 108.899 107.6" stroke="#E4EDEA" stroke-width="0.725501"/>
</g>
<path d="M108.544 120.995C108.521 122.222 108.319 123.418 107.941 124.57C107.495 125.935 106.883 127.202 105.818 127.821C104.804 128.413 103.525 128.389 102.436 127.659" stroke="#E4EDEA" stroke-width="0.725501"/>
<path d="M99.3585 67.3375C98.9048 68.0951 98.5378 68.9 98.2498 69.7326C97.9144 70.7032 97.6895 71.7133 97.5632 72.7432" stroke="#E4EDEA" stroke-width="0.725501"/>
<path d="M76.5051 57.1024C75.353 59.5606 73.5932 61.5729 71.5454 63.238C66.4357 67.3928 60.1581 69.2512 54.0974 68.0123C48.5735 66.8838 43.9491 63.2419 41.3015 57.7298" stroke="#E4EDEA" stroke-width="0.725501"/>
<mask id="mask3_26359_8878" style="mask-type:luminance" maskUnits="userSpaceOnUse" x="3" y="105" width="10" height="10">
<path d="M3.18188 105.285H12.6831V114.376H3.18188V105.285Z" fill="white"/>
</mask>
<g mask="url(#mask3_26359_8878)">
<path d="M9.56979 109.127C9.05684 108.922 8.51628 108.894 7.98756 109.005C7.14712 109.178 6.35009 109.707 5.66748 110.409" stroke="#E4EDEA" stroke-width="0.725501"/>
</g>
<path d="M9.32534 117.87C8.84791 119.231 8.70586 120.644 8.84396 122.045C9.06097 124.234 9.89746 126.278 11.3811 127.793C12.6042 129.048 14.2101 129.869 16.033 130.094" stroke="#E4EDEA" stroke-width="0.725501"/>
<path d="M9.34908 110.231C9.85018 108.925 11.9493 108.25 14.2654 107.88C15.9858 107.607 17.7298 107.517 19.4659 107.694C21.4703 107.899 23.4313 108.44 25.4357 108.807C26.5563 109.012 27.6414 109.118 27.9925 109.734C28.2806 110.247 28.0833 110.965 27.4204 111.415C28.0912 111.36 28.7462 111.446 29.3657 111.667C30.0719 111.916 30.6954 112.295 30.936 112.867C31.2004 113.502 30.9913 114.228 30.3639 114.694C30.7901 115.013 30.9834 115.483 30.9203 115.968C30.8256 116.675 30.21 117.27 29.4367 117.704C28.9514 117.981 28.4187 118.154 27.8505 118.209C27.7519 118.849 27.4323 119.393 26.9824 119.882C26.0868 120.857 24.4611 121.544 22.8986 122.191C21.1231 122.925 19.2883 123.682 18.2388 124.854C17.643 125.521 17.2287 126.306 17.1576 127.202C16.8578 127.624 16.3843 127.809 15.9147 127.782C15.2321 127.738 14.5811 127.217 14.0997 126.539C13.7998 126.109 13.5789 125.623 13.2238 125.268C12.9278 124.972 12.5333 124.775 12.2965 124.436C11.8941 123.86 11.9493 122.885 11.6652 122.017C11.4521 121.386 11.0457 120.814 10.7893 120.182C10.4854 119.433 10.375 118.604 10.442 117.767C10.1422 117.507 9.92121 117.176 9.74365 116.832C9.3767 116.13 9.23465 115.345 9.49507 114.733C9.66474 114.339 10.0001 114.027 10.0396 113.672C10.0751 113.36 9.8778 113.021 9.70814 112.67C9.31357 111.837 9.06893 110.957 9.34908 110.231Z" fill="#F7BD9A"/>
<path d="M26.9034 111.332C25.7631 111.308 24.6267 111.3 23.4864 111.257C22.208 111.21 20.9335 111.158 19.663 111.233C18.0847 111.332 16.5104 111.64 14.9834 112.121" stroke="#004225" stroke-width="0.725501"/>
<path d="M29.843 114.736C28.9316 114.863 28.0122 114.902 27.0929 114.906C25.5501 114.91 24.0073 114.76 22.4843 114.859C21.2217 114.938 19.9748 115.182 18.7319 115.458C17.5956 115.711 16.4631 115.987 15.3386 116.295" stroke="#004225" stroke-width="0.725501"/>
<path d="M27.2626 118.146C25.9881 118.284 24.7215 118.458 23.4628 118.675C22.1055 118.904 20.76 119.176 19.4264 119.511C18.0848 119.851 16.763 120.249 15.4609 120.711" stroke="#004225" stroke-width="0.725501"/>
<path d="M74.686 88.5849C74.252 88.289 73.6759 88.2298 73.0367 88.2495L42.86 89.1728C42.5364 89.1847 42.2405 89.2399 42.0235 89.4056C41.7512 89.6108 41.6171 89.962 41.6289 90.3565L42.2602 109.592C42.2681 109.86 42.3667 110.101 42.5325 110.294C42.7061 110.491 42.9389 110.622 43.1993 110.614L74.1691 109.659C74.69 109.643 75.1674 109.564 75.5265 109.3C75.8145 109.087 76.0078 108.775 76 108.412L75.5107 90.3447C75.491 89.5911 75.2108 88.94 74.686 88.5849Z" fill="#4C7B67"/>
<path d="M73.3012 89.7448C72.8987 89.4805 72.37 89.4292 71.7821 89.445L44.1148 90.1512C43.8189 90.1591 43.5506 90.2065 43.3493 90.3525C43.1047 90.534 42.9784 90.8417 42.9903 91.1969L43.6531 108.223C43.661 108.463 43.7557 108.676 43.9096 108.846C44.0674 109.024 44.2845 109.142 44.5212 109.134L72.9185 108.4C73.3959 108.388 73.8299 108.321 74.1614 108.088C74.4257 107.899 74.5993 107.623 74.5914 107.303L74.0627 91.3073C74.039 90.6366 73.7747 90.0605 73.3012 89.7448Z" fill="#4C7B67"/>
<path d="M73.3012 89.7452C72.8987 89.4808 72.37 89.4295 71.7821 89.4453L44.1148 90.1516C43.8189 90.1595 43.5506 90.2068 43.3493 90.3528C43.1047 90.5343 42.9784 90.8421 42.9903 91.1972L43.6531 108.223C43.661 108.464 43.7557 108.677 43.9096 108.846C44.0674 109.024 44.2845 109.142 44.5212 109.134L72.9185 108.4C73.3959 108.389 73.8299 108.322 74.1614 108.089C74.4257 107.899 74.5993 107.623 74.5914 107.304L74.0627 91.3077C74.039 90.6369 73.7747 90.0609 73.3012 89.7452Z" stroke="#E4EDEA" stroke-width="1.08825"/>
<path d="M75.3568 162.768L47.1726 163.726L47.4251 171.282L75.6093 170.324L75.3568 162.768Z" fill="#B2C7BE"/>
<path d="M85.0594 154.222C68.5703 154.837 52.0812 155.457 35.592 156.072" stroke="#B2C7BE" stroke-width="1.08825"/>
<path d="M75.3371 149.238C65.6385 149.463 55.94 149.684 46.2454 149.909" stroke="#B2C7BE" stroke-width="1.08825"/>
<path d="M55.1152 94.2275L64.2456 98.8716L55.4348 104.916L55.1152 94.2275Z" fill="#E4EDEA"/>
<mask id="mask4_26359_8878" style="mask-type:luminance" maskUnits="userSpaceOnUse" x="45" y="0" width="28" height="11">
<path d="M45.0063 0H72.2791V10.3378H45.0063V0Z" fill="white"/>
</mask>
<g mask="url(#mask4_26359_8878)">
<path d="M68.6726 5.24194C66.609 3.45848 64.1508 2.39708 61.5545 2.08143C58.4887 1.70658 55.3755 2.3892 52.4754 3.73863C50.9287 4.45674 49.4806 5.3761 48.1943 6.53613" stroke="#868989" stroke-width="0.725501"/>
</g>
<mask id="mask5_26359_8878" style="mask-type:luminance" maskUnits="userSpaceOnUse" x="50" y="0" width="18" height="10">
<path d="M50.0569 0H67.2286V9.32765H50.0569V0Z" fill="white"/>
</mask>
<g mask="url(#mask5_26359_8878)">
<path d="M63.6183 4.10235C62.1466 3.38818 60.5565 3.11592 58.9782 3.22245C56.9698 3.35661 55.0246 4.11023 53.249 5.29395" stroke="#868989" stroke-width="0.725501"/>
</g>
<path d="M72.283 8.29773C73.5022 9.20524 74.3387 10.4324 74.8635 11.8725C75.8262 14.5083 75.6684 17.8661 74.8635 21.2002" stroke="#868989" stroke-width="0.725501"/>
<path d="M56.5514 49.5381C55.0402 48.6937 53.6869 47.6323 52.5268 46.3776C51.4141 45.1741 50.4948 43.7971 49.7964 42.2859" stroke="#868989" stroke-width="0.725501"/>
</svg>
